G75*
%MOIN*%
%OFA0B0*%
%FSLAX25Y25*%
%IPPOS*%
%LPD*%
%AMOC8*
5,1,8,0,0,1.08239X$1,22.5*
%
%ADD10C,0.00800*%
%ADD11C,0.07400*%
%ADD12C,0.03100*%
%ADD13C,0.01000*%
%ADD14C,0.00700*%
D10*
X0149496Y0065434D02*
X0150196Y0064733D01*
X0151597Y0064733D01*
X0152298Y0065434D01*
X0149496Y0068236D01*
X0149496Y0065434D01*
X0152298Y0065434D02*
X0152298Y0068236D01*
X0151597Y0068937D01*
X0150196Y0068937D01*
X0149496Y0068236D01*
X0154100Y0064733D02*
X0156902Y0064733D01*
X0155501Y0064733D02*
X0155501Y0068937D01*
X0156902Y0067536D01*
X0158704Y0068937D02*
X0161506Y0064733D01*
X0158704Y0064733D02*
X0161506Y0068937D01*
X0271496Y0068236D02*
X0274298Y0065434D01*
X0273597Y0064733D01*
X0272196Y0064733D01*
X0271496Y0065434D01*
X0271496Y0068236D01*
X0272196Y0068937D01*
X0273597Y0068937D01*
X0274298Y0068236D01*
X0274298Y0065434D01*
X0276100Y0064733D02*
X0278902Y0064733D01*
X0277501Y0064733D02*
X0277501Y0068937D01*
X0278902Y0067536D01*
X0280704Y0068937D02*
X0283506Y0064733D01*
X0280704Y0064733D02*
X0283506Y0068937D01*
X0393496Y0068236D02*
X0396298Y0065434D01*
X0395597Y0064733D01*
X0394196Y0064733D01*
X0393496Y0065434D01*
X0393496Y0068236D01*
X0394196Y0068937D01*
X0395597Y0068937D01*
X0396298Y0068236D01*
X0396298Y0065434D01*
X0398100Y0064733D02*
X0400902Y0064733D01*
X0399501Y0064733D02*
X0399501Y0068937D01*
X0400902Y0067536D01*
X0402704Y0068937D02*
X0405506Y0064733D01*
X0402704Y0064733D02*
X0405506Y0068937D01*
X0405506Y0166733D02*
X0402704Y0170937D01*
X0400902Y0169536D02*
X0399501Y0170937D01*
X0399501Y0166733D01*
X0400902Y0166733D02*
X0398100Y0166733D01*
X0396298Y0167434D02*
X0395597Y0166733D01*
X0394196Y0166733D01*
X0393496Y0167434D01*
X0393496Y0170236D01*
X0396298Y0167434D01*
X0396298Y0170236D01*
X0395597Y0170937D01*
X0394196Y0170937D01*
X0393496Y0170236D01*
X0402704Y0166733D02*
X0405506Y0170937D01*
X0405506Y0268733D02*
X0402704Y0272937D01*
X0400902Y0271536D02*
X0399501Y0272937D01*
X0399501Y0268733D01*
X0400902Y0268733D02*
X0398100Y0268733D01*
X0396298Y0269434D02*
X0395597Y0268733D01*
X0394196Y0268733D01*
X0393496Y0269434D01*
X0393496Y0272236D01*
X0396298Y0269434D01*
X0396298Y0272236D01*
X0395597Y0272937D01*
X0394196Y0272937D01*
X0393496Y0272236D01*
X0402704Y0268733D02*
X0405506Y0272937D01*
X0283506Y0272937D02*
X0280704Y0268733D01*
X0278902Y0268733D02*
X0276100Y0268733D01*
X0277501Y0268733D02*
X0277501Y0272937D01*
X0278902Y0271536D01*
X0280704Y0272937D02*
X0283506Y0268733D01*
X0274298Y0269434D02*
X0273597Y0268733D01*
X0272196Y0268733D01*
X0271496Y0269434D01*
X0271496Y0272236D01*
X0274298Y0269434D01*
X0274298Y0272236D01*
X0273597Y0272937D01*
X0272196Y0272937D01*
X0271496Y0272236D01*
X0161506Y0272937D02*
X0158704Y0268733D01*
X0156902Y0268733D02*
X0154100Y0268733D01*
X0155501Y0268733D02*
X0155501Y0272937D01*
X0156902Y0271536D01*
X0158704Y0272937D02*
X0161506Y0268733D01*
X0152298Y0269434D02*
X0151597Y0268733D01*
X0150196Y0268733D01*
X0149496Y0269434D01*
X0149496Y0272236D01*
X0152298Y0269434D01*
X0152298Y0272236D01*
X0151597Y0272937D01*
X0150196Y0272937D01*
X0149496Y0272236D01*
X0150196Y0170937D02*
X0149496Y0170236D01*
X0152298Y0167434D01*
X0151597Y0166733D01*
X0150196Y0166733D01*
X0149496Y0167434D01*
X0149496Y0170236D01*
X0150196Y0170937D02*
X0151597Y0170937D01*
X0152298Y0170236D01*
X0152298Y0167434D01*
X0154100Y0166733D02*
X0156902Y0166733D01*
X0155501Y0166733D02*
X0155501Y0170937D01*
X0156902Y0169536D01*
X0158704Y0170937D02*
X0161506Y0166733D01*
X0158704Y0166733D02*
X0161506Y0170937D01*
X0271496Y0170236D02*
X0274298Y0167434D01*
X0273597Y0166733D01*
X0272196Y0166733D01*
X0271496Y0167434D01*
X0271496Y0170236D01*
X0272196Y0170937D01*
X0273597Y0170937D01*
X0274298Y0170236D01*
X0274298Y0167434D01*
X0276100Y0166733D02*
X0278902Y0166733D01*
X0277501Y0166733D02*
X0277501Y0170937D01*
X0278902Y0169536D01*
X0280704Y0170937D02*
X0283506Y0166733D01*
X0280704Y0166733D02*
X0283506Y0170937D01*
D11*
X0246500Y0168833D03*
X0236500Y0168833D03*
X0226500Y0168833D03*
X0216500Y0168833D03*
X0206500Y0168833D03*
X0206500Y0156833D03*
X0216500Y0156833D03*
X0226500Y0156833D03*
X0236500Y0156833D03*
X0246500Y0156833D03*
X0328500Y0156833D03*
X0338500Y0156833D03*
X0348500Y0156833D03*
X0358500Y0156833D03*
X0368500Y0156833D03*
X0368500Y0168833D03*
X0358500Y0168833D03*
X0348500Y0168833D03*
X0338500Y0168833D03*
X0328500Y0168833D03*
X0328500Y0258833D03*
X0338500Y0258833D03*
X0348500Y0258833D03*
X0358500Y0258833D03*
X0368500Y0258833D03*
X0368500Y0270833D03*
X0358500Y0270833D03*
X0348500Y0270833D03*
X0338500Y0270833D03*
X0328500Y0270833D03*
X0246500Y0270833D03*
X0236500Y0270833D03*
X0226500Y0270833D03*
X0216500Y0270833D03*
X0206500Y0270833D03*
X0206500Y0258833D03*
X0216500Y0258833D03*
X0226500Y0258833D03*
X0236500Y0258833D03*
X0246500Y0258833D03*
X0124500Y0258833D03*
X0114500Y0258833D03*
X0104500Y0258833D03*
X0094500Y0258833D03*
X0084500Y0258833D03*
X0084500Y0270833D03*
X0094500Y0270833D03*
X0104500Y0270833D03*
X0114500Y0270833D03*
X0124500Y0270833D03*
X0124500Y0360833D03*
X0114500Y0360833D03*
X0104500Y0360833D03*
X0094500Y0360833D03*
X0084500Y0360833D03*
X0206500Y0360833D03*
X0216500Y0360833D03*
X0226500Y0360833D03*
X0236500Y0360833D03*
X0246500Y0360833D03*
X0328500Y0360833D03*
X0338500Y0360833D03*
X0348500Y0360833D03*
X0358500Y0360833D03*
X0368500Y0360833D03*
X0124500Y0168833D03*
X0114500Y0168833D03*
X0104500Y0168833D03*
X0094500Y0168833D03*
X0084500Y0168833D03*
X0084500Y0156833D03*
X0094500Y0156833D03*
X0104500Y0156833D03*
X0114500Y0156833D03*
X0124500Y0156833D03*
X0124500Y0066833D03*
X0114500Y0066833D03*
X0104500Y0066833D03*
X0094500Y0066833D03*
X0084500Y0066833D03*
X0206500Y0066833D03*
X0216500Y0066833D03*
X0226500Y0066833D03*
X0236500Y0066833D03*
X0246500Y0066833D03*
X0328500Y0066833D03*
X0338500Y0066833D03*
X0348500Y0066833D03*
X0358500Y0066833D03*
X0368500Y0066833D03*
D12*
X0363500Y0071833D03*
X0371500Y0074333D03*
X0368500Y0081833D03*
X0383500Y0078333D03*
X0388500Y0086833D03*
X0388500Y0101833D03*
X0381500Y0105833D03*
X0380000Y0116833D03*
X0378500Y0126833D03*
X0386000Y0139333D03*
X0363500Y0126833D03*
X0353500Y0126833D03*
X0343500Y0126833D03*
X0333500Y0126833D03*
X0333500Y0116833D03*
X0333500Y0106833D03*
X0343500Y0106833D03*
X0353500Y0106833D03*
X0363500Y0106833D03*
X0363500Y0116833D03*
X0353500Y0116833D03*
X0343500Y0116833D03*
X0343500Y0096833D03*
X0353500Y0096833D03*
X0363500Y0096833D03*
X0343500Y0075333D03*
X0323500Y0075333D03*
X0333500Y0096833D03*
X0316000Y0106833D03*
X0313500Y0101833D03*
X0308500Y0096833D03*
X0298500Y0081833D03*
X0266500Y0086833D03*
X0261500Y0078333D03*
X0261500Y0066833D03*
X0249500Y0074333D03*
X0241500Y0071833D03*
X0246500Y0081833D03*
X0241500Y0096833D03*
X0231500Y0096833D03*
X0221500Y0096833D03*
X0211500Y0096833D03*
X0211500Y0106833D03*
X0221500Y0106833D03*
X0231500Y0106833D03*
X0241500Y0106833D03*
X0241500Y0116833D03*
X0231500Y0116833D03*
X0221500Y0116833D03*
X0211500Y0116833D03*
X0211500Y0126833D03*
X0221500Y0126833D03*
X0231500Y0126833D03*
X0241500Y0126833D03*
X0256500Y0126833D03*
X0258000Y0116833D03*
X0259500Y0105833D03*
X0266500Y0101833D03*
X0276500Y0106833D03*
X0274000Y0113833D03*
X0298500Y0116833D03*
X0308500Y0126833D03*
X0318500Y0141833D03*
X0321000Y0156833D03*
X0323500Y0177333D03*
X0343500Y0177333D03*
X0363500Y0173833D03*
X0371500Y0176333D03*
X0368500Y0183833D03*
X0383500Y0180333D03*
X0388500Y0188833D03*
X0388500Y0203833D03*
X0381500Y0207833D03*
X0380000Y0218833D03*
X0378500Y0228833D03*
X0386000Y0241333D03*
X0363500Y0228833D03*
X0353500Y0228833D03*
X0343500Y0228833D03*
X0333500Y0228833D03*
X0333500Y0218833D03*
X0333500Y0208833D03*
X0343500Y0208833D03*
X0353500Y0208833D03*
X0363500Y0208833D03*
X0363500Y0218833D03*
X0353500Y0218833D03*
X0343500Y0218833D03*
X0343500Y0198833D03*
X0353500Y0198833D03*
X0363500Y0198833D03*
X0333500Y0198833D03*
X0316000Y0208833D03*
X0313500Y0203833D03*
X0308500Y0198833D03*
X0298500Y0183833D03*
X0266500Y0188833D03*
X0261500Y0180333D03*
X0261500Y0168833D03*
X0249500Y0176333D03*
X0241500Y0173833D03*
X0246500Y0183833D03*
X0241500Y0198833D03*
X0231500Y0198833D03*
X0221500Y0198833D03*
X0211500Y0198833D03*
X0211500Y0208833D03*
X0221500Y0208833D03*
X0231500Y0208833D03*
X0241500Y0208833D03*
X0241500Y0218833D03*
X0231500Y0218833D03*
X0221500Y0218833D03*
X0211500Y0218833D03*
X0211500Y0228833D03*
X0221500Y0228833D03*
X0231500Y0228833D03*
X0241500Y0228833D03*
X0256500Y0228833D03*
X0258000Y0218833D03*
X0259500Y0207833D03*
X0266500Y0203833D03*
X0276500Y0208833D03*
X0274000Y0215833D03*
X0298500Y0218833D03*
X0308500Y0228833D03*
X0318500Y0243833D03*
X0321000Y0258833D03*
X0323500Y0279333D03*
X0343500Y0279333D03*
X0363500Y0275833D03*
X0371500Y0278333D03*
X0368500Y0285833D03*
X0383500Y0282333D03*
X0388500Y0290833D03*
X0388500Y0305833D03*
X0381500Y0309833D03*
X0380000Y0320833D03*
X0378500Y0330833D03*
X0386000Y0343333D03*
X0363500Y0330833D03*
X0353500Y0330833D03*
X0343500Y0330833D03*
X0333500Y0330833D03*
X0333500Y0320833D03*
X0333500Y0310833D03*
X0343500Y0310833D03*
X0353500Y0310833D03*
X0363500Y0310833D03*
X0363500Y0320833D03*
X0353500Y0320833D03*
X0343500Y0320833D03*
X0343500Y0300833D03*
X0353500Y0300833D03*
X0363500Y0300833D03*
X0333500Y0300833D03*
X0316000Y0310833D03*
X0313500Y0305833D03*
X0308500Y0300833D03*
X0298500Y0285833D03*
X0266500Y0290833D03*
X0261500Y0282333D03*
X0261500Y0270833D03*
X0249500Y0278333D03*
X0241500Y0275833D03*
X0246500Y0285833D03*
X0241500Y0300833D03*
X0231500Y0300833D03*
X0221500Y0300833D03*
X0211500Y0300833D03*
X0211500Y0310833D03*
X0221500Y0310833D03*
X0231500Y0310833D03*
X0241500Y0310833D03*
X0241500Y0320833D03*
X0231500Y0320833D03*
X0221500Y0320833D03*
X0211500Y0320833D03*
X0211500Y0330833D03*
X0221500Y0330833D03*
X0231500Y0330833D03*
X0241500Y0330833D03*
X0256500Y0330833D03*
X0258000Y0320833D03*
X0259500Y0309833D03*
X0266500Y0305833D03*
X0276500Y0310833D03*
X0274000Y0317833D03*
X0298500Y0320833D03*
X0308500Y0330833D03*
X0318500Y0345833D03*
X0321000Y0360833D03*
X0296000Y0355833D03*
X0264000Y0343333D03*
X0315000Y0317333D03*
X0383500Y0270833D03*
X0398500Y0310833D03*
X0396000Y0317833D03*
X0296000Y0253833D03*
X0264000Y0241333D03*
X0221500Y0279333D03*
X0201500Y0279333D03*
X0199000Y0258833D03*
X0196500Y0243833D03*
X0186500Y0228833D03*
X0176500Y0218833D03*
X0191500Y0203833D03*
X0194000Y0208833D03*
X0193000Y0215333D03*
X0186500Y0198833D03*
X0176500Y0183833D03*
X0201500Y0177333D03*
X0221500Y0177333D03*
X0199000Y0156833D03*
X0196500Y0141833D03*
X0186500Y0126833D03*
X0176500Y0116833D03*
X0191500Y0101833D03*
X0186500Y0096833D03*
X0194000Y0106833D03*
X0193000Y0113333D03*
X0176500Y0081833D03*
X0201500Y0075333D03*
X0221500Y0075333D03*
X0154500Y0106833D03*
X0152000Y0113833D03*
X0144500Y0101833D03*
X0137500Y0105833D03*
X0136000Y0116833D03*
X0134500Y0126833D03*
X0142000Y0139333D03*
X0119500Y0126833D03*
X0109500Y0126833D03*
X0099500Y0126833D03*
X0089500Y0126833D03*
X0089500Y0116833D03*
X0089500Y0106833D03*
X0099500Y0106833D03*
X0109500Y0106833D03*
X0119500Y0106833D03*
X0119500Y0116833D03*
X0109500Y0116833D03*
X0099500Y0116833D03*
X0099500Y0096833D03*
X0089500Y0096833D03*
X0109500Y0096833D03*
X0119500Y0096833D03*
X0124500Y0081833D03*
X0127500Y0074333D03*
X0119500Y0071833D03*
X0099500Y0075333D03*
X0079500Y0075333D03*
X0054500Y0081833D03*
X0064500Y0096833D03*
X0069500Y0101833D03*
X0072000Y0106833D03*
X0071000Y0113333D03*
X0054500Y0116833D03*
X0064500Y0126833D03*
X0074500Y0141833D03*
X0077000Y0156833D03*
X0052000Y0151833D03*
X0079500Y0177333D03*
X0099500Y0177333D03*
X0119500Y0173833D03*
X0127500Y0176333D03*
X0124500Y0183833D03*
X0139500Y0180333D03*
X0144500Y0188833D03*
X0144500Y0203833D03*
X0137500Y0207833D03*
X0136000Y0218833D03*
X0134500Y0228833D03*
X0142000Y0241333D03*
X0119500Y0228833D03*
X0109500Y0228833D03*
X0099500Y0228833D03*
X0089500Y0228833D03*
X0089500Y0218833D03*
X0089500Y0208833D03*
X0099500Y0208833D03*
X0109500Y0208833D03*
X0119500Y0208833D03*
X0119500Y0218833D03*
X0109500Y0218833D03*
X0099500Y0218833D03*
X0099500Y0198833D03*
X0089500Y0198833D03*
X0109500Y0198833D03*
X0119500Y0198833D03*
X0139500Y0168833D03*
X0174000Y0151833D03*
X0154500Y0208833D03*
X0152000Y0215833D03*
X0174000Y0253833D03*
X0139500Y0270833D03*
X0127500Y0278333D03*
X0124500Y0285833D03*
X0119500Y0275833D03*
X0099500Y0279333D03*
X0079500Y0279333D03*
X0077000Y0258833D03*
X0074500Y0243833D03*
X0064500Y0228833D03*
X0054500Y0218833D03*
X0071000Y0215333D03*
X0072000Y0208833D03*
X0069500Y0203833D03*
X0064500Y0198833D03*
X0054500Y0183833D03*
X0052000Y0253833D03*
X0054500Y0285833D03*
X0064500Y0300833D03*
X0069500Y0305833D03*
X0072000Y0310833D03*
X0071000Y0317333D03*
X0054500Y0320833D03*
X0064500Y0330833D03*
X0074500Y0345833D03*
X0089500Y0330833D03*
X0099500Y0330833D03*
X0109500Y0330833D03*
X0119500Y0330833D03*
X0119500Y0320833D03*
X0109500Y0320833D03*
X0109500Y0310833D03*
X0119500Y0310833D03*
X0119500Y0300833D03*
X0109500Y0300833D03*
X0099500Y0300833D03*
X0089500Y0300833D03*
X0089500Y0310833D03*
X0099500Y0310833D03*
X0099500Y0320833D03*
X0089500Y0320833D03*
X0134500Y0330833D03*
X0136000Y0320833D03*
X0137500Y0309833D03*
X0144500Y0305833D03*
X0154500Y0310833D03*
X0152000Y0317833D03*
X0176500Y0320833D03*
X0186500Y0330833D03*
X0196500Y0345833D03*
X0199000Y0360833D03*
X0174000Y0355833D03*
X0142000Y0343333D03*
X0191500Y0305833D03*
X0194000Y0310833D03*
X0193000Y0317333D03*
X0186500Y0300833D03*
X0176500Y0285833D03*
X0144500Y0290833D03*
X0139500Y0282333D03*
X0052000Y0355833D03*
X0077000Y0360833D03*
X0315000Y0215333D03*
X0383500Y0168833D03*
X0398500Y0208833D03*
X0396000Y0215833D03*
X0296000Y0151833D03*
X0264000Y0139333D03*
X0315000Y0113333D03*
X0383500Y0066833D03*
X0398500Y0106833D03*
X0396000Y0113833D03*
X0144500Y0086833D03*
X0139500Y0078333D03*
X0139500Y0066833D03*
D13*
X0049400Y0066733D02*
X0049400Y0156933D01*
X0054743Y0156933D01*
X0054250Y0156079D01*
X0053500Y0153282D01*
X0053500Y0150385D01*
X0054250Y0147587D01*
X0055698Y0145079D01*
X0057746Y0143031D01*
X0060254Y0141583D01*
X0063052Y0140833D01*
X0065948Y0140833D01*
X0068746Y0141583D01*
X0071254Y0143031D01*
X0071637Y0143414D01*
X0071250Y0142480D01*
X0071250Y0141695D01*
X0063589Y0134033D01*
X0062300Y0132745D01*
X0062300Y0129230D01*
X0061745Y0128674D01*
X0061250Y0127480D01*
X0061250Y0126187D01*
X0061745Y0124992D01*
X0062659Y0124078D01*
X0063854Y0123583D01*
X0065146Y0123583D01*
X0066341Y0124078D01*
X0067255Y0124992D01*
X0067750Y0126187D01*
X0067750Y0127480D01*
X0067255Y0128674D01*
X0066700Y0129230D01*
X0066700Y0130922D01*
X0074361Y0138583D01*
X0075146Y0138583D01*
X0076341Y0139078D01*
X0077255Y0139992D01*
X0077750Y0141187D01*
X0077750Y0141972D01*
X0080411Y0144633D01*
X0123589Y0144633D01*
X0132300Y0135922D01*
X0132300Y0129230D01*
X0131745Y0128674D01*
X0131250Y0127480D01*
X0131250Y0126187D01*
X0131745Y0124992D01*
X0132659Y0124078D01*
X0133498Y0123731D01*
X0130450Y0120682D01*
X0130450Y0118984D01*
X0130450Y0085182D01*
X0129151Y0083883D01*
X0127046Y0083883D01*
X0126341Y0084589D01*
X0125146Y0085083D01*
X0123854Y0085083D01*
X0122659Y0084589D01*
X0121745Y0083674D01*
X0121250Y0082480D01*
X0121250Y0081187D01*
X0121745Y0079992D01*
X0122659Y0079078D01*
X0123129Y0078883D01*
X0118651Y0078883D01*
X0117450Y0077682D01*
X0113651Y0073883D01*
X0102417Y0073883D01*
X0102750Y0074687D01*
X0102750Y0075980D01*
X0102255Y0077174D01*
X0101341Y0078089D01*
X0100146Y0078583D01*
X0098854Y0078583D01*
X0097659Y0078089D01*
X0096954Y0077383D01*
X0082046Y0077383D01*
X0081341Y0078089D01*
X0080146Y0078583D01*
X0078854Y0078583D01*
X0077659Y0078089D01*
X0076954Y0077383D01*
X0075196Y0077383D01*
X0074050Y0078529D01*
X0074050Y0104287D01*
X0074755Y0104992D01*
X0075250Y0106187D01*
X0075250Y0107480D01*
X0074755Y0108674D01*
X0073841Y0109589D01*
X0072646Y0110083D01*
X0071354Y0110083D01*
X0070159Y0109589D01*
X0069245Y0108674D01*
X0068750Y0107480D01*
X0068750Y0106187D01*
X0069207Y0105083D01*
X0068854Y0105083D01*
X0067659Y0104589D01*
X0066745Y0103674D01*
X0066250Y0102480D01*
X0066250Y0101187D01*
X0066745Y0099992D01*
X0067450Y0099287D01*
X0067450Y0083883D01*
X0057046Y0083883D01*
X0056341Y0084589D01*
X0055146Y0085083D01*
X0053854Y0085083D01*
X0052659Y0084589D01*
X0051745Y0083674D01*
X0051250Y0082480D01*
X0051250Y0081187D01*
X0051745Y0079992D01*
X0052659Y0079078D01*
X0053854Y0078583D01*
X0055146Y0078583D01*
X0056341Y0079078D01*
X0057046Y0079783D01*
X0067450Y0079783D01*
X0067450Y0074484D01*
X0072151Y0069783D01*
X0080216Y0069783D01*
X0080053Y0069559D01*
X0079681Y0068829D01*
X0079428Y0068051D01*
X0079314Y0067333D01*
X0084000Y0067333D01*
X0084000Y0066733D01*
X0049400Y0066733D01*
X0049400Y0066826D02*
X0084000Y0066826D01*
X0079392Y0067824D02*
X0049400Y0067824D01*
X0049400Y0068823D02*
X0079679Y0068823D01*
X0072113Y0069821D02*
X0049400Y0069821D01*
X0049400Y0070820D02*
X0071114Y0070820D01*
X0070116Y0071818D02*
X0049400Y0071818D01*
X0049400Y0072817D02*
X0069117Y0072817D01*
X0068119Y0073815D02*
X0049400Y0073815D01*
X0049400Y0074814D02*
X0067450Y0074814D01*
X0067450Y0075812D02*
X0049400Y0075812D01*
X0049400Y0076811D02*
X0067450Y0076811D01*
X0067450Y0077810D02*
X0049400Y0077810D01*
X0049400Y0078808D02*
X0053311Y0078808D01*
X0051931Y0079807D02*
X0049400Y0079807D01*
X0049400Y0080805D02*
X0051408Y0080805D01*
X0051250Y0081804D02*
X0049400Y0081804D01*
X0049400Y0082802D02*
X0051384Y0082802D01*
X0051871Y0083801D02*
X0049400Y0083801D01*
X0049400Y0084799D02*
X0053167Y0084799D01*
X0055833Y0084799D02*
X0067450Y0084799D01*
X0067450Y0085798D02*
X0049400Y0085798D01*
X0049400Y0086796D02*
X0067450Y0086796D01*
X0067450Y0087795D02*
X0049400Y0087795D01*
X0049400Y0088793D02*
X0067450Y0088793D01*
X0067450Y0089792D02*
X0049400Y0089792D01*
X0049400Y0090790D02*
X0067450Y0090790D01*
X0067450Y0091789D02*
X0049400Y0091789D01*
X0049400Y0092787D02*
X0067450Y0092787D01*
X0067450Y0093786D02*
X0049400Y0093786D01*
X0049400Y0094784D02*
X0067450Y0094784D01*
X0067450Y0095783D02*
X0049400Y0095783D01*
X0049400Y0096781D02*
X0067450Y0096781D01*
X0067450Y0097780D02*
X0049400Y0097780D01*
X0049400Y0098778D02*
X0067450Y0098778D01*
X0066960Y0099777D02*
X0049400Y0099777D01*
X0049400Y0100775D02*
X0066420Y0100775D01*
X0066250Y0101774D02*
X0049400Y0101774D01*
X0049400Y0102772D02*
X0066371Y0102772D01*
X0066841Y0103771D02*
X0049400Y0103771D01*
X0049400Y0104769D02*
X0068095Y0104769D01*
X0068924Y0105768D02*
X0049400Y0105768D01*
X0049400Y0106766D02*
X0068750Y0106766D01*
X0068868Y0107765D02*
X0049400Y0107765D01*
X0049400Y0108763D02*
X0069334Y0108763D01*
X0070577Y0109762D02*
X0049400Y0109762D01*
X0049400Y0110760D02*
X0130450Y0110760D01*
X0130450Y0109762D02*
X0073423Y0109762D01*
X0074666Y0108763D02*
X0130450Y0108763D01*
X0130450Y0107765D02*
X0075132Y0107765D01*
X0075250Y0106766D02*
X0130450Y0106766D01*
X0130450Y0105768D02*
X0075076Y0105768D01*
X0074532Y0104769D02*
X0130450Y0104769D01*
X0130450Y0103771D02*
X0074050Y0103771D01*
X0074050Y0102772D02*
X0130450Y0102772D01*
X0130450Y0101774D02*
X0074050Y0101774D01*
X0074050Y0100775D02*
X0130450Y0100775D01*
X0130450Y0099777D02*
X0074050Y0099777D01*
X0074050Y0098778D02*
X0130450Y0098778D01*
X0130450Y0097780D02*
X0074050Y0097780D01*
X0074050Y0096781D02*
X0130450Y0096781D01*
X0130450Y0095783D02*
X0074050Y0095783D01*
X0074050Y0094784D02*
X0130450Y0094784D01*
X0130450Y0093786D02*
X0074050Y0093786D01*
X0074050Y0092787D02*
X0130450Y0092787D01*
X0130450Y0091789D02*
X0074050Y0091789D01*
X0074050Y0090790D02*
X0130450Y0090790D01*
X0130450Y0089792D02*
X0074050Y0089792D01*
X0074050Y0088793D02*
X0130450Y0088793D01*
X0130450Y0087795D02*
X0074050Y0087795D01*
X0074050Y0086796D02*
X0130450Y0086796D01*
X0130450Y0085798D02*
X0074050Y0085798D01*
X0074050Y0084799D02*
X0123167Y0084799D01*
X0121871Y0083801D02*
X0074050Y0083801D01*
X0074050Y0082802D02*
X0121384Y0082802D01*
X0121250Y0081804D02*
X0074050Y0081804D01*
X0074050Y0080805D02*
X0121408Y0080805D01*
X0121931Y0079807D02*
X0074050Y0079807D01*
X0074050Y0078808D02*
X0118576Y0078808D01*
X0117577Y0077810D02*
X0101620Y0077810D01*
X0102406Y0076811D02*
X0116579Y0076811D01*
X0115580Y0075812D02*
X0102750Y0075812D01*
X0102750Y0074814D02*
X0114582Y0074814D01*
X0125833Y0084799D02*
X0130067Y0084799D01*
X0136874Y0078808D02*
X0145576Y0078808D01*
X0146574Y0079807D02*
X0137872Y0079807D01*
X0138349Y0080283D02*
X0134449Y0076383D01*
X0143151Y0076383D01*
X0149450Y0082682D01*
X0149450Y0105884D01*
X0148550Y0104984D01*
X0148550Y0104984D01*
X0147349Y0103783D01*
X0140046Y0103783D01*
X0139550Y0103287D01*
X0139550Y0081484D01*
X0138349Y0080283D01*
X0138871Y0080805D02*
X0147573Y0080805D01*
X0148571Y0081804D02*
X0139550Y0081804D01*
X0139550Y0082802D02*
X0149450Y0082802D01*
X0149450Y0083801D02*
X0139550Y0083801D01*
X0139550Y0084799D02*
X0149450Y0084799D01*
X0149450Y0085798D02*
X0139550Y0085798D01*
X0139550Y0086796D02*
X0149450Y0086796D01*
X0149450Y0087795D02*
X0139550Y0087795D01*
X0139550Y0088793D02*
X0149450Y0088793D01*
X0149450Y0089792D02*
X0139550Y0089792D01*
X0139550Y0090790D02*
X0149450Y0090790D01*
X0149450Y0091789D02*
X0139550Y0091789D01*
X0139550Y0092787D02*
X0149450Y0092787D01*
X0149450Y0093786D02*
X0139550Y0093786D01*
X0139550Y0094784D02*
X0149450Y0094784D01*
X0149450Y0095783D02*
X0139550Y0095783D01*
X0139550Y0096781D02*
X0149450Y0096781D01*
X0149450Y0097780D02*
X0139550Y0097780D01*
X0139550Y0098778D02*
X0149450Y0098778D01*
X0149450Y0099777D02*
X0139550Y0099777D01*
X0139550Y0100775D02*
X0149450Y0100775D01*
X0149450Y0101774D02*
X0139550Y0101774D01*
X0139550Y0102772D02*
X0149450Y0102772D01*
X0149450Y0103771D02*
X0140034Y0103771D01*
X0148335Y0104769D02*
X0149450Y0104769D01*
X0149450Y0105768D02*
X0149334Y0105768D01*
X0156550Y0104287D02*
X0157255Y0104992D01*
X0157750Y0106187D01*
X0157750Y0107480D01*
X0157255Y0108674D01*
X0156341Y0109589D01*
X0156209Y0109643D01*
X0157050Y0110484D01*
X0157050Y0116182D01*
X0154349Y0118883D01*
X0152651Y0118883D01*
X0138546Y0118883D01*
X0137841Y0119589D01*
X0136646Y0120083D01*
X0135649Y0120083D01*
X0138849Y0123283D01*
X0140050Y0124484D01*
X0140050Y0136687D01*
X0140159Y0136578D01*
X0141354Y0136083D01*
X0142646Y0136083D01*
X0143841Y0136578D01*
X0144755Y0137492D01*
X0145250Y0138687D01*
X0145250Y0139980D01*
X0144896Y0140833D01*
X0145948Y0140833D01*
X0148746Y0141583D01*
X0151254Y0143031D01*
X0153302Y0145079D01*
X0154750Y0147587D01*
X0155500Y0150385D01*
X0155500Y0153282D01*
X0154750Y0156079D01*
X0154257Y0156933D01*
X0159600Y0156933D01*
X0159600Y0070899D01*
X0158262Y0071167D01*
X0157049Y0070358D01*
X0156371Y0071037D01*
X0154631Y0071037D01*
X0154007Y0070413D01*
X0153549Y0069955D01*
X0152467Y0071037D01*
X0151066Y0071037D01*
X0150888Y0071037D01*
X0150728Y0071037D01*
X0149326Y0071037D01*
X0149312Y0071023D01*
X0148096Y0069807D01*
X0148096Y0069807D01*
X0147467Y0069178D01*
X0147396Y0069106D01*
X0147396Y0069106D01*
X0147396Y0069106D01*
X0147396Y0068281D01*
X0147396Y0066733D01*
X0129900Y0066733D01*
X0129900Y0067907D01*
X0129123Y0069783D01*
X0145349Y0069783D01*
X0155349Y0079783D01*
X0156550Y0080984D01*
X0156550Y0104287D01*
X0156550Y0103771D02*
X0159600Y0103771D01*
X0159600Y0104769D02*
X0157032Y0104769D01*
X0157576Y0105768D02*
X0159600Y0105768D01*
X0159600Y0106766D02*
X0157750Y0106766D01*
X0157632Y0107765D02*
X0159600Y0107765D01*
X0159600Y0108763D02*
X0157166Y0108763D01*
X0156328Y0109762D02*
X0159600Y0109762D01*
X0159600Y0110760D02*
X0157050Y0110760D01*
X0157050Y0111759D02*
X0159600Y0111759D01*
X0159600Y0112757D02*
X0157050Y0112757D01*
X0157050Y0113756D02*
X0159600Y0113756D01*
X0159600Y0114754D02*
X0157050Y0114754D01*
X0157050Y0115753D02*
X0159600Y0115753D01*
X0159600Y0116751D02*
X0156481Y0116751D01*
X0155482Y0117750D02*
X0159600Y0117750D01*
X0159600Y0118748D02*
X0154484Y0118748D01*
X0159600Y0119747D02*
X0137458Y0119747D01*
X0136311Y0120745D02*
X0159600Y0120745D01*
X0159600Y0121744D02*
X0137310Y0121744D01*
X0138308Y0122743D02*
X0159600Y0122743D01*
X0159600Y0123741D02*
X0139307Y0123741D01*
X0140050Y0124740D02*
X0159600Y0124740D01*
X0159600Y0125738D02*
X0140050Y0125738D01*
X0140050Y0126737D02*
X0159600Y0126737D01*
X0159600Y0127735D02*
X0140050Y0127735D01*
X0140050Y0128734D02*
X0159600Y0128734D01*
X0159600Y0129732D02*
X0140050Y0129732D01*
X0140050Y0130731D02*
X0159600Y0130731D01*
X0159600Y0131729D02*
X0140050Y0131729D01*
X0140050Y0132728D02*
X0159600Y0132728D01*
X0159600Y0133726D02*
X0140050Y0133726D01*
X0140050Y0134725D02*
X0159600Y0134725D01*
X0159600Y0135723D02*
X0140050Y0135723D01*
X0143985Y0136722D02*
X0159600Y0136722D01*
X0159600Y0137720D02*
X0144850Y0137720D01*
X0145250Y0138719D02*
X0159600Y0138719D01*
X0159600Y0139717D02*
X0145250Y0139717D01*
X0144945Y0140716D02*
X0159600Y0140716D01*
X0159600Y0141714D02*
X0148973Y0141714D01*
X0150703Y0142713D02*
X0159600Y0142713D01*
X0159600Y0143711D02*
X0151934Y0143711D01*
X0152933Y0144710D02*
X0159600Y0144710D01*
X0159600Y0145708D02*
X0153665Y0145708D01*
X0154242Y0146707D02*
X0159600Y0146707D01*
X0159600Y0147705D02*
X0154782Y0147705D01*
X0155049Y0148704D02*
X0159600Y0148704D01*
X0159600Y0149702D02*
X0155317Y0149702D01*
X0155500Y0150701D02*
X0159600Y0150701D01*
X0159600Y0151699D02*
X0155500Y0151699D01*
X0155500Y0152698D02*
X0159600Y0152698D01*
X0159600Y0153696D02*
X0155389Y0153696D01*
X0155121Y0154695D02*
X0159600Y0154695D01*
X0159600Y0155693D02*
X0154854Y0155693D01*
X0154397Y0156692D02*
X0159600Y0156692D01*
X0171400Y0156692D02*
X0176603Y0156692D01*
X0176743Y0156933D02*
X0176250Y0156079D01*
X0175500Y0153282D01*
X0175500Y0150385D01*
X0176250Y0147587D01*
X0177698Y0145079D01*
X0179746Y0143031D01*
X0182254Y0141583D01*
X0185052Y0140833D01*
X0187948Y0140833D01*
X0190746Y0141583D01*
X0193254Y0143031D01*
X0193637Y0143414D01*
X0193250Y0142480D01*
X0193250Y0141695D01*
X0184300Y0132745D01*
X0184300Y0129230D01*
X0183745Y0128674D01*
X0183250Y0127480D01*
X0183250Y0126187D01*
X0183745Y0124992D01*
X0184659Y0124078D01*
X0185854Y0123583D01*
X0187146Y0123583D01*
X0188341Y0124078D01*
X0189255Y0124992D01*
X0189750Y0126187D01*
X0189750Y0127480D01*
X0189255Y0128674D01*
X0188700Y0129230D01*
X0188700Y0130922D01*
X0196361Y0138583D01*
X0197146Y0138583D01*
X0198341Y0139078D01*
X0199255Y0139992D01*
X0199750Y0141187D01*
X0199750Y0141972D01*
X0202411Y0144633D01*
X0245589Y0144633D01*
X0254300Y0135922D01*
X0254300Y0129230D01*
X0253745Y0128674D01*
X0253250Y0127480D01*
X0253250Y0126187D01*
X0253745Y0124992D01*
X0254659Y0124078D01*
X0255498Y0123731D01*
X0253651Y0121883D01*
X0253651Y0121883D01*
X0252450Y0120682D01*
X0252450Y0085182D01*
X0251151Y0083883D01*
X0249046Y0083883D01*
X0248341Y0084589D01*
X0247146Y0085083D01*
X0245854Y0085083D01*
X0244659Y0084589D01*
X0243745Y0083674D01*
X0243250Y0082480D01*
X0243250Y0081187D01*
X0243745Y0079992D01*
X0244659Y0079078D01*
X0245129Y0078883D01*
X0240651Y0078883D01*
X0239450Y0077682D01*
X0235651Y0073883D01*
X0224417Y0073883D01*
X0224750Y0074687D01*
X0224750Y0075980D01*
X0224255Y0077174D01*
X0223341Y0078089D01*
X0222146Y0078583D01*
X0220854Y0078583D01*
X0219659Y0078089D01*
X0218954Y0077383D01*
X0204046Y0077383D01*
X0203341Y0078089D01*
X0202146Y0078583D01*
X0200854Y0078583D01*
X0199659Y0078089D01*
X0198954Y0077383D01*
X0197196Y0077383D01*
X0196050Y0078529D01*
X0196050Y0104287D01*
X0196755Y0104992D01*
X0197250Y0106187D01*
X0197250Y0107480D01*
X0196755Y0108674D01*
X0195841Y0109589D01*
X0194646Y0110083D01*
X0193354Y0110083D01*
X0192159Y0109589D01*
X0191245Y0108674D01*
X0190750Y0107480D01*
X0190750Y0106187D01*
X0191207Y0105083D01*
X0190854Y0105083D01*
X0189659Y0104589D01*
X0188745Y0103674D01*
X0188250Y0102480D01*
X0188250Y0101187D01*
X0188745Y0099992D01*
X0189450Y0099287D01*
X0189450Y0083883D01*
X0179046Y0083883D01*
X0178341Y0084589D01*
X0177146Y0085083D01*
X0175854Y0085083D01*
X0174659Y0084589D01*
X0173745Y0083674D01*
X0173250Y0082480D01*
X0173250Y0081187D01*
X0173745Y0079992D01*
X0174659Y0079078D01*
X0175854Y0078583D01*
X0177146Y0078583D01*
X0178341Y0079078D01*
X0179046Y0079783D01*
X0189450Y0079783D01*
X0189450Y0074484D01*
X0194151Y0069783D01*
X0202216Y0069783D01*
X0202053Y0069559D01*
X0201681Y0068829D01*
X0201428Y0068051D01*
X0201314Y0067333D01*
X0206000Y0067333D01*
X0206000Y0066733D01*
X0171400Y0066733D01*
X0171400Y0156933D01*
X0176743Y0156933D01*
X0176146Y0155693D02*
X0171400Y0155693D01*
X0171400Y0154695D02*
X0175879Y0154695D01*
X0175611Y0153696D02*
X0171400Y0153696D01*
X0171400Y0152698D02*
X0175500Y0152698D01*
X0175500Y0151699D02*
X0171400Y0151699D01*
X0171400Y0150701D02*
X0175500Y0150701D01*
X0175683Y0149702D02*
X0171400Y0149702D01*
X0171400Y0148704D02*
X0175951Y0148704D01*
X0176218Y0147705D02*
X0171400Y0147705D01*
X0171400Y0146707D02*
X0176758Y0146707D01*
X0177335Y0145708D02*
X0171400Y0145708D01*
X0171400Y0144710D02*
X0178067Y0144710D01*
X0179066Y0143711D02*
X0171400Y0143711D01*
X0171400Y0142713D02*
X0180297Y0142713D01*
X0182027Y0141714D02*
X0171400Y0141714D01*
X0171400Y0140716D02*
X0192271Y0140716D01*
X0193250Y0141714D02*
X0190973Y0141714D01*
X0192703Y0142713D02*
X0193347Y0142713D01*
X0194919Y0144696D02*
X0195302Y0145079D01*
X0196750Y0147587D01*
X0197500Y0150385D01*
X0197500Y0153282D01*
X0196750Y0156079D01*
X0196257Y0156933D01*
X0201100Y0156933D01*
X0201100Y0155759D01*
X0201922Y0153774D01*
X0203441Y0152255D01*
X0205426Y0151433D01*
X0207574Y0151433D01*
X0208583Y0151851D01*
X0211401Y0149033D01*
X0202411Y0149033D01*
X0200589Y0149033D01*
X0196639Y0145083D01*
X0195854Y0145083D01*
X0194919Y0144696D01*
X0194933Y0144710D02*
X0194952Y0144710D01*
X0195665Y0145708D02*
X0197264Y0145708D01*
X0198262Y0146707D02*
X0196242Y0146707D01*
X0196782Y0147705D02*
X0199261Y0147705D01*
X0200259Y0148704D02*
X0197049Y0148704D01*
X0197317Y0149702D02*
X0210732Y0149702D01*
X0209733Y0150701D02*
X0197500Y0150701D01*
X0197500Y0151699D02*
X0204784Y0151699D01*
X0202999Y0152698D02*
X0197500Y0152698D01*
X0197389Y0153696D02*
X0202000Y0153696D01*
X0201541Y0154695D02*
X0197121Y0154695D01*
X0196854Y0155693D02*
X0201127Y0155693D01*
X0201100Y0156692D02*
X0196397Y0156692D01*
X0201500Y0146833D02*
X0196500Y0141833D01*
X0186500Y0131833D01*
X0186500Y0126833D01*
X0189750Y0126737D02*
X0253250Y0126737D01*
X0253356Y0127735D02*
X0189644Y0127735D01*
X0189196Y0128734D02*
X0253804Y0128734D01*
X0254300Y0129732D02*
X0188700Y0129732D01*
X0188700Y0130731D02*
X0254300Y0130731D01*
X0254300Y0131729D02*
X0189507Y0131729D01*
X0190506Y0132728D02*
X0254300Y0132728D01*
X0254300Y0133726D02*
X0191504Y0133726D01*
X0192503Y0134725D02*
X0254300Y0134725D01*
X0254300Y0135723D02*
X0193501Y0135723D01*
X0194500Y0136722D02*
X0253500Y0136722D01*
X0252502Y0137720D02*
X0195498Y0137720D01*
X0197473Y0138719D02*
X0251503Y0138719D01*
X0250505Y0139717D02*
X0198980Y0139717D01*
X0199555Y0140716D02*
X0249506Y0140716D01*
X0248508Y0141714D02*
X0199750Y0141714D01*
X0200491Y0142713D02*
X0247509Y0142713D01*
X0246511Y0143711D02*
X0201489Y0143711D01*
X0201500Y0146833D02*
X0246500Y0146833D01*
X0256500Y0136833D01*
X0256500Y0126833D01*
X0253436Y0125738D02*
X0189564Y0125738D01*
X0189002Y0124740D02*
X0253998Y0124740D01*
X0255473Y0123741D02*
X0187527Y0123741D01*
X0185473Y0123741D02*
X0171400Y0123741D01*
X0171400Y0122743D02*
X0254510Y0122743D01*
X0253512Y0121744D02*
X0171400Y0121744D01*
X0171400Y0120745D02*
X0252513Y0120745D01*
X0252450Y0119747D02*
X0171400Y0119747D01*
X0171400Y0118748D02*
X0252450Y0118748D01*
X0252450Y0117750D02*
X0171400Y0117750D01*
X0171400Y0116751D02*
X0252450Y0116751D01*
X0252450Y0115753D02*
X0171400Y0115753D01*
X0171400Y0114754D02*
X0252450Y0114754D01*
X0252450Y0113756D02*
X0171400Y0113756D01*
X0171400Y0112757D02*
X0252450Y0112757D01*
X0252450Y0111759D02*
X0171400Y0111759D01*
X0171400Y0110760D02*
X0252450Y0110760D01*
X0252450Y0109762D02*
X0195423Y0109762D01*
X0196666Y0108763D02*
X0252450Y0108763D01*
X0252450Y0107765D02*
X0197132Y0107765D01*
X0197250Y0106766D02*
X0252450Y0106766D01*
X0252450Y0105768D02*
X0197076Y0105768D01*
X0196532Y0104769D02*
X0252450Y0104769D01*
X0252450Y0103771D02*
X0196050Y0103771D01*
X0196050Y0102772D02*
X0252450Y0102772D01*
X0252450Y0101774D02*
X0196050Y0101774D01*
X0196050Y0100775D02*
X0252450Y0100775D01*
X0252450Y0099777D02*
X0196050Y0099777D01*
X0196050Y0098778D02*
X0252450Y0098778D01*
X0252450Y0097780D02*
X0196050Y0097780D01*
X0196050Y0096781D02*
X0252450Y0096781D01*
X0252450Y0095783D02*
X0196050Y0095783D01*
X0196050Y0094784D02*
X0252450Y0094784D01*
X0252450Y0093786D02*
X0196050Y0093786D01*
X0196050Y0092787D02*
X0252450Y0092787D01*
X0252450Y0091789D02*
X0196050Y0091789D01*
X0196050Y0090790D02*
X0252450Y0090790D01*
X0252450Y0089792D02*
X0196050Y0089792D01*
X0196050Y0088793D02*
X0252450Y0088793D01*
X0252450Y0087795D02*
X0196050Y0087795D01*
X0196050Y0086796D02*
X0252450Y0086796D01*
X0252450Y0085798D02*
X0196050Y0085798D01*
X0196050Y0084799D02*
X0245167Y0084799D01*
X0243871Y0083801D02*
X0196050Y0083801D01*
X0196050Y0082802D02*
X0243384Y0082802D01*
X0243250Y0081804D02*
X0196050Y0081804D01*
X0196050Y0080805D02*
X0243408Y0080805D01*
X0243931Y0079807D02*
X0196050Y0079807D01*
X0196050Y0078808D02*
X0240576Y0078808D01*
X0239577Y0077810D02*
X0223620Y0077810D01*
X0224406Y0076811D02*
X0238579Y0076811D01*
X0237580Y0075812D02*
X0224750Y0075812D01*
X0224750Y0074814D02*
X0236582Y0074814D01*
X0247833Y0084799D02*
X0252067Y0084799D01*
X0258874Y0078808D02*
X0267576Y0078808D01*
X0268574Y0079807D02*
X0259872Y0079807D01*
X0260349Y0080283D02*
X0256449Y0076383D01*
X0265151Y0076383D01*
X0271450Y0082682D01*
X0271450Y0105884D01*
X0269349Y0103783D01*
X0262046Y0103783D01*
X0261550Y0103287D01*
X0261550Y0081484D01*
X0260349Y0080283D01*
X0260871Y0080805D02*
X0269573Y0080805D01*
X0270571Y0081804D02*
X0261550Y0081804D01*
X0261550Y0082802D02*
X0271450Y0082802D01*
X0271450Y0083801D02*
X0261550Y0083801D01*
X0261550Y0084799D02*
X0271450Y0084799D01*
X0271450Y0085798D02*
X0261550Y0085798D01*
X0261550Y0086796D02*
X0271450Y0086796D01*
X0271450Y0087795D02*
X0261550Y0087795D01*
X0261550Y0088793D02*
X0271450Y0088793D01*
X0271450Y0089792D02*
X0261550Y0089792D01*
X0261550Y0090790D02*
X0271450Y0090790D01*
X0271450Y0091789D02*
X0261550Y0091789D01*
X0261550Y0092787D02*
X0271450Y0092787D01*
X0271450Y0093786D02*
X0261550Y0093786D01*
X0261550Y0094784D02*
X0271450Y0094784D01*
X0271450Y0095783D02*
X0261550Y0095783D01*
X0261550Y0096781D02*
X0271450Y0096781D01*
X0271450Y0097780D02*
X0261550Y0097780D01*
X0261550Y0098778D02*
X0271450Y0098778D01*
X0271450Y0099777D02*
X0261550Y0099777D01*
X0261550Y0100775D02*
X0271450Y0100775D01*
X0271450Y0101774D02*
X0261550Y0101774D01*
X0261550Y0102772D02*
X0271450Y0102772D01*
X0271450Y0103771D02*
X0262034Y0103771D01*
X0270335Y0104769D02*
X0271450Y0104769D01*
X0271450Y0105768D02*
X0271334Y0105768D01*
X0278550Y0104287D02*
X0279255Y0104992D01*
X0279750Y0106187D01*
X0279750Y0107480D01*
X0279255Y0108674D01*
X0278341Y0109589D01*
X0278209Y0109643D01*
X0279050Y0110484D01*
X0279050Y0116182D01*
X0277849Y0117383D01*
X0276349Y0118883D01*
X0274651Y0118883D01*
X0260546Y0118883D01*
X0259841Y0119589D01*
X0258646Y0120083D01*
X0257649Y0120083D01*
X0260849Y0123283D01*
X0260849Y0123283D01*
X0262050Y0124484D01*
X0262050Y0136687D01*
X0262159Y0136578D01*
X0263354Y0136083D01*
X0264646Y0136083D01*
X0265841Y0136578D01*
X0266755Y0137492D01*
X0267250Y0138687D01*
X0267250Y0139980D01*
X0266896Y0140833D01*
X0267948Y0140833D01*
X0270746Y0141583D01*
X0273254Y0143031D01*
X0275302Y0145079D01*
X0276750Y0147587D01*
X0277500Y0150385D01*
X0277500Y0153282D01*
X0276750Y0156079D01*
X0276257Y0156933D01*
X0281600Y0156933D01*
X0281600Y0070899D01*
X0280262Y0071167D01*
X0279049Y0070358D01*
X0278371Y0071037D01*
X0276631Y0071037D01*
X0276007Y0070413D01*
X0275549Y0069955D01*
X0274467Y0071037D01*
X0273066Y0071037D01*
X0272728Y0071037D01*
X0271326Y0071037D01*
X0271312Y0071023D01*
X0270096Y0069807D01*
X0270096Y0069807D01*
X0269467Y0069178D01*
X0269396Y0069106D01*
X0269396Y0069106D01*
X0269396Y0069106D01*
X0269396Y0068281D01*
X0269396Y0066733D01*
X0251900Y0066733D01*
X0251900Y0067907D01*
X0251123Y0069783D01*
X0267349Y0069783D01*
X0277349Y0079783D01*
X0278550Y0080984D01*
X0278550Y0104287D01*
X0278550Y0103771D02*
X0281600Y0103771D01*
X0281600Y0104769D02*
X0279032Y0104769D01*
X0279576Y0105768D02*
X0281600Y0105768D01*
X0281600Y0106766D02*
X0279750Y0106766D01*
X0279632Y0107765D02*
X0281600Y0107765D01*
X0281600Y0108763D02*
X0279166Y0108763D01*
X0278328Y0109762D02*
X0281600Y0109762D01*
X0281600Y0110760D02*
X0279050Y0110760D01*
X0279050Y0111759D02*
X0281600Y0111759D01*
X0281600Y0112757D02*
X0279050Y0112757D01*
X0279050Y0113756D02*
X0281600Y0113756D01*
X0281600Y0114754D02*
X0279050Y0114754D01*
X0279050Y0115753D02*
X0281600Y0115753D01*
X0281600Y0116751D02*
X0278481Y0116751D01*
X0277482Y0117750D02*
X0281600Y0117750D01*
X0281600Y0118748D02*
X0276484Y0118748D01*
X0281600Y0119747D02*
X0259458Y0119747D01*
X0258311Y0120745D02*
X0281600Y0120745D01*
X0281600Y0121744D02*
X0259310Y0121744D01*
X0260308Y0122743D02*
X0281600Y0122743D01*
X0281600Y0123741D02*
X0261307Y0123741D01*
X0262050Y0124740D02*
X0281600Y0124740D01*
X0281600Y0125738D02*
X0262050Y0125738D01*
X0262050Y0126737D02*
X0281600Y0126737D01*
X0281600Y0127735D02*
X0262050Y0127735D01*
X0262050Y0128734D02*
X0281600Y0128734D01*
X0281600Y0129732D02*
X0262050Y0129732D01*
X0262050Y0130731D02*
X0281600Y0130731D01*
X0281600Y0131729D02*
X0262050Y0131729D01*
X0262050Y0132728D02*
X0281600Y0132728D01*
X0281600Y0133726D02*
X0262050Y0133726D01*
X0262050Y0134725D02*
X0281600Y0134725D01*
X0281600Y0135723D02*
X0262050Y0135723D01*
X0265985Y0136722D02*
X0281600Y0136722D01*
X0281600Y0137720D02*
X0266850Y0137720D01*
X0267250Y0138719D02*
X0281600Y0138719D01*
X0281600Y0139717D02*
X0267250Y0139717D01*
X0266945Y0140716D02*
X0281600Y0140716D01*
X0281600Y0141714D02*
X0270973Y0141714D01*
X0272703Y0142713D02*
X0281600Y0142713D01*
X0281600Y0143711D02*
X0273934Y0143711D01*
X0274933Y0144710D02*
X0281600Y0144710D01*
X0281600Y0145708D02*
X0275665Y0145708D01*
X0276242Y0146707D02*
X0281600Y0146707D01*
X0281600Y0147705D02*
X0276782Y0147705D01*
X0277049Y0148704D02*
X0281600Y0148704D01*
X0281600Y0149702D02*
X0277317Y0149702D01*
X0277500Y0150701D02*
X0281600Y0150701D01*
X0281600Y0151699D02*
X0277500Y0151699D01*
X0277500Y0152698D02*
X0281600Y0152698D01*
X0281600Y0153696D02*
X0277389Y0153696D01*
X0277121Y0154695D02*
X0281600Y0154695D01*
X0281600Y0155693D02*
X0276854Y0155693D01*
X0276397Y0156692D02*
X0281600Y0156692D01*
X0293400Y0156692D02*
X0298603Y0156692D01*
X0298743Y0156933D02*
X0298250Y0156079D01*
X0297500Y0153282D01*
X0297500Y0150385D01*
X0298250Y0147587D01*
X0299698Y0145079D01*
X0301746Y0143031D01*
X0304254Y0141583D01*
X0307052Y0140833D01*
X0309948Y0140833D01*
X0312746Y0141583D01*
X0315254Y0143031D01*
X0315637Y0143414D01*
X0315250Y0142480D01*
X0315250Y0141695D01*
X0307589Y0134033D01*
X0306300Y0132745D01*
X0306300Y0129230D01*
X0305745Y0128674D01*
X0305250Y0127480D01*
X0305250Y0126187D01*
X0305745Y0124992D01*
X0306659Y0124078D01*
X0307854Y0123583D01*
X0309146Y0123583D01*
X0310341Y0124078D01*
X0311255Y0124992D01*
X0311750Y0126187D01*
X0311750Y0127480D01*
X0311255Y0128674D01*
X0310700Y0129230D01*
X0310700Y0130922D01*
X0318361Y0138583D01*
X0319146Y0138583D01*
X0320341Y0139078D01*
X0321255Y0139992D01*
X0321750Y0141187D01*
X0321750Y0141972D01*
X0324411Y0144633D01*
X0367589Y0144633D01*
X0376300Y0135922D01*
X0376300Y0129230D01*
X0375745Y0128674D01*
X0375250Y0127480D01*
X0375250Y0126187D01*
X0375745Y0124992D01*
X0376659Y0124078D01*
X0377498Y0123731D01*
X0374450Y0120682D01*
X0374450Y0118984D01*
X0374450Y0085182D01*
X0373151Y0083883D01*
X0371046Y0083883D01*
X0370341Y0084589D01*
X0369146Y0085083D01*
X0367854Y0085083D01*
X0366659Y0084589D01*
X0365745Y0083674D01*
X0365250Y0082480D01*
X0365250Y0081187D01*
X0365745Y0079992D01*
X0366659Y0079078D01*
X0367129Y0078883D01*
X0362651Y0078883D01*
X0361450Y0077682D01*
X0357651Y0073883D01*
X0346417Y0073883D01*
X0346750Y0074687D01*
X0346750Y0075980D01*
X0346255Y0077174D01*
X0345341Y0078089D01*
X0344146Y0078583D01*
X0342854Y0078583D01*
X0341659Y0078089D01*
X0340954Y0077383D01*
X0326046Y0077383D01*
X0325341Y0078089D01*
X0324146Y0078583D01*
X0322854Y0078583D01*
X0321659Y0078089D01*
X0320954Y0077383D01*
X0319196Y0077383D01*
X0318050Y0078529D01*
X0318050Y0104287D01*
X0318755Y0104992D01*
X0319250Y0106187D01*
X0319250Y0107480D01*
X0318755Y0108674D01*
X0317841Y0109589D01*
X0316646Y0110083D01*
X0315354Y0110083D01*
X0314159Y0109589D01*
X0313245Y0108674D01*
X0312750Y0107480D01*
X0312750Y0106187D01*
X0313207Y0105083D01*
X0312854Y0105083D01*
X0311659Y0104589D01*
X0310745Y0103674D01*
X0310250Y0102480D01*
X0310250Y0101187D01*
X0310745Y0099992D01*
X0311450Y0099287D01*
X0311450Y0083883D01*
X0301046Y0083883D01*
X0300341Y0084589D01*
X0299146Y0085083D01*
X0297854Y0085083D01*
X0296659Y0084589D01*
X0295745Y0083674D01*
X0295250Y0082480D01*
X0295250Y0081187D01*
X0295745Y0079992D01*
X0296659Y0079078D01*
X0297854Y0078583D01*
X0299146Y0078583D01*
X0300341Y0079078D01*
X0301046Y0079783D01*
X0311450Y0079783D01*
X0311450Y0074484D01*
X0316151Y0069783D01*
X0324216Y0069783D01*
X0324053Y0069559D01*
X0323681Y0068829D01*
X0323428Y0068051D01*
X0323314Y0067333D01*
X0328000Y0067333D01*
X0328000Y0066733D01*
X0293400Y0066733D01*
X0293400Y0156933D01*
X0298743Y0156933D01*
X0298146Y0155693D02*
X0293400Y0155693D01*
X0293400Y0154695D02*
X0297879Y0154695D01*
X0297611Y0153696D02*
X0293400Y0153696D01*
X0293400Y0152698D02*
X0297500Y0152698D01*
X0297500Y0151699D02*
X0293400Y0151699D01*
X0293400Y0150701D02*
X0297500Y0150701D01*
X0297683Y0149702D02*
X0293400Y0149702D01*
X0293400Y0148704D02*
X0297951Y0148704D01*
X0298218Y0147705D02*
X0293400Y0147705D01*
X0293400Y0146707D02*
X0298758Y0146707D01*
X0299335Y0145708D02*
X0293400Y0145708D01*
X0293400Y0144710D02*
X0300067Y0144710D01*
X0301066Y0143711D02*
X0293400Y0143711D01*
X0293400Y0142713D02*
X0302297Y0142713D01*
X0304027Y0141714D02*
X0293400Y0141714D01*
X0293400Y0140716D02*
X0314271Y0140716D01*
X0315250Y0141714D02*
X0312973Y0141714D01*
X0314703Y0142713D02*
X0315347Y0142713D01*
X0316919Y0144696D02*
X0317302Y0145079D01*
X0318750Y0147587D01*
X0319500Y0150385D01*
X0319500Y0153282D01*
X0318750Y0156079D01*
X0318257Y0156933D01*
X0323100Y0156933D01*
X0323100Y0155759D01*
X0323922Y0153774D01*
X0325441Y0152255D01*
X0327426Y0151433D01*
X0329574Y0151433D01*
X0330583Y0151851D01*
X0333401Y0149033D01*
X0324411Y0149033D01*
X0322589Y0149033D01*
X0318639Y0145083D01*
X0317854Y0145083D01*
X0316919Y0144696D01*
X0316933Y0144710D02*
X0316952Y0144710D01*
X0317665Y0145708D02*
X0319264Y0145708D01*
X0320262Y0146707D02*
X0318242Y0146707D01*
X0318782Y0147705D02*
X0321261Y0147705D01*
X0322259Y0148704D02*
X0319049Y0148704D01*
X0319317Y0149702D02*
X0332732Y0149702D01*
X0331733Y0150701D02*
X0319500Y0150701D01*
X0319500Y0151699D02*
X0326784Y0151699D01*
X0324999Y0152698D02*
X0319500Y0152698D01*
X0319389Y0153696D02*
X0324000Y0153696D01*
X0323541Y0154695D02*
X0319121Y0154695D01*
X0318854Y0155693D02*
X0323127Y0155693D01*
X0323100Y0156692D02*
X0318397Y0156692D01*
X0323500Y0146833D02*
X0318500Y0141833D01*
X0308500Y0131833D01*
X0308500Y0126833D01*
X0311750Y0126737D02*
X0375250Y0126737D01*
X0375356Y0127735D02*
X0311644Y0127735D01*
X0311196Y0128734D02*
X0375804Y0128734D01*
X0376300Y0129732D02*
X0310700Y0129732D01*
X0310700Y0130731D02*
X0376300Y0130731D01*
X0376300Y0131729D02*
X0311507Y0131729D01*
X0312506Y0132728D02*
X0376300Y0132728D01*
X0376300Y0133726D02*
X0313504Y0133726D01*
X0314503Y0134725D02*
X0376300Y0134725D01*
X0376300Y0135723D02*
X0315501Y0135723D01*
X0316500Y0136722D02*
X0375500Y0136722D01*
X0374502Y0137720D02*
X0317498Y0137720D01*
X0319473Y0138719D02*
X0373503Y0138719D01*
X0372505Y0139717D02*
X0320980Y0139717D01*
X0321555Y0140716D02*
X0371506Y0140716D01*
X0370508Y0141714D02*
X0321750Y0141714D01*
X0322491Y0142713D02*
X0369509Y0142713D01*
X0368511Y0143711D02*
X0323489Y0143711D01*
X0323500Y0146833D02*
X0368500Y0146833D01*
X0378500Y0136833D01*
X0378500Y0126833D01*
X0375436Y0125738D02*
X0311564Y0125738D01*
X0311002Y0124740D02*
X0375998Y0124740D01*
X0377473Y0123741D02*
X0309527Y0123741D01*
X0307473Y0123741D02*
X0293400Y0123741D01*
X0293400Y0122743D02*
X0376510Y0122743D01*
X0375512Y0121744D02*
X0293400Y0121744D01*
X0293400Y0120745D02*
X0374513Y0120745D01*
X0374450Y0119747D02*
X0293400Y0119747D01*
X0293400Y0118748D02*
X0374450Y0118748D01*
X0374450Y0117750D02*
X0293400Y0117750D01*
X0293400Y0116751D02*
X0374450Y0116751D01*
X0374450Y0115753D02*
X0293400Y0115753D01*
X0293400Y0114754D02*
X0374450Y0114754D01*
X0374450Y0113756D02*
X0293400Y0113756D01*
X0293400Y0112757D02*
X0374450Y0112757D01*
X0374450Y0111759D02*
X0293400Y0111759D01*
X0293400Y0110760D02*
X0374450Y0110760D01*
X0374450Y0109762D02*
X0317423Y0109762D01*
X0318666Y0108763D02*
X0374450Y0108763D01*
X0374450Y0107765D02*
X0319132Y0107765D01*
X0319250Y0106766D02*
X0374450Y0106766D01*
X0374450Y0105768D02*
X0319076Y0105768D01*
X0318532Y0104769D02*
X0374450Y0104769D01*
X0374450Y0103771D02*
X0318050Y0103771D01*
X0318050Y0102772D02*
X0374450Y0102772D01*
X0374450Y0101774D02*
X0318050Y0101774D01*
X0318050Y0100775D02*
X0374450Y0100775D01*
X0374450Y0099777D02*
X0318050Y0099777D01*
X0318050Y0098778D02*
X0374450Y0098778D01*
X0374450Y0097780D02*
X0318050Y0097780D01*
X0318050Y0096781D02*
X0374450Y0096781D01*
X0374450Y0095783D02*
X0318050Y0095783D01*
X0318050Y0094784D02*
X0374450Y0094784D01*
X0374450Y0093786D02*
X0318050Y0093786D01*
X0318050Y0092787D02*
X0374450Y0092787D01*
X0374450Y0091789D02*
X0318050Y0091789D01*
X0318050Y0090790D02*
X0374450Y0090790D01*
X0374450Y0089792D02*
X0318050Y0089792D01*
X0318050Y0088793D02*
X0374450Y0088793D01*
X0374450Y0087795D02*
X0318050Y0087795D01*
X0318050Y0086796D02*
X0374450Y0086796D01*
X0374450Y0085798D02*
X0318050Y0085798D01*
X0318050Y0084799D02*
X0367167Y0084799D01*
X0365871Y0083801D02*
X0318050Y0083801D01*
X0318050Y0082802D02*
X0365384Y0082802D01*
X0365250Y0081804D02*
X0318050Y0081804D01*
X0318050Y0080805D02*
X0365408Y0080805D01*
X0365931Y0079807D02*
X0318050Y0079807D01*
X0318050Y0078808D02*
X0362576Y0078808D01*
X0361577Y0077810D02*
X0345620Y0077810D01*
X0346406Y0076811D02*
X0360579Y0076811D01*
X0359580Y0075812D02*
X0346750Y0075812D01*
X0346750Y0074814D02*
X0358582Y0074814D01*
X0369833Y0084799D02*
X0374067Y0084799D01*
X0380874Y0078808D02*
X0389576Y0078808D01*
X0390574Y0079807D02*
X0381872Y0079807D01*
X0382349Y0080283D02*
X0378449Y0076383D01*
X0387151Y0076383D01*
X0393450Y0082682D01*
X0393450Y0105884D01*
X0391349Y0103783D01*
X0384046Y0103783D01*
X0383550Y0103287D01*
X0383550Y0081484D01*
X0382349Y0080283D01*
X0382871Y0080805D02*
X0391573Y0080805D01*
X0392571Y0081804D02*
X0383550Y0081804D01*
X0383550Y0082802D02*
X0393450Y0082802D01*
X0393450Y0083801D02*
X0383550Y0083801D01*
X0383550Y0084799D02*
X0393450Y0084799D01*
X0393450Y0085798D02*
X0383550Y0085798D01*
X0383550Y0086796D02*
X0393450Y0086796D01*
X0393450Y0087795D02*
X0383550Y0087795D01*
X0383550Y0088793D02*
X0393450Y0088793D01*
X0393450Y0089792D02*
X0383550Y0089792D01*
X0383550Y0090790D02*
X0393450Y0090790D01*
X0393450Y0091789D02*
X0383550Y0091789D01*
X0383550Y0092787D02*
X0393450Y0092787D01*
X0393450Y0093786D02*
X0383550Y0093786D01*
X0383550Y0094784D02*
X0393450Y0094784D01*
X0393450Y0095783D02*
X0383550Y0095783D01*
X0383550Y0096781D02*
X0393450Y0096781D01*
X0393450Y0097780D02*
X0383550Y0097780D01*
X0383550Y0098778D02*
X0393450Y0098778D01*
X0393450Y0099777D02*
X0383550Y0099777D01*
X0383550Y0100775D02*
X0393450Y0100775D01*
X0393450Y0101774D02*
X0383550Y0101774D01*
X0383550Y0102772D02*
X0393450Y0102772D01*
X0393450Y0103771D02*
X0384034Y0103771D01*
X0392335Y0104769D02*
X0393450Y0104769D01*
X0393450Y0105768D02*
X0393334Y0105768D01*
X0400209Y0109643D02*
X0401050Y0110484D01*
X0401050Y0116182D01*
X0399849Y0117383D01*
X0398349Y0118883D01*
X0396651Y0118883D01*
X0382546Y0118883D01*
X0381841Y0119589D01*
X0380646Y0120083D01*
X0379649Y0120083D01*
X0382849Y0123283D01*
X0384050Y0124484D01*
X0384050Y0136687D01*
X0384159Y0136578D01*
X0385354Y0136083D01*
X0386646Y0136083D01*
X0387841Y0136578D01*
X0388755Y0137492D01*
X0389250Y0138687D01*
X0389250Y0139980D01*
X0388896Y0140833D01*
X0389948Y0140833D01*
X0392746Y0141583D01*
X0395254Y0143031D01*
X0397302Y0145079D01*
X0398750Y0147587D01*
X0399500Y0150385D01*
X0399500Y0153282D01*
X0398750Y0156079D01*
X0398257Y0156933D01*
X0403600Y0156933D01*
X0403600Y0070899D01*
X0402262Y0071167D01*
X0401049Y0070358D01*
X0400371Y0071037D01*
X0398631Y0071037D01*
X0398007Y0070413D01*
X0397549Y0069955D01*
X0396467Y0071037D01*
X0395066Y0071037D01*
X0394888Y0071037D01*
X0394728Y0071037D01*
X0393326Y0071037D01*
X0393312Y0071023D01*
X0392096Y0069807D01*
X0392096Y0069807D01*
X0391467Y0069178D01*
X0391396Y0069106D01*
X0391396Y0069106D01*
X0391396Y0069106D01*
X0391396Y0068281D01*
X0391396Y0066733D01*
X0373900Y0066733D01*
X0373900Y0067907D01*
X0373123Y0069783D01*
X0389349Y0069783D01*
X0390550Y0070984D01*
X0390550Y0070984D01*
X0399349Y0079783D01*
X0399349Y0079783D01*
X0400550Y0080984D01*
X0400550Y0104287D01*
X0401255Y0104992D01*
X0401750Y0106187D01*
X0401750Y0107480D01*
X0401255Y0108674D01*
X0400341Y0109589D01*
X0400209Y0109643D01*
X0400328Y0109762D02*
X0403600Y0109762D01*
X0403600Y0110760D02*
X0401050Y0110760D01*
X0401050Y0111759D02*
X0403600Y0111759D01*
X0403600Y0112757D02*
X0401050Y0112757D01*
X0401050Y0113756D02*
X0403600Y0113756D01*
X0403600Y0114754D02*
X0401050Y0114754D01*
X0401050Y0115753D02*
X0403600Y0115753D01*
X0403600Y0116751D02*
X0400481Y0116751D01*
X0399482Y0117750D02*
X0403600Y0117750D01*
X0403600Y0118748D02*
X0398484Y0118748D01*
X0403600Y0119747D02*
X0381458Y0119747D01*
X0380311Y0120745D02*
X0403600Y0120745D01*
X0403600Y0121744D02*
X0381310Y0121744D01*
X0382308Y0122743D02*
X0403600Y0122743D01*
X0403600Y0123741D02*
X0383307Y0123741D01*
X0384050Y0124740D02*
X0403600Y0124740D01*
X0403600Y0125738D02*
X0384050Y0125738D01*
X0384050Y0126737D02*
X0403600Y0126737D01*
X0403600Y0127735D02*
X0384050Y0127735D01*
X0384050Y0128734D02*
X0403600Y0128734D01*
X0403600Y0129732D02*
X0384050Y0129732D01*
X0384050Y0130731D02*
X0403600Y0130731D01*
X0403600Y0131729D02*
X0384050Y0131729D01*
X0384050Y0132728D02*
X0403600Y0132728D01*
X0403600Y0133726D02*
X0384050Y0133726D01*
X0384050Y0134725D02*
X0403600Y0134725D01*
X0403600Y0135723D02*
X0384050Y0135723D01*
X0387985Y0136722D02*
X0403600Y0136722D01*
X0403600Y0137720D02*
X0388850Y0137720D01*
X0389250Y0138719D02*
X0403600Y0138719D01*
X0403600Y0139717D02*
X0389250Y0139717D01*
X0388945Y0140716D02*
X0403600Y0140716D01*
X0403600Y0141714D02*
X0392973Y0141714D01*
X0394703Y0142713D02*
X0403600Y0142713D01*
X0403600Y0143711D02*
X0395934Y0143711D01*
X0396933Y0144710D02*
X0403600Y0144710D01*
X0403600Y0145708D02*
X0397665Y0145708D01*
X0398242Y0146707D02*
X0403600Y0146707D01*
X0403600Y0147705D02*
X0398782Y0147705D01*
X0399049Y0148704D02*
X0403600Y0148704D01*
X0403600Y0149702D02*
X0399317Y0149702D01*
X0399500Y0150701D02*
X0403600Y0150701D01*
X0403600Y0151699D02*
X0399500Y0151699D01*
X0399500Y0152698D02*
X0403600Y0152698D01*
X0403600Y0153696D02*
X0399389Y0153696D01*
X0399121Y0154695D02*
X0403600Y0154695D01*
X0403600Y0155693D02*
X0398854Y0155693D01*
X0398397Y0156692D02*
X0403600Y0156692D01*
X0391396Y0168733D02*
X0373900Y0168733D01*
X0373900Y0169907D01*
X0373123Y0171783D01*
X0389349Y0171783D01*
X0399349Y0181783D01*
X0400550Y0182984D01*
X0400550Y0206287D01*
X0401255Y0206992D01*
X0401750Y0208187D01*
X0401750Y0209480D01*
X0401255Y0210674D01*
X0400341Y0211589D01*
X0400209Y0211643D01*
X0401050Y0212484D01*
X0401050Y0218182D01*
X0399849Y0219383D01*
X0398349Y0220883D01*
X0396651Y0220883D01*
X0382546Y0220883D01*
X0381841Y0221589D01*
X0380646Y0222083D01*
X0379649Y0222083D01*
X0382849Y0225283D01*
X0384050Y0226484D01*
X0384050Y0238687D01*
X0384159Y0238578D01*
X0385354Y0238083D01*
X0386646Y0238083D01*
X0387841Y0238578D01*
X0388755Y0239492D01*
X0389250Y0240687D01*
X0389250Y0241980D01*
X0388896Y0242833D01*
X0389948Y0242833D01*
X0392746Y0243583D01*
X0395254Y0245031D01*
X0397302Y0247079D01*
X0398750Y0249587D01*
X0399500Y0252385D01*
X0399500Y0255282D01*
X0398750Y0258079D01*
X0398257Y0258933D01*
X0403600Y0258933D01*
X0403600Y0172899D01*
X0402262Y0173167D01*
X0401049Y0172358D01*
X0400371Y0173037D01*
X0398631Y0173037D01*
X0398007Y0172413D01*
X0397549Y0171955D01*
X0396467Y0173037D01*
X0395066Y0173037D01*
X0394728Y0173037D01*
X0393326Y0173037D01*
X0393312Y0173023D01*
X0392096Y0171807D01*
X0392096Y0171807D01*
X0391467Y0171178D01*
X0391396Y0171106D01*
X0391396Y0171106D01*
X0391396Y0171106D01*
X0391396Y0170281D01*
X0391396Y0168733D01*
X0391396Y0169673D02*
X0373900Y0169673D01*
X0373584Y0170671D02*
X0391396Y0170671D01*
X0391959Y0171670D02*
X0373170Y0171670D01*
X0378449Y0178383D02*
X0382349Y0182283D01*
X0383550Y0183484D01*
X0383550Y0205287D01*
X0384046Y0205783D01*
X0391349Y0205783D01*
X0393450Y0207884D01*
X0393450Y0184682D01*
X0387151Y0178383D01*
X0378449Y0178383D01*
X0378725Y0178659D02*
X0387427Y0178659D01*
X0388425Y0179658D02*
X0379723Y0179658D01*
X0380722Y0180656D02*
X0389424Y0180656D01*
X0390422Y0181655D02*
X0381720Y0181655D01*
X0382719Y0182653D02*
X0391421Y0182653D01*
X0392419Y0183652D02*
X0383550Y0183652D01*
X0383550Y0184650D02*
X0393418Y0184650D01*
X0393450Y0185649D02*
X0383550Y0185649D01*
X0383550Y0186647D02*
X0393450Y0186647D01*
X0393450Y0187646D02*
X0383550Y0187646D01*
X0383550Y0188644D02*
X0393450Y0188644D01*
X0393450Y0189643D02*
X0383550Y0189643D01*
X0383550Y0190641D02*
X0393450Y0190641D01*
X0393450Y0191640D02*
X0383550Y0191640D01*
X0383550Y0192638D02*
X0393450Y0192638D01*
X0393450Y0193637D02*
X0383550Y0193637D01*
X0383550Y0194635D02*
X0393450Y0194635D01*
X0393450Y0195634D02*
X0383550Y0195634D01*
X0383550Y0196632D02*
X0393450Y0196632D01*
X0393450Y0197631D02*
X0383550Y0197631D01*
X0383550Y0198629D02*
X0393450Y0198629D01*
X0393450Y0199628D02*
X0383550Y0199628D01*
X0383550Y0200626D02*
X0393450Y0200626D01*
X0393450Y0201625D02*
X0383550Y0201625D01*
X0383550Y0202623D02*
X0393450Y0202623D01*
X0393450Y0203622D02*
X0383550Y0203622D01*
X0383550Y0204620D02*
X0393450Y0204620D01*
X0393450Y0205619D02*
X0383882Y0205619D01*
X0374450Y0205619D02*
X0318050Y0205619D01*
X0318050Y0206287D02*
X0318755Y0206992D01*
X0319250Y0208187D01*
X0319250Y0209480D01*
X0318755Y0210674D01*
X0317841Y0211589D01*
X0316646Y0212083D01*
X0315354Y0212083D01*
X0314159Y0211589D01*
X0313245Y0210674D01*
X0312750Y0209480D01*
X0312750Y0208187D01*
X0313207Y0207083D01*
X0312854Y0207083D01*
X0311659Y0206589D01*
X0310745Y0205674D01*
X0310250Y0204480D01*
X0310250Y0203187D01*
X0310745Y0201992D01*
X0311450Y0201287D01*
X0311450Y0185883D01*
X0301046Y0185883D01*
X0300341Y0186589D01*
X0299146Y0187083D01*
X0297854Y0187083D01*
X0296659Y0186589D01*
X0295745Y0185674D01*
X0295250Y0184480D01*
X0295250Y0183187D01*
X0295745Y0181992D01*
X0296659Y0181078D01*
X0297854Y0180583D01*
X0299146Y0180583D01*
X0300341Y0181078D01*
X0301046Y0181783D01*
X0311450Y0181783D01*
X0311450Y0176484D01*
X0316151Y0171783D01*
X0324216Y0171783D01*
X0324053Y0171559D01*
X0323681Y0170829D01*
X0323428Y0170051D01*
X0323314Y0169333D01*
X0328000Y0169333D01*
X0328000Y0168733D01*
X0293400Y0168733D01*
X0293400Y0258933D01*
X0298743Y0258933D01*
X0298250Y0258079D01*
X0297500Y0255282D01*
X0297500Y0252385D01*
X0298250Y0249587D01*
X0299698Y0247079D01*
X0301746Y0245031D01*
X0304254Y0243583D01*
X0307052Y0242833D01*
X0309948Y0242833D01*
X0312746Y0243583D01*
X0315254Y0245031D01*
X0315637Y0245414D01*
X0315250Y0244480D01*
X0315250Y0243695D01*
X0307589Y0236033D01*
X0306300Y0234745D01*
X0306300Y0231230D01*
X0305745Y0230674D01*
X0305250Y0229480D01*
X0305250Y0228187D01*
X0305745Y0226992D01*
X0306659Y0226078D01*
X0307854Y0225583D01*
X0309146Y0225583D01*
X0310341Y0226078D01*
X0311255Y0226992D01*
X0311750Y0228187D01*
X0311750Y0229480D01*
X0311255Y0230674D01*
X0310700Y0231230D01*
X0310700Y0232922D01*
X0318361Y0240583D01*
X0319146Y0240583D01*
X0320341Y0241078D01*
X0321255Y0241992D01*
X0321750Y0243187D01*
X0321750Y0243972D01*
X0324411Y0246633D01*
X0367589Y0246633D01*
X0376300Y0237922D01*
X0376300Y0231230D01*
X0375745Y0230674D01*
X0375250Y0229480D01*
X0375250Y0228187D01*
X0375745Y0226992D01*
X0376659Y0226078D01*
X0377498Y0225731D01*
X0374450Y0222682D01*
X0374450Y0220984D01*
X0374450Y0187182D01*
X0373151Y0185883D01*
X0371046Y0185883D01*
X0370341Y0186589D01*
X0369146Y0187083D01*
X0367854Y0187083D01*
X0366659Y0186589D01*
X0365745Y0185674D01*
X0365250Y0184480D01*
X0365250Y0183187D01*
X0365745Y0181992D01*
X0366659Y0181078D01*
X0367129Y0180883D01*
X0362651Y0180883D01*
X0361450Y0179682D01*
X0357651Y0175883D01*
X0346417Y0175883D01*
X0346750Y0176687D01*
X0346750Y0177980D01*
X0346255Y0179174D01*
X0345341Y0180089D01*
X0344146Y0180583D01*
X0342854Y0180583D01*
X0341659Y0180089D01*
X0340954Y0179383D01*
X0326046Y0179383D01*
X0325341Y0180089D01*
X0324146Y0180583D01*
X0322854Y0180583D01*
X0321659Y0180089D01*
X0320954Y0179383D01*
X0319196Y0179383D01*
X0318050Y0180529D01*
X0318050Y0206287D01*
X0318380Y0206617D02*
X0374450Y0206617D01*
X0374450Y0207616D02*
X0319014Y0207616D01*
X0319250Y0208614D02*
X0374450Y0208614D01*
X0374450Y0209613D02*
X0319195Y0209613D01*
X0318781Y0210612D02*
X0374450Y0210612D01*
X0374450Y0211610D02*
X0317789Y0211610D01*
X0314211Y0211610D02*
X0293400Y0211610D01*
X0293400Y0210612D02*
X0313219Y0210612D01*
X0312805Y0209613D02*
X0293400Y0209613D01*
X0293400Y0208614D02*
X0312750Y0208614D01*
X0312986Y0207616D02*
X0293400Y0207616D01*
X0293400Y0206617D02*
X0311729Y0206617D01*
X0310722Y0205619D02*
X0293400Y0205619D01*
X0293400Y0204620D02*
X0310308Y0204620D01*
X0310250Y0203622D02*
X0293400Y0203622D01*
X0293400Y0202623D02*
X0310483Y0202623D01*
X0311112Y0201625D02*
X0293400Y0201625D01*
X0293400Y0200626D02*
X0311450Y0200626D01*
X0311450Y0199628D02*
X0293400Y0199628D01*
X0293400Y0198629D02*
X0311450Y0198629D01*
X0311450Y0197631D02*
X0293400Y0197631D01*
X0293400Y0196632D02*
X0311450Y0196632D01*
X0311450Y0195634D02*
X0293400Y0195634D01*
X0293400Y0194635D02*
X0311450Y0194635D01*
X0311450Y0193637D02*
X0293400Y0193637D01*
X0293400Y0192638D02*
X0311450Y0192638D01*
X0311450Y0191640D02*
X0293400Y0191640D01*
X0293400Y0190641D02*
X0311450Y0190641D01*
X0311450Y0189643D02*
X0293400Y0189643D01*
X0293400Y0188644D02*
X0311450Y0188644D01*
X0311450Y0187646D02*
X0293400Y0187646D01*
X0293400Y0186647D02*
X0296801Y0186647D01*
X0295734Y0185649D02*
X0293400Y0185649D01*
X0293400Y0184650D02*
X0295321Y0184650D01*
X0295250Y0183652D02*
X0293400Y0183652D01*
X0293400Y0182653D02*
X0295471Y0182653D01*
X0296082Y0181655D02*
X0293400Y0181655D01*
X0293400Y0180656D02*
X0297678Y0180656D01*
X0299322Y0180656D02*
X0311450Y0180656D01*
X0311450Y0179658D02*
X0293400Y0179658D01*
X0293400Y0178659D02*
X0311450Y0178659D01*
X0311450Y0177661D02*
X0293400Y0177661D01*
X0293400Y0176662D02*
X0311450Y0176662D01*
X0312271Y0175664D02*
X0293400Y0175664D01*
X0293400Y0174665D02*
X0313269Y0174665D01*
X0314268Y0173667D02*
X0293400Y0173667D01*
X0293400Y0172668D02*
X0315266Y0172668D01*
X0318921Y0179658D02*
X0321228Y0179658D01*
X0318050Y0180656D02*
X0362424Y0180656D01*
X0361425Y0179658D02*
X0345772Y0179658D01*
X0346469Y0178659D02*
X0360427Y0178659D01*
X0359428Y0177661D02*
X0346750Y0177661D01*
X0346740Y0176662D02*
X0358430Y0176662D01*
X0366082Y0181655D02*
X0318050Y0181655D01*
X0318050Y0182653D02*
X0365471Y0182653D01*
X0365250Y0183652D02*
X0318050Y0183652D01*
X0318050Y0184650D02*
X0365321Y0184650D01*
X0365734Y0185649D02*
X0318050Y0185649D01*
X0318050Y0186647D02*
X0366801Y0186647D01*
X0370199Y0186647D02*
X0373915Y0186647D01*
X0374450Y0187646D02*
X0318050Y0187646D01*
X0318050Y0188644D02*
X0374450Y0188644D01*
X0374450Y0189643D02*
X0318050Y0189643D01*
X0318050Y0190641D02*
X0374450Y0190641D01*
X0374450Y0191640D02*
X0318050Y0191640D01*
X0318050Y0192638D02*
X0374450Y0192638D01*
X0374450Y0193637D02*
X0318050Y0193637D01*
X0318050Y0194635D02*
X0374450Y0194635D01*
X0374450Y0195634D02*
X0318050Y0195634D01*
X0318050Y0196632D02*
X0374450Y0196632D01*
X0374450Y0197631D02*
X0318050Y0197631D01*
X0318050Y0198629D02*
X0374450Y0198629D01*
X0374450Y0199628D02*
X0318050Y0199628D01*
X0318050Y0200626D02*
X0374450Y0200626D01*
X0374450Y0201625D02*
X0318050Y0201625D01*
X0318050Y0202623D02*
X0374450Y0202623D01*
X0374450Y0203622D02*
X0318050Y0203622D01*
X0318050Y0204620D02*
X0374450Y0204620D01*
X0374450Y0212609D02*
X0293400Y0212609D01*
X0293400Y0213607D02*
X0374450Y0213607D01*
X0374450Y0214606D02*
X0293400Y0214606D01*
X0293400Y0215604D02*
X0374450Y0215604D01*
X0374450Y0216603D02*
X0293400Y0216603D01*
X0293400Y0217601D02*
X0374450Y0217601D01*
X0374450Y0218600D02*
X0293400Y0218600D01*
X0293400Y0219598D02*
X0374450Y0219598D01*
X0374450Y0220597D02*
X0293400Y0220597D01*
X0293400Y0221595D02*
X0374450Y0221595D01*
X0374450Y0222594D02*
X0293400Y0222594D01*
X0293400Y0223592D02*
X0375360Y0223592D01*
X0376358Y0224591D02*
X0293400Y0224591D01*
X0293400Y0225589D02*
X0307839Y0225589D01*
X0309161Y0225589D02*
X0377357Y0225589D01*
X0376149Y0226588D02*
X0310851Y0226588D01*
X0311501Y0227586D02*
X0375499Y0227586D01*
X0375250Y0228585D02*
X0311750Y0228585D01*
X0311707Y0229583D02*
X0375293Y0229583D01*
X0375706Y0230582D02*
X0311294Y0230582D01*
X0310700Y0231580D02*
X0376300Y0231580D01*
X0376300Y0232579D02*
X0310700Y0232579D01*
X0311355Y0233577D02*
X0376300Y0233577D01*
X0376300Y0234576D02*
X0312354Y0234576D01*
X0313352Y0235574D02*
X0376300Y0235574D01*
X0376300Y0236573D02*
X0314351Y0236573D01*
X0315349Y0237571D02*
X0376300Y0237571D01*
X0375652Y0238570D02*
X0316348Y0238570D01*
X0317346Y0239568D02*
X0374654Y0239568D01*
X0373655Y0240567D02*
X0318345Y0240567D01*
X0320828Y0241565D02*
X0372657Y0241565D01*
X0371658Y0242564D02*
X0321492Y0242564D01*
X0321750Y0243562D02*
X0370660Y0243562D01*
X0369661Y0244561D02*
X0322339Y0244561D01*
X0323337Y0245559D02*
X0368663Y0245559D01*
X0367664Y0246558D02*
X0324336Y0246558D01*
X0323500Y0248833D02*
X0318500Y0243833D01*
X0308500Y0233833D01*
X0308500Y0228833D01*
X0305499Y0227586D02*
X0293400Y0227586D01*
X0293400Y0226588D02*
X0306149Y0226588D01*
X0305250Y0228585D02*
X0293400Y0228585D01*
X0293400Y0229583D02*
X0305293Y0229583D01*
X0305706Y0230582D02*
X0293400Y0230582D01*
X0293400Y0231580D02*
X0306300Y0231580D01*
X0306300Y0232579D02*
X0293400Y0232579D01*
X0293400Y0233577D02*
X0306300Y0233577D01*
X0306300Y0234576D02*
X0293400Y0234576D01*
X0293400Y0235574D02*
X0307130Y0235574D01*
X0308128Y0236573D02*
X0293400Y0236573D01*
X0293400Y0237571D02*
X0309127Y0237571D01*
X0310125Y0238570D02*
X0293400Y0238570D01*
X0293400Y0239568D02*
X0311124Y0239568D01*
X0312122Y0240567D02*
X0293400Y0240567D01*
X0293400Y0241565D02*
X0313121Y0241565D01*
X0314119Y0242564D02*
X0293400Y0242564D01*
X0293400Y0243562D02*
X0304331Y0243562D01*
X0302560Y0244561D02*
X0293400Y0244561D01*
X0293400Y0245559D02*
X0301218Y0245559D01*
X0300219Y0246558D02*
X0293400Y0246558D01*
X0293400Y0247556D02*
X0299422Y0247556D01*
X0298846Y0248555D02*
X0293400Y0248555D01*
X0293400Y0249553D02*
X0298269Y0249553D01*
X0297991Y0250552D02*
X0293400Y0250552D01*
X0293400Y0251550D02*
X0297724Y0251550D01*
X0297500Y0252549D02*
X0293400Y0252549D01*
X0293400Y0253548D02*
X0297500Y0253548D01*
X0297500Y0254546D02*
X0293400Y0254546D01*
X0293400Y0255545D02*
X0297570Y0255545D01*
X0297838Y0256543D02*
X0293400Y0256543D01*
X0293400Y0257542D02*
X0298106Y0257542D01*
X0298516Y0258540D02*
X0293400Y0258540D01*
X0281600Y0258540D02*
X0276484Y0258540D01*
X0276257Y0258933D02*
X0281600Y0258933D01*
X0281600Y0172899D01*
X0280262Y0173167D01*
X0279049Y0172358D01*
X0278371Y0173037D01*
X0276631Y0173037D01*
X0276007Y0172413D01*
X0275549Y0171955D01*
X0274467Y0173037D01*
X0273066Y0173037D01*
X0272888Y0173037D01*
X0272728Y0173037D01*
X0271326Y0173037D01*
X0271312Y0173023D01*
X0270096Y0171807D01*
X0270096Y0171807D01*
X0269467Y0171178D01*
X0269396Y0171106D01*
X0269396Y0171106D01*
X0269396Y0171106D01*
X0269396Y0170281D01*
X0269396Y0168733D01*
X0251900Y0168733D01*
X0251900Y0169907D01*
X0251123Y0171783D01*
X0267349Y0171783D01*
X0277349Y0181783D01*
X0278550Y0182984D01*
X0278550Y0206287D01*
X0279255Y0206992D01*
X0279750Y0208187D01*
X0279750Y0209480D01*
X0279255Y0210674D01*
X0278341Y0211589D01*
X0278209Y0211643D01*
X0279050Y0212484D01*
X0279050Y0218182D01*
X0277849Y0219383D01*
X0276349Y0220883D01*
X0274651Y0220883D01*
X0260546Y0220883D01*
X0259841Y0221589D01*
X0258646Y0222083D01*
X0257649Y0222083D01*
X0260849Y0225283D01*
X0262050Y0226484D01*
X0262050Y0238687D01*
X0262159Y0238578D01*
X0263354Y0238083D01*
X0264646Y0238083D01*
X0265841Y0238578D01*
X0266755Y0239492D01*
X0267250Y0240687D01*
X0267250Y0241980D01*
X0266896Y0242833D01*
X0267948Y0242833D01*
X0270746Y0243583D01*
X0273254Y0245031D01*
X0275302Y0247079D01*
X0276750Y0249587D01*
X0277500Y0252385D01*
X0277500Y0255282D01*
X0276750Y0258079D01*
X0276257Y0258933D01*
X0276894Y0257542D02*
X0281600Y0257542D01*
X0281600Y0256543D02*
X0277162Y0256543D01*
X0277430Y0255545D02*
X0281600Y0255545D01*
X0281600Y0254546D02*
X0277500Y0254546D01*
X0277500Y0253548D02*
X0281600Y0253548D01*
X0281600Y0252549D02*
X0277500Y0252549D01*
X0277276Y0251550D02*
X0281600Y0251550D01*
X0281600Y0250552D02*
X0277009Y0250552D01*
X0276731Y0249553D02*
X0281600Y0249553D01*
X0281600Y0248555D02*
X0276154Y0248555D01*
X0275578Y0247556D02*
X0281600Y0247556D01*
X0281600Y0246558D02*
X0274781Y0246558D01*
X0273782Y0245559D02*
X0281600Y0245559D01*
X0281600Y0244561D02*
X0272440Y0244561D01*
X0270669Y0243562D02*
X0281600Y0243562D01*
X0281600Y0242564D02*
X0267008Y0242564D01*
X0267250Y0241565D02*
X0281600Y0241565D01*
X0281600Y0240567D02*
X0267200Y0240567D01*
X0266787Y0239568D02*
X0281600Y0239568D01*
X0281600Y0238570D02*
X0265821Y0238570D01*
X0262179Y0238570D02*
X0262050Y0238570D01*
X0262050Y0237571D02*
X0281600Y0237571D01*
X0281600Y0236573D02*
X0262050Y0236573D01*
X0262050Y0235574D02*
X0281600Y0235574D01*
X0281600Y0234576D02*
X0262050Y0234576D01*
X0262050Y0233577D02*
X0281600Y0233577D01*
X0281600Y0232579D02*
X0262050Y0232579D01*
X0262050Y0231580D02*
X0281600Y0231580D01*
X0281600Y0230582D02*
X0262050Y0230582D01*
X0262050Y0229583D02*
X0281600Y0229583D01*
X0281600Y0228585D02*
X0262050Y0228585D01*
X0262050Y0227586D02*
X0281600Y0227586D01*
X0281600Y0226588D02*
X0262050Y0226588D01*
X0261155Y0225589D02*
X0281600Y0225589D01*
X0281600Y0224591D02*
X0260156Y0224591D01*
X0259158Y0223592D02*
X0281600Y0223592D01*
X0281600Y0222594D02*
X0258159Y0222594D01*
X0259825Y0221595D02*
X0281600Y0221595D01*
X0281600Y0220597D02*
X0276636Y0220597D01*
X0277634Y0219598D02*
X0281600Y0219598D01*
X0281600Y0218600D02*
X0278633Y0218600D01*
X0279050Y0217601D02*
X0281600Y0217601D01*
X0281600Y0216603D02*
X0279050Y0216603D01*
X0279050Y0215604D02*
X0281600Y0215604D01*
X0281600Y0214606D02*
X0279050Y0214606D01*
X0279050Y0213607D02*
X0281600Y0213607D01*
X0281600Y0212609D02*
X0279050Y0212609D01*
X0278289Y0211610D02*
X0281600Y0211610D01*
X0281600Y0210612D02*
X0279281Y0210612D01*
X0279695Y0209613D02*
X0281600Y0209613D01*
X0281600Y0208614D02*
X0279750Y0208614D01*
X0279514Y0207616D02*
X0281600Y0207616D01*
X0281600Y0206617D02*
X0278880Y0206617D01*
X0278550Y0205619D02*
X0281600Y0205619D01*
X0281600Y0204620D02*
X0278550Y0204620D01*
X0278550Y0203622D02*
X0281600Y0203622D01*
X0281600Y0202623D02*
X0278550Y0202623D01*
X0278550Y0201625D02*
X0281600Y0201625D01*
X0281600Y0200626D02*
X0278550Y0200626D01*
X0278550Y0199628D02*
X0281600Y0199628D01*
X0281600Y0198629D02*
X0278550Y0198629D01*
X0278550Y0197631D02*
X0281600Y0197631D01*
X0281600Y0196632D02*
X0278550Y0196632D01*
X0278550Y0195634D02*
X0281600Y0195634D01*
X0281600Y0194635D02*
X0278550Y0194635D01*
X0278550Y0193637D02*
X0281600Y0193637D01*
X0281600Y0192638D02*
X0278550Y0192638D01*
X0278550Y0191640D02*
X0281600Y0191640D01*
X0281600Y0190641D02*
X0278550Y0190641D01*
X0278550Y0189643D02*
X0281600Y0189643D01*
X0281600Y0188644D02*
X0278550Y0188644D01*
X0278550Y0187646D02*
X0281600Y0187646D01*
X0281600Y0186647D02*
X0278550Y0186647D01*
X0278550Y0185649D02*
X0281600Y0185649D01*
X0281600Y0184650D02*
X0278550Y0184650D01*
X0278550Y0183652D02*
X0281600Y0183652D01*
X0281600Y0182653D02*
X0278219Y0182653D01*
X0277220Y0181655D02*
X0281600Y0181655D01*
X0281600Y0180656D02*
X0276222Y0180656D01*
X0275223Y0179658D02*
X0281600Y0179658D01*
X0281600Y0178659D02*
X0274225Y0178659D01*
X0273226Y0177661D02*
X0281600Y0177661D01*
X0281600Y0176662D02*
X0272228Y0176662D01*
X0271229Y0175664D02*
X0281600Y0175664D01*
X0281600Y0174665D02*
X0270231Y0174665D01*
X0269232Y0173667D02*
X0281600Y0173667D01*
X0279514Y0172668D02*
X0278739Y0172668D01*
X0276262Y0172668D02*
X0274836Y0172668D01*
X0273066Y0173037D02*
X0273066Y0173037D01*
X0272728Y0173037D02*
X0272728Y0173037D01*
X0271326Y0173037D02*
X0271326Y0173037D01*
X0270958Y0172668D02*
X0268234Y0172668D01*
X0269959Y0171670D02*
X0251170Y0171670D01*
X0251584Y0170671D02*
X0269396Y0170671D01*
X0269396Y0169673D02*
X0251900Y0169673D01*
X0256449Y0178383D02*
X0260349Y0182283D01*
X0261550Y0183484D01*
X0261550Y0205287D01*
X0262046Y0205783D01*
X0269349Y0205783D01*
X0271450Y0207884D01*
X0271450Y0184682D01*
X0265151Y0178383D01*
X0256449Y0178383D01*
X0256725Y0178659D02*
X0265427Y0178659D01*
X0266425Y0179658D02*
X0257723Y0179658D01*
X0258722Y0180656D02*
X0267424Y0180656D01*
X0268422Y0181655D02*
X0259720Y0181655D01*
X0260719Y0182653D02*
X0269421Y0182653D01*
X0270419Y0183652D02*
X0261550Y0183652D01*
X0261550Y0184650D02*
X0271418Y0184650D01*
X0271450Y0185649D02*
X0261550Y0185649D01*
X0261550Y0186647D02*
X0271450Y0186647D01*
X0271450Y0187646D02*
X0261550Y0187646D01*
X0261550Y0188644D02*
X0271450Y0188644D01*
X0271450Y0189643D02*
X0261550Y0189643D01*
X0261550Y0190641D02*
X0271450Y0190641D01*
X0271450Y0191640D02*
X0261550Y0191640D01*
X0261550Y0192638D02*
X0271450Y0192638D01*
X0271450Y0193637D02*
X0261550Y0193637D01*
X0261550Y0194635D02*
X0271450Y0194635D01*
X0271450Y0195634D02*
X0261550Y0195634D01*
X0261550Y0196632D02*
X0271450Y0196632D01*
X0271450Y0197631D02*
X0261550Y0197631D01*
X0261550Y0198629D02*
X0271450Y0198629D01*
X0271450Y0199628D02*
X0261550Y0199628D01*
X0261550Y0200626D02*
X0271450Y0200626D01*
X0271450Y0201625D02*
X0261550Y0201625D01*
X0261550Y0202623D02*
X0271450Y0202623D01*
X0271450Y0203622D02*
X0261550Y0203622D01*
X0261550Y0204620D02*
X0271450Y0204620D01*
X0271450Y0205619D02*
X0261882Y0205619D01*
X0270183Y0206617D02*
X0271450Y0206617D01*
X0271450Y0207616D02*
X0271182Y0207616D01*
X0252450Y0207616D02*
X0197014Y0207616D01*
X0197250Y0208187D02*
X0196755Y0206992D01*
X0196050Y0206287D01*
X0196050Y0180529D01*
X0197196Y0179383D01*
X0198954Y0179383D01*
X0199659Y0180089D01*
X0200854Y0180583D01*
X0202146Y0180583D01*
X0203341Y0180089D01*
X0204046Y0179383D01*
X0218954Y0179383D01*
X0219659Y0180089D01*
X0220854Y0180583D01*
X0222146Y0180583D01*
X0223341Y0180089D01*
X0224255Y0179174D01*
X0224750Y0177980D01*
X0224750Y0176687D01*
X0224417Y0175883D01*
X0235651Y0175883D01*
X0239450Y0179682D01*
X0240651Y0180883D01*
X0245129Y0180883D01*
X0244659Y0181078D01*
X0243745Y0181992D01*
X0243250Y0183187D01*
X0243250Y0184480D01*
X0243745Y0185674D01*
X0244659Y0186589D01*
X0245854Y0187083D01*
X0247146Y0187083D01*
X0248341Y0186589D01*
X0249046Y0185883D01*
X0251151Y0185883D01*
X0252450Y0187182D01*
X0252450Y0220984D01*
X0252450Y0222682D01*
X0255498Y0225731D01*
X0254659Y0226078D01*
X0253745Y0226992D01*
X0253250Y0228187D01*
X0253250Y0229480D01*
X0253745Y0230674D01*
X0254300Y0231230D01*
X0254300Y0237922D01*
X0245589Y0246633D01*
X0202411Y0246633D01*
X0199750Y0243972D01*
X0199750Y0243187D01*
X0199255Y0241992D01*
X0198341Y0241078D01*
X0197146Y0240583D01*
X0196361Y0240583D01*
X0188700Y0232922D01*
X0188700Y0231230D01*
X0189255Y0230674D01*
X0189750Y0229480D01*
X0189750Y0228187D01*
X0189255Y0226992D01*
X0188341Y0226078D01*
X0187146Y0225583D01*
X0185854Y0225583D01*
X0184659Y0226078D01*
X0183745Y0226992D01*
X0183250Y0228187D01*
X0183250Y0229480D01*
X0183745Y0230674D01*
X0184300Y0231230D01*
X0184300Y0234745D01*
X0185589Y0236033D01*
X0193250Y0243695D01*
X0193250Y0244480D01*
X0193637Y0245414D01*
X0193254Y0245031D01*
X0190746Y0243583D01*
X0187948Y0242833D01*
X0185052Y0242833D01*
X0182254Y0243583D01*
X0179746Y0245031D01*
X0177698Y0247079D01*
X0176250Y0249587D01*
X0175500Y0252385D01*
X0175500Y0255282D01*
X0176250Y0258079D01*
X0176743Y0258933D01*
X0171400Y0258933D01*
X0171400Y0168733D01*
X0206000Y0168733D01*
X0206000Y0169333D01*
X0201314Y0169333D01*
X0201428Y0170051D01*
X0201681Y0170829D01*
X0202053Y0171559D01*
X0202216Y0171783D01*
X0194151Y0171783D01*
X0189450Y0176484D01*
X0189450Y0181783D01*
X0179046Y0181783D01*
X0178341Y0181078D01*
X0177146Y0180583D01*
X0175854Y0180583D01*
X0174659Y0181078D01*
X0173745Y0181992D01*
X0173250Y0183187D01*
X0173250Y0184480D01*
X0173745Y0185674D01*
X0174659Y0186589D01*
X0175854Y0187083D01*
X0177146Y0187083D01*
X0178341Y0186589D01*
X0179046Y0185883D01*
X0189450Y0185883D01*
X0189450Y0201287D01*
X0188745Y0201992D01*
X0188250Y0203187D01*
X0188250Y0204480D01*
X0188745Y0205674D01*
X0189659Y0206589D01*
X0190854Y0207083D01*
X0191207Y0207083D01*
X0190750Y0208187D01*
X0190750Y0209480D01*
X0191245Y0210674D01*
X0192159Y0211589D01*
X0193354Y0212083D01*
X0194646Y0212083D01*
X0195841Y0211589D01*
X0196755Y0210674D01*
X0197250Y0209480D01*
X0197250Y0208187D01*
X0197250Y0208614D02*
X0252450Y0208614D01*
X0252450Y0209613D02*
X0197195Y0209613D01*
X0196781Y0210612D02*
X0252450Y0210612D01*
X0252450Y0211610D02*
X0195789Y0211610D01*
X0192211Y0211610D02*
X0171400Y0211610D01*
X0171400Y0210612D02*
X0191219Y0210612D01*
X0190805Y0209613D02*
X0171400Y0209613D01*
X0171400Y0208614D02*
X0190750Y0208614D01*
X0190986Y0207616D02*
X0171400Y0207616D01*
X0171400Y0206617D02*
X0189729Y0206617D01*
X0188722Y0205619D02*
X0171400Y0205619D01*
X0171400Y0204620D02*
X0188308Y0204620D01*
X0188250Y0203622D02*
X0171400Y0203622D01*
X0171400Y0202623D02*
X0188483Y0202623D01*
X0189112Y0201625D02*
X0171400Y0201625D01*
X0171400Y0200626D02*
X0189450Y0200626D01*
X0189450Y0199628D02*
X0171400Y0199628D01*
X0171400Y0198629D02*
X0189450Y0198629D01*
X0189450Y0197631D02*
X0171400Y0197631D01*
X0171400Y0196632D02*
X0189450Y0196632D01*
X0189450Y0195634D02*
X0171400Y0195634D01*
X0171400Y0194635D02*
X0189450Y0194635D01*
X0189450Y0193637D02*
X0171400Y0193637D01*
X0171400Y0192638D02*
X0189450Y0192638D01*
X0189450Y0191640D02*
X0171400Y0191640D01*
X0171400Y0190641D02*
X0189450Y0190641D01*
X0189450Y0189643D02*
X0171400Y0189643D01*
X0171400Y0188644D02*
X0189450Y0188644D01*
X0189450Y0187646D02*
X0171400Y0187646D01*
X0171400Y0186647D02*
X0174801Y0186647D01*
X0173734Y0185649D02*
X0171400Y0185649D01*
X0171400Y0184650D02*
X0173321Y0184650D01*
X0173250Y0183652D02*
X0171400Y0183652D01*
X0171400Y0182653D02*
X0173471Y0182653D01*
X0174082Y0181655D02*
X0171400Y0181655D01*
X0171400Y0180656D02*
X0175678Y0180656D01*
X0177322Y0180656D02*
X0189450Y0180656D01*
X0189450Y0179658D02*
X0171400Y0179658D01*
X0171400Y0178659D02*
X0189450Y0178659D01*
X0189450Y0177661D02*
X0171400Y0177661D01*
X0171400Y0176662D02*
X0189450Y0176662D01*
X0190271Y0175664D02*
X0171400Y0175664D01*
X0171400Y0174665D02*
X0191269Y0174665D01*
X0192268Y0173667D02*
X0171400Y0173667D01*
X0171400Y0172668D02*
X0193266Y0172668D01*
X0201630Y0170671D02*
X0171400Y0170671D01*
X0171400Y0169673D02*
X0201368Y0169673D01*
X0202133Y0171670D02*
X0171400Y0171670D01*
X0159600Y0172899D02*
X0158262Y0173167D01*
X0157049Y0172358D01*
X0156371Y0173037D01*
X0154631Y0173037D01*
X0154007Y0172413D01*
X0153549Y0171955D01*
X0152467Y0173037D01*
X0151066Y0173037D01*
X0150728Y0173037D01*
X0149326Y0173037D01*
X0149312Y0173023D01*
X0148096Y0171807D01*
X0148096Y0171807D01*
X0147467Y0171178D01*
X0147396Y0171106D01*
X0147396Y0171106D01*
X0147396Y0171106D01*
X0147396Y0170281D01*
X0147396Y0168733D01*
X0129900Y0168733D01*
X0129900Y0169907D01*
X0129123Y0171783D01*
X0145349Y0171783D01*
X0155349Y0181783D01*
X0156550Y0182984D01*
X0156550Y0206287D01*
X0157255Y0206992D01*
X0157750Y0208187D01*
X0157750Y0209480D01*
X0157255Y0210674D01*
X0156341Y0211589D01*
X0156209Y0211643D01*
X0157050Y0212484D01*
X0157050Y0218182D01*
X0155849Y0219383D01*
X0154349Y0220883D01*
X0152651Y0220883D01*
X0138546Y0220883D01*
X0137841Y0221589D01*
X0136646Y0222083D01*
X0135649Y0222083D01*
X0138849Y0225283D01*
X0140050Y0226484D01*
X0140050Y0238687D01*
X0140159Y0238578D01*
X0141354Y0238083D01*
X0142646Y0238083D01*
X0143841Y0238578D01*
X0144755Y0239492D01*
X0145250Y0240687D01*
X0145250Y0241980D01*
X0144896Y0242833D01*
X0145948Y0242833D01*
X0148746Y0243583D01*
X0151254Y0245031D01*
X0153302Y0247079D01*
X0154750Y0249587D01*
X0155500Y0252385D01*
X0155500Y0255282D01*
X0154750Y0258079D01*
X0154257Y0258933D01*
X0159600Y0258933D01*
X0159600Y0172899D01*
X0159600Y0173667D02*
X0147232Y0173667D01*
X0148231Y0174665D02*
X0159600Y0174665D01*
X0159600Y0175664D02*
X0149229Y0175664D01*
X0150228Y0176662D02*
X0159600Y0176662D01*
X0159600Y0177661D02*
X0151226Y0177661D01*
X0152225Y0178659D02*
X0159600Y0178659D01*
X0159600Y0179658D02*
X0153223Y0179658D01*
X0154222Y0180656D02*
X0159600Y0180656D01*
X0159600Y0181655D02*
X0155220Y0181655D01*
X0156219Y0182653D02*
X0159600Y0182653D01*
X0159600Y0183652D02*
X0156550Y0183652D01*
X0156550Y0184650D02*
X0159600Y0184650D01*
X0159600Y0185649D02*
X0156550Y0185649D01*
X0156550Y0186647D02*
X0159600Y0186647D01*
X0159600Y0187646D02*
X0156550Y0187646D01*
X0156550Y0188644D02*
X0159600Y0188644D01*
X0159600Y0189643D02*
X0156550Y0189643D01*
X0156550Y0190641D02*
X0159600Y0190641D01*
X0159600Y0191640D02*
X0156550Y0191640D01*
X0156550Y0192638D02*
X0159600Y0192638D01*
X0159600Y0193637D02*
X0156550Y0193637D01*
X0156550Y0194635D02*
X0159600Y0194635D01*
X0159600Y0195634D02*
X0156550Y0195634D01*
X0156550Y0196632D02*
X0159600Y0196632D01*
X0159600Y0197631D02*
X0156550Y0197631D01*
X0156550Y0198629D02*
X0159600Y0198629D01*
X0159600Y0199628D02*
X0156550Y0199628D01*
X0156550Y0200626D02*
X0159600Y0200626D01*
X0159600Y0201625D02*
X0156550Y0201625D01*
X0156550Y0202623D02*
X0159600Y0202623D01*
X0159600Y0203622D02*
X0156550Y0203622D01*
X0156550Y0204620D02*
X0159600Y0204620D01*
X0159600Y0205619D02*
X0156550Y0205619D01*
X0156880Y0206617D02*
X0159600Y0206617D01*
X0159600Y0207616D02*
X0157514Y0207616D01*
X0157750Y0208614D02*
X0159600Y0208614D01*
X0159600Y0209613D02*
X0157695Y0209613D01*
X0157281Y0210612D02*
X0159600Y0210612D01*
X0159600Y0211610D02*
X0156289Y0211610D01*
X0157050Y0212609D02*
X0159600Y0212609D01*
X0159600Y0213607D02*
X0157050Y0213607D01*
X0157050Y0214606D02*
X0159600Y0214606D01*
X0159600Y0215604D02*
X0157050Y0215604D01*
X0157050Y0216603D02*
X0159600Y0216603D01*
X0159600Y0217601D02*
X0157050Y0217601D01*
X0156633Y0218600D02*
X0159600Y0218600D01*
X0159600Y0219598D02*
X0155634Y0219598D01*
X0154636Y0220597D02*
X0159600Y0220597D01*
X0159600Y0221595D02*
X0137825Y0221595D01*
X0136159Y0222594D02*
X0159600Y0222594D01*
X0159600Y0223592D02*
X0137158Y0223592D01*
X0138156Y0224591D02*
X0159600Y0224591D01*
X0159600Y0225589D02*
X0139155Y0225589D01*
X0140050Y0226588D02*
X0159600Y0226588D01*
X0159600Y0227586D02*
X0140050Y0227586D01*
X0140050Y0228585D02*
X0159600Y0228585D01*
X0159600Y0229583D02*
X0140050Y0229583D01*
X0140050Y0230582D02*
X0159600Y0230582D01*
X0159600Y0231580D02*
X0140050Y0231580D01*
X0140050Y0232579D02*
X0159600Y0232579D01*
X0159600Y0233577D02*
X0140050Y0233577D01*
X0140050Y0234576D02*
X0159600Y0234576D01*
X0159600Y0235574D02*
X0140050Y0235574D01*
X0140050Y0236573D02*
X0159600Y0236573D01*
X0159600Y0237571D02*
X0140050Y0237571D01*
X0140050Y0238570D02*
X0140179Y0238570D01*
X0143821Y0238570D02*
X0159600Y0238570D01*
X0159600Y0239568D02*
X0144787Y0239568D01*
X0145200Y0240567D02*
X0159600Y0240567D01*
X0159600Y0241565D02*
X0145250Y0241565D01*
X0145008Y0242564D02*
X0159600Y0242564D01*
X0159600Y0243562D02*
X0148669Y0243562D01*
X0150440Y0244561D02*
X0159600Y0244561D01*
X0159600Y0245559D02*
X0151782Y0245559D01*
X0152781Y0246558D02*
X0159600Y0246558D01*
X0159600Y0247556D02*
X0153578Y0247556D01*
X0154154Y0248555D02*
X0159600Y0248555D01*
X0159600Y0249553D02*
X0154731Y0249553D01*
X0155009Y0250552D02*
X0159600Y0250552D01*
X0159600Y0251550D02*
X0155276Y0251550D01*
X0155500Y0252549D02*
X0159600Y0252549D01*
X0159600Y0253548D02*
X0155500Y0253548D01*
X0155500Y0254546D02*
X0159600Y0254546D01*
X0159600Y0255545D02*
X0155430Y0255545D01*
X0155162Y0256543D02*
X0159600Y0256543D01*
X0159600Y0257542D02*
X0154894Y0257542D01*
X0154484Y0258540D02*
X0159600Y0258540D01*
X0171400Y0258540D02*
X0176516Y0258540D01*
X0176106Y0257542D02*
X0171400Y0257542D01*
X0171400Y0256543D02*
X0175838Y0256543D01*
X0175570Y0255545D02*
X0171400Y0255545D01*
X0171400Y0254546D02*
X0175500Y0254546D01*
X0175500Y0253548D02*
X0171400Y0253548D01*
X0171400Y0252549D02*
X0175500Y0252549D01*
X0175724Y0251550D02*
X0171400Y0251550D01*
X0171400Y0250552D02*
X0175991Y0250552D01*
X0176269Y0249553D02*
X0171400Y0249553D01*
X0171400Y0248555D02*
X0176846Y0248555D01*
X0177422Y0247556D02*
X0171400Y0247556D01*
X0171400Y0246558D02*
X0178219Y0246558D01*
X0179218Y0245559D02*
X0171400Y0245559D01*
X0171400Y0244561D02*
X0180560Y0244561D01*
X0182331Y0243562D02*
X0171400Y0243562D01*
X0171400Y0242564D02*
X0192119Y0242564D01*
X0191121Y0241565D02*
X0171400Y0241565D01*
X0171400Y0240567D02*
X0190122Y0240567D01*
X0189124Y0239568D02*
X0171400Y0239568D01*
X0171400Y0238570D02*
X0188125Y0238570D01*
X0187127Y0237571D02*
X0171400Y0237571D01*
X0171400Y0236573D02*
X0186128Y0236573D01*
X0185130Y0235574D02*
X0171400Y0235574D01*
X0171400Y0234576D02*
X0184300Y0234576D01*
X0184300Y0233577D02*
X0171400Y0233577D01*
X0171400Y0232579D02*
X0184300Y0232579D01*
X0184300Y0231580D02*
X0171400Y0231580D01*
X0171400Y0230582D02*
X0183706Y0230582D01*
X0183293Y0229583D02*
X0171400Y0229583D01*
X0171400Y0228585D02*
X0183250Y0228585D01*
X0183499Y0227586D02*
X0171400Y0227586D01*
X0171400Y0226588D02*
X0184149Y0226588D01*
X0185839Y0225589D02*
X0171400Y0225589D01*
X0171400Y0224591D02*
X0254358Y0224591D01*
X0255357Y0225589D02*
X0187161Y0225589D01*
X0188851Y0226588D02*
X0254149Y0226588D01*
X0253499Y0227586D02*
X0189501Y0227586D01*
X0189750Y0228585D02*
X0253250Y0228585D01*
X0253293Y0229583D02*
X0189707Y0229583D01*
X0189294Y0230582D02*
X0253706Y0230582D01*
X0254300Y0231580D02*
X0188700Y0231580D01*
X0188700Y0232579D02*
X0254300Y0232579D01*
X0254300Y0233577D02*
X0189355Y0233577D01*
X0190354Y0234576D02*
X0254300Y0234576D01*
X0254300Y0235574D02*
X0191352Y0235574D01*
X0192351Y0236573D02*
X0254300Y0236573D01*
X0254300Y0237571D02*
X0193349Y0237571D01*
X0194348Y0238570D02*
X0253652Y0238570D01*
X0252654Y0239568D02*
X0195346Y0239568D01*
X0196345Y0240567D02*
X0251655Y0240567D01*
X0250657Y0241565D02*
X0198828Y0241565D01*
X0199492Y0242564D02*
X0249658Y0242564D01*
X0248660Y0243562D02*
X0199750Y0243562D01*
X0200339Y0244561D02*
X0247661Y0244561D01*
X0246663Y0245559D02*
X0201337Y0245559D01*
X0202336Y0246558D02*
X0245664Y0246558D01*
X0246500Y0248833D02*
X0201500Y0248833D01*
X0196500Y0243833D01*
X0186500Y0233833D01*
X0186500Y0228833D01*
X0190669Y0243562D02*
X0193118Y0243562D01*
X0193284Y0244561D02*
X0192440Y0244561D01*
X0194919Y0246696D02*
X0195302Y0247079D01*
X0196750Y0249587D01*
X0197500Y0252385D01*
X0197500Y0255282D01*
X0196750Y0258079D01*
X0196257Y0258933D01*
X0201100Y0258933D01*
X0201100Y0257759D01*
X0201922Y0255774D01*
X0203441Y0254255D01*
X0205426Y0253433D01*
X0207574Y0253433D01*
X0208583Y0253851D01*
X0211401Y0251033D01*
X0202411Y0251033D01*
X0200589Y0251033D01*
X0196639Y0247083D01*
X0195854Y0247083D01*
X0194919Y0246696D01*
X0195578Y0247556D02*
X0197112Y0247556D01*
X0196154Y0248555D02*
X0198110Y0248555D01*
X0199109Y0249553D02*
X0196731Y0249553D01*
X0197009Y0250552D02*
X0200107Y0250552D01*
X0197276Y0251550D02*
X0210884Y0251550D01*
X0209885Y0252549D02*
X0197500Y0252549D01*
X0197500Y0253548D02*
X0205150Y0253548D01*
X0203151Y0254546D02*
X0197500Y0254546D01*
X0197430Y0255545D02*
X0202152Y0255545D01*
X0201604Y0256543D02*
X0197162Y0256543D01*
X0196894Y0257542D02*
X0201190Y0257542D01*
X0201100Y0258540D02*
X0196484Y0258540D01*
X0207850Y0253548D02*
X0208887Y0253548D01*
X0206000Y0270733D02*
X0171400Y0270733D01*
X0171400Y0360933D01*
X0176743Y0360933D01*
X0176250Y0360079D01*
X0175500Y0357282D01*
X0175500Y0354385D01*
X0176250Y0351587D01*
X0177698Y0349079D01*
X0179746Y0347031D01*
X0182254Y0345583D01*
X0185052Y0344833D01*
X0187948Y0344833D01*
X0190746Y0345583D01*
X0193254Y0347031D01*
X0193637Y0347414D01*
X0193250Y0346480D01*
X0193250Y0345695D01*
X0185589Y0338033D01*
X0184300Y0336745D01*
X0184300Y0333230D01*
X0183745Y0332674D01*
X0183250Y0331480D01*
X0183250Y0330187D01*
X0183745Y0328992D01*
X0184659Y0328078D01*
X0185854Y0327583D01*
X0187146Y0327583D01*
X0188341Y0328078D01*
X0189255Y0328992D01*
X0189750Y0330187D01*
X0189750Y0331480D01*
X0189255Y0332674D01*
X0188700Y0333230D01*
X0188700Y0334922D01*
X0196361Y0342583D01*
X0197146Y0342583D01*
X0198341Y0343078D01*
X0199255Y0343992D01*
X0199750Y0345187D01*
X0199750Y0345972D01*
X0202411Y0348633D01*
X0245589Y0348633D01*
X0254300Y0339922D01*
X0254300Y0333230D01*
X0253745Y0332674D01*
X0253250Y0331480D01*
X0253250Y0330187D01*
X0253745Y0328992D01*
X0254659Y0328078D01*
X0255498Y0327731D01*
X0252450Y0324682D01*
X0252450Y0322984D01*
X0252450Y0289182D01*
X0251151Y0287883D01*
X0249046Y0287883D01*
X0248341Y0288589D01*
X0247146Y0289083D01*
X0245854Y0289083D01*
X0244659Y0288589D01*
X0243745Y0287674D01*
X0243250Y0286480D01*
X0243250Y0285187D01*
X0243745Y0283992D01*
X0244659Y0283078D01*
X0245129Y0282883D01*
X0240651Y0282883D01*
X0239450Y0281682D01*
X0235651Y0277883D01*
X0224417Y0277883D01*
X0224750Y0278687D01*
X0224750Y0279980D01*
X0224255Y0281174D01*
X0223341Y0282089D01*
X0222146Y0282583D01*
X0220854Y0282583D01*
X0219659Y0282089D01*
X0218954Y0281383D01*
X0204046Y0281383D01*
X0203341Y0282089D01*
X0202146Y0282583D01*
X0200854Y0282583D01*
X0199659Y0282089D01*
X0198954Y0281383D01*
X0197196Y0281383D01*
X0196050Y0282529D01*
X0196050Y0308287D01*
X0196755Y0308992D01*
X0197250Y0310187D01*
X0197250Y0311480D01*
X0196755Y0312674D01*
X0195841Y0313589D01*
X0194646Y0314083D01*
X0193354Y0314083D01*
X0192159Y0313589D01*
X0191245Y0312674D01*
X0190750Y0311480D01*
X0190750Y0310187D01*
X0191207Y0309083D01*
X0190854Y0309083D01*
X0189659Y0308589D01*
X0188745Y0307674D01*
X0188250Y0306480D01*
X0188250Y0305187D01*
X0188745Y0303992D01*
X0189450Y0303287D01*
X0189450Y0287883D01*
X0179046Y0287883D01*
X0178341Y0288589D01*
X0177146Y0289083D01*
X0175854Y0289083D01*
X0174659Y0288589D01*
X0173745Y0287674D01*
X0173250Y0286480D01*
X0173250Y0285187D01*
X0173745Y0283992D01*
X0174659Y0283078D01*
X0175854Y0282583D01*
X0177146Y0282583D01*
X0178341Y0283078D01*
X0179046Y0283783D01*
X0189450Y0283783D01*
X0189450Y0278484D01*
X0194151Y0273783D01*
X0202216Y0273783D01*
X0202053Y0273559D01*
X0201681Y0272829D01*
X0201428Y0272051D01*
X0201314Y0271333D01*
X0206000Y0271333D01*
X0206000Y0270733D01*
X0201344Y0271521D02*
X0171400Y0271521D01*
X0171400Y0272519D02*
X0201580Y0272519D01*
X0202032Y0273518D02*
X0171400Y0273518D01*
X0171400Y0274516D02*
X0193418Y0274516D01*
X0192419Y0275515D02*
X0171400Y0275515D01*
X0171400Y0276513D02*
X0191421Y0276513D01*
X0190422Y0277512D02*
X0171400Y0277512D01*
X0171400Y0278510D02*
X0189450Y0278510D01*
X0189450Y0279509D02*
X0171400Y0279509D01*
X0171400Y0280507D02*
X0189450Y0280507D01*
X0189450Y0281506D02*
X0171400Y0281506D01*
X0171400Y0282504D02*
X0189450Y0282504D01*
X0189450Y0283503D02*
X0178766Y0283503D01*
X0174234Y0283503D02*
X0171400Y0283503D01*
X0171400Y0284501D02*
X0173534Y0284501D01*
X0173250Y0285500D02*
X0171400Y0285500D01*
X0171400Y0286498D02*
X0173258Y0286498D01*
X0173671Y0287497D02*
X0171400Y0287497D01*
X0171400Y0288495D02*
X0174566Y0288495D01*
X0171400Y0289494D02*
X0189450Y0289494D01*
X0189450Y0290492D02*
X0171400Y0290492D01*
X0171400Y0291491D02*
X0189450Y0291491D01*
X0189450Y0292489D02*
X0171400Y0292489D01*
X0171400Y0293488D02*
X0189450Y0293488D01*
X0189450Y0294486D02*
X0171400Y0294486D01*
X0171400Y0295485D02*
X0189450Y0295485D01*
X0189450Y0296483D02*
X0171400Y0296483D01*
X0171400Y0297482D02*
X0189450Y0297482D01*
X0189450Y0298481D02*
X0171400Y0298481D01*
X0171400Y0299479D02*
X0189450Y0299479D01*
X0189450Y0300478D02*
X0171400Y0300478D01*
X0171400Y0301476D02*
X0189450Y0301476D01*
X0189450Y0302475D02*
X0171400Y0302475D01*
X0171400Y0303473D02*
X0189264Y0303473D01*
X0188546Y0304472D02*
X0171400Y0304472D01*
X0171400Y0305470D02*
X0188250Y0305470D01*
X0188250Y0306469D02*
X0171400Y0306469D01*
X0171400Y0307467D02*
X0188659Y0307467D01*
X0189536Y0308466D02*
X0171400Y0308466D01*
X0171400Y0309464D02*
X0191049Y0309464D01*
X0190750Y0310463D02*
X0171400Y0310463D01*
X0171400Y0311461D02*
X0190750Y0311461D01*
X0191156Y0312460D02*
X0171400Y0312460D01*
X0171400Y0313458D02*
X0192029Y0313458D01*
X0195971Y0313458D02*
X0252450Y0313458D01*
X0252450Y0312460D02*
X0196844Y0312460D01*
X0197250Y0311461D02*
X0252450Y0311461D01*
X0252450Y0310463D02*
X0197250Y0310463D01*
X0196951Y0309464D02*
X0252450Y0309464D01*
X0252450Y0308466D02*
X0196228Y0308466D01*
X0196050Y0307467D02*
X0252450Y0307467D01*
X0252450Y0306469D02*
X0196050Y0306469D01*
X0196050Y0305470D02*
X0252450Y0305470D01*
X0252450Y0304472D02*
X0196050Y0304472D01*
X0196050Y0303473D02*
X0252450Y0303473D01*
X0252450Y0302475D02*
X0196050Y0302475D01*
X0196050Y0301476D02*
X0252450Y0301476D01*
X0252450Y0300478D02*
X0196050Y0300478D01*
X0196050Y0299479D02*
X0252450Y0299479D01*
X0252450Y0298481D02*
X0196050Y0298481D01*
X0196050Y0297482D02*
X0252450Y0297482D01*
X0252450Y0296483D02*
X0196050Y0296483D01*
X0196050Y0295485D02*
X0252450Y0295485D01*
X0252450Y0294486D02*
X0196050Y0294486D01*
X0196050Y0293488D02*
X0252450Y0293488D01*
X0252450Y0292489D02*
X0196050Y0292489D01*
X0196050Y0291491D02*
X0252450Y0291491D01*
X0252450Y0290492D02*
X0196050Y0290492D01*
X0196050Y0289494D02*
X0252450Y0289494D01*
X0251763Y0288495D02*
X0248434Y0288495D01*
X0244566Y0288495D02*
X0196050Y0288495D01*
X0196050Y0287497D02*
X0243671Y0287497D01*
X0243258Y0286498D02*
X0196050Y0286498D01*
X0196050Y0285500D02*
X0243250Y0285500D01*
X0243534Y0284501D02*
X0196050Y0284501D01*
X0196050Y0283503D02*
X0244234Y0283503D01*
X0240272Y0282504D02*
X0222337Y0282504D01*
X0220663Y0282504D02*
X0202337Y0282504D01*
X0200663Y0282504D02*
X0196075Y0282504D01*
X0197073Y0281506D02*
X0199076Y0281506D01*
X0203924Y0281506D02*
X0219076Y0281506D01*
X0223924Y0281506D02*
X0239273Y0281506D01*
X0238275Y0280507D02*
X0224531Y0280507D01*
X0224750Y0279509D02*
X0237276Y0279509D01*
X0236278Y0278510D02*
X0224677Y0278510D01*
X0251123Y0273783D02*
X0251900Y0271907D01*
X0251900Y0270733D01*
X0269396Y0270733D01*
X0269396Y0272281D01*
X0269396Y0273106D01*
X0269396Y0273106D01*
X0269396Y0273106D01*
X0269467Y0273178D01*
X0270096Y0273807D01*
X0270096Y0273807D01*
X0271312Y0275023D01*
X0271326Y0275037D01*
X0271326Y0275037D01*
X0272728Y0275037D01*
X0272728Y0275037D01*
X0273066Y0275037D01*
X0273066Y0275037D01*
X0274467Y0275037D01*
X0275549Y0273955D01*
X0276007Y0274413D01*
X0276631Y0275037D01*
X0278371Y0275037D01*
X0279049Y0274358D01*
X0280262Y0275167D01*
X0281600Y0274899D01*
X0281600Y0360933D01*
X0276257Y0360933D01*
X0276750Y0360079D01*
X0277500Y0357282D01*
X0277500Y0354385D01*
X0276750Y0351587D01*
X0275302Y0349079D01*
X0273254Y0347031D01*
X0270746Y0345583D01*
X0267948Y0344833D01*
X0266896Y0344833D01*
X0267250Y0343980D01*
X0267250Y0342687D01*
X0266755Y0341492D01*
X0265841Y0340578D01*
X0264646Y0340083D01*
X0263354Y0340083D01*
X0262159Y0340578D01*
X0262050Y0340687D01*
X0262050Y0328484D01*
X0260849Y0327283D01*
X0257649Y0324083D01*
X0258646Y0324083D01*
X0259841Y0323589D01*
X0260546Y0322883D01*
X0274651Y0322883D01*
X0276349Y0322883D01*
X0277849Y0321383D01*
X0279050Y0320182D01*
X0279050Y0314484D01*
X0278209Y0313643D01*
X0278341Y0313589D01*
X0279255Y0312674D01*
X0279750Y0311480D01*
X0279750Y0310187D01*
X0279255Y0308992D01*
X0278550Y0308287D01*
X0278550Y0284984D01*
X0277349Y0283783D01*
X0267349Y0273783D01*
X0251123Y0273783D01*
X0251233Y0273518D02*
X0269807Y0273518D01*
X0269396Y0272519D02*
X0251647Y0272519D01*
X0251900Y0271521D02*
X0269396Y0271521D01*
X0268082Y0274516D02*
X0270806Y0274516D01*
X0269081Y0275515D02*
X0281600Y0275515D01*
X0281600Y0276513D02*
X0270079Y0276513D01*
X0271078Y0277512D02*
X0281600Y0277512D01*
X0281600Y0278510D02*
X0272076Y0278510D01*
X0273075Y0279509D02*
X0281600Y0279509D01*
X0281600Y0280507D02*
X0274073Y0280507D01*
X0275072Y0281506D02*
X0281600Y0281506D01*
X0281600Y0282504D02*
X0276070Y0282504D01*
X0277069Y0283503D02*
X0281600Y0283503D01*
X0281600Y0284501D02*
X0278067Y0284501D01*
X0278550Y0285500D02*
X0281600Y0285500D01*
X0281600Y0286498D02*
X0278550Y0286498D01*
X0278550Y0287497D02*
X0281600Y0287497D01*
X0281600Y0288495D02*
X0278550Y0288495D01*
X0278550Y0289494D02*
X0281600Y0289494D01*
X0281600Y0290492D02*
X0278550Y0290492D01*
X0278550Y0291491D02*
X0281600Y0291491D01*
X0281600Y0292489D02*
X0278550Y0292489D01*
X0278550Y0293488D02*
X0281600Y0293488D01*
X0281600Y0294486D02*
X0278550Y0294486D01*
X0278550Y0295485D02*
X0281600Y0295485D01*
X0281600Y0296483D02*
X0278550Y0296483D01*
X0278550Y0297482D02*
X0281600Y0297482D01*
X0281600Y0298481D02*
X0278550Y0298481D01*
X0278550Y0299479D02*
X0281600Y0299479D01*
X0281600Y0300478D02*
X0278550Y0300478D01*
X0278550Y0301476D02*
X0281600Y0301476D01*
X0281600Y0302475D02*
X0278550Y0302475D01*
X0278550Y0303473D02*
X0281600Y0303473D01*
X0281600Y0304472D02*
X0278550Y0304472D01*
X0278550Y0305470D02*
X0281600Y0305470D01*
X0281600Y0306469D02*
X0278550Y0306469D01*
X0278550Y0307467D02*
X0281600Y0307467D01*
X0281600Y0308466D02*
X0278728Y0308466D01*
X0279451Y0309464D02*
X0281600Y0309464D01*
X0281600Y0310463D02*
X0279750Y0310463D01*
X0279750Y0311461D02*
X0281600Y0311461D01*
X0281600Y0312460D02*
X0279344Y0312460D01*
X0278471Y0313458D02*
X0281600Y0313458D01*
X0281600Y0314457D02*
X0279022Y0314457D01*
X0279050Y0315455D02*
X0281600Y0315455D01*
X0281600Y0316454D02*
X0279050Y0316454D01*
X0279050Y0317452D02*
X0281600Y0317452D01*
X0281600Y0318451D02*
X0279050Y0318451D01*
X0279050Y0319449D02*
X0281600Y0319449D01*
X0281600Y0320448D02*
X0278785Y0320448D01*
X0277786Y0321446D02*
X0281600Y0321446D01*
X0281600Y0322445D02*
X0276788Y0322445D01*
X0281600Y0323443D02*
X0259986Y0323443D01*
X0258008Y0324442D02*
X0281600Y0324442D01*
X0281600Y0325440D02*
X0259006Y0325440D01*
X0260005Y0326439D02*
X0281600Y0326439D01*
X0281600Y0327437D02*
X0261003Y0327437D01*
X0262002Y0328436D02*
X0281600Y0328436D01*
X0281600Y0329434D02*
X0262050Y0329434D01*
X0262050Y0330433D02*
X0281600Y0330433D01*
X0281600Y0331431D02*
X0262050Y0331431D01*
X0262050Y0332430D02*
X0281600Y0332430D01*
X0281600Y0333428D02*
X0262050Y0333428D01*
X0262050Y0334427D02*
X0281600Y0334427D01*
X0281600Y0335425D02*
X0262050Y0335425D01*
X0262050Y0336424D02*
X0281600Y0336424D01*
X0281600Y0337422D02*
X0262050Y0337422D01*
X0262050Y0338421D02*
X0281600Y0338421D01*
X0281600Y0339419D02*
X0262050Y0339419D01*
X0262050Y0340418D02*
X0262546Y0340418D01*
X0265454Y0340418D02*
X0281600Y0340418D01*
X0281600Y0341416D02*
X0266679Y0341416D01*
X0267137Y0342415D02*
X0281600Y0342415D01*
X0281600Y0343414D02*
X0267250Y0343414D01*
X0267071Y0344412D02*
X0281600Y0344412D01*
X0281600Y0345411D02*
X0270102Y0345411D01*
X0272177Y0346409D02*
X0281600Y0346409D01*
X0281600Y0347408D02*
X0273631Y0347408D01*
X0274629Y0348406D02*
X0281600Y0348406D01*
X0281600Y0349405D02*
X0275490Y0349405D01*
X0276067Y0350403D02*
X0281600Y0350403D01*
X0281600Y0351402D02*
X0276643Y0351402D01*
X0276968Y0352400D02*
X0281600Y0352400D01*
X0281600Y0353399D02*
X0277236Y0353399D01*
X0277500Y0354397D02*
X0281600Y0354397D01*
X0281600Y0355396D02*
X0277500Y0355396D01*
X0277500Y0356394D02*
X0281600Y0356394D01*
X0281600Y0357393D02*
X0277470Y0357393D01*
X0277203Y0358391D02*
X0281600Y0358391D01*
X0281600Y0359390D02*
X0276935Y0359390D01*
X0276572Y0360388D02*
X0281600Y0360388D01*
X0293400Y0360388D02*
X0298428Y0360388D01*
X0298250Y0360079D02*
X0297500Y0357282D01*
X0297500Y0354385D01*
X0298250Y0351587D01*
X0299698Y0349079D01*
X0301746Y0347031D01*
X0304254Y0345583D01*
X0307052Y0344833D01*
X0309948Y0344833D01*
X0312746Y0345583D01*
X0315254Y0347031D01*
X0315637Y0347414D01*
X0315250Y0346480D01*
X0315250Y0345695D01*
X0307589Y0338033D01*
X0306300Y0336745D01*
X0306300Y0333230D01*
X0305745Y0332674D01*
X0305250Y0331480D01*
X0305250Y0330187D01*
X0305745Y0328992D01*
X0306659Y0328078D01*
X0307854Y0327583D01*
X0309146Y0327583D01*
X0310341Y0328078D01*
X0311255Y0328992D01*
X0311750Y0330187D01*
X0311750Y0331480D01*
X0311255Y0332674D01*
X0310700Y0333230D01*
X0310700Y0334922D01*
X0318361Y0342583D01*
X0319146Y0342583D01*
X0320341Y0343078D01*
X0321255Y0343992D01*
X0321750Y0345187D01*
X0321750Y0345972D01*
X0324411Y0348633D01*
X0367589Y0348633D01*
X0376300Y0339922D01*
X0376300Y0333230D01*
X0375745Y0332674D01*
X0375250Y0331480D01*
X0375250Y0330187D01*
X0375745Y0328992D01*
X0376659Y0328078D01*
X0377498Y0327731D01*
X0374450Y0324682D01*
X0374450Y0322984D01*
X0374450Y0289182D01*
X0373151Y0287883D01*
X0371046Y0287883D01*
X0370341Y0288589D01*
X0369146Y0289083D01*
X0367854Y0289083D01*
X0366659Y0288589D01*
X0365745Y0287674D01*
X0365250Y0286480D01*
X0365250Y0285187D01*
X0365745Y0283992D01*
X0366659Y0283078D01*
X0367129Y0282883D01*
X0362651Y0282883D01*
X0361450Y0281682D01*
X0357651Y0277883D01*
X0346417Y0277883D01*
X0346750Y0278687D01*
X0346750Y0279980D01*
X0346255Y0281174D01*
X0345341Y0282089D01*
X0344146Y0282583D01*
X0342854Y0282583D01*
X0341659Y0282089D01*
X0340954Y0281383D01*
X0326046Y0281383D01*
X0325341Y0282089D01*
X0324146Y0282583D01*
X0322854Y0282583D01*
X0321659Y0282089D01*
X0320954Y0281383D01*
X0319196Y0281383D01*
X0318050Y0282529D01*
X0318050Y0308287D01*
X0318755Y0308992D01*
X0319250Y0310187D01*
X0319250Y0311480D01*
X0318755Y0312674D01*
X0317841Y0313589D01*
X0316646Y0314083D01*
X0315354Y0314083D01*
X0314159Y0313589D01*
X0313245Y0312674D01*
X0312750Y0311480D01*
X0312750Y0310187D01*
X0313207Y0309083D01*
X0312854Y0309083D01*
X0311659Y0308589D01*
X0310745Y0307674D01*
X0310250Y0306480D01*
X0310250Y0305187D01*
X0310745Y0303992D01*
X0311450Y0303287D01*
X0311450Y0287883D01*
X0301046Y0287883D01*
X0300341Y0288589D01*
X0299146Y0289083D01*
X0297854Y0289083D01*
X0296659Y0288589D01*
X0295745Y0287674D01*
X0295250Y0286480D01*
X0295250Y0285187D01*
X0295745Y0283992D01*
X0296659Y0283078D01*
X0297854Y0282583D01*
X0299146Y0282583D01*
X0300341Y0283078D01*
X0301046Y0283783D01*
X0311450Y0283783D01*
X0311450Y0278484D01*
X0312651Y0277283D01*
X0316151Y0273783D01*
X0324216Y0273783D01*
X0324053Y0273559D01*
X0323681Y0272829D01*
X0323428Y0272051D01*
X0323314Y0271333D01*
X0328000Y0271333D01*
X0328000Y0270733D01*
X0293400Y0270733D01*
X0293400Y0360933D01*
X0298743Y0360933D01*
X0298250Y0360079D01*
X0298065Y0359390D02*
X0293400Y0359390D01*
X0293400Y0358391D02*
X0297797Y0358391D01*
X0297530Y0357393D02*
X0293400Y0357393D01*
X0293400Y0356394D02*
X0297500Y0356394D01*
X0297500Y0355396D02*
X0293400Y0355396D01*
X0293400Y0354397D02*
X0297500Y0354397D01*
X0297764Y0353399D02*
X0293400Y0353399D01*
X0293400Y0352400D02*
X0298032Y0352400D01*
X0298357Y0351402D02*
X0293400Y0351402D01*
X0293400Y0350403D02*
X0298933Y0350403D01*
X0299510Y0349405D02*
X0293400Y0349405D01*
X0293400Y0348406D02*
X0300371Y0348406D01*
X0301369Y0347408D02*
X0293400Y0347408D01*
X0293400Y0346409D02*
X0302823Y0346409D01*
X0304898Y0345411D02*
X0293400Y0345411D01*
X0293400Y0344412D02*
X0313967Y0344412D01*
X0312969Y0343414D02*
X0293400Y0343414D01*
X0293400Y0342415D02*
X0311970Y0342415D01*
X0310972Y0341416D02*
X0293400Y0341416D01*
X0293400Y0340418D02*
X0309973Y0340418D01*
X0308975Y0339419D02*
X0293400Y0339419D01*
X0293400Y0338421D02*
X0307976Y0338421D01*
X0306978Y0337422D02*
X0293400Y0337422D01*
X0293400Y0336424D02*
X0306300Y0336424D01*
X0306300Y0335425D02*
X0293400Y0335425D01*
X0293400Y0334427D02*
X0306300Y0334427D01*
X0306300Y0333428D02*
X0293400Y0333428D01*
X0293400Y0332430D02*
X0305644Y0332430D01*
X0305250Y0331431D02*
X0293400Y0331431D01*
X0293400Y0330433D02*
X0305250Y0330433D01*
X0305562Y0329434D02*
X0293400Y0329434D01*
X0293400Y0328436D02*
X0306301Y0328436D01*
X0308500Y0330833D02*
X0308500Y0335833D01*
X0318500Y0345833D01*
X0323500Y0350833D01*
X0368500Y0350833D01*
X0378500Y0340833D01*
X0378500Y0330833D01*
X0376301Y0328436D02*
X0310699Y0328436D01*
X0311438Y0329434D02*
X0375562Y0329434D01*
X0375250Y0330433D02*
X0311750Y0330433D01*
X0311750Y0331431D02*
X0375250Y0331431D01*
X0375644Y0332430D02*
X0311356Y0332430D01*
X0310700Y0333428D02*
X0376300Y0333428D01*
X0376300Y0334427D02*
X0310700Y0334427D01*
X0311203Y0335425D02*
X0376300Y0335425D01*
X0376300Y0336424D02*
X0312202Y0336424D01*
X0313200Y0337422D02*
X0376300Y0337422D01*
X0376300Y0338421D02*
X0314199Y0338421D01*
X0315197Y0339419D02*
X0376300Y0339419D01*
X0375804Y0340418D02*
X0316196Y0340418D01*
X0317194Y0341416D02*
X0374806Y0341416D01*
X0373807Y0342415D02*
X0318193Y0342415D01*
X0320676Y0343414D02*
X0372809Y0343414D01*
X0371810Y0344412D02*
X0321429Y0344412D01*
X0321750Y0345411D02*
X0370812Y0345411D01*
X0369813Y0346409D02*
X0322187Y0346409D01*
X0323186Y0347408D02*
X0368814Y0347408D01*
X0367816Y0348406D02*
X0324184Y0348406D01*
X0320957Y0351402D02*
X0318643Y0351402D01*
X0318750Y0351587D02*
X0319500Y0354385D01*
X0319500Y0357282D01*
X0318750Y0360079D01*
X0318257Y0360933D01*
X0323100Y0360933D01*
X0323100Y0359759D01*
X0323922Y0357774D01*
X0325441Y0356255D01*
X0327426Y0355433D01*
X0329574Y0355433D01*
X0330583Y0355851D01*
X0333401Y0353033D01*
X0324411Y0353033D01*
X0322589Y0353033D01*
X0318639Y0349083D01*
X0317854Y0349083D01*
X0316919Y0348696D01*
X0317302Y0349079D01*
X0318750Y0351587D01*
X0318968Y0352400D02*
X0321956Y0352400D01*
X0319959Y0350403D02*
X0318067Y0350403D01*
X0317490Y0349405D02*
X0318960Y0349405D01*
X0315634Y0347408D02*
X0315631Y0347408D01*
X0315250Y0346409D02*
X0314177Y0346409D01*
X0314966Y0345411D02*
X0312102Y0345411D01*
X0319236Y0353399D02*
X0333036Y0353399D01*
X0332037Y0354397D02*
X0319500Y0354397D01*
X0319500Y0355396D02*
X0331039Y0355396D01*
X0325302Y0356394D02*
X0319500Y0356394D01*
X0319470Y0357393D02*
X0324304Y0357393D01*
X0323667Y0358391D02*
X0319203Y0358391D01*
X0318935Y0359390D02*
X0323253Y0359390D01*
X0323100Y0360388D02*
X0318572Y0360388D01*
X0293400Y0327437D02*
X0377205Y0327437D01*
X0376206Y0326439D02*
X0293400Y0326439D01*
X0293400Y0325440D02*
X0375208Y0325440D01*
X0374450Y0324442D02*
X0293400Y0324442D01*
X0293400Y0323443D02*
X0374450Y0323443D01*
X0374450Y0322445D02*
X0293400Y0322445D01*
X0293400Y0321446D02*
X0374450Y0321446D01*
X0374450Y0320448D02*
X0293400Y0320448D01*
X0293400Y0319449D02*
X0374450Y0319449D01*
X0374450Y0318451D02*
X0293400Y0318451D01*
X0293400Y0317452D02*
X0374450Y0317452D01*
X0374450Y0316454D02*
X0293400Y0316454D01*
X0293400Y0315455D02*
X0374450Y0315455D01*
X0374450Y0314457D02*
X0293400Y0314457D01*
X0293400Y0313458D02*
X0314029Y0313458D01*
X0313156Y0312460D02*
X0293400Y0312460D01*
X0293400Y0311461D02*
X0312750Y0311461D01*
X0312750Y0310463D02*
X0293400Y0310463D01*
X0293400Y0309464D02*
X0313049Y0309464D01*
X0311536Y0308466D02*
X0293400Y0308466D01*
X0293400Y0307467D02*
X0310659Y0307467D01*
X0310250Y0306469D02*
X0293400Y0306469D01*
X0293400Y0305470D02*
X0310250Y0305470D01*
X0310546Y0304472D02*
X0293400Y0304472D01*
X0293400Y0303473D02*
X0311264Y0303473D01*
X0311450Y0302475D02*
X0293400Y0302475D01*
X0293400Y0301476D02*
X0311450Y0301476D01*
X0311450Y0300478D02*
X0293400Y0300478D01*
X0293400Y0299479D02*
X0311450Y0299479D01*
X0311450Y0298481D02*
X0293400Y0298481D01*
X0293400Y0297482D02*
X0311450Y0297482D01*
X0311450Y0296483D02*
X0293400Y0296483D01*
X0293400Y0295485D02*
X0311450Y0295485D01*
X0311450Y0294486D02*
X0293400Y0294486D01*
X0293400Y0293488D02*
X0311450Y0293488D01*
X0311450Y0292489D02*
X0293400Y0292489D01*
X0293400Y0291491D02*
X0311450Y0291491D01*
X0311450Y0290492D02*
X0293400Y0290492D01*
X0293400Y0289494D02*
X0311450Y0289494D01*
X0311450Y0288495D02*
X0300434Y0288495D01*
X0296566Y0288495D02*
X0293400Y0288495D01*
X0293400Y0287497D02*
X0295671Y0287497D01*
X0295258Y0286498D02*
X0293400Y0286498D01*
X0293400Y0285500D02*
X0295250Y0285500D01*
X0295534Y0284501D02*
X0293400Y0284501D01*
X0293400Y0283503D02*
X0296234Y0283503D01*
X0293400Y0282504D02*
X0311450Y0282504D01*
X0311450Y0281506D02*
X0293400Y0281506D01*
X0293400Y0280507D02*
X0311450Y0280507D01*
X0311450Y0279509D02*
X0293400Y0279509D01*
X0293400Y0278510D02*
X0311450Y0278510D01*
X0312422Y0277512D02*
X0293400Y0277512D01*
X0293400Y0276513D02*
X0313421Y0276513D01*
X0312651Y0277283D02*
X0312651Y0277283D01*
X0314419Y0275515D02*
X0293400Y0275515D01*
X0293400Y0274516D02*
X0315418Y0274516D01*
X0319073Y0281506D02*
X0321076Y0281506D01*
X0322663Y0282504D02*
X0318075Y0282504D01*
X0318050Y0283503D02*
X0366234Y0283503D01*
X0365534Y0284501D02*
X0318050Y0284501D01*
X0318050Y0285500D02*
X0365250Y0285500D01*
X0365258Y0286498D02*
X0318050Y0286498D01*
X0318050Y0287497D02*
X0365671Y0287497D01*
X0366566Y0288495D02*
X0318050Y0288495D01*
X0318050Y0289494D02*
X0374450Y0289494D01*
X0374450Y0290492D02*
X0318050Y0290492D01*
X0318050Y0291491D02*
X0374450Y0291491D01*
X0374450Y0292489D02*
X0318050Y0292489D01*
X0318050Y0293488D02*
X0374450Y0293488D01*
X0374450Y0294486D02*
X0318050Y0294486D01*
X0318050Y0295485D02*
X0374450Y0295485D01*
X0374450Y0296483D02*
X0318050Y0296483D01*
X0318050Y0297482D02*
X0374450Y0297482D01*
X0374450Y0298481D02*
X0318050Y0298481D01*
X0318050Y0299479D02*
X0374450Y0299479D01*
X0374450Y0300478D02*
X0318050Y0300478D01*
X0318050Y0301476D02*
X0374450Y0301476D01*
X0374450Y0302475D02*
X0318050Y0302475D01*
X0318050Y0303473D02*
X0374450Y0303473D01*
X0374450Y0304472D02*
X0318050Y0304472D01*
X0318050Y0305470D02*
X0374450Y0305470D01*
X0374450Y0306469D02*
X0318050Y0306469D01*
X0318050Y0307467D02*
X0374450Y0307467D01*
X0374450Y0308466D02*
X0318228Y0308466D01*
X0318951Y0309464D02*
X0374450Y0309464D01*
X0374450Y0310463D02*
X0319250Y0310463D01*
X0319250Y0311461D02*
X0374450Y0311461D01*
X0374450Y0312460D02*
X0318844Y0312460D01*
X0317971Y0313458D02*
X0374450Y0313458D01*
X0383550Y0307287D02*
X0384046Y0307783D01*
X0391349Y0307783D01*
X0393450Y0309884D01*
X0393450Y0286682D01*
X0387151Y0280383D01*
X0378449Y0280383D01*
X0382349Y0284283D01*
X0383550Y0285484D01*
X0383550Y0307287D01*
X0383730Y0307467D02*
X0393450Y0307467D01*
X0393450Y0306469D02*
X0383550Y0306469D01*
X0383550Y0305470D02*
X0393450Y0305470D01*
X0393450Y0304472D02*
X0383550Y0304472D01*
X0383550Y0303473D02*
X0393450Y0303473D01*
X0393450Y0302475D02*
X0383550Y0302475D01*
X0383550Y0301476D02*
X0393450Y0301476D01*
X0393450Y0300478D02*
X0383550Y0300478D01*
X0383550Y0299479D02*
X0393450Y0299479D01*
X0393450Y0298481D02*
X0383550Y0298481D01*
X0383550Y0297482D02*
X0393450Y0297482D01*
X0393450Y0296483D02*
X0383550Y0296483D01*
X0383550Y0295485D02*
X0393450Y0295485D01*
X0393450Y0294486D02*
X0383550Y0294486D01*
X0383550Y0293488D02*
X0393450Y0293488D01*
X0393450Y0292489D02*
X0383550Y0292489D01*
X0383550Y0291491D02*
X0393450Y0291491D01*
X0393450Y0290492D02*
X0383550Y0290492D01*
X0383550Y0289494D02*
X0393450Y0289494D01*
X0393450Y0288495D02*
X0383550Y0288495D01*
X0383550Y0287497D02*
X0393450Y0287497D01*
X0393266Y0286498D02*
X0383550Y0286498D01*
X0383550Y0285500D02*
X0392267Y0285500D01*
X0391269Y0284501D02*
X0382567Y0284501D01*
X0381569Y0283503D02*
X0390270Y0283503D01*
X0389272Y0282504D02*
X0380570Y0282504D01*
X0379572Y0281506D02*
X0388273Y0281506D01*
X0387275Y0280507D02*
X0378573Y0280507D01*
X0373123Y0273783D02*
X0389349Y0273783D01*
X0399349Y0283783D01*
X0400550Y0284984D01*
X0400550Y0308287D01*
X0401255Y0308992D01*
X0401750Y0310187D01*
X0401750Y0311480D01*
X0401255Y0312674D01*
X0400341Y0313589D01*
X0400209Y0313643D01*
X0401050Y0314484D01*
X0401050Y0320182D01*
X0399849Y0321383D01*
X0398349Y0322883D01*
X0396651Y0322883D01*
X0382546Y0322883D01*
X0381841Y0323589D01*
X0380646Y0324083D01*
X0379649Y0324083D01*
X0382849Y0327283D01*
X0384050Y0328484D01*
X0384050Y0340687D01*
X0384159Y0340578D01*
X0385354Y0340083D01*
X0386646Y0340083D01*
X0387841Y0340578D01*
X0388755Y0341492D01*
X0389250Y0342687D01*
X0389250Y0343980D01*
X0388896Y0344833D01*
X0389948Y0344833D01*
X0392746Y0345583D01*
X0395254Y0347031D01*
X0397302Y0349079D01*
X0398750Y0351587D01*
X0399500Y0354385D01*
X0399500Y0357282D01*
X0398750Y0360079D01*
X0398257Y0360933D01*
X0403600Y0360933D01*
X0403600Y0274899D01*
X0402262Y0275167D01*
X0401049Y0274358D01*
X0400371Y0275037D01*
X0398631Y0275037D01*
X0398007Y0274413D01*
X0397549Y0273955D01*
X0396467Y0275037D01*
X0395066Y0275037D01*
X0394888Y0275037D01*
X0394728Y0275037D01*
X0393326Y0275037D01*
X0393312Y0275023D01*
X0392096Y0273807D01*
X0392096Y0273807D01*
X0391467Y0273178D01*
X0391396Y0273106D01*
X0391396Y0273106D01*
X0391396Y0273106D01*
X0391396Y0272281D01*
X0391396Y0270733D01*
X0373900Y0270733D01*
X0373900Y0271907D01*
X0373123Y0273783D01*
X0373233Y0273518D02*
X0391807Y0273518D01*
X0391396Y0272519D02*
X0373647Y0272519D01*
X0373900Y0271521D02*
X0391396Y0271521D01*
X0390082Y0274516D02*
X0392806Y0274516D01*
X0393326Y0275037D02*
X0393326Y0275037D01*
X0394728Y0275037D02*
X0394728Y0275037D01*
X0395066Y0275037D02*
X0395066Y0275037D01*
X0396988Y0274516D02*
X0398110Y0274516D01*
X0400891Y0274516D02*
X0401287Y0274516D01*
X0403600Y0275515D02*
X0391081Y0275515D01*
X0392079Y0276513D02*
X0403600Y0276513D01*
X0403600Y0277512D02*
X0393078Y0277512D01*
X0394076Y0278510D02*
X0403600Y0278510D01*
X0403600Y0279509D02*
X0395075Y0279509D01*
X0396073Y0280507D02*
X0403600Y0280507D01*
X0403600Y0281506D02*
X0397072Y0281506D01*
X0398070Y0282504D02*
X0403600Y0282504D01*
X0403600Y0283503D02*
X0399069Y0283503D01*
X0400067Y0284501D02*
X0403600Y0284501D01*
X0403600Y0285500D02*
X0400550Y0285500D01*
X0400550Y0286498D02*
X0403600Y0286498D01*
X0403600Y0287497D02*
X0400550Y0287497D01*
X0400550Y0288495D02*
X0403600Y0288495D01*
X0403600Y0289494D02*
X0400550Y0289494D01*
X0400550Y0290492D02*
X0403600Y0290492D01*
X0403600Y0291491D02*
X0400550Y0291491D01*
X0400550Y0292489D02*
X0403600Y0292489D01*
X0403600Y0293488D02*
X0400550Y0293488D01*
X0400550Y0294486D02*
X0403600Y0294486D01*
X0403600Y0295485D02*
X0400550Y0295485D01*
X0400550Y0296483D02*
X0403600Y0296483D01*
X0403600Y0297482D02*
X0400550Y0297482D01*
X0400550Y0298481D02*
X0403600Y0298481D01*
X0403600Y0299479D02*
X0400550Y0299479D01*
X0400550Y0300478D02*
X0403600Y0300478D01*
X0403600Y0301476D02*
X0400550Y0301476D01*
X0400550Y0302475D02*
X0403600Y0302475D01*
X0403600Y0303473D02*
X0400550Y0303473D01*
X0400550Y0304472D02*
X0403600Y0304472D01*
X0403600Y0305470D02*
X0400550Y0305470D01*
X0400550Y0306469D02*
X0403600Y0306469D01*
X0403600Y0307467D02*
X0400550Y0307467D01*
X0400728Y0308466D02*
X0403600Y0308466D01*
X0403600Y0309464D02*
X0401451Y0309464D01*
X0401750Y0310463D02*
X0403600Y0310463D01*
X0403600Y0311461D02*
X0401750Y0311461D01*
X0401344Y0312460D02*
X0403600Y0312460D01*
X0403600Y0313458D02*
X0400471Y0313458D01*
X0401022Y0314457D02*
X0403600Y0314457D01*
X0403600Y0315455D02*
X0401050Y0315455D01*
X0401050Y0316454D02*
X0403600Y0316454D01*
X0403600Y0317452D02*
X0401050Y0317452D01*
X0401050Y0318451D02*
X0403600Y0318451D01*
X0403600Y0319449D02*
X0401050Y0319449D01*
X0400785Y0320448D02*
X0403600Y0320448D01*
X0403600Y0321446D02*
X0399786Y0321446D01*
X0398788Y0322445D02*
X0403600Y0322445D01*
X0403600Y0323443D02*
X0381986Y0323443D01*
X0380008Y0324442D02*
X0403600Y0324442D01*
X0403600Y0325440D02*
X0381006Y0325440D01*
X0382005Y0326439D02*
X0403600Y0326439D01*
X0403600Y0327437D02*
X0383003Y0327437D01*
X0384002Y0328436D02*
X0403600Y0328436D01*
X0403600Y0329434D02*
X0384050Y0329434D01*
X0384050Y0330433D02*
X0403600Y0330433D01*
X0403600Y0331431D02*
X0384050Y0331431D01*
X0384050Y0332430D02*
X0403600Y0332430D01*
X0403600Y0333428D02*
X0384050Y0333428D01*
X0384050Y0334427D02*
X0403600Y0334427D01*
X0403600Y0335425D02*
X0384050Y0335425D01*
X0384050Y0336424D02*
X0403600Y0336424D01*
X0403600Y0337422D02*
X0384050Y0337422D01*
X0384050Y0338421D02*
X0403600Y0338421D01*
X0403600Y0339419D02*
X0384050Y0339419D01*
X0384050Y0340418D02*
X0384546Y0340418D01*
X0387454Y0340418D02*
X0403600Y0340418D01*
X0403600Y0341416D02*
X0388679Y0341416D01*
X0389137Y0342415D02*
X0403600Y0342415D01*
X0403600Y0343414D02*
X0389250Y0343414D01*
X0389071Y0344412D02*
X0403600Y0344412D01*
X0403600Y0345411D02*
X0392102Y0345411D01*
X0394177Y0346409D02*
X0403600Y0346409D01*
X0403600Y0347408D02*
X0395631Y0347408D01*
X0396629Y0348406D02*
X0403600Y0348406D01*
X0403600Y0349405D02*
X0397490Y0349405D01*
X0398067Y0350403D02*
X0403600Y0350403D01*
X0403600Y0351402D02*
X0398643Y0351402D01*
X0398968Y0352400D02*
X0403600Y0352400D01*
X0403600Y0353399D02*
X0399236Y0353399D01*
X0399500Y0354397D02*
X0403600Y0354397D01*
X0403600Y0355396D02*
X0399500Y0355396D01*
X0399500Y0356394D02*
X0403600Y0356394D01*
X0403600Y0357393D02*
X0399470Y0357393D01*
X0399203Y0358391D02*
X0403600Y0358391D01*
X0403600Y0359390D02*
X0398935Y0359390D01*
X0398572Y0360388D02*
X0403600Y0360388D01*
X0393450Y0309464D02*
X0393030Y0309464D01*
X0393450Y0308466D02*
X0392031Y0308466D01*
X0373763Y0288495D02*
X0370434Y0288495D01*
X0362272Y0282504D02*
X0344337Y0282504D01*
X0342663Y0282504D02*
X0324337Y0282504D01*
X0325924Y0281506D02*
X0341076Y0281506D01*
X0345924Y0281506D02*
X0361273Y0281506D01*
X0360275Y0280507D02*
X0346531Y0280507D01*
X0346750Y0279509D02*
X0359276Y0279509D01*
X0358278Y0278510D02*
X0346677Y0278510D01*
X0324032Y0273518D02*
X0293400Y0273518D01*
X0293400Y0272519D02*
X0323580Y0272519D01*
X0323344Y0271521D02*
X0293400Y0271521D01*
X0300766Y0283503D02*
X0311450Y0283503D01*
X0318257Y0258933D02*
X0323100Y0258933D01*
X0323100Y0257759D01*
X0323922Y0255774D01*
X0325441Y0254255D01*
X0327426Y0253433D01*
X0329574Y0253433D01*
X0330583Y0253851D01*
X0333401Y0251033D01*
X0324411Y0251033D01*
X0322589Y0251033D01*
X0318639Y0247083D01*
X0317854Y0247083D01*
X0316919Y0246696D01*
X0317302Y0247079D01*
X0318750Y0249587D01*
X0319500Y0252385D01*
X0319500Y0255282D01*
X0318750Y0258079D01*
X0318257Y0258933D01*
X0318484Y0258540D02*
X0323100Y0258540D01*
X0323190Y0257542D02*
X0318894Y0257542D01*
X0319162Y0256543D02*
X0323604Y0256543D01*
X0324152Y0255545D02*
X0319430Y0255545D01*
X0319500Y0254546D02*
X0325151Y0254546D01*
X0327150Y0253548D02*
X0319500Y0253548D01*
X0319500Y0252549D02*
X0331885Y0252549D01*
X0330887Y0253548D02*
X0329850Y0253548D01*
X0332884Y0251550D02*
X0319276Y0251550D01*
X0319009Y0250552D02*
X0322107Y0250552D01*
X0321109Y0249553D02*
X0318731Y0249553D01*
X0318154Y0248555D02*
X0320110Y0248555D01*
X0319112Y0247556D02*
X0317578Y0247556D01*
X0315284Y0244561D02*
X0314440Y0244561D01*
X0315118Y0243562D02*
X0312669Y0243562D01*
X0323500Y0248833D02*
X0368500Y0248833D01*
X0378500Y0238833D01*
X0378500Y0228833D01*
X0384050Y0228585D02*
X0403600Y0228585D01*
X0403600Y0229583D02*
X0384050Y0229583D01*
X0384050Y0230582D02*
X0403600Y0230582D01*
X0403600Y0231580D02*
X0384050Y0231580D01*
X0384050Y0232579D02*
X0403600Y0232579D01*
X0403600Y0233577D02*
X0384050Y0233577D01*
X0384050Y0234576D02*
X0403600Y0234576D01*
X0403600Y0235574D02*
X0384050Y0235574D01*
X0384050Y0236573D02*
X0403600Y0236573D01*
X0403600Y0237571D02*
X0384050Y0237571D01*
X0384050Y0238570D02*
X0384179Y0238570D01*
X0387821Y0238570D02*
X0403600Y0238570D01*
X0403600Y0239568D02*
X0388787Y0239568D01*
X0389200Y0240567D02*
X0403600Y0240567D01*
X0403600Y0241565D02*
X0389250Y0241565D01*
X0389008Y0242564D02*
X0403600Y0242564D01*
X0403600Y0243562D02*
X0392669Y0243562D01*
X0394440Y0244561D02*
X0403600Y0244561D01*
X0403600Y0245559D02*
X0395782Y0245559D01*
X0396781Y0246558D02*
X0403600Y0246558D01*
X0403600Y0247556D02*
X0397578Y0247556D01*
X0398154Y0248555D02*
X0403600Y0248555D01*
X0403600Y0249553D02*
X0398731Y0249553D01*
X0399009Y0250552D02*
X0403600Y0250552D01*
X0403600Y0251550D02*
X0399276Y0251550D01*
X0399500Y0252549D02*
X0403600Y0252549D01*
X0403600Y0253548D02*
X0399500Y0253548D01*
X0399500Y0254546D02*
X0403600Y0254546D01*
X0403600Y0255545D02*
X0399430Y0255545D01*
X0399162Y0256543D02*
X0403600Y0256543D01*
X0403600Y0257542D02*
X0398894Y0257542D01*
X0398484Y0258540D02*
X0403600Y0258540D01*
X0403600Y0227586D02*
X0384050Y0227586D01*
X0384050Y0226588D02*
X0403600Y0226588D01*
X0403600Y0225589D02*
X0383155Y0225589D01*
X0382156Y0224591D02*
X0403600Y0224591D01*
X0403600Y0223592D02*
X0381158Y0223592D01*
X0380159Y0222594D02*
X0403600Y0222594D01*
X0403600Y0221595D02*
X0381825Y0221595D01*
X0398636Y0220597D02*
X0403600Y0220597D01*
X0403600Y0219598D02*
X0399634Y0219598D01*
X0400633Y0218600D02*
X0403600Y0218600D01*
X0403600Y0217601D02*
X0401050Y0217601D01*
X0401050Y0216603D02*
X0403600Y0216603D01*
X0403600Y0215604D02*
X0401050Y0215604D01*
X0401050Y0214606D02*
X0403600Y0214606D01*
X0403600Y0213607D02*
X0401050Y0213607D01*
X0401050Y0212609D02*
X0403600Y0212609D01*
X0403600Y0211610D02*
X0400289Y0211610D01*
X0401281Y0210612D02*
X0403600Y0210612D01*
X0403600Y0209613D02*
X0401695Y0209613D01*
X0401750Y0208614D02*
X0403600Y0208614D01*
X0403600Y0207616D02*
X0401514Y0207616D01*
X0400880Y0206617D02*
X0403600Y0206617D01*
X0403600Y0205619D02*
X0400550Y0205619D01*
X0400550Y0204620D02*
X0403600Y0204620D01*
X0403600Y0203622D02*
X0400550Y0203622D01*
X0400550Y0202623D02*
X0403600Y0202623D01*
X0403600Y0201625D02*
X0400550Y0201625D01*
X0400550Y0200626D02*
X0403600Y0200626D01*
X0403600Y0199628D02*
X0400550Y0199628D01*
X0400550Y0198629D02*
X0403600Y0198629D01*
X0403600Y0197631D02*
X0400550Y0197631D01*
X0400550Y0196632D02*
X0403600Y0196632D01*
X0403600Y0195634D02*
X0400550Y0195634D01*
X0400550Y0194635D02*
X0403600Y0194635D01*
X0403600Y0193637D02*
X0400550Y0193637D01*
X0400550Y0192638D02*
X0403600Y0192638D01*
X0403600Y0191640D02*
X0400550Y0191640D01*
X0400550Y0190641D02*
X0403600Y0190641D01*
X0403600Y0189643D02*
X0400550Y0189643D01*
X0400550Y0188644D02*
X0403600Y0188644D01*
X0403600Y0187646D02*
X0400550Y0187646D01*
X0400550Y0186647D02*
X0403600Y0186647D01*
X0403600Y0185649D02*
X0400550Y0185649D01*
X0400550Y0184650D02*
X0403600Y0184650D01*
X0403600Y0183652D02*
X0400550Y0183652D01*
X0400219Y0182653D02*
X0403600Y0182653D01*
X0403600Y0181655D02*
X0399220Y0181655D01*
X0398222Y0180656D02*
X0403600Y0180656D01*
X0403600Y0179658D02*
X0397223Y0179658D01*
X0396225Y0178659D02*
X0403600Y0178659D01*
X0403600Y0177661D02*
X0395226Y0177661D01*
X0394228Y0176662D02*
X0403600Y0176662D01*
X0403600Y0175664D02*
X0393229Y0175664D01*
X0392231Y0174665D02*
X0403600Y0174665D01*
X0403600Y0173667D02*
X0391232Y0173667D01*
X0390234Y0172668D02*
X0392958Y0172668D01*
X0393326Y0173037D02*
X0393326Y0173037D01*
X0394728Y0173037D02*
X0394728Y0173037D01*
X0395066Y0173037D02*
X0395066Y0173037D01*
X0396836Y0172668D02*
X0398262Y0172668D01*
X0400739Y0172668D02*
X0401514Y0172668D01*
X0393450Y0206617D02*
X0392183Y0206617D01*
X0393182Y0207616D02*
X0393450Y0207616D01*
X0341228Y0179658D02*
X0325772Y0179658D01*
X0324133Y0171670D02*
X0293400Y0171670D01*
X0293400Y0170671D02*
X0323630Y0170671D01*
X0323368Y0169673D02*
X0293400Y0169673D01*
X0300918Y0181655D02*
X0311450Y0181655D01*
X0311450Y0186647D02*
X0300199Y0186647D01*
X0330216Y0151699D02*
X0330735Y0151699D01*
X0313273Y0139717D02*
X0293400Y0139717D01*
X0293400Y0138719D02*
X0312274Y0138719D01*
X0311276Y0137720D02*
X0293400Y0137720D01*
X0293400Y0136722D02*
X0310277Y0136722D01*
X0309279Y0135723D02*
X0293400Y0135723D01*
X0293400Y0134725D02*
X0308280Y0134725D01*
X0307282Y0133726D02*
X0293400Y0133726D01*
X0293400Y0132728D02*
X0306300Y0132728D01*
X0306300Y0131729D02*
X0293400Y0131729D01*
X0293400Y0130731D02*
X0306300Y0130731D01*
X0306300Y0129732D02*
X0293400Y0129732D01*
X0293400Y0128734D02*
X0305804Y0128734D01*
X0305356Y0127735D02*
X0293400Y0127735D01*
X0293400Y0126737D02*
X0305250Y0126737D01*
X0305436Y0125738D02*
X0293400Y0125738D01*
X0293400Y0124740D02*
X0305998Y0124740D01*
X0314577Y0109762D02*
X0293400Y0109762D01*
X0293400Y0108763D02*
X0313334Y0108763D01*
X0312868Y0107765D02*
X0293400Y0107765D01*
X0293400Y0106766D02*
X0312750Y0106766D01*
X0312924Y0105768D02*
X0293400Y0105768D01*
X0293400Y0104769D02*
X0312095Y0104769D01*
X0310841Y0103771D02*
X0293400Y0103771D01*
X0293400Y0102772D02*
X0310371Y0102772D01*
X0310250Y0101774D02*
X0293400Y0101774D01*
X0293400Y0100775D02*
X0310420Y0100775D01*
X0310960Y0099777D02*
X0293400Y0099777D01*
X0293400Y0098778D02*
X0311450Y0098778D01*
X0311450Y0097780D02*
X0293400Y0097780D01*
X0293400Y0096781D02*
X0311450Y0096781D01*
X0311450Y0095783D02*
X0293400Y0095783D01*
X0293400Y0094784D02*
X0311450Y0094784D01*
X0311450Y0093786D02*
X0293400Y0093786D01*
X0293400Y0092787D02*
X0311450Y0092787D01*
X0311450Y0091789D02*
X0293400Y0091789D01*
X0293400Y0090790D02*
X0311450Y0090790D01*
X0311450Y0089792D02*
X0293400Y0089792D01*
X0293400Y0088793D02*
X0311450Y0088793D01*
X0311450Y0087795D02*
X0293400Y0087795D01*
X0293400Y0086796D02*
X0311450Y0086796D01*
X0311450Y0085798D02*
X0293400Y0085798D01*
X0293400Y0084799D02*
X0297167Y0084799D01*
X0295871Y0083801D02*
X0293400Y0083801D01*
X0293400Y0082802D02*
X0295384Y0082802D01*
X0295250Y0081804D02*
X0293400Y0081804D01*
X0293400Y0080805D02*
X0295408Y0080805D01*
X0295931Y0079807D02*
X0293400Y0079807D01*
X0293400Y0078808D02*
X0297311Y0078808D01*
X0299689Y0078808D02*
X0311450Y0078808D01*
X0311450Y0077810D02*
X0293400Y0077810D01*
X0293400Y0076811D02*
X0311450Y0076811D01*
X0311450Y0075812D02*
X0293400Y0075812D01*
X0293400Y0074814D02*
X0311450Y0074814D01*
X0312119Y0073815D02*
X0293400Y0073815D01*
X0293400Y0072817D02*
X0313117Y0072817D01*
X0314116Y0071818D02*
X0293400Y0071818D01*
X0293400Y0070820D02*
X0315114Y0070820D01*
X0316113Y0069821D02*
X0293400Y0069821D01*
X0293400Y0068823D02*
X0323679Y0068823D01*
X0323392Y0067824D02*
X0293400Y0067824D01*
X0293400Y0066826D02*
X0328000Y0066826D01*
X0325620Y0077810D02*
X0341380Y0077810D01*
X0321380Y0077810D02*
X0318769Y0077810D01*
X0311450Y0084799D02*
X0299833Y0084799D01*
X0281600Y0084799D02*
X0278550Y0084799D01*
X0278550Y0083801D02*
X0281600Y0083801D01*
X0281600Y0082802D02*
X0278550Y0082802D01*
X0278550Y0081804D02*
X0281600Y0081804D01*
X0281600Y0080805D02*
X0278371Y0080805D01*
X0277372Y0079807D02*
X0281600Y0079807D01*
X0281600Y0078808D02*
X0276374Y0078808D01*
X0275375Y0077810D02*
X0281600Y0077810D01*
X0281600Y0076811D02*
X0274377Y0076811D01*
X0273378Y0075812D02*
X0281600Y0075812D01*
X0281600Y0074814D02*
X0272380Y0074814D01*
X0271381Y0073815D02*
X0281600Y0073815D01*
X0281600Y0072817D02*
X0270383Y0072817D01*
X0269384Y0071818D02*
X0281600Y0071818D01*
X0279742Y0070820D02*
X0278588Y0070820D01*
X0276414Y0070820D02*
X0274684Y0070820D01*
X0273066Y0071037D02*
X0273066Y0071037D01*
X0272728Y0071037D02*
X0272728Y0071037D01*
X0271326Y0071037D02*
X0271326Y0071037D01*
X0271109Y0070820D02*
X0268386Y0070820D01*
X0267387Y0069821D02*
X0270111Y0069821D01*
X0269396Y0068823D02*
X0251521Y0068823D01*
X0251900Y0067824D02*
X0269396Y0067824D01*
X0269396Y0066826D02*
X0251900Y0066826D01*
X0256877Y0076811D02*
X0265579Y0076811D01*
X0266577Y0077810D02*
X0257875Y0077810D01*
X0278550Y0085798D02*
X0281600Y0085798D01*
X0281600Y0086796D02*
X0278550Y0086796D01*
X0278550Y0087795D02*
X0281600Y0087795D01*
X0281600Y0088793D02*
X0278550Y0088793D01*
X0278550Y0089792D02*
X0281600Y0089792D01*
X0281600Y0090790D02*
X0278550Y0090790D01*
X0278550Y0091789D02*
X0281600Y0091789D01*
X0281600Y0092787D02*
X0278550Y0092787D01*
X0278550Y0093786D02*
X0281600Y0093786D01*
X0281600Y0094784D02*
X0278550Y0094784D01*
X0278550Y0095783D02*
X0281600Y0095783D01*
X0281600Y0096781D02*
X0278550Y0096781D01*
X0278550Y0097780D02*
X0281600Y0097780D01*
X0281600Y0098778D02*
X0278550Y0098778D01*
X0278550Y0099777D02*
X0281600Y0099777D01*
X0281600Y0100775D02*
X0278550Y0100775D01*
X0278550Y0101774D02*
X0281600Y0101774D01*
X0281600Y0102772D02*
X0278550Y0102772D01*
X0219380Y0077810D02*
X0203620Y0077810D01*
X0199380Y0077810D02*
X0196769Y0077810D01*
X0189450Y0077810D02*
X0171400Y0077810D01*
X0171400Y0078808D02*
X0175311Y0078808D01*
X0173931Y0079807D02*
X0171400Y0079807D01*
X0171400Y0080805D02*
X0173408Y0080805D01*
X0173250Y0081804D02*
X0171400Y0081804D01*
X0171400Y0082802D02*
X0173384Y0082802D01*
X0173871Y0083801D02*
X0171400Y0083801D01*
X0171400Y0084799D02*
X0175167Y0084799D01*
X0177833Y0084799D02*
X0189450Y0084799D01*
X0189450Y0085798D02*
X0171400Y0085798D01*
X0171400Y0086796D02*
X0189450Y0086796D01*
X0189450Y0087795D02*
X0171400Y0087795D01*
X0171400Y0088793D02*
X0189450Y0088793D01*
X0189450Y0089792D02*
X0171400Y0089792D01*
X0171400Y0090790D02*
X0189450Y0090790D01*
X0189450Y0091789D02*
X0171400Y0091789D01*
X0171400Y0092787D02*
X0189450Y0092787D01*
X0189450Y0093786D02*
X0171400Y0093786D01*
X0171400Y0094784D02*
X0189450Y0094784D01*
X0189450Y0095783D02*
X0171400Y0095783D01*
X0171400Y0096781D02*
X0189450Y0096781D01*
X0189450Y0097780D02*
X0171400Y0097780D01*
X0171400Y0098778D02*
X0189450Y0098778D01*
X0188960Y0099777D02*
X0171400Y0099777D01*
X0171400Y0100775D02*
X0188420Y0100775D01*
X0188250Y0101774D02*
X0171400Y0101774D01*
X0171400Y0102772D02*
X0188371Y0102772D01*
X0188841Y0103771D02*
X0171400Y0103771D01*
X0171400Y0104769D02*
X0190095Y0104769D01*
X0190924Y0105768D02*
X0171400Y0105768D01*
X0171400Y0106766D02*
X0190750Y0106766D01*
X0190868Y0107765D02*
X0171400Y0107765D01*
X0171400Y0108763D02*
X0191334Y0108763D01*
X0192577Y0109762D02*
X0171400Y0109762D01*
X0159600Y0102772D02*
X0156550Y0102772D01*
X0156550Y0101774D02*
X0159600Y0101774D01*
X0159600Y0100775D02*
X0156550Y0100775D01*
X0156550Y0099777D02*
X0159600Y0099777D01*
X0159600Y0098778D02*
X0156550Y0098778D01*
X0156550Y0097780D02*
X0159600Y0097780D01*
X0159600Y0096781D02*
X0156550Y0096781D01*
X0156550Y0095783D02*
X0159600Y0095783D01*
X0159600Y0094784D02*
X0156550Y0094784D01*
X0156550Y0093786D02*
X0159600Y0093786D01*
X0159600Y0092787D02*
X0156550Y0092787D01*
X0156550Y0091789D02*
X0159600Y0091789D01*
X0159600Y0090790D02*
X0156550Y0090790D01*
X0156550Y0089792D02*
X0159600Y0089792D01*
X0159600Y0088793D02*
X0156550Y0088793D01*
X0156550Y0087795D02*
X0159600Y0087795D01*
X0159600Y0086796D02*
X0156550Y0086796D01*
X0156550Y0085798D02*
X0159600Y0085798D01*
X0159600Y0084799D02*
X0156550Y0084799D01*
X0156550Y0083801D02*
X0159600Y0083801D01*
X0159600Y0082802D02*
X0156550Y0082802D01*
X0156550Y0081804D02*
X0159600Y0081804D01*
X0159600Y0080805D02*
X0156371Y0080805D01*
X0155372Y0079807D02*
X0159600Y0079807D01*
X0159600Y0078808D02*
X0154374Y0078808D01*
X0153375Y0077810D02*
X0159600Y0077810D01*
X0159600Y0076811D02*
X0152377Y0076811D01*
X0151378Y0075812D02*
X0159600Y0075812D01*
X0159600Y0074814D02*
X0150380Y0074814D01*
X0149381Y0073815D02*
X0159600Y0073815D01*
X0159600Y0072817D02*
X0148383Y0072817D01*
X0147384Y0071818D02*
X0159600Y0071818D01*
X0157742Y0070820D02*
X0156588Y0070820D01*
X0154414Y0070820D02*
X0152684Y0070820D01*
X0151066Y0071037D02*
X0151066Y0071037D01*
X0150728Y0071037D02*
X0150728Y0071037D01*
X0149326Y0071037D02*
X0149326Y0071037D01*
X0149109Y0070820D02*
X0146386Y0070820D01*
X0145387Y0069821D02*
X0148111Y0069821D01*
X0147396Y0068823D02*
X0129521Y0068823D01*
X0129900Y0067824D02*
X0147396Y0067824D01*
X0147396Y0066826D02*
X0129900Y0066826D01*
X0134877Y0076811D02*
X0143579Y0076811D01*
X0144577Y0077810D02*
X0135875Y0077810D01*
X0171400Y0076811D02*
X0189450Y0076811D01*
X0189450Y0075812D02*
X0171400Y0075812D01*
X0171400Y0074814D02*
X0189450Y0074814D01*
X0190119Y0073815D02*
X0171400Y0073815D01*
X0171400Y0072817D02*
X0191117Y0072817D01*
X0192116Y0071818D02*
X0171400Y0071818D01*
X0171400Y0070820D02*
X0193114Y0070820D01*
X0194113Y0069821D02*
X0171400Y0069821D01*
X0171400Y0068823D02*
X0201679Y0068823D01*
X0201392Y0067824D02*
X0171400Y0067824D01*
X0171400Y0066826D02*
X0206000Y0066826D01*
X0189450Y0078808D02*
X0177689Y0078808D01*
X0130450Y0111759D02*
X0049400Y0111759D01*
X0049400Y0112757D02*
X0130450Y0112757D01*
X0130450Y0113756D02*
X0049400Y0113756D01*
X0049400Y0114754D02*
X0130450Y0114754D01*
X0130450Y0115753D02*
X0049400Y0115753D01*
X0049400Y0116751D02*
X0130450Y0116751D01*
X0130450Y0117750D02*
X0049400Y0117750D01*
X0049400Y0118748D02*
X0130450Y0118748D01*
X0130450Y0119747D02*
X0049400Y0119747D01*
X0049400Y0120745D02*
X0130513Y0120745D01*
X0131512Y0121744D02*
X0049400Y0121744D01*
X0049400Y0122743D02*
X0132510Y0122743D01*
X0133473Y0123741D02*
X0065527Y0123741D01*
X0067002Y0124740D02*
X0131998Y0124740D01*
X0131436Y0125738D02*
X0067564Y0125738D01*
X0067750Y0126737D02*
X0131250Y0126737D01*
X0131356Y0127735D02*
X0067644Y0127735D01*
X0067196Y0128734D02*
X0131804Y0128734D01*
X0132300Y0129732D02*
X0066700Y0129732D01*
X0066700Y0130731D02*
X0132300Y0130731D01*
X0132300Y0131729D02*
X0067507Y0131729D01*
X0068506Y0132728D02*
X0132300Y0132728D01*
X0132300Y0133726D02*
X0069504Y0133726D01*
X0070503Y0134725D02*
X0132300Y0134725D01*
X0132300Y0135723D02*
X0071501Y0135723D01*
X0072500Y0136722D02*
X0131500Y0136722D01*
X0130502Y0137720D02*
X0073498Y0137720D01*
X0075473Y0138719D02*
X0129503Y0138719D01*
X0128505Y0139717D02*
X0076980Y0139717D01*
X0077555Y0140716D02*
X0127506Y0140716D01*
X0126508Y0141714D02*
X0077750Y0141714D01*
X0078491Y0142713D02*
X0125509Y0142713D01*
X0124511Y0143711D02*
X0079489Y0143711D01*
X0079500Y0146833D02*
X0074500Y0141833D01*
X0064500Y0131833D01*
X0064500Y0126833D01*
X0061250Y0126737D02*
X0049400Y0126737D01*
X0049400Y0127735D02*
X0061356Y0127735D01*
X0061804Y0128734D02*
X0049400Y0128734D01*
X0049400Y0129732D02*
X0062300Y0129732D01*
X0062300Y0130731D02*
X0049400Y0130731D01*
X0049400Y0131729D02*
X0062300Y0131729D01*
X0062300Y0132728D02*
X0049400Y0132728D01*
X0049400Y0133726D02*
X0063282Y0133726D01*
X0064280Y0134725D02*
X0049400Y0134725D01*
X0049400Y0135723D02*
X0065279Y0135723D01*
X0066277Y0136722D02*
X0049400Y0136722D01*
X0049400Y0137720D02*
X0067276Y0137720D01*
X0068274Y0138719D02*
X0049400Y0138719D01*
X0049400Y0139717D02*
X0069273Y0139717D01*
X0070271Y0140716D02*
X0049400Y0140716D01*
X0049400Y0141714D02*
X0060027Y0141714D01*
X0058297Y0142713D02*
X0049400Y0142713D01*
X0049400Y0143711D02*
X0057066Y0143711D01*
X0056067Y0144710D02*
X0049400Y0144710D01*
X0049400Y0145708D02*
X0055335Y0145708D01*
X0054758Y0146707D02*
X0049400Y0146707D01*
X0049400Y0147705D02*
X0054218Y0147705D01*
X0053951Y0148704D02*
X0049400Y0148704D01*
X0049400Y0149702D02*
X0053683Y0149702D01*
X0053500Y0150701D02*
X0049400Y0150701D01*
X0049400Y0151699D02*
X0053500Y0151699D01*
X0053500Y0152698D02*
X0049400Y0152698D01*
X0049400Y0153696D02*
X0053611Y0153696D01*
X0053879Y0154695D02*
X0049400Y0154695D01*
X0049400Y0155693D02*
X0054146Y0155693D01*
X0054603Y0156692D02*
X0049400Y0156692D01*
X0049400Y0168733D02*
X0049400Y0258933D01*
X0054743Y0258933D01*
X0054250Y0258079D01*
X0053500Y0255282D01*
X0053500Y0252385D01*
X0054250Y0249587D01*
X0055698Y0247079D01*
X0057746Y0245031D01*
X0060254Y0243583D01*
X0063052Y0242833D01*
X0065948Y0242833D01*
X0068746Y0243583D01*
X0071254Y0245031D01*
X0071637Y0245414D01*
X0071250Y0244480D01*
X0071250Y0243695D01*
X0063589Y0236033D01*
X0062300Y0234745D01*
X0062300Y0231230D01*
X0061745Y0230674D01*
X0061250Y0229480D01*
X0061250Y0228187D01*
X0061745Y0226992D01*
X0062659Y0226078D01*
X0063854Y0225583D01*
X0065146Y0225583D01*
X0066341Y0226078D01*
X0067255Y0226992D01*
X0067750Y0228187D01*
X0067750Y0229480D01*
X0067255Y0230674D01*
X0066700Y0231230D01*
X0066700Y0232922D01*
X0074361Y0240583D01*
X0075146Y0240583D01*
X0076341Y0241078D01*
X0077255Y0241992D01*
X0077750Y0243187D01*
X0077750Y0243972D01*
X0080411Y0246633D01*
X0123589Y0246633D01*
X0132300Y0237922D01*
X0132300Y0231230D01*
X0131745Y0230674D01*
X0131250Y0229480D01*
X0131250Y0228187D01*
X0131745Y0226992D01*
X0132659Y0226078D01*
X0133498Y0225731D01*
X0130450Y0222682D01*
X0130450Y0220984D01*
X0130450Y0187182D01*
X0129151Y0185883D01*
X0127046Y0185883D01*
X0126341Y0186589D01*
X0125146Y0187083D01*
X0123854Y0187083D01*
X0122659Y0186589D01*
X0121745Y0185674D01*
X0121250Y0184480D01*
X0121250Y0183187D01*
X0121745Y0181992D01*
X0122659Y0181078D01*
X0123129Y0180883D01*
X0118651Y0180883D01*
X0117450Y0179682D01*
X0113651Y0175883D01*
X0102417Y0175883D01*
X0102750Y0176687D01*
X0102750Y0177980D01*
X0102255Y0179174D01*
X0101341Y0180089D01*
X0100146Y0180583D01*
X0098854Y0180583D01*
X0097659Y0180089D01*
X0096954Y0179383D01*
X0082046Y0179383D01*
X0081341Y0180089D01*
X0080146Y0180583D01*
X0078854Y0180583D01*
X0077659Y0180089D01*
X0076954Y0179383D01*
X0075196Y0179383D01*
X0074050Y0180529D01*
X0074050Y0206287D01*
X0074755Y0206992D01*
X0075250Y0208187D01*
X0075250Y0209480D01*
X0074755Y0210674D01*
X0073841Y0211589D01*
X0072646Y0212083D01*
X0071354Y0212083D01*
X0070159Y0211589D01*
X0069245Y0210674D01*
X0068750Y0209480D01*
X0068750Y0208187D01*
X0069207Y0207083D01*
X0068854Y0207083D01*
X0067659Y0206589D01*
X0066745Y0205674D01*
X0066250Y0204480D01*
X0066250Y0203187D01*
X0066745Y0201992D01*
X0067450Y0201287D01*
X0067450Y0185883D01*
X0057046Y0185883D01*
X0056341Y0186589D01*
X0055146Y0187083D01*
X0053854Y0187083D01*
X0052659Y0186589D01*
X0051745Y0185674D01*
X0051250Y0184480D01*
X0051250Y0183187D01*
X0051745Y0181992D01*
X0052659Y0181078D01*
X0053854Y0180583D01*
X0055146Y0180583D01*
X0056341Y0181078D01*
X0057046Y0181783D01*
X0067450Y0181783D01*
X0067450Y0176484D01*
X0072151Y0171783D01*
X0080216Y0171783D01*
X0080053Y0171559D01*
X0079681Y0170829D01*
X0079428Y0170051D01*
X0079314Y0169333D01*
X0084000Y0169333D01*
X0084000Y0168733D01*
X0049400Y0168733D01*
X0049400Y0169673D02*
X0079368Y0169673D01*
X0079630Y0170671D02*
X0049400Y0170671D01*
X0049400Y0171670D02*
X0080133Y0171670D01*
X0081772Y0179658D02*
X0097228Y0179658D01*
X0101772Y0179658D02*
X0117425Y0179658D01*
X0118424Y0180656D02*
X0074050Y0180656D01*
X0074050Y0181655D02*
X0122082Y0181655D01*
X0121471Y0182653D02*
X0074050Y0182653D01*
X0074050Y0183652D02*
X0121250Y0183652D01*
X0121321Y0184650D02*
X0074050Y0184650D01*
X0074050Y0185649D02*
X0121734Y0185649D01*
X0122801Y0186647D02*
X0074050Y0186647D01*
X0074050Y0187646D02*
X0130450Y0187646D01*
X0130450Y0188644D02*
X0074050Y0188644D01*
X0074050Y0189643D02*
X0130450Y0189643D01*
X0130450Y0190641D02*
X0074050Y0190641D01*
X0074050Y0191640D02*
X0130450Y0191640D01*
X0130450Y0192638D02*
X0074050Y0192638D01*
X0074050Y0193637D02*
X0130450Y0193637D01*
X0130450Y0194635D02*
X0074050Y0194635D01*
X0074050Y0195634D02*
X0130450Y0195634D01*
X0130450Y0196632D02*
X0074050Y0196632D01*
X0074050Y0197631D02*
X0130450Y0197631D01*
X0130450Y0198629D02*
X0074050Y0198629D01*
X0074050Y0199628D02*
X0130450Y0199628D01*
X0130450Y0200626D02*
X0074050Y0200626D01*
X0074050Y0201625D02*
X0130450Y0201625D01*
X0130450Y0202623D02*
X0074050Y0202623D01*
X0074050Y0203622D02*
X0130450Y0203622D01*
X0130450Y0204620D02*
X0074050Y0204620D01*
X0074050Y0205619D02*
X0130450Y0205619D01*
X0130450Y0206617D02*
X0074380Y0206617D01*
X0075014Y0207616D02*
X0130450Y0207616D01*
X0130450Y0208614D02*
X0075250Y0208614D01*
X0075195Y0209613D02*
X0130450Y0209613D01*
X0130450Y0210612D02*
X0074781Y0210612D01*
X0073789Y0211610D02*
X0130450Y0211610D01*
X0130450Y0212609D02*
X0049400Y0212609D01*
X0049400Y0213607D02*
X0130450Y0213607D01*
X0130450Y0214606D02*
X0049400Y0214606D01*
X0049400Y0215604D02*
X0130450Y0215604D01*
X0130450Y0216603D02*
X0049400Y0216603D01*
X0049400Y0217601D02*
X0130450Y0217601D01*
X0130450Y0218600D02*
X0049400Y0218600D01*
X0049400Y0219598D02*
X0130450Y0219598D01*
X0130450Y0220597D02*
X0049400Y0220597D01*
X0049400Y0221595D02*
X0130450Y0221595D01*
X0130450Y0222594D02*
X0049400Y0222594D01*
X0049400Y0223592D02*
X0131360Y0223592D01*
X0132358Y0224591D02*
X0049400Y0224591D01*
X0049400Y0225589D02*
X0063839Y0225589D01*
X0065161Y0225589D02*
X0133357Y0225589D01*
X0132149Y0226588D02*
X0066851Y0226588D01*
X0067501Y0227586D02*
X0131499Y0227586D01*
X0131250Y0228585D02*
X0067750Y0228585D01*
X0067707Y0229583D02*
X0131293Y0229583D01*
X0131706Y0230582D02*
X0067294Y0230582D01*
X0066700Y0231580D02*
X0132300Y0231580D01*
X0132300Y0232579D02*
X0066700Y0232579D01*
X0067355Y0233577D02*
X0132300Y0233577D01*
X0132300Y0234576D02*
X0068354Y0234576D01*
X0069352Y0235574D02*
X0132300Y0235574D01*
X0132300Y0236573D02*
X0070351Y0236573D01*
X0071349Y0237571D02*
X0132300Y0237571D01*
X0131652Y0238570D02*
X0072348Y0238570D01*
X0073346Y0239568D02*
X0130654Y0239568D01*
X0129655Y0240567D02*
X0074345Y0240567D01*
X0076828Y0241565D02*
X0128657Y0241565D01*
X0127658Y0242564D02*
X0077492Y0242564D01*
X0077750Y0243562D02*
X0126660Y0243562D01*
X0125661Y0244561D02*
X0078339Y0244561D01*
X0079337Y0245559D02*
X0124663Y0245559D01*
X0123664Y0246558D02*
X0080336Y0246558D01*
X0079500Y0248833D02*
X0074500Y0243833D01*
X0064500Y0233833D01*
X0064500Y0228833D01*
X0061499Y0227586D02*
X0049400Y0227586D01*
X0049400Y0226588D02*
X0062149Y0226588D01*
X0061250Y0228585D02*
X0049400Y0228585D01*
X0049400Y0229583D02*
X0061293Y0229583D01*
X0061706Y0230582D02*
X0049400Y0230582D01*
X0049400Y0231580D02*
X0062300Y0231580D01*
X0062300Y0232579D02*
X0049400Y0232579D01*
X0049400Y0233577D02*
X0062300Y0233577D01*
X0062300Y0234576D02*
X0049400Y0234576D01*
X0049400Y0235574D02*
X0063130Y0235574D01*
X0064128Y0236573D02*
X0049400Y0236573D01*
X0049400Y0237571D02*
X0065127Y0237571D01*
X0066125Y0238570D02*
X0049400Y0238570D01*
X0049400Y0239568D02*
X0067124Y0239568D01*
X0068122Y0240567D02*
X0049400Y0240567D01*
X0049400Y0241565D02*
X0069121Y0241565D01*
X0070119Y0242564D02*
X0049400Y0242564D01*
X0049400Y0243562D02*
X0060331Y0243562D01*
X0058560Y0244561D02*
X0049400Y0244561D01*
X0049400Y0245559D02*
X0057218Y0245559D01*
X0056219Y0246558D02*
X0049400Y0246558D01*
X0049400Y0247556D02*
X0055422Y0247556D01*
X0054846Y0248555D02*
X0049400Y0248555D01*
X0049400Y0249553D02*
X0054269Y0249553D01*
X0053991Y0250552D02*
X0049400Y0250552D01*
X0049400Y0251550D02*
X0053724Y0251550D01*
X0053500Y0252549D02*
X0049400Y0252549D01*
X0049400Y0253548D02*
X0053500Y0253548D01*
X0053500Y0254546D02*
X0049400Y0254546D01*
X0049400Y0255545D02*
X0053570Y0255545D01*
X0053838Y0256543D02*
X0049400Y0256543D01*
X0049400Y0257542D02*
X0054106Y0257542D01*
X0054516Y0258540D02*
X0049400Y0258540D01*
X0049400Y0270733D02*
X0049400Y0360933D01*
X0054743Y0360933D01*
X0054250Y0360079D01*
X0053500Y0357282D01*
X0053500Y0354385D01*
X0054250Y0351587D01*
X0055698Y0349079D01*
X0057746Y0347031D01*
X0060254Y0345583D01*
X0063052Y0344833D01*
X0065948Y0344833D01*
X0068746Y0345583D01*
X0071254Y0347031D01*
X0071637Y0347414D01*
X0071250Y0346480D01*
X0071250Y0345695D01*
X0063589Y0338033D01*
X0062300Y0336745D01*
X0062300Y0333230D01*
X0061745Y0332674D01*
X0061250Y0331480D01*
X0061250Y0330187D01*
X0061745Y0328992D01*
X0062659Y0328078D01*
X0063854Y0327583D01*
X0065146Y0327583D01*
X0066341Y0328078D01*
X0067255Y0328992D01*
X0067750Y0330187D01*
X0067750Y0331480D01*
X0067255Y0332674D01*
X0066700Y0333230D01*
X0066700Y0334922D01*
X0074361Y0342583D01*
X0075146Y0342583D01*
X0076341Y0343078D01*
X0077255Y0343992D01*
X0077750Y0345187D01*
X0077750Y0345972D01*
X0080411Y0348633D01*
X0123589Y0348633D01*
X0132300Y0339922D01*
X0132300Y0333230D01*
X0131745Y0332674D01*
X0131250Y0331480D01*
X0131250Y0330187D01*
X0131745Y0328992D01*
X0132659Y0328078D01*
X0133498Y0327731D01*
X0130450Y0324682D01*
X0130450Y0322984D01*
X0130450Y0289182D01*
X0129151Y0287883D01*
X0127046Y0287883D01*
X0126341Y0288589D01*
X0125146Y0289083D01*
X0123854Y0289083D01*
X0122659Y0288589D01*
X0121745Y0287674D01*
X0121250Y0286480D01*
X0121250Y0285187D01*
X0121745Y0283992D01*
X0122659Y0283078D01*
X0123129Y0282883D01*
X0118651Y0282883D01*
X0113651Y0277883D01*
X0102417Y0277883D01*
X0102750Y0278687D01*
X0102750Y0279980D01*
X0102255Y0281174D01*
X0101341Y0282089D01*
X0100146Y0282583D01*
X0098854Y0282583D01*
X0097659Y0282089D01*
X0096954Y0281383D01*
X0082046Y0281383D01*
X0081341Y0282089D01*
X0080146Y0282583D01*
X0078854Y0282583D01*
X0077659Y0282089D01*
X0076954Y0281383D01*
X0075196Y0281383D01*
X0074050Y0282529D01*
X0074050Y0308287D01*
X0074755Y0308992D01*
X0075250Y0310187D01*
X0075250Y0311480D01*
X0074755Y0312674D01*
X0073841Y0313589D01*
X0072646Y0314083D01*
X0071354Y0314083D01*
X0070159Y0313589D01*
X0069245Y0312674D01*
X0068750Y0311480D01*
X0068750Y0310187D01*
X0069207Y0309083D01*
X0068854Y0309083D01*
X0067659Y0308589D01*
X0066745Y0307674D01*
X0066250Y0306480D01*
X0066250Y0305187D01*
X0066745Y0303992D01*
X0067450Y0303287D01*
X0067450Y0287883D01*
X0057046Y0287883D01*
X0056341Y0288589D01*
X0055146Y0289083D01*
X0053854Y0289083D01*
X0052659Y0288589D01*
X0051745Y0287674D01*
X0051250Y0286480D01*
X0051250Y0285187D01*
X0051745Y0283992D01*
X0052659Y0283078D01*
X0053854Y0282583D01*
X0055146Y0282583D01*
X0056341Y0283078D01*
X0057046Y0283783D01*
X0067450Y0283783D01*
X0067450Y0278484D01*
X0072151Y0273783D01*
X0080216Y0273783D01*
X0080053Y0273559D01*
X0079681Y0272829D01*
X0079428Y0272051D01*
X0079314Y0271333D01*
X0084000Y0271333D01*
X0084000Y0270733D01*
X0049400Y0270733D01*
X0049400Y0271521D02*
X0079344Y0271521D01*
X0079580Y0272519D02*
X0049400Y0272519D01*
X0049400Y0273518D02*
X0080032Y0273518D01*
X0081924Y0281506D02*
X0097076Y0281506D01*
X0098663Y0282504D02*
X0080337Y0282504D01*
X0078663Y0282504D02*
X0074075Y0282504D01*
X0074050Y0283503D02*
X0122234Y0283503D01*
X0121534Y0284501D02*
X0074050Y0284501D01*
X0074050Y0285500D02*
X0121250Y0285500D01*
X0121258Y0286498D02*
X0074050Y0286498D01*
X0074050Y0287497D02*
X0121671Y0287497D01*
X0122566Y0288495D02*
X0074050Y0288495D01*
X0074050Y0289494D02*
X0130450Y0289494D01*
X0130450Y0290492D02*
X0074050Y0290492D01*
X0074050Y0291491D02*
X0130450Y0291491D01*
X0130450Y0292489D02*
X0074050Y0292489D01*
X0074050Y0293488D02*
X0130450Y0293488D01*
X0130450Y0294486D02*
X0074050Y0294486D01*
X0074050Y0295485D02*
X0130450Y0295485D01*
X0130450Y0296483D02*
X0074050Y0296483D01*
X0074050Y0297482D02*
X0130450Y0297482D01*
X0130450Y0298481D02*
X0074050Y0298481D01*
X0074050Y0299479D02*
X0130450Y0299479D01*
X0130450Y0300478D02*
X0074050Y0300478D01*
X0074050Y0301476D02*
X0130450Y0301476D01*
X0130450Y0302475D02*
X0074050Y0302475D01*
X0074050Y0303473D02*
X0130450Y0303473D01*
X0130450Y0304472D02*
X0074050Y0304472D01*
X0074050Y0305470D02*
X0130450Y0305470D01*
X0130450Y0306469D02*
X0074050Y0306469D01*
X0074050Y0307467D02*
X0130450Y0307467D01*
X0130450Y0308466D02*
X0074228Y0308466D01*
X0074951Y0309464D02*
X0130450Y0309464D01*
X0130450Y0310463D02*
X0075250Y0310463D01*
X0075250Y0311461D02*
X0130450Y0311461D01*
X0130450Y0312460D02*
X0074844Y0312460D01*
X0073971Y0313458D02*
X0130450Y0313458D01*
X0130450Y0314457D02*
X0049400Y0314457D01*
X0049400Y0315455D02*
X0130450Y0315455D01*
X0130450Y0316454D02*
X0049400Y0316454D01*
X0049400Y0317452D02*
X0130450Y0317452D01*
X0130450Y0318451D02*
X0049400Y0318451D01*
X0049400Y0319449D02*
X0130450Y0319449D01*
X0130450Y0320448D02*
X0049400Y0320448D01*
X0049400Y0321446D02*
X0130450Y0321446D01*
X0130450Y0322445D02*
X0049400Y0322445D01*
X0049400Y0323443D02*
X0130450Y0323443D01*
X0130450Y0324442D02*
X0049400Y0324442D01*
X0049400Y0325440D02*
X0131208Y0325440D01*
X0132206Y0326439D02*
X0049400Y0326439D01*
X0049400Y0327437D02*
X0133205Y0327437D01*
X0132301Y0328436D02*
X0066699Y0328436D01*
X0067438Y0329434D02*
X0131562Y0329434D01*
X0131250Y0330433D02*
X0067750Y0330433D01*
X0067750Y0331431D02*
X0131250Y0331431D01*
X0131644Y0332430D02*
X0067356Y0332430D01*
X0066700Y0333428D02*
X0132300Y0333428D01*
X0132300Y0334427D02*
X0066700Y0334427D01*
X0067203Y0335425D02*
X0132300Y0335425D01*
X0132300Y0336424D02*
X0068202Y0336424D01*
X0069200Y0337422D02*
X0132300Y0337422D01*
X0132300Y0338421D02*
X0070199Y0338421D01*
X0071197Y0339419D02*
X0132300Y0339419D01*
X0131804Y0340418D02*
X0072196Y0340418D01*
X0073194Y0341416D02*
X0130806Y0341416D01*
X0129807Y0342415D02*
X0074193Y0342415D01*
X0076676Y0343414D02*
X0128809Y0343414D01*
X0127810Y0344412D02*
X0077429Y0344412D01*
X0077750Y0345411D02*
X0126812Y0345411D01*
X0125813Y0346409D02*
X0078187Y0346409D01*
X0079186Y0347408D02*
X0124814Y0347408D01*
X0123816Y0348406D02*
X0080184Y0348406D01*
X0079500Y0350833D02*
X0074500Y0345833D01*
X0064500Y0335833D01*
X0064500Y0330833D01*
X0062301Y0328436D02*
X0049400Y0328436D01*
X0049400Y0329434D02*
X0061562Y0329434D01*
X0061250Y0330433D02*
X0049400Y0330433D01*
X0049400Y0331431D02*
X0061250Y0331431D01*
X0061644Y0332430D02*
X0049400Y0332430D01*
X0049400Y0333428D02*
X0062300Y0333428D01*
X0062300Y0334427D02*
X0049400Y0334427D01*
X0049400Y0335425D02*
X0062300Y0335425D01*
X0062300Y0336424D02*
X0049400Y0336424D01*
X0049400Y0337422D02*
X0062978Y0337422D01*
X0063976Y0338421D02*
X0049400Y0338421D01*
X0049400Y0339419D02*
X0064975Y0339419D01*
X0065973Y0340418D02*
X0049400Y0340418D01*
X0049400Y0341416D02*
X0066972Y0341416D01*
X0067970Y0342415D02*
X0049400Y0342415D01*
X0049400Y0343414D02*
X0068969Y0343414D01*
X0069967Y0344412D02*
X0049400Y0344412D01*
X0049400Y0345411D02*
X0060898Y0345411D01*
X0058823Y0346409D02*
X0049400Y0346409D01*
X0049400Y0347408D02*
X0057369Y0347408D01*
X0056371Y0348406D02*
X0049400Y0348406D01*
X0049400Y0349405D02*
X0055510Y0349405D01*
X0054933Y0350403D02*
X0049400Y0350403D01*
X0049400Y0351402D02*
X0054357Y0351402D01*
X0054032Y0352400D02*
X0049400Y0352400D01*
X0049400Y0353399D02*
X0053764Y0353399D01*
X0053500Y0354397D02*
X0049400Y0354397D01*
X0049400Y0355396D02*
X0053500Y0355396D01*
X0053500Y0356394D02*
X0049400Y0356394D01*
X0049400Y0357393D02*
X0053530Y0357393D01*
X0053797Y0358391D02*
X0049400Y0358391D01*
X0049400Y0359390D02*
X0054065Y0359390D01*
X0054428Y0360388D02*
X0049400Y0360388D01*
X0068102Y0345411D02*
X0070966Y0345411D01*
X0071250Y0346409D02*
X0070177Y0346409D01*
X0071631Y0347408D02*
X0071634Y0347408D01*
X0072919Y0348696D02*
X0073302Y0349079D01*
X0074750Y0351587D01*
X0075500Y0354385D01*
X0075500Y0357282D01*
X0074750Y0360079D01*
X0074257Y0360933D01*
X0079100Y0360933D01*
X0079100Y0359759D01*
X0079922Y0357774D01*
X0081441Y0356255D01*
X0083426Y0355433D01*
X0085574Y0355433D01*
X0086583Y0355851D01*
X0089401Y0353033D01*
X0080411Y0353033D01*
X0078589Y0353033D01*
X0074639Y0349083D01*
X0073854Y0349083D01*
X0072919Y0348696D01*
X0073490Y0349405D02*
X0074960Y0349405D01*
X0074067Y0350403D02*
X0075959Y0350403D01*
X0076957Y0351402D02*
X0074643Y0351402D01*
X0074968Y0352400D02*
X0077956Y0352400D01*
X0079500Y0350833D02*
X0124500Y0350833D01*
X0134500Y0340833D01*
X0134500Y0330833D01*
X0140050Y0330433D02*
X0159600Y0330433D01*
X0159600Y0331431D02*
X0140050Y0331431D01*
X0140050Y0332430D02*
X0159600Y0332430D01*
X0159600Y0333428D02*
X0140050Y0333428D01*
X0140050Y0334427D02*
X0159600Y0334427D01*
X0159600Y0335425D02*
X0140050Y0335425D01*
X0140050Y0336424D02*
X0159600Y0336424D01*
X0159600Y0337422D02*
X0140050Y0337422D01*
X0140050Y0338421D02*
X0159600Y0338421D01*
X0159600Y0339419D02*
X0140050Y0339419D01*
X0140050Y0340418D02*
X0140546Y0340418D01*
X0140159Y0340578D02*
X0141354Y0340083D01*
X0142646Y0340083D01*
X0143841Y0340578D01*
X0144755Y0341492D01*
X0145250Y0342687D01*
X0145250Y0343980D01*
X0144896Y0344833D01*
X0145948Y0344833D01*
X0148746Y0345583D01*
X0151254Y0347031D01*
X0153302Y0349079D01*
X0154750Y0351587D01*
X0155500Y0354385D01*
X0155500Y0357282D01*
X0154750Y0360079D01*
X0154257Y0360933D01*
X0159600Y0360933D01*
X0159600Y0274899D01*
X0158262Y0275167D01*
X0157049Y0274358D01*
X0156371Y0275037D01*
X0154631Y0275037D01*
X0154007Y0274413D01*
X0153549Y0273955D01*
X0152467Y0275037D01*
X0151066Y0275037D01*
X0150888Y0275037D01*
X0150728Y0275037D01*
X0149326Y0275037D01*
X0149312Y0275023D01*
X0148096Y0273807D01*
X0148096Y0273807D01*
X0147467Y0273178D01*
X0147396Y0273106D01*
X0147396Y0273106D01*
X0147396Y0273106D01*
X0147396Y0272281D01*
X0147396Y0270733D01*
X0129900Y0270733D01*
X0129900Y0271907D01*
X0129123Y0273783D01*
X0145349Y0273783D01*
X0155349Y0283783D01*
X0156550Y0284984D01*
X0156550Y0308287D01*
X0157255Y0308992D01*
X0157750Y0310187D01*
X0157750Y0311480D01*
X0157255Y0312674D01*
X0156341Y0313589D01*
X0156209Y0313643D01*
X0157050Y0314484D01*
X0157050Y0320182D01*
X0155849Y0321383D01*
X0154349Y0322883D01*
X0152651Y0322883D01*
X0138546Y0322883D01*
X0137841Y0323589D01*
X0136646Y0324083D01*
X0135649Y0324083D01*
X0138849Y0327283D01*
X0140050Y0328484D01*
X0140050Y0340687D01*
X0140159Y0340578D01*
X0143454Y0340418D02*
X0159600Y0340418D01*
X0159600Y0341416D02*
X0144679Y0341416D01*
X0145137Y0342415D02*
X0159600Y0342415D01*
X0159600Y0343414D02*
X0145250Y0343414D01*
X0145071Y0344412D02*
X0159600Y0344412D01*
X0159600Y0345411D02*
X0148102Y0345411D01*
X0150177Y0346409D02*
X0159600Y0346409D01*
X0159600Y0347408D02*
X0151631Y0347408D01*
X0152629Y0348406D02*
X0159600Y0348406D01*
X0159600Y0349405D02*
X0153490Y0349405D01*
X0154067Y0350403D02*
X0159600Y0350403D01*
X0159600Y0351402D02*
X0154643Y0351402D01*
X0154968Y0352400D02*
X0159600Y0352400D01*
X0159600Y0353399D02*
X0155236Y0353399D01*
X0155500Y0354397D02*
X0159600Y0354397D01*
X0159600Y0355396D02*
X0155500Y0355396D01*
X0155500Y0356394D02*
X0159600Y0356394D01*
X0159600Y0357393D02*
X0155470Y0357393D01*
X0155203Y0358391D02*
X0159600Y0358391D01*
X0159600Y0359390D02*
X0154935Y0359390D01*
X0154572Y0360388D02*
X0159600Y0360388D01*
X0171400Y0360388D02*
X0176428Y0360388D01*
X0176065Y0359390D02*
X0171400Y0359390D01*
X0171400Y0358391D02*
X0175797Y0358391D01*
X0175530Y0357393D02*
X0171400Y0357393D01*
X0171400Y0356394D02*
X0175500Y0356394D01*
X0175500Y0355396D02*
X0171400Y0355396D01*
X0171400Y0354397D02*
X0175500Y0354397D01*
X0175764Y0353399D02*
X0171400Y0353399D01*
X0171400Y0352400D02*
X0176032Y0352400D01*
X0176357Y0351402D02*
X0171400Y0351402D01*
X0171400Y0350403D02*
X0176933Y0350403D01*
X0177510Y0349405D02*
X0171400Y0349405D01*
X0171400Y0348406D02*
X0178371Y0348406D01*
X0179369Y0347408D02*
X0171400Y0347408D01*
X0171400Y0346409D02*
X0180823Y0346409D01*
X0182898Y0345411D02*
X0171400Y0345411D01*
X0171400Y0344412D02*
X0191967Y0344412D01*
X0190969Y0343414D02*
X0171400Y0343414D01*
X0171400Y0342415D02*
X0189970Y0342415D01*
X0188972Y0341416D02*
X0171400Y0341416D01*
X0171400Y0340418D02*
X0187973Y0340418D01*
X0186975Y0339419D02*
X0171400Y0339419D01*
X0171400Y0338421D02*
X0185976Y0338421D01*
X0184978Y0337422D02*
X0171400Y0337422D01*
X0171400Y0336424D02*
X0184300Y0336424D01*
X0184300Y0335425D02*
X0171400Y0335425D01*
X0171400Y0334427D02*
X0184300Y0334427D01*
X0184300Y0333428D02*
X0171400Y0333428D01*
X0171400Y0332430D02*
X0183644Y0332430D01*
X0183250Y0331431D02*
X0171400Y0331431D01*
X0171400Y0330433D02*
X0183250Y0330433D01*
X0183562Y0329434D02*
X0171400Y0329434D01*
X0171400Y0328436D02*
X0184301Y0328436D01*
X0186500Y0330833D02*
X0186500Y0335833D01*
X0196500Y0345833D01*
X0201500Y0350833D01*
X0246500Y0350833D01*
X0256500Y0340833D01*
X0256500Y0330833D01*
X0254301Y0328436D02*
X0188699Y0328436D01*
X0189438Y0329434D02*
X0253562Y0329434D01*
X0253250Y0330433D02*
X0189750Y0330433D01*
X0189750Y0331431D02*
X0253250Y0331431D01*
X0253644Y0332430D02*
X0189356Y0332430D01*
X0188700Y0333428D02*
X0254300Y0333428D01*
X0254300Y0334427D02*
X0188700Y0334427D01*
X0189203Y0335425D02*
X0254300Y0335425D01*
X0254300Y0336424D02*
X0190202Y0336424D01*
X0191200Y0337422D02*
X0254300Y0337422D01*
X0254300Y0338421D02*
X0192199Y0338421D01*
X0193197Y0339419D02*
X0254300Y0339419D01*
X0253804Y0340418D02*
X0194196Y0340418D01*
X0195194Y0341416D02*
X0252806Y0341416D01*
X0251807Y0342415D02*
X0196193Y0342415D01*
X0198676Y0343414D02*
X0250809Y0343414D01*
X0249810Y0344412D02*
X0199429Y0344412D01*
X0199750Y0345411D02*
X0248812Y0345411D01*
X0247813Y0346409D02*
X0200187Y0346409D01*
X0201186Y0347408D02*
X0246814Y0347408D01*
X0245816Y0348406D02*
X0202184Y0348406D01*
X0198957Y0351402D02*
X0196643Y0351402D01*
X0196750Y0351587D02*
X0197500Y0354385D01*
X0197500Y0357282D01*
X0196750Y0360079D01*
X0196257Y0360933D01*
X0201100Y0360933D01*
X0201100Y0359759D01*
X0201922Y0357774D01*
X0203441Y0356255D01*
X0205426Y0355433D01*
X0207574Y0355433D01*
X0208583Y0355851D01*
X0211401Y0353033D01*
X0202411Y0353033D01*
X0200589Y0353033D01*
X0196639Y0349083D01*
X0195854Y0349083D01*
X0194919Y0348696D01*
X0195302Y0349079D01*
X0196750Y0351587D01*
X0196968Y0352400D02*
X0199956Y0352400D01*
X0197959Y0350403D02*
X0196067Y0350403D01*
X0195490Y0349405D02*
X0196960Y0349405D01*
X0193634Y0347408D02*
X0193631Y0347408D01*
X0193250Y0346409D02*
X0192177Y0346409D01*
X0192966Y0345411D02*
X0190102Y0345411D01*
X0197236Y0353399D02*
X0211036Y0353399D01*
X0210037Y0354397D02*
X0197500Y0354397D01*
X0197500Y0355396D02*
X0209039Y0355396D01*
X0203302Y0356394D02*
X0197500Y0356394D01*
X0197470Y0357393D02*
X0202304Y0357393D01*
X0201667Y0358391D02*
X0197203Y0358391D01*
X0196935Y0359390D02*
X0201253Y0359390D01*
X0201100Y0360388D02*
X0196572Y0360388D01*
X0171400Y0327437D02*
X0255205Y0327437D01*
X0254206Y0326439D02*
X0171400Y0326439D01*
X0171400Y0325440D02*
X0253208Y0325440D01*
X0252450Y0324442D02*
X0171400Y0324442D01*
X0171400Y0323443D02*
X0252450Y0323443D01*
X0252450Y0322445D02*
X0171400Y0322445D01*
X0171400Y0321446D02*
X0252450Y0321446D01*
X0252450Y0320448D02*
X0171400Y0320448D01*
X0171400Y0319449D02*
X0252450Y0319449D01*
X0252450Y0318451D02*
X0171400Y0318451D01*
X0171400Y0317452D02*
X0252450Y0317452D01*
X0252450Y0316454D02*
X0171400Y0316454D01*
X0171400Y0315455D02*
X0252450Y0315455D01*
X0252450Y0314457D02*
X0171400Y0314457D01*
X0159600Y0314457D02*
X0157022Y0314457D01*
X0157050Y0315455D02*
X0159600Y0315455D01*
X0159600Y0316454D02*
X0157050Y0316454D01*
X0157050Y0317452D02*
X0159600Y0317452D01*
X0159600Y0318451D02*
X0157050Y0318451D01*
X0157050Y0319449D02*
X0159600Y0319449D01*
X0159600Y0320448D02*
X0156785Y0320448D01*
X0155786Y0321446D02*
X0159600Y0321446D01*
X0159600Y0322445D02*
X0154788Y0322445D01*
X0159600Y0323443D02*
X0137986Y0323443D01*
X0136008Y0324442D02*
X0159600Y0324442D01*
X0159600Y0325440D02*
X0137006Y0325440D01*
X0138005Y0326439D02*
X0159600Y0326439D01*
X0159600Y0327437D02*
X0139003Y0327437D01*
X0140002Y0328436D02*
X0159600Y0328436D01*
X0159600Y0329434D02*
X0140050Y0329434D01*
X0149450Y0309884D02*
X0149450Y0286682D01*
X0143151Y0280383D01*
X0134449Y0280383D01*
X0138349Y0284283D01*
X0138349Y0284283D01*
X0139550Y0285484D01*
X0139550Y0307287D01*
X0140046Y0307783D01*
X0147349Y0307783D01*
X0148550Y0308984D01*
X0148550Y0308984D01*
X0149450Y0309884D01*
X0149450Y0309464D02*
X0149030Y0309464D01*
X0149450Y0308466D02*
X0148031Y0308466D01*
X0149450Y0307467D02*
X0139730Y0307467D01*
X0139550Y0306469D02*
X0149450Y0306469D01*
X0149450Y0305470D02*
X0139550Y0305470D01*
X0139550Y0304472D02*
X0149450Y0304472D01*
X0149450Y0303473D02*
X0139550Y0303473D01*
X0139550Y0302475D02*
X0149450Y0302475D01*
X0149450Y0301476D02*
X0139550Y0301476D01*
X0139550Y0300478D02*
X0149450Y0300478D01*
X0149450Y0299479D02*
X0139550Y0299479D01*
X0139550Y0298481D02*
X0149450Y0298481D01*
X0149450Y0297482D02*
X0139550Y0297482D01*
X0139550Y0296483D02*
X0149450Y0296483D01*
X0149450Y0295485D02*
X0139550Y0295485D01*
X0139550Y0294486D02*
X0149450Y0294486D01*
X0149450Y0293488D02*
X0139550Y0293488D01*
X0139550Y0292489D02*
X0149450Y0292489D01*
X0149450Y0291491D02*
X0139550Y0291491D01*
X0139550Y0290492D02*
X0149450Y0290492D01*
X0149450Y0289494D02*
X0139550Y0289494D01*
X0139550Y0288495D02*
X0149450Y0288495D01*
X0149450Y0287497D02*
X0139550Y0287497D01*
X0139550Y0286498D02*
X0149266Y0286498D01*
X0148267Y0285500D02*
X0139550Y0285500D01*
X0138567Y0284501D02*
X0147269Y0284501D01*
X0146270Y0283503D02*
X0137569Y0283503D01*
X0136570Y0282504D02*
X0145272Y0282504D01*
X0144273Y0281506D02*
X0135572Y0281506D01*
X0134573Y0280507D02*
X0143275Y0280507D01*
X0148079Y0276513D02*
X0159600Y0276513D01*
X0159600Y0275515D02*
X0147081Y0275515D01*
X0146082Y0274516D02*
X0148806Y0274516D01*
X0149326Y0275037D02*
X0149326Y0275037D01*
X0150728Y0275037D02*
X0150728Y0275037D01*
X0151066Y0275037D02*
X0151066Y0275037D01*
X0152988Y0274516D02*
X0154110Y0274516D01*
X0156891Y0274516D02*
X0157287Y0274516D01*
X0159600Y0277512D02*
X0149078Y0277512D01*
X0150076Y0278510D02*
X0159600Y0278510D01*
X0159600Y0279509D02*
X0151075Y0279509D01*
X0152073Y0280507D02*
X0159600Y0280507D01*
X0159600Y0281506D02*
X0153072Y0281506D01*
X0154070Y0282504D02*
X0159600Y0282504D01*
X0159600Y0283503D02*
X0155069Y0283503D01*
X0156067Y0284501D02*
X0159600Y0284501D01*
X0159600Y0285500D02*
X0156550Y0285500D01*
X0156550Y0286498D02*
X0159600Y0286498D01*
X0159600Y0287497D02*
X0156550Y0287497D01*
X0156550Y0288495D02*
X0159600Y0288495D01*
X0159600Y0289494D02*
X0156550Y0289494D01*
X0156550Y0290492D02*
X0159600Y0290492D01*
X0159600Y0291491D02*
X0156550Y0291491D01*
X0156550Y0292489D02*
X0159600Y0292489D01*
X0159600Y0293488D02*
X0156550Y0293488D01*
X0156550Y0294486D02*
X0159600Y0294486D01*
X0159600Y0295485D02*
X0156550Y0295485D01*
X0156550Y0296483D02*
X0159600Y0296483D01*
X0159600Y0297482D02*
X0156550Y0297482D01*
X0156550Y0298481D02*
X0159600Y0298481D01*
X0159600Y0299479D02*
X0156550Y0299479D01*
X0156550Y0300478D02*
X0159600Y0300478D01*
X0159600Y0301476D02*
X0156550Y0301476D01*
X0156550Y0302475D02*
X0159600Y0302475D01*
X0159600Y0303473D02*
X0156550Y0303473D01*
X0156550Y0304472D02*
X0159600Y0304472D01*
X0159600Y0305470D02*
X0156550Y0305470D01*
X0156550Y0306469D02*
X0159600Y0306469D01*
X0159600Y0307467D02*
X0156550Y0307467D01*
X0156728Y0308466D02*
X0159600Y0308466D01*
X0159600Y0309464D02*
X0157451Y0309464D01*
X0157750Y0310463D02*
X0159600Y0310463D01*
X0159600Y0311461D02*
X0157750Y0311461D01*
X0157344Y0312460D02*
X0159600Y0312460D01*
X0159600Y0313458D02*
X0156471Y0313458D01*
X0178434Y0288495D02*
X0189450Y0288495D01*
X0147807Y0273518D02*
X0129233Y0273518D01*
X0129647Y0272519D02*
X0147396Y0272519D01*
X0147396Y0271521D02*
X0129900Y0271521D01*
X0116275Y0280507D02*
X0102531Y0280507D01*
X0102750Y0279509D02*
X0115276Y0279509D01*
X0114278Y0278510D02*
X0102677Y0278510D01*
X0101924Y0281506D02*
X0117273Y0281506D01*
X0118272Y0282504D02*
X0100337Y0282504D01*
X0077076Y0281506D02*
X0075073Y0281506D01*
X0068422Y0277512D02*
X0049400Y0277512D01*
X0049400Y0278510D02*
X0067450Y0278510D01*
X0067450Y0279509D02*
X0049400Y0279509D01*
X0049400Y0280507D02*
X0067450Y0280507D01*
X0067450Y0281506D02*
X0049400Y0281506D01*
X0049400Y0282504D02*
X0067450Y0282504D01*
X0067450Y0283503D02*
X0056766Y0283503D01*
X0052234Y0283503D02*
X0049400Y0283503D01*
X0049400Y0284501D02*
X0051534Y0284501D01*
X0051250Y0285500D02*
X0049400Y0285500D01*
X0049400Y0286498D02*
X0051258Y0286498D01*
X0051671Y0287497D02*
X0049400Y0287497D01*
X0049400Y0288495D02*
X0052566Y0288495D01*
X0049400Y0289494D02*
X0067450Y0289494D01*
X0067450Y0290492D02*
X0049400Y0290492D01*
X0049400Y0291491D02*
X0067450Y0291491D01*
X0067450Y0292489D02*
X0049400Y0292489D01*
X0049400Y0293488D02*
X0067450Y0293488D01*
X0067450Y0294486D02*
X0049400Y0294486D01*
X0049400Y0295485D02*
X0067450Y0295485D01*
X0067450Y0296483D02*
X0049400Y0296483D01*
X0049400Y0297482D02*
X0067450Y0297482D01*
X0067450Y0298481D02*
X0049400Y0298481D01*
X0049400Y0299479D02*
X0067450Y0299479D01*
X0067450Y0300478D02*
X0049400Y0300478D01*
X0049400Y0301476D02*
X0067450Y0301476D01*
X0067450Y0302475D02*
X0049400Y0302475D01*
X0049400Y0303473D02*
X0067264Y0303473D01*
X0066546Y0304472D02*
X0049400Y0304472D01*
X0049400Y0305470D02*
X0066250Y0305470D01*
X0066250Y0306469D02*
X0049400Y0306469D01*
X0049400Y0307467D02*
X0066659Y0307467D01*
X0067536Y0308466D02*
X0049400Y0308466D01*
X0049400Y0309464D02*
X0069049Y0309464D01*
X0068750Y0310463D02*
X0049400Y0310463D01*
X0049400Y0311461D02*
X0068750Y0311461D01*
X0069156Y0312460D02*
X0049400Y0312460D01*
X0049400Y0313458D02*
X0070029Y0313458D01*
X0067450Y0288495D02*
X0056434Y0288495D01*
X0049400Y0276513D02*
X0069421Y0276513D01*
X0070419Y0275515D02*
X0049400Y0275515D01*
X0049400Y0274516D02*
X0071418Y0274516D01*
X0074257Y0258933D02*
X0079100Y0258933D01*
X0079100Y0257759D01*
X0079922Y0255774D01*
X0081441Y0254255D01*
X0083426Y0253433D01*
X0085574Y0253433D01*
X0086583Y0253851D01*
X0089401Y0251033D01*
X0080411Y0251033D01*
X0078589Y0251033D01*
X0074639Y0247083D01*
X0073854Y0247083D01*
X0072919Y0246696D01*
X0073302Y0247079D01*
X0074750Y0249587D01*
X0075500Y0252385D01*
X0075500Y0255282D01*
X0074750Y0258079D01*
X0074257Y0258933D01*
X0074484Y0258540D02*
X0079100Y0258540D01*
X0079190Y0257542D02*
X0074894Y0257542D01*
X0075162Y0256543D02*
X0079604Y0256543D01*
X0080152Y0255545D02*
X0075430Y0255545D01*
X0075500Y0254546D02*
X0081151Y0254546D01*
X0083150Y0253548D02*
X0075500Y0253548D01*
X0075500Y0252549D02*
X0087885Y0252549D01*
X0086887Y0253548D02*
X0085850Y0253548D01*
X0088884Y0251550D02*
X0075276Y0251550D01*
X0075009Y0250552D02*
X0078107Y0250552D01*
X0077109Y0249553D02*
X0074731Y0249553D01*
X0074154Y0248555D02*
X0076110Y0248555D01*
X0075112Y0247556D02*
X0073578Y0247556D01*
X0071284Y0244561D02*
X0070440Y0244561D01*
X0071118Y0243562D02*
X0068669Y0243562D01*
X0079500Y0248833D02*
X0124500Y0248833D01*
X0134500Y0238833D01*
X0134500Y0228833D01*
X0149450Y0207884D02*
X0149450Y0184682D01*
X0143151Y0178383D01*
X0134449Y0178383D01*
X0138349Y0182283D01*
X0139550Y0183484D01*
X0139550Y0205287D01*
X0140046Y0205783D01*
X0147349Y0205783D01*
X0148550Y0206984D01*
X0148550Y0206984D01*
X0149450Y0207884D01*
X0149450Y0207616D02*
X0149182Y0207616D01*
X0149450Y0206617D02*
X0148183Y0206617D01*
X0149450Y0205619D02*
X0139882Y0205619D01*
X0139550Y0204620D02*
X0149450Y0204620D01*
X0149450Y0203622D02*
X0139550Y0203622D01*
X0139550Y0202623D02*
X0149450Y0202623D01*
X0149450Y0201625D02*
X0139550Y0201625D01*
X0139550Y0200626D02*
X0149450Y0200626D01*
X0149450Y0199628D02*
X0139550Y0199628D01*
X0139550Y0198629D02*
X0149450Y0198629D01*
X0149450Y0197631D02*
X0139550Y0197631D01*
X0139550Y0196632D02*
X0149450Y0196632D01*
X0149450Y0195634D02*
X0139550Y0195634D01*
X0139550Y0194635D02*
X0149450Y0194635D01*
X0149450Y0193637D02*
X0139550Y0193637D01*
X0139550Y0192638D02*
X0149450Y0192638D01*
X0149450Y0191640D02*
X0139550Y0191640D01*
X0139550Y0190641D02*
X0149450Y0190641D01*
X0149450Y0189643D02*
X0139550Y0189643D01*
X0139550Y0188644D02*
X0149450Y0188644D01*
X0149450Y0187646D02*
X0139550Y0187646D01*
X0139550Y0186647D02*
X0149450Y0186647D01*
X0149450Y0185649D02*
X0139550Y0185649D01*
X0139550Y0184650D02*
X0149418Y0184650D01*
X0148419Y0183652D02*
X0139550Y0183652D01*
X0138719Y0182653D02*
X0147421Y0182653D01*
X0146422Y0181655D02*
X0137720Y0181655D01*
X0136722Y0180656D02*
X0145424Y0180656D01*
X0144425Y0179658D02*
X0135723Y0179658D01*
X0134725Y0178659D02*
X0143427Y0178659D01*
X0146234Y0172668D02*
X0148958Y0172668D01*
X0149326Y0173037D02*
X0149326Y0173037D01*
X0150728Y0173037D02*
X0150728Y0173037D01*
X0151066Y0173037D02*
X0151066Y0173037D01*
X0152836Y0172668D02*
X0154262Y0172668D01*
X0156739Y0172668D02*
X0157514Y0172668D01*
X0147959Y0171670D02*
X0129170Y0171670D01*
X0129584Y0170671D02*
X0147396Y0170671D01*
X0147396Y0169673D02*
X0129900Y0169673D01*
X0116427Y0178659D02*
X0102469Y0178659D01*
X0102750Y0177661D02*
X0115428Y0177661D01*
X0114430Y0176662D02*
X0102740Y0176662D01*
X0126199Y0186647D02*
X0129915Y0186647D01*
X0171400Y0212609D02*
X0252450Y0212609D01*
X0252450Y0213607D02*
X0171400Y0213607D01*
X0171400Y0214606D02*
X0252450Y0214606D01*
X0252450Y0215604D02*
X0171400Y0215604D01*
X0171400Y0216603D02*
X0252450Y0216603D01*
X0252450Y0217601D02*
X0171400Y0217601D01*
X0171400Y0218600D02*
X0252450Y0218600D01*
X0252450Y0219598D02*
X0171400Y0219598D01*
X0171400Y0220597D02*
X0252450Y0220597D01*
X0252450Y0221595D02*
X0171400Y0221595D01*
X0171400Y0222594D02*
X0252450Y0222594D01*
X0253360Y0223592D02*
X0171400Y0223592D01*
X0196380Y0206617D02*
X0252450Y0206617D01*
X0252450Y0205619D02*
X0196050Y0205619D01*
X0196050Y0204620D02*
X0252450Y0204620D01*
X0252450Y0203622D02*
X0196050Y0203622D01*
X0196050Y0202623D02*
X0252450Y0202623D01*
X0252450Y0201625D02*
X0196050Y0201625D01*
X0196050Y0200626D02*
X0252450Y0200626D01*
X0252450Y0199628D02*
X0196050Y0199628D01*
X0196050Y0198629D02*
X0252450Y0198629D01*
X0252450Y0197631D02*
X0196050Y0197631D01*
X0196050Y0196632D02*
X0252450Y0196632D01*
X0252450Y0195634D02*
X0196050Y0195634D01*
X0196050Y0194635D02*
X0252450Y0194635D01*
X0252450Y0193637D02*
X0196050Y0193637D01*
X0196050Y0192638D02*
X0252450Y0192638D01*
X0252450Y0191640D02*
X0196050Y0191640D01*
X0196050Y0190641D02*
X0252450Y0190641D01*
X0252450Y0189643D02*
X0196050Y0189643D01*
X0196050Y0188644D02*
X0252450Y0188644D01*
X0252450Y0187646D02*
X0196050Y0187646D01*
X0196050Y0186647D02*
X0244801Y0186647D01*
X0243734Y0185649D02*
X0196050Y0185649D01*
X0196050Y0184650D02*
X0243321Y0184650D01*
X0243250Y0183652D02*
X0196050Y0183652D01*
X0196050Y0182653D02*
X0243471Y0182653D01*
X0244082Y0181655D02*
X0196050Y0181655D01*
X0196050Y0180656D02*
X0240424Y0180656D01*
X0239425Y0179658D02*
X0223772Y0179658D01*
X0224469Y0178659D02*
X0238427Y0178659D01*
X0237428Y0177661D02*
X0224750Y0177661D01*
X0224740Y0176662D02*
X0236430Y0176662D01*
X0248199Y0186647D02*
X0251915Y0186647D01*
X0219228Y0179658D02*
X0203772Y0179658D01*
X0199228Y0179658D02*
X0196921Y0179658D01*
X0189450Y0181655D02*
X0178918Y0181655D01*
X0178199Y0186647D02*
X0189450Y0186647D01*
X0208216Y0151699D02*
X0208735Y0151699D01*
X0191273Y0139717D02*
X0171400Y0139717D01*
X0171400Y0138719D02*
X0190274Y0138719D01*
X0189276Y0137720D02*
X0171400Y0137720D01*
X0171400Y0136722D02*
X0188277Y0136722D01*
X0187279Y0135723D02*
X0171400Y0135723D01*
X0171400Y0134725D02*
X0186280Y0134725D01*
X0185282Y0133726D02*
X0171400Y0133726D01*
X0171400Y0132728D02*
X0184300Y0132728D01*
X0184300Y0131729D02*
X0171400Y0131729D01*
X0171400Y0130731D02*
X0184300Y0130731D01*
X0184300Y0129732D02*
X0171400Y0129732D01*
X0171400Y0128734D02*
X0183804Y0128734D01*
X0183356Y0127735D02*
X0171400Y0127735D01*
X0171400Y0126737D02*
X0183250Y0126737D01*
X0183436Y0125738D02*
X0171400Y0125738D01*
X0171400Y0124740D02*
X0183998Y0124740D01*
X0134500Y0126833D02*
X0134500Y0136833D01*
X0124500Y0146833D01*
X0079500Y0146833D01*
X0078259Y0148704D02*
X0075049Y0148704D01*
X0075317Y0149702D02*
X0088732Y0149702D01*
X0089401Y0149033D02*
X0080411Y0149033D01*
X0078589Y0149033D01*
X0074639Y0145083D01*
X0073854Y0145083D01*
X0072919Y0144696D01*
X0073302Y0145079D01*
X0074750Y0147587D01*
X0075500Y0150385D01*
X0075500Y0153282D01*
X0074750Y0156079D01*
X0074257Y0156933D01*
X0079100Y0156933D01*
X0079100Y0155759D01*
X0079922Y0153774D01*
X0081441Y0152255D01*
X0083426Y0151433D01*
X0085574Y0151433D01*
X0086583Y0151851D01*
X0089401Y0149033D01*
X0087733Y0150701D02*
X0075500Y0150701D01*
X0075500Y0151699D02*
X0082784Y0151699D01*
X0080999Y0152698D02*
X0075500Y0152698D01*
X0075389Y0153696D02*
X0080000Y0153696D01*
X0079541Y0154695D02*
X0075121Y0154695D01*
X0074854Y0155693D02*
X0079127Y0155693D01*
X0079100Y0156692D02*
X0074397Y0156692D01*
X0074782Y0147705D02*
X0077261Y0147705D01*
X0076262Y0146707D02*
X0074242Y0146707D01*
X0073665Y0145708D02*
X0075264Y0145708D01*
X0072952Y0144710D02*
X0072933Y0144710D01*
X0071347Y0142713D02*
X0070703Y0142713D01*
X0071250Y0141714D02*
X0068973Y0141714D01*
X0086216Y0151699D02*
X0086735Y0151699D01*
X0071266Y0172668D02*
X0049400Y0172668D01*
X0049400Y0173667D02*
X0070268Y0173667D01*
X0069269Y0174665D02*
X0049400Y0174665D01*
X0049400Y0175664D02*
X0068271Y0175664D01*
X0067450Y0176662D02*
X0049400Y0176662D01*
X0049400Y0177661D02*
X0067450Y0177661D01*
X0067450Y0178659D02*
X0049400Y0178659D01*
X0049400Y0179658D02*
X0067450Y0179658D01*
X0067450Y0180656D02*
X0055322Y0180656D01*
X0053678Y0180656D02*
X0049400Y0180656D01*
X0049400Y0181655D02*
X0052082Y0181655D01*
X0051471Y0182653D02*
X0049400Y0182653D01*
X0049400Y0183652D02*
X0051250Y0183652D01*
X0051321Y0184650D02*
X0049400Y0184650D01*
X0049400Y0185649D02*
X0051734Y0185649D01*
X0052801Y0186647D02*
X0049400Y0186647D01*
X0049400Y0187646D02*
X0067450Y0187646D01*
X0067450Y0188644D02*
X0049400Y0188644D01*
X0049400Y0189643D02*
X0067450Y0189643D01*
X0067450Y0190641D02*
X0049400Y0190641D01*
X0049400Y0191640D02*
X0067450Y0191640D01*
X0067450Y0192638D02*
X0049400Y0192638D01*
X0049400Y0193637D02*
X0067450Y0193637D01*
X0067450Y0194635D02*
X0049400Y0194635D01*
X0049400Y0195634D02*
X0067450Y0195634D01*
X0067450Y0196632D02*
X0049400Y0196632D01*
X0049400Y0197631D02*
X0067450Y0197631D01*
X0067450Y0198629D02*
X0049400Y0198629D01*
X0049400Y0199628D02*
X0067450Y0199628D01*
X0067450Y0200626D02*
X0049400Y0200626D01*
X0049400Y0201625D02*
X0067112Y0201625D01*
X0066483Y0202623D02*
X0049400Y0202623D01*
X0049400Y0203622D02*
X0066250Y0203622D01*
X0066308Y0204620D02*
X0049400Y0204620D01*
X0049400Y0205619D02*
X0066722Y0205619D01*
X0067729Y0206617D02*
X0049400Y0206617D01*
X0049400Y0207616D02*
X0068986Y0207616D01*
X0068750Y0208614D02*
X0049400Y0208614D01*
X0049400Y0209613D02*
X0068805Y0209613D01*
X0069219Y0210612D02*
X0049400Y0210612D01*
X0049400Y0211610D02*
X0070211Y0211610D01*
X0067450Y0186647D02*
X0056199Y0186647D01*
X0056918Y0181655D02*
X0067450Y0181655D01*
X0074921Y0179658D02*
X0077228Y0179658D01*
X0061436Y0125738D02*
X0049400Y0125738D01*
X0049400Y0124740D02*
X0061998Y0124740D01*
X0063473Y0123741D02*
X0049400Y0123741D01*
X0055689Y0078808D02*
X0067450Y0078808D01*
X0074769Y0077810D02*
X0077380Y0077810D01*
X0081620Y0077810D02*
X0097380Y0077810D01*
X0256500Y0228833D02*
X0256500Y0238833D01*
X0246500Y0248833D01*
X0274988Y0274516D02*
X0276110Y0274516D01*
X0278891Y0274516D02*
X0279287Y0274516D01*
X0269269Y0284501D02*
X0260567Y0284501D01*
X0260349Y0284283D02*
X0256449Y0280383D01*
X0265151Y0280383D01*
X0271450Y0286682D01*
X0271450Y0309884D01*
X0269349Y0307783D01*
X0262046Y0307783D01*
X0261550Y0307287D01*
X0261550Y0285484D01*
X0260349Y0284283D01*
X0259569Y0283503D02*
X0268270Y0283503D01*
X0267272Y0282504D02*
X0258570Y0282504D01*
X0257572Y0281506D02*
X0266273Y0281506D01*
X0265275Y0280507D02*
X0256573Y0280507D01*
X0261550Y0285500D02*
X0270267Y0285500D01*
X0271266Y0286498D02*
X0261550Y0286498D01*
X0261550Y0287497D02*
X0271450Y0287497D01*
X0271450Y0288495D02*
X0261550Y0288495D01*
X0261550Y0289494D02*
X0271450Y0289494D01*
X0271450Y0290492D02*
X0261550Y0290492D01*
X0261550Y0291491D02*
X0271450Y0291491D01*
X0271450Y0292489D02*
X0261550Y0292489D01*
X0261550Y0293488D02*
X0271450Y0293488D01*
X0271450Y0294486D02*
X0261550Y0294486D01*
X0261550Y0295485D02*
X0271450Y0295485D01*
X0271450Y0296483D02*
X0261550Y0296483D01*
X0261550Y0297482D02*
X0271450Y0297482D01*
X0271450Y0298481D02*
X0261550Y0298481D01*
X0261550Y0299479D02*
X0271450Y0299479D01*
X0271450Y0300478D02*
X0261550Y0300478D01*
X0261550Y0301476D02*
X0271450Y0301476D01*
X0271450Y0302475D02*
X0261550Y0302475D01*
X0261550Y0303473D02*
X0271450Y0303473D01*
X0271450Y0304472D02*
X0261550Y0304472D01*
X0261550Y0305470D02*
X0271450Y0305470D01*
X0271450Y0306469D02*
X0261550Y0306469D01*
X0261730Y0307467D02*
X0271450Y0307467D01*
X0271450Y0308466D02*
X0270031Y0308466D01*
X0271030Y0309464D02*
X0271450Y0309464D01*
X0129763Y0288495D02*
X0126434Y0288495D01*
X0089036Y0353399D02*
X0075236Y0353399D01*
X0075500Y0354397D02*
X0088037Y0354397D01*
X0087039Y0355396D02*
X0075500Y0355396D01*
X0075500Y0356394D02*
X0081302Y0356394D01*
X0080304Y0357393D02*
X0075470Y0357393D01*
X0075203Y0358391D02*
X0079667Y0358391D01*
X0079253Y0359390D02*
X0074935Y0359390D01*
X0074572Y0360388D02*
X0079100Y0360388D01*
X0401166Y0108763D02*
X0403600Y0108763D01*
X0403600Y0107765D02*
X0401632Y0107765D01*
X0401750Y0106766D02*
X0403600Y0106766D01*
X0403600Y0105768D02*
X0401576Y0105768D01*
X0401032Y0104769D02*
X0403600Y0104769D01*
X0403600Y0103771D02*
X0400550Y0103771D01*
X0400550Y0102772D02*
X0403600Y0102772D01*
X0403600Y0101774D02*
X0400550Y0101774D01*
X0400550Y0100775D02*
X0403600Y0100775D01*
X0403600Y0099777D02*
X0400550Y0099777D01*
X0400550Y0098778D02*
X0403600Y0098778D01*
X0403600Y0097780D02*
X0400550Y0097780D01*
X0400550Y0096781D02*
X0403600Y0096781D01*
X0403600Y0095783D02*
X0400550Y0095783D01*
X0400550Y0094784D02*
X0403600Y0094784D01*
X0403600Y0093786D02*
X0400550Y0093786D01*
X0400550Y0092787D02*
X0403600Y0092787D01*
X0403600Y0091789D02*
X0400550Y0091789D01*
X0400550Y0090790D02*
X0403600Y0090790D01*
X0403600Y0089792D02*
X0400550Y0089792D01*
X0400550Y0088793D02*
X0403600Y0088793D01*
X0403600Y0087795D02*
X0400550Y0087795D01*
X0400550Y0086796D02*
X0403600Y0086796D01*
X0403600Y0085798D02*
X0400550Y0085798D01*
X0400550Y0084799D02*
X0403600Y0084799D01*
X0403600Y0083801D02*
X0400550Y0083801D01*
X0400550Y0082802D02*
X0403600Y0082802D01*
X0403600Y0081804D02*
X0400550Y0081804D01*
X0400371Y0080805D02*
X0403600Y0080805D01*
X0403600Y0079807D02*
X0399372Y0079807D01*
X0398374Y0078808D02*
X0403600Y0078808D01*
X0403600Y0077810D02*
X0397375Y0077810D01*
X0396377Y0076811D02*
X0403600Y0076811D01*
X0403600Y0075812D02*
X0395378Y0075812D01*
X0394380Y0074814D02*
X0403600Y0074814D01*
X0403600Y0073815D02*
X0393381Y0073815D01*
X0392383Y0072817D02*
X0403600Y0072817D01*
X0403600Y0071818D02*
X0391384Y0071818D01*
X0390386Y0070820D02*
X0393109Y0070820D01*
X0393326Y0071037D02*
X0393326Y0071037D01*
X0394728Y0071037D02*
X0394728Y0071037D01*
X0395066Y0071037D02*
X0395066Y0071037D01*
X0396684Y0070820D02*
X0398414Y0070820D01*
X0400588Y0070820D02*
X0401742Y0070820D01*
X0392111Y0069821D02*
X0389387Y0069821D01*
X0391396Y0068823D02*
X0373521Y0068823D01*
X0373900Y0067824D02*
X0391396Y0067824D01*
X0391396Y0066826D02*
X0373900Y0066826D01*
X0378877Y0076811D02*
X0387579Y0076811D01*
X0388577Y0077810D02*
X0379875Y0077810D01*
D14*
X0376000Y0076833D02*
X0381500Y0082333D01*
X0381500Y0105833D01*
X0390500Y0105833D01*
X0396000Y0111333D01*
X0396000Y0113833D01*
X0399000Y0115333D02*
X0399000Y0111333D01*
X0395500Y0107833D01*
X0395500Y0081833D01*
X0388000Y0074333D01*
X0371500Y0074333D01*
X0376000Y0076833D02*
X0363500Y0076833D01*
X0358500Y0071833D01*
X0317000Y0071833D01*
X0313500Y0075333D01*
X0313500Y0081833D01*
X0298500Y0081833D01*
X0313500Y0081833D02*
X0313500Y0101833D01*
X0316000Y0106833D02*
X0316000Y0077680D01*
X0318346Y0075333D01*
X0323500Y0075333D01*
X0343500Y0075333D01*
X0358500Y0071833D02*
X0358500Y0066833D01*
X0363500Y0071833D02*
X0388500Y0071833D01*
X0398500Y0081833D01*
X0398500Y0106833D01*
X0399000Y0115333D02*
X0397500Y0116833D01*
X0380000Y0116833D01*
X0376500Y0119833D02*
X0382000Y0125333D01*
X0382000Y0139333D01*
X0372000Y0149333D01*
X0336000Y0149333D01*
X0328500Y0156833D01*
X0348500Y0156833D02*
X0353500Y0151833D01*
X0373500Y0151833D01*
X0386000Y0139333D01*
X0376500Y0119833D02*
X0376500Y0084333D01*
X0374000Y0081833D01*
X0368500Y0081833D01*
X0276500Y0081833D02*
X0276500Y0106833D01*
X0273500Y0107833D02*
X0277000Y0111333D01*
X0277000Y0115333D01*
X0275500Y0116833D01*
X0258000Y0116833D01*
X0254500Y0119833D02*
X0260000Y0125333D01*
X0260000Y0139333D01*
X0250000Y0149333D01*
X0214000Y0149333D01*
X0206500Y0156833D01*
X0226500Y0156833D02*
X0231500Y0151833D01*
X0251500Y0151833D01*
X0264000Y0139333D01*
X0254500Y0119833D02*
X0254500Y0084333D01*
X0252000Y0081833D01*
X0246500Y0081833D01*
X0241500Y0076833D02*
X0254000Y0076833D01*
X0259500Y0082333D01*
X0259500Y0105833D01*
X0268500Y0105833D01*
X0274000Y0111333D01*
X0274000Y0113833D01*
X0273500Y0107833D02*
X0273500Y0081833D01*
X0266000Y0074333D01*
X0249500Y0074333D01*
X0241500Y0071833D02*
X0266500Y0071833D01*
X0276500Y0081833D01*
X0241500Y0076833D02*
X0236500Y0071833D01*
X0195000Y0071833D01*
X0191500Y0075333D01*
X0191500Y0081833D01*
X0176500Y0081833D01*
X0191500Y0081833D02*
X0191500Y0101833D01*
X0194000Y0106833D02*
X0194000Y0077680D01*
X0196346Y0075333D01*
X0201500Y0075333D01*
X0221500Y0075333D01*
X0236500Y0071833D02*
X0236500Y0066833D01*
X0154500Y0081833D02*
X0154500Y0106833D01*
X0151500Y0107833D02*
X0155000Y0111333D01*
X0155000Y0115333D01*
X0153500Y0116833D01*
X0136000Y0116833D01*
X0132500Y0119833D02*
X0138000Y0125333D01*
X0138000Y0139333D01*
X0128000Y0149333D01*
X0092000Y0149333D01*
X0084500Y0156833D01*
X0104500Y0156833D02*
X0109500Y0151833D01*
X0129500Y0151833D01*
X0142000Y0139333D01*
X0132500Y0119833D02*
X0132500Y0084333D01*
X0130000Y0081833D01*
X0124500Y0081833D01*
X0119500Y0076833D02*
X0132000Y0076833D01*
X0137500Y0082333D01*
X0137500Y0105833D01*
X0146500Y0105833D01*
X0152000Y0111333D01*
X0152000Y0113833D01*
X0151500Y0107833D02*
X0151500Y0081833D01*
X0144000Y0074333D01*
X0127500Y0074333D01*
X0119500Y0071833D02*
X0144500Y0071833D01*
X0154500Y0081833D01*
X0119500Y0076833D02*
X0114500Y0071833D01*
X0073000Y0071833D01*
X0069500Y0075333D01*
X0069500Y0081833D01*
X0054500Y0081833D01*
X0069500Y0081833D02*
X0069500Y0101833D01*
X0072000Y0106833D02*
X0072000Y0077680D01*
X0074346Y0075333D01*
X0079500Y0075333D01*
X0099500Y0075333D01*
X0114500Y0071833D02*
X0114500Y0066833D01*
X0114500Y0168833D02*
X0114500Y0173833D01*
X0073000Y0173833D01*
X0069500Y0177333D01*
X0069500Y0183833D01*
X0054500Y0183833D01*
X0069500Y0183833D02*
X0069500Y0203833D01*
X0072000Y0208833D02*
X0072000Y0179680D01*
X0074346Y0177333D01*
X0079500Y0177333D01*
X0099500Y0177333D01*
X0114500Y0173833D02*
X0119500Y0178833D01*
X0132000Y0178833D01*
X0137500Y0184333D01*
X0137500Y0207833D01*
X0146500Y0207833D01*
X0152000Y0213333D01*
X0152000Y0215833D01*
X0155000Y0217333D02*
X0155000Y0213333D01*
X0151500Y0209833D01*
X0151500Y0183833D01*
X0144000Y0176333D01*
X0127500Y0176333D01*
X0130000Y0183833D02*
X0124500Y0183833D01*
X0130000Y0183833D02*
X0132500Y0186333D01*
X0132500Y0221833D01*
X0138000Y0227333D01*
X0138000Y0241333D01*
X0128000Y0251333D01*
X0092000Y0251333D01*
X0084500Y0258833D01*
X0104500Y0258833D02*
X0109500Y0253833D01*
X0129500Y0253833D01*
X0142000Y0241333D01*
X0136000Y0218833D02*
X0153500Y0218833D01*
X0155000Y0217333D01*
X0154500Y0208833D02*
X0154500Y0183833D01*
X0144500Y0173833D01*
X0119500Y0173833D01*
X0176500Y0183833D02*
X0191500Y0183833D01*
X0191500Y0177333D01*
X0195000Y0173833D01*
X0236500Y0173833D01*
X0236500Y0168833D01*
X0236500Y0173833D02*
X0241500Y0178833D01*
X0254000Y0178833D01*
X0259500Y0184333D01*
X0259500Y0207833D01*
X0268500Y0207833D01*
X0274000Y0213333D01*
X0274000Y0215833D01*
X0275500Y0218833D02*
X0277000Y0217333D01*
X0277000Y0213333D01*
X0273500Y0209833D01*
X0273500Y0183833D01*
X0266000Y0176333D01*
X0249500Y0176333D01*
X0241500Y0173833D02*
X0266500Y0173833D01*
X0276500Y0183833D01*
X0276500Y0208833D01*
X0275500Y0218833D02*
X0258000Y0218833D01*
X0254500Y0221833D02*
X0260000Y0227333D01*
X0260000Y0241333D01*
X0250000Y0251333D01*
X0214000Y0251333D01*
X0206500Y0258833D01*
X0226500Y0258833D02*
X0231500Y0253833D01*
X0251500Y0253833D01*
X0264000Y0241333D01*
X0254500Y0221833D02*
X0254500Y0186333D01*
X0252000Y0183833D01*
X0246500Y0183833D01*
X0221500Y0177333D02*
X0201500Y0177333D01*
X0196346Y0177333D01*
X0194000Y0179680D01*
X0194000Y0208833D01*
X0191500Y0203833D02*
X0191500Y0183833D01*
X0236500Y0270833D02*
X0236500Y0275833D01*
X0195000Y0275833D01*
X0191500Y0279333D01*
X0191500Y0285833D01*
X0176500Y0285833D01*
X0191500Y0285833D02*
X0191500Y0305833D01*
X0194000Y0310833D02*
X0194000Y0281680D01*
X0196346Y0279333D01*
X0201500Y0279333D01*
X0221500Y0279333D01*
X0236500Y0275833D02*
X0241500Y0280833D01*
X0254000Y0280833D01*
X0259500Y0286333D01*
X0259500Y0309833D01*
X0268500Y0309833D01*
X0274000Y0315333D01*
X0274000Y0317833D01*
X0275500Y0320833D02*
X0277000Y0319333D01*
X0277000Y0315333D01*
X0273500Y0311833D01*
X0273500Y0285833D01*
X0266000Y0278333D01*
X0249500Y0278333D01*
X0241500Y0275833D02*
X0266500Y0275833D01*
X0276500Y0285833D01*
X0276500Y0310833D01*
X0275500Y0320833D02*
X0258000Y0320833D01*
X0254500Y0323833D02*
X0260000Y0329333D01*
X0260000Y0343333D01*
X0250000Y0353333D01*
X0214000Y0353333D01*
X0206500Y0360833D01*
X0226500Y0360833D02*
X0231500Y0355833D01*
X0251500Y0355833D01*
X0264000Y0343333D01*
X0254500Y0323833D02*
X0254500Y0288333D01*
X0252000Y0285833D01*
X0246500Y0285833D01*
X0298500Y0285833D02*
X0313500Y0285833D01*
X0313500Y0279333D01*
X0317000Y0275833D01*
X0358500Y0275833D01*
X0358500Y0270833D01*
X0358500Y0275833D02*
X0363500Y0280833D01*
X0376000Y0280833D01*
X0381500Y0286333D01*
X0381500Y0309833D01*
X0390500Y0309833D01*
X0396000Y0315333D01*
X0396000Y0317833D01*
X0399000Y0319333D02*
X0399000Y0315333D01*
X0395500Y0311833D01*
X0395500Y0285833D01*
X0388000Y0278333D01*
X0371500Y0278333D01*
X0374000Y0285833D02*
X0368500Y0285833D01*
X0374000Y0285833D02*
X0376500Y0288333D01*
X0376500Y0323833D01*
X0382000Y0329333D01*
X0382000Y0343333D01*
X0372000Y0353333D01*
X0336000Y0353333D01*
X0328500Y0360833D01*
X0348500Y0360833D02*
X0353500Y0355833D01*
X0373500Y0355833D01*
X0386000Y0343333D01*
X0380000Y0320833D02*
X0397500Y0320833D01*
X0399000Y0319333D01*
X0398500Y0310833D02*
X0398500Y0285833D01*
X0388500Y0275833D01*
X0363500Y0275833D01*
X0343500Y0279333D02*
X0323500Y0279333D01*
X0318346Y0279333D01*
X0316000Y0281680D01*
X0316000Y0310833D01*
X0313500Y0305833D02*
X0313500Y0285833D01*
X0328500Y0258833D02*
X0336000Y0251333D01*
X0372000Y0251333D01*
X0382000Y0241333D01*
X0382000Y0227333D01*
X0376500Y0221833D01*
X0376500Y0186333D01*
X0374000Y0183833D01*
X0368500Y0183833D01*
X0363500Y0178833D02*
X0376000Y0178833D01*
X0381500Y0184333D01*
X0381500Y0207833D01*
X0390500Y0207833D01*
X0396000Y0213333D01*
X0396000Y0215833D01*
X0399000Y0217333D02*
X0399000Y0213333D01*
X0395500Y0209833D01*
X0395500Y0183833D01*
X0388000Y0176333D01*
X0371500Y0176333D01*
X0363500Y0173833D02*
X0388500Y0173833D01*
X0398500Y0183833D01*
X0398500Y0208833D01*
X0399000Y0217333D02*
X0397500Y0218833D01*
X0380000Y0218833D01*
X0386000Y0241333D02*
X0373500Y0253833D01*
X0353500Y0253833D01*
X0348500Y0258833D01*
X0316000Y0208833D02*
X0316000Y0179680D01*
X0318346Y0177333D01*
X0323500Y0177333D01*
X0343500Y0177333D01*
X0358500Y0173833D02*
X0358500Y0168833D01*
X0358500Y0173833D02*
X0317000Y0173833D01*
X0313500Y0177333D01*
X0313500Y0183833D01*
X0298500Y0183833D01*
X0313500Y0183833D02*
X0313500Y0203833D01*
X0358500Y0173833D02*
X0363500Y0178833D01*
X0154500Y0285833D02*
X0154500Y0310833D01*
X0151500Y0311833D02*
X0155000Y0315333D01*
X0155000Y0319333D01*
X0153500Y0320833D01*
X0136000Y0320833D01*
X0132500Y0323833D02*
X0138000Y0329333D01*
X0138000Y0343333D01*
X0128000Y0353333D01*
X0092000Y0353333D01*
X0084500Y0360833D01*
X0104500Y0360833D02*
X0109500Y0355833D01*
X0129500Y0355833D01*
X0142000Y0343333D01*
X0132500Y0323833D02*
X0132500Y0288333D01*
X0130000Y0285833D01*
X0124500Y0285833D01*
X0119500Y0280833D02*
X0132000Y0280833D01*
X0137500Y0286333D01*
X0137500Y0309833D01*
X0146500Y0309833D01*
X0152000Y0315333D01*
X0152000Y0317833D01*
X0151500Y0311833D02*
X0151500Y0285833D01*
X0144000Y0278333D01*
X0127500Y0278333D01*
X0119500Y0275833D02*
X0144500Y0275833D01*
X0154500Y0285833D01*
X0119500Y0280833D02*
X0114500Y0275833D01*
X0073000Y0275833D01*
X0069500Y0279333D01*
X0069500Y0285833D01*
X0054500Y0285833D01*
X0069500Y0285833D02*
X0069500Y0305833D01*
X0072000Y0310833D02*
X0072000Y0281680D01*
X0074346Y0279333D01*
X0079500Y0279333D01*
X0099500Y0279333D01*
X0114500Y0275833D02*
X0114500Y0270833D01*
M02*
