G75*
%MOIN*%
%OFA0B0*%
%FSLAX25Y25*%
%IPPOS*%
%LPD*%
%AMOC8*
5,1,8,0,0,1.08239X$1,22.5*
%
%ADD10C,0.00500*%
%ADD11C,0.00600*%
%ADD12C,0.01000*%
%ADD13C,0.01575*%
%ADD14C,0.00800*%
%ADD15C,0.01800*%
D10*
X0092997Y0072584D02*
X0092997Y0073585D01*
X0093498Y0074085D01*
X0093998Y0074085D01*
X0094499Y0073585D01*
X0094999Y0074085D01*
X0095500Y0074085D01*
X0096000Y0073585D01*
X0096000Y0072584D01*
X0095500Y0072083D01*
X0094499Y0073084D02*
X0094499Y0073585D01*
X0093498Y0072083D02*
X0092997Y0072584D01*
X0095500Y0075306D02*
X0095500Y0075806D01*
X0096000Y0075806D01*
X0096000Y0075306D01*
X0095500Y0075306D01*
X0095500Y0076917D02*
X0096000Y0077418D01*
X0096000Y0078419D01*
X0095500Y0078919D01*
X0094999Y0078919D01*
X0094499Y0078419D01*
X0094499Y0077918D01*
X0094499Y0078419D02*
X0093998Y0078919D01*
X0093498Y0078919D01*
X0092997Y0078419D01*
X0092997Y0077418D01*
X0093498Y0076917D01*
X0092997Y0080140D02*
X0094999Y0080140D01*
X0096000Y0081141D01*
X0094999Y0082142D01*
X0092997Y0082142D01*
X0059906Y0126459D02*
X0059118Y0126459D01*
X0059118Y0131577D01*
X0059906Y0131577D01*
X0059906Y0126459D01*
X0059512Y0126459D02*
X0059512Y0131577D01*
X0059118Y0126459D02*
X0048882Y0126459D01*
X0048882Y0131577D01*
X0048882Y0137089D02*
X0048882Y0142207D01*
X0059118Y0142207D01*
X0059906Y0142207D01*
X0059906Y0137089D01*
X0059118Y0137089D01*
X0059118Y0142207D01*
X0059512Y0142207D02*
X0059512Y0137089D01*
X0092500Y0142165D02*
X0092500Y0151833D01*
X0093497Y0150862D02*
X0093497Y0148861D01*
X0093497Y0149861D02*
X0096500Y0149861D01*
X0096000Y0147640D02*
X0096500Y0147139D01*
X0096500Y0146138D01*
X0096000Y0145638D01*
X0094999Y0146138D02*
X0094999Y0147139D01*
X0095499Y0147640D01*
X0096000Y0147640D01*
X0094999Y0146138D02*
X0094498Y0145638D01*
X0093998Y0145638D01*
X0093497Y0146138D01*
X0093497Y0147139D01*
X0093998Y0147640D01*
X0093998Y0144417D02*
X0093497Y0143916D01*
X0093497Y0142415D01*
X0096500Y0142415D01*
X0095499Y0142415D02*
X0095499Y0143916D01*
X0094999Y0144417D01*
X0093998Y0144417D01*
X0095499Y0143416D02*
X0096500Y0144417D01*
X0095500Y0174083D02*
X0096000Y0174584D01*
X0096000Y0175585D01*
X0095500Y0176085D01*
X0094999Y0176085D01*
X0094499Y0175585D01*
X0094499Y0175084D01*
X0094499Y0175585D02*
X0093998Y0176085D01*
X0093498Y0176085D01*
X0092997Y0175585D01*
X0092997Y0174584D01*
X0093498Y0174083D01*
X0095500Y0177306D02*
X0095500Y0177806D01*
X0096000Y0177806D01*
X0096000Y0177306D01*
X0095500Y0177306D01*
X0095500Y0178917D02*
X0096000Y0179418D01*
X0096000Y0180419D01*
X0095500Y0180919D01*
X0094999Y0180919D01*
X0094499Y0180419D01*
X0094499Y0179918D01*
X0094499Y0180419D02*
X0093998Y0180919D01*
X0093498Y0180919D01*
X0092997Y0180419D01*
X0092997Y0179418D01*
X0093498Y0178917D01*
X0092997Y0182140D02*
X0094999Y0182140D01*
X0096000Y0183141D01*
X0094999Y0184142D01*
X0092997Y0184142D01*
X0059906Y0228459D02*
X0059118Y0228459D01*
X0059118Y0233577D01*
X0059906Y0233577D01*
X0059906Y0228459D01*
X0059512Y0228459D02*
X0059512Y0233577D01*
X0059118Y0228459D02*
X0048882Y0228459D01*
X0048882Y0233577D01*
X0048882Y0239089D02*
X0048882Y0244207D01*
X0059118Y0244207D01*
X0059906Y0244207D01*
X0059906Y0239089D01*
X0059118Y0239089D01*
X0059118Y0244207D01*
X0059512Y0244207D02*
X0059512Y0239089D01*
X0092500Y0244165D02*
X0092500Y0253833D01*
X0093497Y0252862D02*
X0093497Y0250861D01*
X0093497Y0251861D02*
X0096500Y0251861D01*
X0096000Y0249640D02*
X0096500Y0249139D01*
X0096500Y0248138D01*
X0096000Y0247638D01*
X0094999Y0248138D02*
X0094999Y0249139D01*
X0095499Y0249640D01*
X0096000Y0249640D01*
X0094999Y0248138D02*
X0094498Y0247638D01*
X0093998Y0247638D01*
X0093497Y0248138D01*
X0093497Y0249139D01*
X0093998Y0249640D01*
X0093998Y0246417D02*
X0093497Y0245916D01*
X0093497Y0244415D01*
X0096500Y0244415D01*
X0095499Y0244415D02*
X0095499Y0245916D01*
X0094999Y0246417D01*
X0093998Y0246417D01*
X0095499Y0245416D02*
X0096500Y0246417D01*
X0095500Y0276083D02*
X0096000Y0276584D01*
X0096000Y0277585D01*
X0095500Y0278085D01*
X0094999Y0278085D01*
X0094499Y0277585D01*
X0094499Y0277084D01*
X0094499Y0277585D02*
X0093998Y0278085D01*
X0093498Y0278085D01*
X0092997Y0277585D01*
X0092997Y0276584D01*
X0093498Y0276083D01*
X0095500Y0279306D02*
X0095500Y0279806D01*
X0096000Y0279806D01*
X0096000Y0279306D01*
X0095500Y0279306D01*
X0095500Y0280917D02*
X0096000Y0281418D01*
X0096000Y0282419D01*
X0095500Y0282919D01*
X0094999Y0282919D01*
X0094499Y0282419D01*
X0094499Y0281918D01*
X0094499Y0282419D02*
X0093998Y0282919D01*
X0093498Y0282919D01*
X0092997Y0282419D01*
X0092997Y0281418D01*
X0093498Y0280917D01*
X0092997Y0284140D02*
X0094999Y0284140D01*
X0096000Y0285141D01*
X0094999Y0286142D01*
X0092997Y0286142D01*
X0059906Y0330459D02*
X0059118Y0330459D01*
X0059118Y0335577D01*
X0059906Y0335577D01*
X0059906Y0330459D01*
X0059512Y0330459D02*
X0059512Y0335577D01*
X0059118Y0330459D02*
X0048882Y0330459D01*
X0048882Y0335577D01*
X0048882Y0341089D02*
X0048882Y0346207D01*
X0059118Y0346207D01*
X0059906Y0346207D01*
X0059906Y0341089D01*
X0059118Y0341089D01*
X0059118Y0346207D01*
X0059512Y0346207D02*
X0059512Y0341089D01*
X0092500Y0346165D02*
X0092500Y0355833D01*
X0093497Y0354862D02*
X0093497Y0352861D01*
X0093497Y0353861D02*
X0096500Y0353861D01*
X0096000Y0351640D02*
X0096500Y0351139D01*
X0096500Y0350138D01*
X0096000Y0349638D01*
X0094999Y0350138D02*
X0094999Y0351139D01*
X0095499Y0351640D01*
X0096000Y0351640D01*
X0094999Y0350138D02*
X0094498Y0349638D01*
X0093998Y0349638D01*
X0093497Y0350138D01*
X0093497Y0351139D01*
X0093998Y0351640D01*
X0093998Y0348417D02*
X0093497Y0347916D01*
X0093497Y0346415D01*
X0096500Y0346415D01*
X0095499Y0346415D02*
X0095499Y0347916D01*
X0094999Y0348417D01*
X0093998Y0348417D01*
X0095499Y0347416D02*
X0096500Y0348417D01*
X0155125Y0342083D02*
X0158875Y0342083D01*
X0170882Y0341089D02*
X0170882Y0346207D01*
X0181118Y0346207D01*
X0181906Y0346207D01*
X0181906Y0341089D01*
X0181118Y0341089D01*
X0181118Y0346207D01*
X0181512Y0346207D02*
X0181512Y0341089D01*
X0181512Y0335577D02*
X0181512Y0330459D01*
X0181906Y0330459D02*
X0181118Y0330459D01*
X0181118Y0335577D01*
X0181906Y0335577D01*
X0181906Y0330459D01*
X0181118Y0330459D02*
X0170882Y0330459D01*
X0170882Y0335577D01*
X0214500Y0346165D02*
X0214500Y0355833D01*
X0215497Y0354862D02*
X0215497Y0352861D01*
X0215497Y0353861D02*
X0218500Y0353861D01*
X0218000Y0351640D02*
X0218500Y0351139D01*
X0218500Y0350138D01*
X0218000Y0349638D01*
X0216999Y0350138D02*
X0216999Y0351139D01*
X0217499Y0351640D01*
X0218000Y0351640D01*
X0216999Y0350138D02*
X0216498Y0349638D01*
X0215998Y0349638D01*
X0215497Y0350138D01*
X0215497Y0351139D01*
X0215998Y0351640D01*
X0215998Y0348417D02*
X0216999Y0348417D01*
X0217499Y0347916D01*
X0217499Y0346415D01*
X0217499Y0347416D02*
X0218500Y0348417D01*
X0218500Y0346415D02*
X0215497Y0346415D01*
X0215497Y0347916D01*
X0215998Y0348417D01*
X0277125Y0342083D02*
X0280875Y0342083D01*
X0292882Y0341089D02*
X0292882Y0346207D01*
X0303118Y0346207D01*
X0303906Y0346207D01*
X0303906Y0341089D01*
X0303118Y0341089D01*
X0303118Y0346207D01*
X0303512Y0346207D02*
X0303512Y0341089D01*
X0303512Y0335577D02*
X0303512Y0330459D01*
X0303906Y0330459D02*
X0303118Y0330459D01*
X0303118Y0335577D01*
X0303906Y0335577D01*
X0303906Y0330459D01*
X0303118Y0330459D02*
X0292882Y0330459D01*
X0292882Y0335577D01*
X0336500Y0346165D02*
X0336500Y0355833D01*
X0337497Y0354862D02*
X0337497Y0352861D01*
X0337497Y0353861D02*
X0340500Y0353861D01*
X0340000Y0351640D02*
X0340500Y0351139D01*
X0340500Y0350138D01*
X0340000Y0349638D01*
X0338999Y0350138D02*
X0338999Y0351139D01*
X0339499Y0351640D01*
X0340000Y0351640D01*
X0338999Y0350138D02*
X0338498Y0349638D01*
X0337998Y0349638D01*
X0337497Y0350138D01*
X0337497Y0351139D01*
X0337998Y0351640D01*
X0337998Y0348417D02*
X0337497Y0347916D01*
X0337497Y0346415D01*
X0340500Y0346415D01*
X0339499Y0346415D02*
X0339499Y0347916D01*
X0338999Y0348417D01*
X0337998Y0348417D01*
X0339499Y0347416D02*
X0340500Y0348417D01*
X0399125Y0342083D02*
X0402875Y0342083D01*
X0340000Y0285141D02*
X0338999Y0286142D01*
X0336997Y0286142D01*
X0336997Y0284140D02*
X0338999Y0284140D01*
X0340000Y0285141D01*
X0339500Y0282919D02*
X0340000Y0282419D01*
X0340000Y0281418D01*
X0339500Y0280917D01*
X0339500Y0279806D02*
X0340000Y0279806D01*
X0340000Y0279306D01*
X0339500Y0279306D01*
X0339500Y0279806D01*
X0339500Y0278085D02*
X0340000Y0277585D01*
X0340000Y0276584D01*
X0339500Y0276083D01*
X0338499Y0277084D02*
X0338499Y0277585D01*
X0338999Y0278085D01*
X0339500Y0278085D01*
X0338499Y0277585D02*
X0337998Y0278085D01*
X0337498Y0278085D01*
X0336997Y0277585D01*
X0336997Y0276584D01*
X0337498Y0276083D01*
X0337498Y0280917D02*
X0336997Y0281418D01*
X0336997Y0282419D01*
X0337498Y0282919D01*
X0337998Y0282919D01*
X0338499Y0282419D01*
X0338999Y0282919D01*
X0339500Y0282919D01*
X0338499Y0282419D02*
X0338499Y0281918D01*
X0336500Y0253833D02*
X0336500Y0244165D01*
X0337497Y0244415D02*
X0337497Y0245916D01*
X0337998Y0246417D01*
X0338999Y0246417D01*
X0339499Y0245916D01*
X0339499Y0244415D01*
X0339499Y0245416D02*
X0340500Y0246417D01*
X0340000Y0247638D02*
X0340500Y0248138D01*
X0340500Y0249139D01*
X0340000Y0249640D01*
X0339499Y0249640D01*
X0338999Y0249139D01*
X0338999Y0248138D01*
X0338498Y0247638D01*
X0337998Y0247638D01*
X0337497Y0248138D01*
X0337497Y0249139D01*
X0337998Y0249640D01*
X0337497Y0250861D02*
X0337497Y0252862D01*
X0337497Y0251861D02*
X0340500Y0251861D01*
X0340500Y0244415D02*
X0337497Y0244415D01*
X0303906Y0244207D02*
X0303906Y0239089D01*
X0303118Y0239089D01*
X0303118Y0244207D01*
X0303906Y0244207D01*
X0303512Y0244207D02*
X0303512Y0239089D01*
X0303118Y0244207D02*
X0292882Y0244207D01*
X0292882Y0239089D01*
X0292882Y0233577D02*
X0292882Y0228459D01*
X0303118Y0228459D01*
X0303906Y0228459D01*
X0303906Y0233577D01*
X0303118Y0233577D01*
X0303118Y0228459D01*
X0303512Y0228459D02*
X0303512Y0233577D01*
X0280875Y0240083D02*
X0277125Y0240083D01*
X0218500Y0244415D02*
X0215497Y0244415D01*
X0215497Y0245916D01*
X0215998Y0246417D01*
X0216999Y0246417D01*
X0217499Y0245916D01*
X0217499Y0244415D01*
X0217499Y0245416D02*
X0218500Y0246417D01*
X0218000Y0247638D02*
X0218500Y0248138D01*
X0218500Y0249139D01*
X0218000Y0249640D01*
X0217499Y0249640D01*
X0216999Y0249139D01*
X0216999Y0248138D01*
X0216498Y0247638D01*
X0215998Y0247638D01*
X0215497Y0248138D01*
X0215497Y0249139D01*
X0215998Y0249640D01*
X0215497Y0250861D02*
X0215497Y0252862D01*
X0215497Y0251861D02*
X0218500Y0251861D01*
X0214500Y0253833D02*
X0214500Y0244165D01*
X0181906Y0244207D02*
X0181906Y0239089D01*
X0181118Y0239089D01*
X0181118Y0244207D01*
X0181906Y0244207D01*
X0181512Y0244207D02*
X0181512Y0239089D01*
X0181118Y0244207D02*
X0170882Y0244207D01*
X0170882Y0239089D01*
X0170882Y0233577D02*
X0170882Y0228459D01*
X0181118Y0228459D01*
X0181906Y0228459D01*
X0181906Y0233577D01*
X0181118Y0233577D01*
X0181118Y0228459D01*
X0181512Y0228459D02*
X0181512Y0233577D01*
X0158875Y0240083D02*
X0155125Y0240083D01*
X0214997Y0276584D02*
X0214997Y0277585D01*
X0215498Y0278085D01*
X0215998Y0278085D01*
X0216499Y0277585D01*
X0216999Y0278085D01*
X0217500Y0278085D01*
X0218000Y0277585D01*
X0218000Y0276584D01*
X0217500Y0276083D01*
X0216499Y0277084D02*
X0216499Y0277585D01*
X0215498Y0276083D02*
X0214997Y0276584D01*
X0217500Y0279306D02*
X0217500Y0279806D01*
X0218000Y0279806D01*
X0218000Y0279306D01*
X0217500Y0279306D01*
X0217500Y0280917D02*
X0218000Y0281418D01*
X0218000Y0282419D01*
X0217500Y0282919D01*
X0216999Y0282919D01*
X0216499Y0282419D01*
X0216499Y0281918D01*
X0216499Y0282419D02*
X0215998Y0282919D01*
X0215498Y0282919D01*
X0214997Y0282419D01*
X0214997Y0281418D01*
X0215498Y0280917D01*
X0214997Y0284140D02*
X0216999Y0284140D01*
X0218000Y0285141D01*
X0216999Y0286142D01*
X0214997Y0286142D01*
X0214997Y0184142D02*
X0216999Y0184142D01*
X0218000Y0183141D01*
X0216999Y0182140D01*
X0214997Y0182140D01*
X0215498Y0180919D02*
X0215998Y0180919D01*
X0216499Y0180419D01*
X0216999Y0180919D01*
X0217500Y0180919D01*
X0218000Y0180419D01*
X0218000Y0179418D01*
X0217500Y0178917D01*
X0217500Y0177806D02*
X0218000Y0177806D01*
X0218000Y0177306D01*
X0217500Y0177306D01*
X0217500Y0177806D01*
X0217500Y0176085D02*
X0218000Y0175585D01*
X0218000Y0174584D01*
X0217500Y0174083D01*
X0216499Y0175084D02*
X0216499Y0175585D01*
X0216999Y0176085D01*
X0217500Y0176085D01*
X0216499Y0175585D02*
X0215998Y0176085D01*
X0215498Y0176085D01*
X0214997Y0175585D01*
X0214997Y0174584D01*
X0215498Y0174083D01*
X0215498Y0178917D02*
X0214997Y0179418D01*
X0214997Y0180419D01*
X0215498Y0180919D01*
X0216499Y0180419D02*
X0216499Y0179918D01*
X0214500Y0151833D02*
X0214500Y0142165D01*
X0215497Y0142415D02*
X0215497Y0143916D01*
X0215998Y0144417D01*
X0216999Y0144417D01*
X0217499Y0143916D01*
X0217499Y0142415D01*
X0217499Y0143416D02*
X0218500Y0144417D01*
X0218000Y0145638D02*
X0218500Y0146138D01*
X0218500Y0147139D01*
X0218000Y0147640D01*
X0217499Y0147640D01*
X0216999Y0147139D01*
X0216999Y0146138D01*
X0216498Y0145638D01*
X0215998Y0145638D01*
X0215497Y0146138D01*
X0215497Y0147139D01*
X0215998Y0147640D01*
X0215497Y0148861D02*
X0215497Y0150862D01*
X0215497Y0149861D02*
X0218500Y0149861D01*
X0218500Y0142415D02*
X0215497Y0142415D01*
X0181906Y0142207D02*
X0181906Y0137089D01*
X0181118Y0137089D01*
X0181118Y0142207D01*
X0181906Y0142207D01*
X0181512Y0142207D02*
X0181512Y0137089D01*
X0181118Y0142207D02*
X0170882Y0142207D01*
X0170882Y0137089D01*
X0170882Y0131577D02*
X0170882Y0126459D01*
X0181118Y0126459D01*
X0181906Y0126459D01*
X0181906Y0131577D01*
X0181118Y0131577D01*
X0181118Y0126459D01*
X0181512Y0126459D02*
X0181512Y0131577D01*
X0158875Y0138083D02*
X0155125Y0138083D01*
X0214997Y0082142D02*
X0216999Y0082142D01*
X0218000Y0081141D01*
X0216999Y0080140D01*
X0214997Y0080140D01*
X0215498Y0078919D02*
X0215998Y0078919D01*
X0216499Y0078419D01*
X0216999Y0078919D01*
X0217500Y0078919D01*
X0218000Y0078419D01*
X0218000Y0077418D01*
X0217500Y0076917D01*
X0217500Y0075806D02*
X0218000Y0075806D01*
X0218000Y0075306D01*
X0217500Y0075306D01*
X0217500Y0075806D01*
X0217500Y0074085D02*
X0218000Y0073585D01*
X0218000Y0072584D01*
X0217500Y0072083D01*
X0216499Y0073084D02*
X0216499Y0073585D01*
X0216999Y0074085D01*
X0217500Y0074085D01*
X0216499Y0073585D02*
X0215998Y0074085D01*
X0215498Y0074085D01*
X0214997Y0073585D01*
X0214997Y0072584D01*
X0215498Y0072083D01*
X0215498Y0076917D02*
X0214997Y0077418D01*
X0214997Y0078419D01*
X0215498Y0078919D01*
X0216499Y0078419D02*
X0216499Y0077918D01*
X0277125Y0138083D02*
X0280875Y0138083D01*
X0292882Y0137089D02*
X0292882Y0142207D01*
X0303118Y0142207D01*
X0303906Y0142207D01*
X0303906Y0137089D01*
X0303118Y0137089D01*
X0303118Y0142207D01*
X0303512Y0142207D02*
X0303512Y0137089D01*
X0303512Y0131577D02*
X0303512Y0126459D01*
X0303906Y0126459D02*
X0303118Y0126459D01*
X0303118Y0131577D01*
X0303906Y0131577D01*
X0303906Y0126459D01*
X0303118Y0126459D02*
X0292882Y0126459D01*
X0292882Y0131577D01*
X0336500Y0142165D02*
X0336500Y0151833D01*
X0337497Y0150862D02*
X0337497Y0148861D01*
X0337497Y0149861D02*
X0340500Y0149861D01*
X0340000Y0147640D02*
X0340500Y0147139D01*
X0340500Y0146138D01*
X0340000Y0145638D01*
X0338999Y0146138D02*
X0338999Y0147139D01*
X0339499Y0147640D01*
X0340000Y0147640D01*
X0338999Y0146138D02*
X0338498Y0145638D01*
X0337998Y0145638D01*
X0337497Y0146138D01*
X0337497Y0147139D01*
X0337998Y0147640D01*
X0337998Y0144417D02*
X0337497Y0143916D01*
X0337497Y0142415D01*
X0340500Y0142415D01*
X0339499Y0142415D02*
X0339499Y0143916D01*
X0338999Y0144417D01*
X0337998Y0144417D01*
X0339499Y0143416D02*
X0340500Y0144417D01*
X0339500Y0174083D02*
X0340000Y0174584D01*
X0340000Y0175585D01*
X0339500Y0176085D01*
X0338999Y0176085D01*
X0338499Y0175585D01*
X0338499Y0175084D01*
X0338499Y0175585D02*
X0337998Y0176085D01*
X0337498Y0176085D01*
X0336997Y0175585D01*
X0336997Y0174584D01*
X0337498Y0174083D01*
X0339500Y0177306D02*
X0339500Y0177806D01*
X0340000Y0177806D01*
X0340000Y0177306D01*
X0339500Y0177306D01*
X0339500Y0178917D02*
X0340000Y0179418D01*
X0340000Y0180419D01*
X0339500Y0180919D01*
X0338999Y0180919D01*
X0338499Y0180419D01*
X0338499Y0179918D01*
X0338499Y0180419D02*
X0337998Y0180919D01*
X0337498Y0180919D01*
X0336997Y0180419D01*
X0336997Y0179418D01*
X0337498Y0178917D01*
X0336997Y0182140D02*
X0338999Y0182140D01*
X0340000Y0183141D01*
X0338999Y0184142D01*
X0336997Y0184142D01*
X0399125Y0138083D02*
X0402875Y0138083D01*
X0340000Y0081141D02*
X0338999Y0082142D01*
X0336997Y0082142D01*
X0336997Y0080140D02*
X0338999Y0080140D01*
X0340000Y0081141D01*
X0339500Y0078919D02*
X0340000Y0078419D01*
X0340000Y0077418D01*
X0339500Y0076917D01*
X0339500Y0075806D02*
X0340000Y0075806D01*
X0340000Y0075306D01*
X0339500Y0075306D01*
X0339500Y0075806D01*
X0339500Y0074085D02*
X0340000Y0073585D01*
X0340000Y0072584D01*
X0339500Y0072083D01*
X0338499Y0073084D02*
X0338499Y0073585D01*
X0338999Y0074085D01*
X0339500Y0074085D01*
X0338499Y0073585D02*
X0337998Y0074085D01*
X0337498Y0074085D01*
X0336997Y0073585D01*
X0336997Y0072584D01*
X0337498Y0072083D01*
X0337498Y0076917D02*
X0336997Y0077418D01*
X0336997Y0078419D01*
X0337498Y0078919D01*
X0337998Y0078919D01*
X0338499Y0078419D01*
X0338999Y0078919D01*
X0339500Y0078919D01*
X0338499Y0078419D02*
X0338499Y0077918D01*
X0399125Y0240083D02*
X0402875Y0240083D01*
D11*
X0069500Y0067833D02*
X0059500Y0067833D01*
X0059440Y0067835D01*
X0059379Y0067840D01*
X0059320Y0067849D01*
X0059261Y0067862D01*
X0059202Y0067878D01*
X0059145Y0067898D01*
X0059090Y0067921D01*
X0059035Y0067948D01*
X0058983Y0067977D01*
X0058932Y0068010D01*
X0058883Y0068046D01*
X0058837Y0068084D01*
X0058793Y0068126D01*
X0058751Y0068170D01*
X0058713Y0068216D01*
X0058677Y0068265D01*
X0058644Y0068316D01*
X0058615Y0068368D01*
X0058588Y0068423D01*
X0058565Y0068478D01*
X0058545Y0068535D01*
X0058529Y0068594D01*
X0058516Y0068653D01*
X0058507Y0068712D01*
X0058502Y0068773D01*
X0058500Y0068833D01*
X0058500Y0074833D01*
X0058502Y0074893D01*
X0058507Y0074954D01*
X0058516Y0075013D01*
X0058529Y0075072D01*
X0058545Y0075131D01*
X0058565Y0075188D01*
X0058588Y0075243D01*
X0058615Y0075298D01*
X0058644Y0075350D01*
X0058677Y0075401D01*
X0058713Y0075450D01*
X0058751Y0075496D01*
X0058793Y0075540D01*
X0058837Y0075582D01*
X0058883Y0075620D01*
X0058932Y0075656D01*
X0058983Y0075689D01*
X0059035Y0075718D01*
X0059090Y0075745D01*
X0059145Y0075768D01*
X0059202Y0075788D01*
X0059261Y0075804D01*
X0059320Y0075817D01*
X0059379Y0075826D01*
X0059440Y0075831D01*
X0059500Y0075833D01*
X0069500Y0075833D01*
X0069560Y0075831D01*
X0069621Y0075826D01*
X0069680Y0075817D01*
X0069739Y0075804D01*
X0069798Y0075788D01*
X0069855Y0075768D01*
X0069910Y0075745D01*
X0069965Y0075718D01*
X0070017Y0075689D01*
X0070068Y0075656D01*
X0070117Y0075620D01*
X0070163Y0075582D01*
X0070207Y0075540D01*
X0070249Y0075496D01*
X0070287Y0075450D01*
X0070323Y0075401D01*
X0070356Y0075350D01*
X0070385Y0075298D01*
X0070412Y0075243D01*
X0070435Y0075188D01*
X0070455Y0075131D01*
X0070471Y0075072D01*
X0070484Y0075013D01*
X0070493Y0074954D01*
X0070498Y0074893D01*
X0070500Y0074833D01*
X0070500Y0068833D01*
X0070498Y0068773D01*
X0070493Y0068712D01*
X0070484Y0068653D01*
X0070471Y0068594D01*
X0070455Y0068535D01*
X0070435Y0068478D01*
X0070412Y0068423D01*
X0070385Y0068368D01*
X0070356Y0068316D01*
X0070323Y0068265D01*
X0070287Y0068216D01*
X0070249Y0068170D01*
X0070207Y0068126D01*
X0070163Y0068084D01*
X0070117Y0068046D01*
X0070068Y0068010D01*
X0070017Y0067977D01*
X0069965Y0067948D01*
X0069910Y0067921D01*
X0069855Y0067898D01*
X0069798Y0067878D01*
X0069739Y0067862D01*
X0069680Y0067849D01*
X0069621Y0067840D01*
X0069560Y0067835D01*
X0069500Y0067833D01*
X0082797Y0072700D02*
X0082797Y0073835D01*
X0083364Y0074402D01*
X0084499Y0074402D02*
X0084499Y0073268D01*
X0084499Y0074402D02*
X0085633Y0074402D01*
X0086200Y0073835D01*
X0086200Y0072700D01*
X0085633Y0072133D01*
X0083364Y0072133D01*
X0082797Y0072700D01*
X0082797Y0075816D02*
X0086200Y0078085D01*
X0082797Y0078085D01*
X0082797Y0079500D02*
X0082797Y0081201D01*
X0083364Y0081768D01*
X0085633Y0081768D01*
X0086200Y0081201D01*
X0086200Y0079500D01*
X0082797Y0079500D01*
X0082797Y0075816D02*
X0086200Y0075816D01*
X0102797Y0075816D02*
X0102797Y0077518D01*
X0103364Y0078085D01*
X0105633Y0078085D01*
X0106200Y0077518D01*
X0106200Y0075816D01*
X0102797Y0075816D01*
X0103364Y0074402D02*
X0102797Y0073835D01*
X0102797Y0072700D01*
X0103364Y0072133D01*
X0103931Y0072133D01*
X0104499Y0072700D01*
X0104499Y0073835D01*
X0105066Y0074402D01*
X0105633Y0074402D01*
X0106200Y0073835D01*
X0106200Y0072700D01*
X0105633Y0072133D01*
X0112797Y0072700D02*
X0112797Y0073835D01*
X0113364Y0074402D01*
X0114499Y0073835D02*
X0114499Y0072700D01*
X0113931Y0072133D01*
X0113364Y0072133D01*
X0112797Y0072700D01*
X0114499Y0073835D02*
X0115066Y0074402D01*
X0115633Y0074402D01*
X0116200Y0073835D01*
X0116200Y0072700D01*
X0115633Y0072133D01*
X0115633Y0075816D02*
X0113364Y0075816D01*
X0112797Y0076384D01*
X0112797Y0077518D01*
X0113364Y0078085D01*
X0112797Y0079500D02*
X0116200Y0079500D01*
X0116200Y0081768D01*
X0115633Y0078085D02*
X0116200Y0077518D01*
X0116200Y0076384D01*
X0115633Y0075816D01*
X0121600Y0071833D02*
X0121600Y0081655D01*
X0122797Y0080541D02*
X0122797Y0078272D01*
X0122797Y0079406D02*
X0126200Y0079406D01*
X0126200Y0076857D02*
X0122797Y0076857D01*
X0122797Y0074589D02*
X0126200Y0076857D01*
X0126200Y0074589D02*
X0122797Y0074589D01*
X0122797Y0073268D02*
X0122797Y0072133D01*
X0122797Y0072700D02*
X0126200Y0072700D01*
X0126200Y0072133D02*
X0126200Y0073268D01*
X0106200Y0079500D02*
X0103931Y0079500D01*
X0102797Y0080634D01*
X0103931Y0081768D01*
X0106200Y0081768D01*
X0104499Y0081768D02*
X0104499Y0079500D01*
X0061366Y0090633D02*
X0059664Y0090633D01*
X0059097Y0091200D01*
X0059097Y0092335D01*
X0059664Y0092902D01*
X0061366Y0092902D01*
X0057209Y0092902D02*
X0057209Y0090633D01*
X0056642Y0090633D02*
X0057776Y0090633D01*
X0057209Y0092902D02*
X0056642Y0092902D01*
X0057209Y0094036D02*
X0057209Y0094603D01*
X0054753Y0094603D02*
X0054753Y0094036D01*
X0054753Y0092902D02*
X0054753Y0090633D01*
X0054186Y0090633D02*
X0055320Y0090633D01*
X0054753Y0092902D02*
X0054186Y0092902D01*
X0052772Y0092902D02*
X0052772Y0091200D01*
X0052204Y0090633D01*
X0051637Y0091200D01*
X0051070Y0090633D01*
X0050503Y0091200D01*
X0050503Y0092902D01*
X0049088Y0093469D02*
X0049088Y0091200D01*
X0048521Y0090633D01*
X0047387Y0090633D01*
X0046820Y0091200D01*
X0046820Y0093469D01*
X0047387Y0094036D01*
X0048521Y0094036D01*
X0049088Y0093469D01*
X0047954Y0091768D02*
X0049088Y0090633D01*
X0049842Y0088036D02*
X0049275Y0087469D01*
X0049275Y0085200D01*
X0049842Y0084633D01*
X0050977Y0084633D01*
X0051544Y0085200D01*
X0051544Y0086335D01*
X0050410Y0086335D01*
X0051544Y0087469D02*
X0050977Y0088036D01*
X0049842Y0088036D01*
X0052958Y0088036D02*
X0052958Y0084633D01*
X0052958Y0085768D02*
X0054660Y0085768D01*
X0055227Y0086335D01*
X0055227Y0087469D01*
X0054660Y0088036D01*
X0052958Y0088036D01*
X0056642Y0087469D02*
X0056642Y0086902D01*
X0057209Y0086335D01*
X0058343Y0086335D01*
X0058910Y0085768D01*
X0058910Y0085200D01*
X0058343Y0084633D01*
X0057209Y0084633D01*
X0056642Y0085200D01*
X0056642Y0087469D02*
X0057209Y0088036D01*
X0058343Y0088036D01*
X0058910Y0087469D01*
X0082797Y0137401D02*
X0086200Y0137401D01*
X0085066Y0138535D01*
X0086200Y0139669D01*
X0082797Y0139669D01*
X0083931Y0141084D02*
X0082797Y0142218D01*
X0083931Y0143352D01*
X0086200Y0143352D01*
X0086200Y0144767D02*
X0082797Y0144767D01*
X0084499Y0145334D02*
X0086200Y0147036D01*
X0086200Y0148450D02*
X0086200Y0150719D01*
X0084499Y0149584D02*
X0084499Y0148450D01*
X0086200Y0148450D02*
X0082797Y0148450D01*
X0082797Y0150719D01*
X0082797Y0147036D02*
X0085066Y0144767D01*
X0084499Y0143352D02*
X0084499Y0141084D01*
X0083931Y0141084D02*
X0086200Y0141084D01*
X0102797Y0141084D02*
X0102797Y0142785D01*
X0103364Y0143352D01*
X0104499Y0143352D01*
X0105066Y0142785D01*
X0105066Y0141084D01*
X0106200Y0141084D02*
X0102797Y0141084D01*
X0102797Y0144767D02*
X0102797Y0146468D01*
X0103364Y0147036D01*
X0104499Y0147036D01*
X0105066Y0146468D01*
X0105066Y0144767D01*
X0106200Y0144767D02*
X0102797Y0144767D01*
X0103364Y0148450D02*
X0103931Y0148450D01*
X0104499Y0149017D01*
X0104499Y0150152D01*
X0105066Y0150719D01*
X0105633Y0150719D01*
X0106200Y0150152D01*
X0106200Y0149017D01*
X0105633Y0148450D01*
X0103364Y0148450D02*
X0102797Y0149017D01*
X0102797Y0150152D01*
X0103364Y0150719D01*
X0112797Y0150719D02*
X0116200Y0148450D01*
X0116200Y0147036D02*
X0115066Y0145901D01*
X0115066Y0146468D02*
X0115066Y0144767D01*
X0116200Y0144767D02*
X0112797Y0144767D01*
X0112797Y0146468D01*
X0113364Y0147036D01*
X0114499Y0147036D01*
X0115066Y0146468D01*
X0112797Y0148450D02*
X0116200Y0150719D01*
X0122797Y0150719D02*
X0126200Y0148450D01*
X0126200Y0150719D02*
X0122797Y0148450D01*
X0122797Y0147036D02*
X0122797Y0144767D01*
X0122797Y0145901D02*
X0126200Y0145901D01*
X0151775Y0143536D02*
X0151775Y0140133D01*
X0151775Y0141268D02*
X0153477Y0141268D01*
X0154044Y0141835D01*
X0154044Y0142969D01*
X0153477Y0143536D01*
X0151775Y0143536D01*
X0155458Y0143536D02*
X0157160Y0143536D01*
X0157727Y0142969D01*
X0157727Y0141835D01*
X0157160Y0141268D01*
X0155458Y0141268D01*
X0155458Y0140133D02*
X0155458Y0143536D01*
X0159142Y0142969D02*
X0159142Y0142402D01*
X0159709Y0141835D01*
X0160843Y0141835D01*
X0161410Y0141268D01*
X0161410Y0140700D01*
X0160843Y0140133D01*
X0159709Y0140133D01*
X0159142Y0140700D01*
X0159142Y0142969D02*
X0159709Y0143536D01*
X0160843Y0143536D01*
X0161410Y0142969D01*
X0171275Y0143633D02*
X0171275Y0145902D01*
X0172410Y0147036D01*
X0173544Y0145902D01*
X0173544Y0143633D01*
X0174958Y0143633D02*
X0174958Y0147036D01*
X0177227Y0143633D01*
X0177227Y0147036D01*
X0178642Y0147036D02*
X0180910Y0147036D01*
X0179776Y0147036D02*
X0179776Y0143633D01*
X0173544Y0145335D02*
X0171275Y0145335D01*
X0181500Y0169833D02*
X0191500Y0169833D01*
X0191560Y0169835D01*
X0191621Y0169840D01*
X0191680Y0169849D01*
X0191739Y0169862D01*
X0191798Y0169878D01*
X0191855Y0169898D01*
X0191910Y0169921D01*
X0191965Y0169948D01*
X0192017Y0169977D01*
X0192068Y0170010D01*
X0192117Y0170046D01*
X0192163Y0170084D01*
X0192207Y0170126D01*
X0192249Y0170170D01*
X0192287Y0170216D01*
X0192323Y0170265D01*
X0192356Y0170316D01*
X0192385Y0170368D01*
X0192412Y0170423D01*
X0192435Y0170478D01*
X0192455Y0170535D01*
X0192471Y0170594D01*
X0192484Y0170653D01*
X0192493Y0170712D01*
X0192498Y0170773D01*
X0192500Y0170833D01*
X0192500Y0176833D01*
X0192498Y0176893D01*
X0192493Y0176954D01*
X0192484Y0177013D01*
X0192471Y0177072D01*
X0192455Y0177131D01*
X0192435Y0177188D01*
X0192412Y0177243D01*
X0192385Y0177298D01*
X0192356Y0177350D01*
X0192323Y0177401D01*
X0192287Y0177450D01*
X0192249Y0177496D01*
X0192207Y0177540D01*
X0192163Y0177582D01*
X0192117Y0177620D01*
X0192068Y0177656D01*
X0192017Y0177689D01*
X0191965Y0177718D01*
X0191910Y0177745D01*
X0191855Y0177768D01*
X0191798Y0177788D01*
X0191739Y0177804D01*
X0191680Y0177817D01*
X0191621Y0177826D01*
X0191560Y0177831D01*
X0191500Y0177833D01*
X0181500Y0177833D01*
X0181440Y0177831D01*
X0181379Y0177826D01*
X0181320Y0177817D01*
X0181261Y0177804D01*
X0181202Y0177788D01*
X0181145Y0177768D01*
X0181090Y0177745D01*
X0181035Y0177718D01*
X0180983Y0177689D01*
X0180932Y0177656D01*
X0180883Y0177620D01*
X0180837Y0177582D01*
X0180793Y0177540D01*
X0180751Y0177496D01*
X0180713Y0177450D01*
X0180677Y0177401D01*
X0180644Y0177350D01*
X0180615Y0177298D01*
X0180588Y0177243D01*
X0180565Y0177188D01*
X0180545Y0177131D01*
X0180529Y0177072D01*
X0180516Y0177013D01*
X0180507Y0176954D01*
X0180502Y0176893D01*
X0180500Y0176833D01*
X0180500Y0170833D01*
X0180502Y0170773D01*
X0180507Y0170712D01*
X0180516Y0170653D01*
X0180529Y0170594D01*
X0180545Y0170535D01*
X0180565Y0170478D01*
X0180588Y0170423D01*
X0180615Y0170368D01*
X0180644Y0170316D01*
X0180677Y0170265D01*
X0180713Y0170216D01*
X0180751Y0170170D01*
X0180793Y0170126D01*
X0180837Y0170084D01*
X0180883Y0170046D01*
X0180932Y0170010D01*
X0180983Y0169977D01*
X0181035Y0169948D01*
X0181090Y0169921D01*
X0181145Y0169898D01*
X0181202Y0169878D01*
X0181261Y0169862D01*
X0181320Y0169849D01*
X0181379Y0169840D01*
X0181440Y0169835D01*
X0181500Y0169833D01*
X0180343Y0186633D02*
X0179209Y0186633D01*
X0178642Y0187200D01*
X0179209Y0188335D02*
X0180343Y0188335D01*
X0180910Y0187768D01*
X0180910Y0187200D01*
X0180343Y0186633D01*
X0179209Y0188335D02*
X0178642Y0188902D01*
X0178642Y0189469D01*
X0179209Y0190036D01*
X0180343Y0190036D01*
X0180910Y0189469D01*
X0181664Y0192633D02*
X0183366Y0192633D01*
X0181664Y0192633D02*
X0181097Y0193200D01*
X0181097Y0194335D01*
X0181664Y0194902D01*
X0183366Y0194902D01*
X0179209Y0194902D02*
X0179209Y0192633D01*
X0178642Y0192633D02*
X0179776Y0192633D01*
X0179209Y0194902D02*
X0178642Y0194902D01*
X0179209Y0196036D02*
X0179209Y0196603D01*
X0176753Y0196603D02*
X0176753Y0196036D01*
X0176753Y0194902D02*
X0176186Y0194902D01*
X0176753Y0194902D02*
X0176753Y0192633D01*
X0176186Y0192633D02*
X0177320Y0192633D01*
X0174772Y0193200D02*
X0174772Y0194902D01*
X0174772Y0193200D02*
X0174204Y0192633D01*
X0173637Y0193200D01*
X0173070Y0192633D01*
X0172503Y0193200D01*
X0172503Y0194902D01*
X0171088Y0195469D02*
X0170521Y0196036D01*
X0169387Y0196036D01*
X0168820Y0195469D01*
X0168820Y0193200D01*
X0169387Y0192633D01*
X0170521Y0192633D01*
X0171088Y0193200D01*
X0171088Y0195469D01*
X0169954Y0193768D02*
X0171088Y0192633D01*
X0171842Y0190036D02*
X0171275Y0189469D01*
X0171275Y0187200D01*
X0171842Y0186633D01*
X0172977Y0186633D01*
X0173544Y0187200D01*
X0173544Y0188335D01*
X0172410Y0188335D01*
X0173544Y0189469D02*
X0172977Y0190036D01*
X0171842Y0190036D01*
X0174958Y0190036D02*
X0176660Y0190036D01*
X0177227Y0189469D01*
X0177227Y0188335D01*
X0176660Y0187768D01*
X0174958Y0187768D01*
X0174958Y0186633D02*
X0174958Y0190036D01*
X0204797Y0183201D02*
X0204797Y0181500D01*
X0208200Y0181500D01*
X0208200Y0183201D01*
X0207633Y0183768D01*
X0205364Y0183768D01*
X0204797Y0183201D01*
X0204797Y0180085D02*
X0208200Y0180085D01*
X0204797Y0177816D01*
X0208200Y0177816D01*
X0207633Y0176402D02*
X0208200Y0175835D01*
X0208200Y0174700D01*
X0207633Y0174133D01*
X0205364Y0174133D01*
X0204797Y0174700D01*
X0204797Y0175835D01*
X0205364Y0176402D01*
X0206499Y0176402D02*
X0206499Y0175268D01*
X0206499Y0176402D02*
X0207633Y0176402D01*
X0224797Y0175835D02*
X0224797Y0174700D01*
X0225364Y0174133D01*
X0225931Y0174133D01*
X0226499Y0174700D01*
X0226499Y0175835D01*
X0227066Y0176402D01*
X0227633Y0176402D01*
X0228200Y0175835D01*
X0228200Y0174700D01*
X0227633Y0174133D01*
X0225364Y0176402D02*
X0224797Y0175835D01*
X0224797Y0177816D02*
X0224797Y0179518D01*
X0225364Y0180085D01*
X0227633Y0180085D01*
X0228200Y0179518D01*
X0228200Y0177816D01*
X0224797Y0177816D01*
X0225931Y0181500D02*
X0224797Y0182634D01*
X0225931Y0183768D01*
X0228200Y0183768D01*
X0226499Y0183768D02*
X0226499Y0181500D01*
X0225931Y0181500D02*
X0228200Y0181500D01*
X0234797Y0181500D02*
X0238200Y0181500D01*
X0238200Y0183768D01*
X0237633Y0180085D02*
X0238200Y0179518D01*
X0238200Y0178384D01*
X0237633Y0177816D01*
X0235364Y0177816D01*
X0234797Y0178384D01*
X0234797Y0179518D01*
X0235364Y0180085D01*
X0235364Y0176402D02*
X0234797Y0175835D01*
X0234797Y0174700D01*
X0235364Y0174133D01*
X0235931Y0174133D01*
X0236499Y0174700D01*
X0236499Y0175835D01*
X0237066Y0176402D01*
X0237633Y0176402D01*
X0238200Y0175835D01*
X0238200Y0174700D01*
X0237633Y0174133D01*
X0243600Y0173833D02*
X0243600Y0183655D01*
X0244797Y0182541D02*
X0244797Y0180272D01*
X0244797Y0181406D02*
X0248200Y0181406D01*
X0248200Y0178857D02*
X0244797Y0178857D01*
X0244797Y0176589D02*
X0248200Y0178857D01*
X0248200Y0176589D02*
X0244797Y0176589D01*
X0244797Y0175268D02*
X0244797Y0174133D01*
X0244797Y0174700D02*
X0248200Y0174700D01*
X0248200Y0174133D02*
X0248200Y0175268D01*
X0248200Y0150719D02*
X0244797Y0148450D01*
X0244797Y0147036D02*
X0244797Y0144767D01*
X0244797Y0145901D02*
X0248200Y0145901D01*
X0248200Y0148450D02*
X0244797Y0150719D01*
X0238200Y0150719D02*
X0234797Y0148450D01*
X0235364Y0147036D02*
X0236499Y0147036D01*
X0237066Y0146468D01*
X0237066Y0144767D01*
X0238200Y0144767D02*
X0234797Y0144767D01*
X0234797Y0146468D01*
X0235364Y0147036D01*
X0237066Y0145901D02*
X0238200Y0147036D01*
X0238200Y0148450D02*
X0234797Y0150719D01*
X0228200Y0150152D02*
X0228200Y0149017D01*
X0227633Y0148450D01*
X0226499Y0149017D02*
X0226499Y0150152D01*
X0227066Y0150719D01*
X0227633Y0150719D01*
X0228200Y0150152D01*
X0226499Y0149017D02*
X0225931Y0148450D01*
X0225364Y0148450D01*
X0224797Y0149017D01*
X0224797Y0150152D01*
X0225364Y0150719D01*
X0225364Y0147036D02*
X0226499Y0147036D01*
X0227066Y0146468D01*
X0227066Y0144767D01*
X0228200Y0144767D02*
X0224797Y0144767D01*
X0224797Y0146468D01*
X0225364Y0147036D01*
X0225364Y0143352D02*
X0226499Y0143352D01*
X0227066Y0142785D01*
X0227066Y0141084D01*
X0228200Y0141084D02*
X0224797Y0141084D01*
X0224797Y0142785D01*
X0225364Y0143352D01*
X0208200Y0143352D02*
X0205931Y0143352D01*
X0204797Y0142218D01*
X0205931Y0141084D01*
X0208200Y0141084D01*
X0208200Y0139669D02*
X0204797Y0139669D01*
X0206499Y0141084D02*
X0206499Y0143352D01*
X0207066Y0144767D02*
X0204797Y0147036D01*
X0204797Y0148450D02*
X0208200Y0148450D01*
X0208200Y0150719D01*
X0206499Y0149584D02*
X0206499Y0148450D01*
X0204797Y0148450D02*
X0204797Y0150719D01*
X0208200Y0147036D02*
X0206499Y0145334D01*
X0204797Y0144767D02*
X0208200Y0144767D01*
X0208200Y0139669D02*
X0207066Y0138535D01*
X0208200Y0137401D01*
X0204797Y0137401D01*
X0179209Y0094603D02*
X0179209Y0094036D01*
X0179209Y0092902D02*
X0179209Y0090633D01*
X0178642Y0090633D02*
X0179776Y0090633D01*
X0181097Y0091200D02*
X0181664Y0090633D01*
X0183366Y0090633D01*
X0183366Y0092902D02*
X0181664Y0092902D01*
X0181097Y0092335D01*
X0181097Y0091200D01*
X0179209Y0092902D02*
X0178642Y0092902D01*
X0176753Y0092902D02*
X0176753Y0090633D01*
X0176186Y0090633D02*
X0177320Y0090633D01*
X0176753Y0092902D02*
X0176186Y0092902D01*
X0176753Y0094036D02*
X0176753Y0094603D01*
X0174772Y0092902D02*
X0174772Y0091200D01*
X0174204Y0090633D01*
X0173637Y0091200D01*
X0173070Y0090633D01*
X0172503Y0091200D01*
X0172503Y0092902D01*
X0171088Y0093469D02*
X0170521Y0094036D01*
X0169387Y0094036D01*
X0168820Y0093469D01*
X0168820Y0091200D01*
X0169387Y0090633D01*
X0170521Y0090633D01*
X0171088Y0091200D01*
X0171088Y0093469D01*
X0169954Y0091768D02*
X0171088Y0090633D01*
X0171842Y0088036D02*
X0171275Y0087469D01*
X0171275Y0085200D01*
X0171842Y0084633D01*
X0172977Y0084633D01*
X0173544Y0085200D01*
X0173544Y0086335D01*
X0172410Y0086335D01*
X0173544Y0087469D02*
X0172977Y0088036D01*
X0171842Y0088036D01*
X0174958Y0088036D02*
X0176660Y0088036D01*
X0177227Y0087469D01*
X0177227Y0086335D01*
X0176660Y0085768D01*
X0174958Y0085768D01*
X0174958Y0084633D02*
X0174958Y0088036D01*
X0178642Y0087469D02*
X0178642Y0086902D01*
X0179209Y0086335D01*
X0180343Y0086335D01*
X0180910Y0085768D01*
X0180910Y0085200D01*
X0180343Y0084633D01*
X0179209Y0084633D01*
X0178642Y0085200D01*
X0178642Y0087469D02*
X0179209Y0088036D01*
X0180343Y0088036D01*
X0180910Y0087469D01*
X0181500Y0075833D02*
X0191500Y0075833D01*
X0191560Y0075831D01*
X0191621Y0075826D01*
X0191680Y0075817D01*
X0191739Y0075804D01*
X0191798Y0075788D01*
X0191855Y0075768D01*
X0191910Y0075745D01*
X0191965Y0075718D01*
X0192017Y0075689D01*
X0192068Y0075656D01*
X0192117Y0075620D01*
X0192163Y0075582D01*
X0192207Y0075540D01*
X0192249Y0075496D01*
X0192287Y0075450D01*
X0192323Y0075401D01*
X0192356Y0075350D01*
X0192385Y0075298D01*
X0192412Y0075243D01*
X0192435Y0075188D01*
X0192455Y0075131D01*
X0192471Y0075072D01*
X0192484Y0075013D01*
X0192493Y0074954D01*
X0192498Y0074893D01*
X0192500Y0074833D01*
X0192500Y0068833D01*
X0192498Y0068773D01*
X0192493Y0068712D01*
X0192484Y0068653D01*
X0192471Y0068594D01*
X0192455Y0068535D01*
X0192435Y0068478D01*
X0192412Y0068423D01*
X0192385Y0068368D01*
X0192356Y0068316D01*
X0192323Y0068265D01*
X0192287Y0068216D01*
X0192249Y0068170D01*
X0192207Y0068126D01*
X0192163Y0068084D01*
X0192117Y0068046D01*
X0192068Y0068010D01*
X0192017Y0067977D01*
X0191965Y0067948D01*
X0191910Y0067921D01*
X0191855Y0067898D01*
X0191798Y0067878D01*
X0191739Y0067862D01*
X0191680Y0067849D01*
X0191621Y0067840D01*
X0191560Y0067835D01*
X0191500Y0067833D01*
X0181500Y0067833D01*
X0181440Y0067835D01*
X0181379Y0067840D01*
X0181320Y0067849D01*
X0181261Y0067862D01*
X0181202Y0067878D01*
X0181145Y0067898D01*
X0181090Y0067921D01*
X0181035Y0067948D01*
X0180983Y0067977D01*
X0180932Y0068010D01*
X0180883Y0068046D01*
X0180837Y0068084D01*
X0180793Y0068126D01*
X0180751Y0068170D01*
X0180713Y0068216D01*
X0180677Y0068265D01*
X0180644Y0068316D01*
X0180615Y0068368D01*
X0180588Y0068423D01*
X0180565Y0068478D01*
X0180545Y0068535D01*
X0180529Y0068594D01*
X0180516Y0068653D01*
X0180507Y0068712D01*
X0180502Y0068773D01*
X0180500Y0068833D01*
X0180500Y0074833D01*
X0180502Y0074893D01*
X0180507Y0074954D01*
X0180516Y0075013D01*
X0180529Y0075072D01*
X0180545Y0075131D01*
X0180565Y0075188D01*
X0180588Y0075243D01*
X0180615Y0075298D01*
X0180644Y0075350D01*
X0180677Y0075401D01*
X0180713Y0075450D01*
X0180751Y0075496D01*
X0180793Y0075540D01*
X0180837Y0075582D01*
X0180883Y0075620D01*
X0180932Y0075656D01*
X0180983Y0075689D01*
X0181035Y0075718D01*
X0181090Y0075745D01*
X0181145Y0075768D01*
X0181202Y0075788D01*
X0181261Y0075804D01*
X0181320Y0075817D01*
X0181379Y0075826D01*
X0181440Y0075831D01*
X0181500Y0075833D01*
X0204797Y0075816D02*
X0208200Y0078085D01*
X0204797Y0078085D01*
X0204797Y0079500D02*
X0204797Y0081201D01*
X0205364Y0081768D01*
X0207633Y0081768D01*
X0208200Y0081201D01*
X0208200Y0079500D01*
X0204797Y0079500D01*
X0204797Y0075816D02*
X0208200Y0075816D01*
X0207633Y0074402D02*
X0208200Y0073835D01*
X0208200Y0072700D01*
X0207633Y0072133D01*
X0205364Y0072133D01*
X0204797Y0072700D01*
X0204797Y0073835D01*
X0205364Y0074402D01*
X0206499Y0074402D02*
X0206499Y0073268D01*
X0206499Y0074402D02*
X0207633Y0074402D01*
X0224797Y0073835D02*
X0224797Y0072700D01*
X0225364Y0072133D01*
X0225931Y0072133D01*
X0226499Y0072700D01*
X0226499Y0073835D01*
X0227066Y0074402D01*
X0227633Y0074402D01*
X0228200Y0073835D01*
X0228200Y0072700D01*
X0227633Y0072133D01*
X0225364Y0074402D02*
X0224797Y0073835D01*
X0224797Y0075816D02*
X0224797Y0077518D01*
X0225364Y0078085D01*
X0227633Y0078085D01*
X0228200Y0077518D01*
X0228200Y0075816D01*
X0224797Y0075816D01*
X0225931Y0079500D02*
X0224797Y0080634D01*
X0225931Y0081768D01*
X0228200Y0081768D01*
X0226499Y0081768D02*
X0226499Y0079500D01*
X0225931Y0079500D02*
X0228200Y0079500D01*
X0234797Y0079500D02*
X0238200Y0079500D01*
X0238200Y0081768D01*
X0237633Y0078085D02*
X0238200Y0077518D01*
X0238200Y0076384D01*
X0237633Y0075816D01*
X0235364Y0075816D01*
X0234797Y0076384D01*
X0234797Y0077518D01*
X0235364Y0078085D01*
X0235364Y0074402D02*
X0234797Y0073835D01*
X0234797Y0072700D01*
X0235364Y0072133D01*
X0235931Y0072133D01*
X0236499Y0072700D01*
X0236499Y0073835D01*
X0237066Y0074402D01*
X0237633Y0074402D01*
X0238200Y0073835D01*
X0238200Y0072700D01*
X0237633Y0072133D01*
X0243600Y0071833D02*
X0243600Y0081655D01*
X0244797Y0080541D02*
X0244797Y0078272D01*
X0244797Y0079406D02*
X0248200Y0079406D01*
X0248200Y0076857D02*
X0244797Y0076857D01*
X0244797Y0074589D02*
X0248200Y0076857D01*
X0248200Y0074589D02*
X0244797Y0074589D01*
X0244797Y0073268D02*
X0244797Y0072133D01*
X0244797Y0072700D02*
X0248200Y0072700D01*
X0248200Y0072133D02*
X0248200Y0073268D01*
X0290820Y0091200D02*
X0291387Y0090633D01*
X0292521Y0090633D01*
X0293088Y0091200D01*
X0293088Y0093469D01*
X0292521Y0094036D01*
X0291387Y0094036D01*
X0290820Y0093469D01*
X0290820Y0091200D01*
X0291954Y0091768D02*
X0293088Y0090633D01*
X0294503Y0091200D02*
X0295070Y0090633D01*
X0295637Y0091200D01*
X0296204Y0090633D01*
X0296772Y0091200D01*
X0296772Y0092902D01*
X0298186Y0092902D02*
X0298753Y0092902D01*
X0298753Y0090633D01*
X0298186Y0090633D02*
X0299320Y0090633D01*
X0300642Y0090633D02*
X0301776Y0090633D01*
X0301209Y0090633D02*
X0301209Y0092902D01*
X0300642Y0092902D01*
X0301209Y0094036D02*
X0301209Y0094603D01*
X0298753Y0094603D02*
X0298753Y0094036D01*
X0294503Y0092902D02*
X0294503Y0091200D01*
X0294977Y0088036D02*
X0293842Y0088036D01*
X0293275Y0087469D01*
X0293275Y0085200D01*
X0293842Y0084633D01*
X0294977Y0084633D01*
X0295544Y0085200D01*
X0295544Y0086335D01*
X0294410Y0086335D01*
X0295544Y0087469D02*
X0294977Y0088036D01*
X0296958Y0088036D02*
X0296958Y0084633D01*
X0296958Y0085768D02*
X0298660Y0085768D01*
X0299227Y0086335D01*
X0299227Y0087469D01*
X0298660Y0088036D01*
X0296958Y0088036D01*
X0300642Y0087469D02*
X0300642Y0086902D01*
X0301209Y0086335D01*
X0302343Y0086335D01*
X0302910Y0085768D01*
X0302910Y0085200D01*
X0302343Y0084633D01*
X0301209Y0084633D01*
X0300642Y0085200D01*
X0300642Y0087469D02*
X0301209Y0088036D01*
X0302343Y0088036D01*
X0302910Y0087469D01*
X0303664Y0090633D02*
X0305366Y0090633D01*
X0303664Y0090633D02*
X0303097Y0091200D01*
X0303097Y0092335D01*
X0303664Y0092902D01*
X0305366Y0092902D01*
X0303500Y0075833D02*
X0313500Y0075833D01*
X0313560Y0075831D01*
X0313621Y0075826D01*
X0313680Y0075817D01*
X0313739Y0075804D01*
X0313798Y0075788D01*
X0313855Y0075768D01*
X0313910Y0075745D01*
X0313965Y0075718D01*
X0314017Y0075689D01*
X0314068Y0075656D01*
X0314117Y0075620D01*
X0314163Y0075582D01*
X0314207Y0075540D01*
X0314249Y0075496D01*
X0314287Y0075450D01*
X0314323Y0075401D01*
X0314356Y0075350D01*
X0314385Y0075298D01*
X0314412Y0075243D01*
X0314435Y0075188D01*
X0314455Y0075131D01*
X0314471Y0075072D01*
X0314484Y0075013D01*
X0314493Y0074954D01*
X0314498Y0074893D01*
X0314500Y0074833D01*
X0314500Y0068833D01*
X0314498Y0068773D01*
X0314493Y0068712D01*
X0314484Y0068653D01*
X0314471Y0068594D01*
X0314455Y0068535D01*
X0314435Y0068478D01*
X0314412Y0068423D01*
X0314385Y0068368D01*
X0314356Y0068316D01*
X0314323Y0068265D01*
X0314287Y0068216D01*
X0314249Y0068170D01*
X0314207Y0068126D01*
X0314163Y0068084D01*
X0314117Y0068046D01*
X0314068Y0068010D01*
X0314017Y0067977D01*
X0313965Y0067948D01*
X0313910Y0067921D01*
X0313855Y0067898D01*
X0313798Y0067878D01*
X0313739Y0067862D01*
X0313680Y0067849D01*
X0313621Y0067840D01*
X0313560Y0067835D01*
X0313500Y0067833D01*
X0303500Y0067833D01*
X0303440Y0067835D01*
X0303379Y0067840D01*
X0303320Y0067849D01*
X0303261Y0067862D01*
X0303202Y0067878D01*
X0303145Y0067898D01*
X0303090Y0067921D01*
X0303035Y0067948D01*
X0302983Y0067977D01*
X0302932Y0068010D01*
X0302883Y0068046D01*
X0302837Y0068084D01*
X0302793Y0068126D01*
X0302751Y0068170D01*
X0302713Y0068216D01*
X0302677Y0068265D01*
X0302644Y0068316D01*
X0302615Y0068368D01*
X0302588Y0068423D01*
X0302565Y0068478D01*
X0302545Y0068535D01*
X0302529Y0068594D01*
X0302516Y0068653D01*
X0302507Y0068712D01*
X0302502Y0068773D01*
X0302500Y0068833D01*
X0302500Y0074833D01*
X0302502Y0074893D01*
X0302507Y0074954D01*
X0302516Y0075013D01*
X0302529Y0075072D01*
X0302545Y0075131D01*
X0302565Y0075188D01*
X0302588Y0075243D01*
X0302615Y0075298D01*
X0302644Y0075350D01*
X0302677Y0075401D01*
X0302713Y0075450D01*
X0302751Y0075496D01*
X0302793Y0075540D01*
X0302837Y0075582D01*
X0302883Y0075620D01*
X0302932Y0075656D01*
X0302983Y0075689D01*
X0303035Y0075718D01*
X0303090Y0075745D01*
X0303145Y0075768D01*
X0303202Y0075788D01*
X0303261Y0075804D01*
X0303320Y0075817D01*
X0303379Y0075826D01*
X0303440Y0075831D01*
X0303500Y0075833D01*
X0326797Y0075816D02*
X0330200Y0078085D01*
X0326797Y0078085D01*
X0326797Y0079500D02*
X0326797Y0081201D01*
X0327364Y0081768D01*
X0329633Y0081768D01*
X0330200Y0081201D01*
X0330200Y0079500D01*
X0326797Y0079500D01*
X0326797Y0075816D02*
X0330200Y0075816D01*
X0329633Y0074402D02*
X0328499Y0074402D01*
X0328499Y0073268D01*
X0329633Y0074402D02*
X0330200Y0073835D01*
X0330200Y0072700D01*
X0329633Y0072133D01*
X0327364Y0072133D01*
X0326797Y0072700D01*
X0326797Y0073835D01*
X0327364Y0074402D01*
X0346797Y0073835D02*
X0346797Y0072700D01*
X0347364Y0072133D01*
X0347931Y0072133D01*
X0348499Y0072700D01*
X0348499Y0073835D01*
X0349066Y0074402D01*
X0349633Y0074402D01*
X0350200Y0073835D01*
X0350200Y0072700D01*
X0349633Y0072133D01*
X0347364Y0074402D02*
X0346797Y0073835D01*
X0346797Y0075816D02*
X0346797Y0077518D01*
X0347364Y0078085D01*
X0349633Y0078085D01*
X0350200Y0077518D01*
X0350200Y0075816D01*
X0346797Y0075816D01*
X0347931Y0079500D02*
X0346797Y0080634D01*
X0347931Y0081768D01*
X0350200Y0081768D01*
X0348499Y0081768D02*
X0348499Y0079500D01*
X0347931Y0079500D02*
X0350200Y0079500D01*
X0356797Y0079500D02*
X0360200Y0079500D01*
X0360200Y0081768D01*
X0359633Y0078085D02*
X0360200Y0077518D01*
X0360200Y0076384D01*
X0359633Y0075816D01*
X0357364Y0075816D01*
X0356797Y0076384D01*
X0356797Y0077518D01*
X0357364Y0078085D01*
X0357364Y0074402D02*
X0356797Y0073835D01*
X0356797Y0072700D01*
X0357364Y0072133D01*
X0357931Y0072133D01*
X0358499Y0072700D01*
X0358499Y0073835D01*
X0359066Y0074402D01*
X0359633Y0074402D01*
X0360200Y0073835D01*
X0360200Y0072700D01*
X0359633Y0072133D01*
X0365600Y0071833D02*
X0365600Y0081655D01*
X0366797Y0080541D02*
X0366797Y0078272D01*
X0366797Y0079406D02*
X0370200Y0079406D01*
X0370200Y0076857D02*
X0366797Y0076857D01*
X0366797Y0074589D02*
X0370200Y0076857D01*
X0370200Y0074589D02*
X0366797Y0074589D01*
X0366797Y0073268D02*
X0366797Y0072133D01*
X0366797Y0072700D02*
X0370200Y0072700D01*
X0370200Y0072133D02*
X0370200Y0073268D01*
X0330200Y0137401D02*
X0326797Y0137401D01*
X0326797Y0139669D02*
X0330200Y0139669D01*
X0329066Y0138535D01*
X0330200Y0137401D01*
X0330200Y0141084D02*
X0327931Y0141084D01*
X0326797Y0142218D01*
X0327931Y0143352D01*
X0330200Y0143352D01*
X0330200Y0144767D02*
X0326797Y0144767D01*
X0328499Y0145334D02*
X0330200Y0147036D01*
X0330200Y0148450D02*
X0330200Y0150719D01*
X0328499Y0149584D02*
X0328499Y0148450D01*
X0330200Y0148450D02*
X0326797Y0148450D01*
X0326797Y0150719D01*
X0326797Y0147036D02*
X0329066Y0144767D01*
X0328499Y0143352D02*
X0328499Y0141084D01*
X0346797Y0141084D02*
X0346797Y0142785D01*
X0347364Y0143352D01*
X0348499Y0143352D01*
X0349066Y0142785D01*
X0349066Y0141084D01*
X0350200Y0141084D02*
X0346797Y0141084D01*
X0346797Y0144767D02*
X0346797Y0146468D01*
X0347364Y0147036D01*
X0348499Y0147036D01*
X0349066Y0146468D01*
X0349066Y0144767D01*
X0350200Y0144767D02*
X0346797Y0144767D01*
X0347364Y0148450D02*
X0347931Y0148450D01*
X0348499Y0149017D01*
X0348499Y0150152D01*
X0349066Y0150719D01*
X0349633Y0150719D01*
X0350200Y0150152D01*
X0350200Y0149017D01*
X0349633Y0148450D01*
X0347364Y0148450D02*
X0346797Y0149017D01*
X0346797Y0150152D01*
X0347364Y0150719D01*
X0356797Y0150719D02*
X0360200Y0148450D01*
X0360200Y0147036D02*
X0359066Y0145901D01*
X0359066Y0146468D02*
X0359066Y0144767D01*
X0360200Y0144767D02*
X0356797Y0144767D01*
X0356797Y0146468D01*
X0357364Y0147036D01*
X0358499Y0147036D01*
X0359066Y0146468D01*
X0356797Y0148450D02*
X0360200Y0150719D01*
X0366797Y0150719D02*
X0370200Y0148450D01*
X0370200Y0150719D02*
X0366797Y0148450D01*
X0366797Y0147036D02*
X0366797Y0144767D01*
X0366797Y0145901D02*
X0370200Y0145901D01*
X0395775Y0143536D02*
X0395775Y0140133D01*
X0395775Y0141268D02*
X0397477Y0141268D01*
X0398044Y0141835D01*
X0398044Y0142969D01*
X0397477Y0143536D01*
X0395775Y0143536D01*
X0399458Y0143536D02*
X0401160Y0143536D01*
X0401727Y0142969D01*
X0401727Y0141835D01*
X0401160Y0141268D01*
X0399458Y0141268D01*
X0399458Y0140133D02*
X0399458Y0143536D01*
X0403142Y0142969D02*
X0403142Y0142402D01*
X0403709Y0141835D01*
X0404843Y0141835D01*
X0405410Y0141268D01*
X0405410Y0140700D01*
X0404843Y0140133D01*
X0403709Y0140133D01*
X0403142Y0140700D01*
X0403142Y0142969D02*
X0403709Y0143536D01*
X0404843Y0143536D01*
X0405410Y0142969D01*
X0370200Y0174133D02*
X0370200Y0175268D01*
X0370200Y0174700D02*
X0366797Y0174700D01*
X0366797Y0174133D02*
X0366797Y0175268D01*
X0366797Y0176589D02*
X0370200Y0178857D01*
X0366797Y0178857D01*
X0366797Y0180272D02*
X0366797Y0182541D01*
X0366797Y0181406D02*
X0370200Y0181406D01*
X0370200Y0176589D02*
X0366797Y0176589D01*
X0365600Y0173833D02*
X0365600Y0183655D01*
X0360200Y0183768D02*
X0360200Y0181500D01*
X0356797Y0181500D01*
X0357364Y0180085D02*
X0356797Y0179518D01*
X0356797Y0178384D01*
X0357364Y0177816D01*
X0359633Y0177816D01*
X0360200Y0178384D01*
X0360200Y0179518D01*
X0359633Y0180085D01*
X0359633Y0176402D02*
X0360200Y0175835D01*
X0360200Y0174700D01*
X0359633Y0174133D01*
X0358499Y0174700D02*
X0358499Y0175835D01*
X0359066Y0176402D01*
X0359633Y0176402D01*
X0358499Y0174700D02*
X0357931Y0174133D01*
X0357364Y0174133D01*
X0356797Y0174700D01*
X0356797Y0175835D01*
X0357364Y0176402D01*
X0350200Y0175835D02*
X0350200Y0174700D01*
X0349633Y0174133D01*
X0348499Y0174700D02*
X0348499Y0175835D01*
X0349066Y0176402D01*
X0349633Y0176402D01*
X0350200Y0175835D01*
X0350200Y0177816D02*
X0350200Y0179518D01*
X0349633Y0180085D01*
X0347364Y0180085D01*
X0346797Y0179518D01*
X0346797Y0177816D01*
X0350200Y0177816D01*
X0347364Y0176402D02*
X0346797Y0175835D01*
X0346797Y0174700D01*
X0347364Y0174133D01*
X0347931Y0174133D01*
X0348499Y0174700D01*
X0348499Y0181500D02*
X0348499Y0183768D01*
X0347931Y0183768D02*
X0350200Y0183768D01*
X0350200Y0181500D02*
X0347931Y0181500D01*
X0346797Y0182634D01*
X0347931Y0183768D01*
X0330200Y0183201D02*
X0329633Y0183768D01*
X0327364Y0183768D01*
X0326797Y0183201D01*
X0326797Y0181500D01*
X0330200Y0181500D01*
X0330200Y0183201D01*
X0330200Y0180085D02*
X0326797Y0180085D01*
X0326797Y0177816D02*
X0330200Y0180085D01*
X0330200Y0177816D02*
X0326797Y0177816D01*
X0327364Y0176402D02*
X0326797Y0175835D01*
X0326797Y0174700D01*
X0327364Y0174133D01*
X0329633Y0174133D01*
X0330200Y0174700D01*
X0330200Y0175835D01*
X0329633Y0176402D01*
X0328499Y0176402D01*
X0328499Y0175268D01*
X0314500Y0176833D02*
X0314500Y0170833D01*
X0314498Y0170773D01*
X0314493Y0170712D01*
X0314484Y0170653D01*
X0314471Y0170594D01*
X0314455Y0170535D01*
X0314435Y0170478D01*
X0314412Y0170423D01*
X0314385Y0170368D01*
X0314356Y0170316D01*
X0314323Y0170265D01*
X0314287Y0170216D01*
X0314249Y0170170D01*
X0314207Y0170126D01*
X0314163Y0170084D01*
X0314117Y0170046D01*
X0314068Y0170010D01*
X0314017Y0169977D01*
X0313965Y0169948D01*
X0313910Y0169921D01*
X0313855Y0169898D01*
X0313798Y0169878D01*
X0313739Y0169862D01*
X0313680Y0169849D01*
X0313621Y0169840D01*
X0313560Y0169835D01*
X0313500Y0169833D01*
X0303500Y0169833D01*
X0303440Y0169835D01*
X0303379Y0169840D01*
X0303320Y0169849D01*
X0303261Y0169862D01*
X0303202Y0169878D01*
X0303145Y0169898D01*
X0303090Y0169921D01*
X0303035Y0169948D01*
X0302983Y0169977D01*
X0302932Y0170010D01*
X0302883Y0170046D01*
X0302837Y0170084D01*
X0302793Y0170126D01*
X0302751Y0170170D01*
X0302713Y0170216D01*
X0302677Y0170265D01*
X0302644Y0170316D01*
X0302615Y0170368D01*
X0302588Y0170423D01*
X0302565Y0170478D01*
X0302545Y0170535D01*
X0302529Y0170594D01*
X0302516Y0170653D01*
X0302507Y0170712D01*
X0302502Y0170773D01*
X0302500Y0170833D01*
X0302500Y0176833D01*
X0302502Y0176893D01*
X0302507Y0176954D01*
X0302516Y0177013D01*
X0302529Y0177072D01*
X0302545Y0177131D01*
X0302565Y0177188D01*
X0302588Y0177243D01*
X0302615Y0177298D01*
X0302644Y0177350D01*
X0302677Y0177401D01*
X0302713Y0177450D01*
X0302751Y0177496D01*
X0302793Y0177540D01*
X0302837Y0177582D01*
X0302883Y0177620D01*
X0302932Y0177656D01*
X0302983Y0177689D01*
X0303035Y0177718D01*
X0303090Y0177745D01*
X0303145Y0177768D01*
X0303202Y0177788D01*
X0303261Y0177804D01*
X0303320Y0177817D01*
X0303379Y0177826D01*
X0303440Y0177831D01*
X0303500Y0177833D01*
X0313500Y0177833D01*
X0313560Y0177831D01*
X0313621Y0177826D01*
X0313680Y0177817D01*
X0313739Y0177804D01*
X0313798Y0177788D01*
X0313855Y0177768D01*
X0313910Y0177745D01*
X0313965Y0177718D01*
X0314017Y0177689D01*
X0314068Y0177656D01*
X0314117Y0177620D01*
X0314163Y0177582D01*
X0314207Y0177540D01*
X0314249Y0177496D01*
X0314287Y0177450D01*
X0314323Y0177401D01*
X0314356Y0177350D01*
X0314385Y0177298D01*
X0314412Y0177243D01*
X0314435Y0177188D01*
X0314455Y0177131D01*
X0314471Y0177072D01*
X0314484Y0177013D01*
X0314493Y0176954D01*
X0314498Y0176893D01*
X0314500Y0176833D01*
X0302910Y0187200D02*
X0302343Y0186633D01*
X0301209Y0186633D01*
X0300642Y0187200D01*
X0301209Y0188335D02*
X0302343Y0188335D01*
X0302910Y0187768D01*
X0302910Y0187200D01*
X0301209Y0188335D02*
X0300642Y0188902D01*
X0300642Y0189469D01*
X0301209Y0190036D01*
X0302343Y0190036D01*
X0302910Y0189469D01*
X0303664Y0192633D02*
X0305366Y0192633D01*
X0303664Y0192633D02*
X0303097Y0193200D01*
X0303097Y0194335D01*
X0303664Y0194902D01*
X0305366Y0194902D01*
X0301209Y0194902D02*
X0301209Y0192633D01*
X0300642Y0192633D02*
X0301776Y0192633D01*
X0301209Y0194902D02*
X0300642Y0194902D01*
X0301209Y0196036D02*
X0301209Y0196603D01*
X0298753Y0196603D02*
X0298753Y0196036D01*
X0298753Y0194902D02*
X0298753Y0192633D01*
X0298186Y0192633D02*
X0299320Y0192633D01*
X0298753Y0194902D02*
X0298186Y0194902D01*
X0296772Y0194902D02*
X0296772Y0193200D01*
X0296204Y0192633D01*
X0295637Y0193200D01*
X0295070Y0192633D01*
X0294503Y0193200D01*
X0294503Y0194902D01*
X0293088Y0195469D02*
X0293088Y0193200D01*
X0292521Y0192633D01*
X0291387Y0192633D01*
X0290820Y0193200D01*
X0290820Y0195469D01*
X0291387Y0196036D01*
X0292521Y0196036D01*
X0293088Y0195469D01*
X0291954Y0193768D02*
X0293088Y0192633D01*
X0293842Y0190036D02*
X0293275Y0189469D01*
X0293275Y0187200D01*
X0293842Y0186633D01*
X0294977Y0186633D01*
X0295544Y0187200D01*
X0295544Y0188335D01*
X0294410Y0188335D01*
X0295544Y0189469D02*
X0294977Y0190036D01*
X0293842Y0190036D01*
X0296958Y0190036D02*
X0296958Y0186633D01*
X0296958Y0187768D02*
X0298660Y0187768D01*
X0299227Y0188335D01*
X0299227Y0189469D01*
X0298660Y0190036D01*
X0296958Y0190036D01*
X0296958Y0147036D02*
X0299227Y0143633D01*
X0299227Y0147036D01*
X0300642Y0147036D02*
X0302910Y0147036D01*
X0301776Y0147036D02*
X0301776Y0143633D01*
X0296958Y0143633D02*
X0296958Y0147036D01*
X0295544Y0145902D02*
X0295544Y0143633D01*
X0295544Y0145335D02*
X0293275Y0145335D01*
X0293275Y0145902D02*
X0294410Y0147036D01*
X0295544Y0145902D01*
X0293275Y0145902D02*
X0293275Y0143633D01*
X0283410Y0142969D02*
X0282843Y0143536D01*
X0281709Y0143536D01*
X0281142Y0142969D01*
X0281142Y0142402D01*
X0281709Y0141835D01*
X0282843Y0141835D01*
X0283410Y0141268D01*
X0283410Y0140700D01*
X0282843Y0140133D01*
X0281709Y0140133D01*
X0281142Y0140700D01*
X0279727Y0141835D02*
X0279727Y0142969D01*
X0279160Y0143536D01*
X0277458Y0143536D01*
X0277458Y0140133D01*
X0277458Y0141268D02*
X0279160Y0141268D01*
X0279727Y0141835D01*
X0276044Y0141835D02*
X0275477Y0141268D01*
X0273775Y0141268D01*
X0273775Y0140133D02*
X0273775Y0143536D01*
X0275477Y0143536D01*
X0276044Y0142969D01*
X0276044Y0141835D01*
X0326797Y0239401D02*
X0330200Y0239401D01*
X0329066Y0240535D01*
X0330200Y0241669D01*
X0326797Y0241669D01*
X0327931Y0243084D02*
X0326797Y0244218D01*
X0327931Y0245352D01*
X0330200Y0245352D01*
X0330200Y0246767D02*
X0326797Y0246767D01*
X0328499Y0247334D02*
X0330200Y0249036D01*
X0330200Y0250450D02*
X0330200Y0252719D01*
X0328499Y0251584D02*
X0328499Y0250450D01*
X0330200Y0250450D02*
X0326797Y0250450D01*
X0326797Y0252719D01*
X0326797Y0249036D02*
X0329066Y0246767D01*
X0328499Y0245352D02*
X0328499Y0243084D01*
X0327931Y0243084D02*
X0330200Y0243084D01*
X0346797Y0243084D02*
X0346797Y0244785D01*
X0347364Y0245352D01*
X0348499Y0245352D01*
X0349066Y0244785D01*
X0349066Y0243084D01*
X0350200Y0243084D02*
X0346797Y0243084D01*
X0346797Y0246767D02*
X0346797Y0248468D01*
X0347364Y0249036D01*
X0348499Y0249036D01*
X0349066Y0248468D01*
X0349066Y0246767D01*
X0350200Y0246767D02*
X0346797Y0246767D01*
X0347364Y0250450D02*
X0347931Y0250450D01*
X0348499Y0251017D01*
X0348499Y0252152D01*
X0349066Y0252719D01*
X0349633Y0252719D01*
X0350200Y0252152D01*
X0350200Y0251017D01*
X0349633Y0250450D01*
X0347364Y0250450D02*
X0346797Y0251017D01*
X0346797Y0252152D01*
X0347364Y0252719D01*
X0356797Y0252719D02*
X0360200Y0250450D01*
X0360200Y0249036D02*
X0359066Y0247901D01*
X0359066Y0248468D02*
X0359066Y0246767D01*
X0360200Y0246767D02*
X0356797Y0246767D01*
X0356797Y0248468D01*
X0357364Y0249036D01*
X0358499Y0249036D01*
X0359066Y0248468D01*
X0356797Y0250450D02*
X0360200Y0252719D01*
X0366797Y0252719D02*
X0370200Y0250450D01*
X0370200Y0252719D02*
X0366797Y0250450D01*
X0366797Y0249036D02*
X0366797Y0246767D01*
X0366797Y0247901D02*
X0370200Y0247901D01*
X0395775Y0245536D02*
X0395775Y0242133D01*
X0395775Y0243268D02*
X0397477Y0243268D01*
X0398044Y0243835D01*
X0398044Y0244969D01*
X0397477Y0245536D01*
X0395775Y0245536D01*
X0399458Y0245536D02*
X0401160Y0245536D01*
X0401727Y0244969D01*
X0401727Y0243835D01*
X0401160Y0243268D01*
X0399458Y0243268D01*
X0399458Y0242133D02*
X0399458Y0245536D01*
X0403142Y0244969D02*
X0403142Y0244402D01*
X0403709Y0243835D01*
X0404843Y0243835D01*
X0405410Y0243268D01*
X0405410Y0242700D01*
X0404843Y0242133D01*
X0403709Y0242133D01*
X0403142Y0242700D01*
X0403142Y0244969D02*
X0403709Y0245536D01*
X0404843Y0245536D01*
X0405410Y0244969D01*
X0370200Y0276133D02*
X0370200Y0277268D01*
X0370200Y0276700D02*
X0366797Y0276700D01*
X0366797Y0276133D02*
X0366797Y0277268D01*
X0366797Y0278589D02*
X0370200Y0280857D01*
X0366797Y0280857D01*
X0366797Y0282272D02*
X0366797Y0284541D01*
X0366797Y0283406D02*
X0370200Y0283406D01*
X0370200Y0278589D02*
X0366797Y0278589D01*
X0365600Y0275833D02*
X0365600Y0285655D01*
X0360200Y0285768D02*
X0360200Y0283500D01*
X0356797Y0283500D01*
X0357364Y0282085D02*
X0356797Y0281518D01*
X0356797Y0280384D01*
X0357364Y0279816D01*
X0359633Y0279816D01*
X0360200Y0280384D01*
X0360200Y0281518D01*
X0359633Y0282085D01*
X0359633Y0278402D02*
X0360200Y0277835D01*
X0360200Y0276700D01*
X0359633Y0276133D01*
X0358499Y0276700D02*
X0358499Y0277835D01*
X0359066Y0278402D01*
X0359633Y0278402D01*
X0358499Y0276700D02*
X0357931Y0276133D01*
X0357364Y0276133D01*
X0356797Y0276700D01*
X0356797Y0277835D01*
X0357364Y0278402D01*
X0350200Y0277835D02*
X0350200Y0276700D01*
X0349633Y0276133D01*
X0348499Y0276700D02*
X0348499Y0277835D01*
X0349066Y0278402D01*
X0349633Y0278402D01*
X0350200Y0277835D01*
X0350200Y0279816D02*
X0350200Y0281518D01*
X0349633Y0282085D01*
X0347364Y0282085D01*
X0346797Y0281518D01*
X0346797Y0279816D01*
X0350200Y0279816D01*
X0347364Y0278402D02*
X0346797Y0277835D01*
X0346797Y0276700D01*
X0347364Y0276133D01*
X0347931Y0276133D01*
X0348499Y0276700D01*
X0348499Y0283500D02*
X0348499Y0285768D01*
X0347931Y0285768D02*
X0350200Y0285768D01*
X0350200Y0283500D02*
X0347931Y0283500D01*
X0346797Y0284634D01*
X0347931Y0285768D01*
X0330200Y0285201D02*
X0330200Y0283500D01*
X0326797Y0283500D01*
X0326797Y0285201D01*
X0327364Y0285768D01*
X0329633Y0285768D01*
X0330200Y0285201D01*
X0330200Y0282085D02*
X0326797Y0282085D01*
X0326797Y0279816D02*
X0330200Y0282085D01*
X0330200Y0279816D02*
X0326797Y0279816D01*
X0327364Y0278402D02*
X0326797Y0277835D01*
X0326797Y0276700D01*
X0327364Y0276133D01*
X0329633Y0276133D01*
X0330200Y0276700D01*
X0330200Y0277835D01*
X0329633Y0278402D01*
X0328499Y0278402D01*
X0328499Y0277268D01*
X0314500Y0278833D02*
X0314500Y0272833D01*
X0314498Y0272773D01*
X0314493Y0272712D01*
X0314484Y0272653D01*
X0314471Y0272594D01*
X0314455Y0272535D01*
X0314435Y0272478D01*
X0314412Y0272423D01*
X0314385Y0272368D01*
X0314356Y0272316D01*
X0314323Y0272265D01*
X0314287Y0272216D01*
X0314249Y0272170D01*
X0314207Y0272126D01*
X0314163Y0272084D01*
X0314117Y0272046D01*
X0314068Y0272010D01*
X0314017Y0271977D01*
X0313965Y0271948D01*
X0313910Y0271921D01*
X0313855Y0271898D01*
X0313798Y0271878D01*
X0313739Y0271862D01*
X0313680Y0271849D01*
X0313621Y0271840D01*
X0313560Y0271835D01*
X0313500Y0271833D01*
X0303500Y0271833D01*
X0303440Y0271835D01*
X0303379Y0271840D01*
X0303320Y0271849D01*
X0303261Y0271862D01*
X0303202Y0271878D01*
X0303145Y0271898D01*
X0303090Y0271921D01*
X0303035Y0271948D01*
X0302983Y0271977D01*
X0302932Y0272010D01*
X0302883Y0272046D01*
X0302837Y0272084D01*
X0302793Y0272126D01*
X0302751Y0272170D01*
X0302713Y0272216D01*
X0302677Y0272265D01*
X0302644Y0272316D01*
X0302615Y0272368D01*
X0302588Y0272423D01*
X0302565Y0272478D01*
X0302545Y0272535D01*
X0302529Y0272594D01*
X0302516Y0272653D01*
X0302507Y0272712D01*
X0302502Y0272773D01*
X0302500Y0272833D01*
X0302500Y0278833D01*
X0302502Y0278893D01*
X0302507Y0278954D01*
X0302516Y0279013D01*
X0302529Y0279072D01*
X0302545Y0279131D01*
X0302565Y0279188D01*
X0302588Y0279243D01*
X0302615Y0279298D01*
X0302644Y0279350D01*
X0302677Y0279401D01*
X0302713Y0279450D01*
X0302751Y0279496D01*
X0302793Y0279540D01*
X0302837Y0279582D01*
X0302883Y0279620D01*
X0302932Y0279656D01*
X0302983Y0279689D01*
X0303035Y0279718D01*
X0303090Y0279745D01*
X0303145Y0279768D01*
X0303202Y0279788D01*
X0303261Y0279804D01*
X0303320Y0279817D01*
X0303379Y0279826D01*
X0303440Y0279831D01*
X0303500Y0279833D01*
X0313500Y0279833D01*
X0313560Y0279831D01*
X0313621Y0279826D01*
X0313680Y0279817D01*
X0313739Y0279804D01*
X0313798Y0279788D01*
X0313855Y0279768D01*
X0313910Y0279745D01*
X0313965Y0279718D01*
X0314017Y0279689D01*
X0314068Y0279656D01*
X0314117Y0279620D01*
X0314163Y0279582D01*
X0314207Y0279540D01*
X0314249Y0279496D01*
X0314287Y0279450D01*
X0314323Y0279401D01*
X0314356Y0279350D01*
X0314385Y0279298D01*
X0314412Y0279243D01*
X0314435Y0279188D01*
X0314455Y0279131D01*
X0314471Y0279072D01*
X0314484Y0279013D01*
X0314493Y0278954D01*
X0314498Y0278893D01*
X0314500Y0278833D01*
X0302910Y0289200D02*
X0302343Y0288633D01*
X0301209Y0288633D01*
X0300642Y0289200D01*
X0301209Y0290335D02*
X0302343Y0290335D01*
X0302910Y0289768D01*
X0302910Y0289200D01*
X0301209Y0290335D02*
X0300642Y0290902D01*
X0300642Y0291469D01*
X0301209Y0292036D01*
X0302343Y0292036D01*
X0302910Y0291469D01*
X0303664Y0294633D02*
X0305366Y0294633D01*
X0303664Y0294633D02*
X0303097Y0295200D01*
X0303097Y0296335D01*
X0303664Y0296902D01*
X0305366Y0296902D01*
X0301209Y0296902D02*
X0301209Y0294633D01*
X0300642Y0294633D02*
X0301776Y0294633D01*
X0301209Y0296902D02*
X0300642Y0296902D01*
X0301209Y0298036D02*
X0301209Y0298603D01*
X0298753Y0298603D02*
X0298753Y0298036D01*
X0298753Y0296902D02*
X0298753Y0294633D01*
X0298186Y0294633D02*
X0299320Y0294633D01*
X0298753Y0296902D02*
X0298186Y0296902D01*
X0296772Y0296902D02*
X0296772Y0295200D01*
X0296204Y0294633D01*
X0295637Y0295200D01*
X0295070Y0294633D01*
X0294503Y0295200D01*
X0294503Y0296902D01*
X0293088Y0297469D02*
X0293088Y0295200D01*
X0292521Y0294633D01*
X0291387Y0294633D01*
X0290820Y0295200D01*
X0290820Y0297469D01*
X0291387Y0298036D01*
X0292521Y0298036D01*
X0293088Y0297469D01*
X0291954Y0295768D02*
X0293088Y0294633D01*
X0293842Y0292036D02*
X0293275Y0291469D01*
X0293275Y0289200D01*
X0293842Y0288633D01*
X0294977Y0288633D01*
X0295544Y0289200D01*
X0295544Y0290335D01*
X0294410Y0290335D01*
X0295544Y0291469D02*
X0294977Y0292036D01*
X0293842Y0292036D01*
X0296958Y0292036D02*
X0296958Y0288633D01*
X0296958Y0289768D02*
X0298660Y0289768D01*
X0299227Y0290335D01*
X0299227Y0291469D01*
X0298660Y0292036D01*
X0296958Y0292036D01*
X0296958Y0249036D02*
X0299227Y0245633D01*
X0299227Y0249036D01*
X0300642Y0249036D02*
X0302910Y0249036D01*
X0301776Y0249036D02*
X0301776Y0245633D01*
X0296958Y0245633D02*
X0296958Y0249036D01*
X0295544Y0247902D02*
X0295544Y0245633D01*
X0295544Y0247335D02*
X0293275Y0247335D01*
X0293275Y0247902D02*
X0294410Y0249036D01*
X0295544Y0247902D01*
X0293275Y0247902D02*
X0293275Y0245633D01*
X0283410Y0244969D02*
X0282843Y0245536D01*
X0281709Y0245536D01*
X0281142Y0244969D01*
X0281142Y0244402D01*
X0281709Y0243835D01*
X0282843Y0243835D01*
X0283410Y0243268D01*
X0283410Y0242700D01*
X0282843Y0242133D01*
X0281709Y0242133D01*
X0281142Y0242700D01*
X0279727Y0243835D02*
X0279727Y0244969D01*
X0279160Y0245536D01*
X0277458Y0245536D01*
X0277458Y0242133D01*
X0277458Y0243268D02*
X0279160Y0243268D01*
X0279727Y0243835D01*
X0276044Y0243835D02*
X0275477Y0243268D01*
X0273775Y0243268D01*
X0273775Y0242133D02*
X0273775Y0245536D01*
X0275477Y0245536D01*
X0276044Y0244969D01*
X0276044Y0243835D01*
X0248200Y0247901D02*
X0244797Y0247901D01*
X0244797Y0246767D02*
X0244797Y0249036D01*
X0244797Y0250450D02*
X0248200Y0252719D01*
X0248200Y0250450D02*
X0244797Y0252719D01*
X0238200Y0252719D02*
X0234797Y0250450D01*
X0235364Y0249036D02*
X0236499Y0249036D01*
X0237066Y0248468D01*
X0237066Y0246767D01*
X0238200Y0246767D02*
X0234797Y0246767D01*
X0234797Y0248468D01*
X0235364Y0249036D01*
X0237066Y0247901D02*
X0238200Y0249036D01*
X0238200Y0250450D02*
X0234797Y0252719D01*
X0228200Y0252152D02*
X0228200Y0251017D01*
X0227633Y0250450D01*
X0226499Y0251017D02*
X0226499Y0252152D01*
X0227066Y0252719D01*
X0227633Y0252719D01*
X0228200Y0252152D01*
X0226499Y0251017D02*
X0225931Y0250450D01*
X0225364Y0250450D01*
X0224797Y0251017D01*
X0224797Y0252152D01*
X0225364Y0252719D01*
X0225364Y0249036D02*
X0226499Y0249036D01*
X0227066Y0248468D01*
X0227066Y0246767D01*
X0228200Y0246767D02*
X0224797Y0246767D01*
X0224797Y0248468D01*
X0225364Y0249036D01*
X0225364Y0245352D02*
X0226499Y0245352D01*
X0227066Y0244785D01*
X0227066Y0243084D01*
X0228200Y0243084D02*
X0224797Y0243084D01*
X0224797Y0244785D01*
X0225364Y0245352D01*
X0208200Y0245352D02*
X0205931Y0245352D01*
X0204797Y0244218D01*
X0205931Y0243084D01*
X0208200Y0243084D01*
X0208200Y0241669D02*
X0204797Y0241669D01*
X0206499Y0243084D02*
X0206499Y0245352D01*
X0207066Y0246767D02*
X0204797Y0249036D01*
X0204797Y0250450D02*
X0208200Y0250450D01*
X0208200Y0252719D01*
X0206499Y0251584D02*
X0206499Y0250450D01*
X0204797Y0250450D02*
X0204797Y0252719D01*
X0208200Y0249036D02*
X0206499Y0247334D01*
X0204797Y0246767D02*
X0208200Y0246767D01*
X0208200Y0241669D02*
X0207066Y0240535D01*
X0208200Y0239401D01*
X0204797Y0239401D01*
X0180910Y0249036D02*
X0178642Y0249036D01*
X0179776Y0249036D02*
X0179776Y0245633D01*
X0177227Y0245633D02*
X0177227Y0249036D01*
X0174958Y0249036D02*
X0174958Y0245633D01*
X0173544Y0245633D02*
X0173544Y0247902D01*
X0172410Y0249036D01*
X0171275Y0247902D01*
X0171275Y0245633D01*
X0171275Y0247335D02*
X0173544Y0247335D01*
X0174958Y0249036D02*
X0177227Y0245633D01*
X0161410Y0244969D02*
X0160843Y0245536D01*
X0159709Y0245536D01*
X0159142Y0244969D01*
X0159142Y0244402D01*
X0159709Y0243835D01*
X0160843Y0243835D01*
X0161410Y0243268D01*
X0161410Y0242700D01*
X0160843Y0242133D01*
X0159709Y0242133D01*
X0159142Y0242700D01*
X0157727Y0243835D02*
X0157160Y0243268D01*
X0155458Y0243268D01*
X0155458Y0242133D02*
X0155458Y0245536D01*
X0157160Y0245536D01*
X0157727Y0244969D01*
X0157727Y0243835D01*
X0154044Y0243835D02*
X0154044Y0244969D01*
X0153477Y0245536D01*
X0151775Y0245536D01*
X0151775Y0242133D01*
X0151775Y0243268D02*
X0153477Y0243268D01*
X0154044Y0243835D01*
X0126200Y0247901D02*
X0122797Y0247901D01*
X0122797Y0246767D02*
X0122797Y0249036D01*
X0122797Y0250450D02*
X0126200Y0252719D01*
X0126200Y0250450D02*
X0122797Y0252719D01*
X0116200Y0252719D02*
X0112797Y0250450D01*
X0113364Y0249036D02*
X0114499Y0249036D01*
X0115066Y0248468D01*
X0115066Y0246767D01*
X0116200Y0246767D02*
X0112797Y0246767D01*
X0112797Y0248468D01*
X0113364Y0249036D01*
X0115066Y0247901D02*
X0116200Y0249036D01*
X0116200Y0250450D02*
X0112797Y0252719D01*
X0106200Y0252152D02*
X0106200Y0251017D01*
X0105633Y0250450D01*
X0104499Y0251017D02*
X0104499Y0252152D01*
X0105066Y0252719D01*
X0105633Y0252719D01*
X0106200Y0252152D01*
X0104499Y0251017D02*
X0103931Y0250450D01*
X0103364Y0250450D01*
X0102797Y0251017D01*
X0102797Y0252152D01*
X0103364Y0252719D01*
X0103364Y0249036D02*
X0104499Y0249036D01*
X0105066Y0248468D01*
X0105066Y0246767D01*
X0106200Y0246767D02*
X0102797Y0246767D01*
X0102797Y0248468D01*
X0103364Y0249036D01*
X0103364Y0245352D02*
X0104499Y0245352D01*
X0105066Y0244785D01*
X0105066Y0243084D01*
X0106200Y0243084D02*
X0102797Y0243084D01*
X0102797Y0244785D01*
X0103364Y0245352D01*
X0086200Y0245352D02*
X0083931Y0245352D01*
X0082797Y0244218D01*
X0083931Y0243084D01*
X0086200Y0243084D01*
X0086200Y0241669D02*
X0082797Y0241669D01*
X0084499Y0243084D02*
X0084499Y0245352D01*
X0085066Y0246767D02*
X0082797Y0249036D01*
X0082797Y0250450D02*
X0086200Y0250450D01*
X0086200Y0252719D01*
X0084499Y0251584D02*
X0084499Y0250450D01*
X0082797Y0250450D02*
X0082797Y0252719D01*
X0086200Y0249036D02*
X0084499Y0247334D01*
X0082797Y0246767D02*
X0086200Y0246767D01*
X0086200Y0241669D02*
X0085066Y0240535D01*
X0086200Y0239401D01*
X0082797Y0239401D01*
X0058910Y0249036D02*
X0056642Y0249036D01*
X0057776Y0249036D02*
X0057776Y0245633D01*
X0055227Y0245633D02*
X0055227Y0249036D01*
X0052958Y0249036D02*
X0055227Y0245633D01*
X0052958Y0245633D02*
X0052958Y0249036D01*
X0051544Y0247902D02*
X0051544Y0245633D01*
X0051544Y0247335D02*
X0049275Y0247335D01*
X0049275Y0247902D02*
X0050410Y0249036D01*
X0051544Y0247902D01*
X0049275Y0247902D02*
X0049275Y0245633D01*
X0059500Y0271833D02*
X0069500Y0271833D01*
X0069560Y0271835D01*
X0069621Y0271840D01*
X0069680Y0271849D01*
X0069739Y0271862D01*
X0069798Y0271878D01*
X0069855Y0271898D01*
X0069910Y0271921D01*
X0069965Y0271948D01*
X0070017Y0271977D01*
X0070068Y0272010D01*
X0070117Y0272046D01*
X0070163Y0272084D01*
X0070207Y0272126D01*
X0070249Y0272170D01*
X0070287Y0272216D01*
X0070323Y0272265D01*
X0070356Y0272316D01*
X0070385Y0272368D01*
X0070412Y0272423D01*
X0070435Y0272478D01*
X0070455Y0272535D01*
X0070471Y0272594D01*
X0070484Y0272653D01*
X0070493Y0272712D01*
X0070498Y0272773D01*
X0070500Y0272833D01*
X0070500Y0278833D01*
X0070498Y0278893D01*
X0070493Y0278954D01*
X0070484Y0279013D01*
X0070471Y0279072D01*
X0070455Y0279131D01*
X0070435Y0279188D01*
X0070412Y0279243D01*
X0070385Y0279298D01*
X0070356Y0279350D01*
X0070323Y0279401D01*
X0070287Y0279450D01*
X0070249Y0279496D01*
X0070207Y0279540D01*
X0070163Y0279582D01*
X0070117Y0279620D01*
X0070068Y0279656D01*
X0070017Y0279689D01*
X0069965Y0279718D01*
X0069910Y0279745D01*
X0069855Y0279768D01*
X0069798Y0279788D01*
X0069739Y0279804D01*
X0069680Y0279817D01*
X0069621Y0279826D01*
X0069560Y0279831D01*
X0069500Y0279833D01*
X0059500Y0279833D01*
X0059440Y0279831D01*
X0059379Y0279826D01*
X0059320Y0279817D01*
X0059261Y0279804D01*
X0059202Y0279788D01*
X0059145Y0279768D01*
X0059090Y0279745D01*
X0059035Y0279718D01*
X0058983Y0279689D01*
X0058932Y0279656D01*
X0058883Y0279620D01*
X0058837Y0279582D01*
X0058793Y0279540D01*
X0058751Y0279496D01*
X0058713Y0279450D01*
X0058677Y0279401D01*
X0058644Y0279350D01*
X0058615Y0279298D01*
X0058588Y0279243D01*
X0058565Y0279188D01*
X0058545Y0279131D01*
X0058529Y0279072D01*
X0058516Y0279013D01*
X0058507Y0278954D01*
X0058502Y0278893D01*
X0058500Y0278833D01*
X0058500Y0272833D01*
X0058502Y0272773D01*
X0058507Y0272712D01*
X0058516Y0272653D01*
X0058529Y0272594D01*
X0058545Y0272535D01*
X0058565Y0272478D01*
X0058588Y0272423D01*
X0058615Y0272368D01*
X0058644Y0272316D01*
X0058677Y0272265D01*
X0058713Y0272216D01*
X0058751Y0272170D01*
X0058793Y0272126D01*
X0058837Y0272084D01*
X0058883Y0272046D01*
X0058932Y0272010D01*
X0058983Y0271977D01*
X0059035Y0271948D01*
X0059090Y0271921D01*
X0059145Y0271898D01*
X0059202Y0271878D01*
X0059261Y0271862D01*
X0059320Y0271849D01*
X0059379Y0271840D01*
X0059440Y0271835D01*
X0059500Y0271833D01*
X0058343Y0288633D02*
X0057209Y0288633D01*
X0056642Y0289200D01*
X0057209Y0290335D02*
X0056642Y0290902D01*
X0056642Y0291469D01*
X0057209Y0292036D01*
X0058343Y0292036D01*
X0058910Y0291469D01*
X0058343Y0290335D02*
X0058910Y0289768D01*
X0058910Y0289200D01*
X0058343Y0288633D01*
X0058343Y0290335D02*
X0057209Y0290335D01*
X0055227Y0290335D02*
X0054660Y0289768D01*
X0052958Y0289768D01*
X0052958Y0288633D02*
X0052958Y0292036D01*
X0054660Y0292036D01*
X0055227Y0291469D01*
X0055227Y0290335D01*
X0051544Y0290335D02*
X0051544Y0289200D01*
X0050977Y0288633D01*
X0049842Y0288633D01*
X0049275Y0289200D01*
X0049275Y0291469D01*
X0049842Y0292036D01*
X0050977Y0292036D01*
X0051544Y0291469D01*
X0051544Y0290335D02*
X0050410Y0290335D01*
X0051070Y0294633D02*
X0051637Y0295200D01*
X0052204Y0294633D01*
X0052772Y0295200D01*
X0052772Y0296902D01*
X0054186Y0296902D02*
X0054753Y0296902D01*
X0054753Y0294633D01*
X0054186Y0294633D02*
X0055320Y0294633D01*
X0056642Y0294633D02*
X0057776Y0294633D01*
X0057209Y0294633D02*
X0057209Y0296902D01*
X0056642Y0296902D01*
X0057209Y0298036D02*
X0057209Y0298603D01*
X0054753Y0298603D02*
X0054753Y0298036D01*
X0050503Y0296902D02*
X0050503Y0295200D01*
X0051070Y0294633D01*
X0049088Y0294633D02*
X0047954Y0295768D01*
X0047387Y0294633D02*
X0046820Y0295200D01*
X0046820Y0297469D01*
X0047387Y0298036D01*
X0048521Y0298036D01*
X0049088Y0297469D01*
X0049088Y0295200D01*
X0048521Y0294633D01*
X0047387Y0294633D01*
X0059097Y0295200D02*
X0059664Y0294633D01*
X0061366Y0294633D01*
X0061366Y0296902D02*
X0059664Y0296902D01*
X0059097Y0296335D01*
X0059097Y0295200D01*
X0082797Y0285201D02*
X0082797Y0283500D01*
X0086200Y0283500D01*
X0086200Y0285201D01*
X0085633Y0285768D01*
X0083364Y0285768D01*
X0082797Y0285201D01*
X0082797Y0282085D02*
X0086200Y0282085D01*
X0082797Y0279816D01*
X0086200Y0279816D01*
X0085633Y0278402D02*
X0084499Y0278402D01*
X0084499Y0277268D01*
X0085633Y0278402D02*
X0086200Y0277835D01*
X0086200Y0276700D01*
X0085633Y0276133D01*
X0083364Y0276133D01*
X0082797Y0276700D01*
X0082797Y0277835D01*
X0083364Y0278402D01*
X0102797Y0277835D02*
X0102797Y0276700D01*
X0103364Y0276133D01*
X0103931Y0276133D01*
X0104499Y0276700D01*
X0104499Y0277835D01*
X0105066Y0278402D01*
X0105633Y0278402D01*
X0106200Y0277835D01*
X0106200Y0276700D01*
X0105633Y0276133D01*
X0103364Y0278402D02*
X0102797Y0277835D01*
X0102797Y0279816D02*
X0102797Y0281518D01*
X0103364Y0282085D01*
X0105633Y0282085D01*
X0106200Y0281518D01*
X0106200Y0279816D01*
X0102797Y0279816D01*
X0103931Y0283500D02*
X0102797Y0284634D01*
X0103931Y0285768D01*
X0106200Y0285768D01*
X0104499Y0285768D02*
X0104499Y0283500D01*
X0103931Y0283500D02*
X0106200Y0283500D01*
X0112797Y0283500D02*
X0116200Y0283500D01*
X0116200Y0285768D01*
X0115633Y0282085D02*
X0116200Y0281518D01*
X0116200Y0280384D01*
X0115633Y0279816D01*
X0113364Y0279816D01*
X0112797Y0280384D01*
X0112797Y0281518D01*
X0113364Y0282085D01*
X0113364Y0278402D02*
X0112797Y0277835D01*
X0112797Y0276700D01*
X0113364Y0276133D01*
X0113931Y0276133D01*
X0114499Y0276700D01*
X0114499Y0277835D01*
X0115066Y0278402D01*
X0115633Y0278402D01*
X0116200Y0277835D01*
X0116200Y0276700D01*
X0115633Y0276133D01*
X0121600Y0275833D02*
X0121600Y0285655D01*
X0122797Y0284541D02*
X0122797Y0282272D01*
X0122797Y0283406D02*
X0126200Y0283406D01*
X0126200Y0280857D02*
X0122797Y0280857D01*
X0122797Y0278589D02*
X0126200Y0280857D01*
X0126200Y0278589D02*
X0122797Y0278589D01*
X0122797Y0277268D02*
X0122797Y0276133D01*
X0122797Y0276700D02*
X0126200Y0276700D01*
X0126200Y0276133D02*
X0126200Y0277268D01*
X0168820Y0295200D02*
X0169387Y0294633D01*
X0170521Y0294633D01*
X0171088Y0295200D01*
X0171088Y0297469D01*
X0170521Y0298036D01*
X0169387Y0298036D01*
X0168820Y0297469D01*
X0168820Y0295200D01*
X0169954Y0295768D02*
X0171088Y0294633D01*
X0172503Y0295200D02*
X0173070Y0294633D01*
X0173637Y0295200D01*
X0174204Y0294633D01*
X0174772Y0295200D01*
X0174772Y0296902D01*
X0176186Y0296902D02*
X0176753Y0296902D01*
X0176753Y0294633D01*
X0176186Y0294633D02*
X0177320Y0294633D01*
X0178642Y0294633D02*
X0179776Y0294633D01*
X0179209Y0294633D02*
X0179209Y0296902D01*
X0178642Y0296902D01*
X0179209Y0298036D02*
X0179209Y0298603D01*
X0176753Y0298603D02*
X0176753Y0298036D01*
X0172503Y0296902D02*
X0172503Y0295200D01*
X0172977Y0292036D02*
X0171842Y0292036D01*
X0171275Y0291469D01*
X0171275Y0289200D01*
X0171842Y0288633D01*
X0172977Y0288633D01*
X0173544Y0289200D01*
X0173544Y0290335D01*
X0172410Y0290335D01*
X0173544Y0291469D02*
X0172977Y0292036D01*
X0174958Y0292036D02*
X0176660Y0292036D01*
X0177227Y0291469D01*
X0177227Y0290335D01*
X0176660Y0289768D01*
X0174958Y0289768D01*
X0174958Y0288633D02*
X0174958Y0292036D01*
X0178642Y0291469D02*
X0178642Y0290902D01*
X0179209Y0290335D01*
X0180343Y0290335D01*
X0180910Y0289768D01*
X0180910Y0289200D01*
X0180343Y0288633D01*
X0179209Y0288633D01*
X0178642Y0289200D01*
X0178642Y0291469D02*
X0179209Y0292036D01*
X0180343Y0292036D01*
X0180910Y0291469D01*
X0181664Y0294633D02*
X0183366Y0294633D01*
X0181664Y0294633D02*
X0181097Y0295200D01*
X0181097Y0296335D01*
X0181664Y0296902D01*
X0183366Y0296902D01*
X0181500Y0279833D02*
X0191500Y0279833D01*
X0191560Y0279831D01*
X0191621Y0279826D01*
X0191680Y0279817D01*
X0191739Y0279804D01*
X0191798Y0279788D01*
X0191855Y0279768D01*
X0191910Y0279745D01*
X0191965Y0279718D01*
X0192017Y0279689D01*
X0192068Y0279656D01*
X0192117Y0279620D01*
X0192163Y0279582D01*
X0192207Y0279540D01*
X0192249Y0279496D01*
X0192287Y0279450D01*
X0192323Y0279401D01*
X0192356Y0279350D01*
X0192385Y0279298D01*
X0192412Y0279243D01*
X0192435Y0279188D01*
X0192455Y0279131D01*
X0192471Y0279072D01*
X0192484Y0279013D01*
X0192493Y0278954D01*
X0192498Y0278893D01*
X0192500Y0278833D01*
X0192500Y0272833D01*
X0192498Y0272773D01*
X0192493Y0272712D01*
X0192484Y0272653D01*
X0192471Y0272594D01*
X0192455Y0272535D01*
X0192435Y0272478D01*
X0192412Y0272423D01*
X0192385Y0272368D01*
X0192356Y0272316D01*
X0192323Y0272265D01*
X0192287Y0272216D01*
X0192249Y0272170D01*
X0192207Y0272126D01*
X0192163Y0272084D01*
X0192117Y0272046D01*
X0192068Y0272010D01*
X0192017Y0271977D01*
X0191965Y0271948D01*
X0191910Y0271921D01*
X0191855Y0271898D01*
X0191798Y0271878D01*
X0191739Y0271862D01*
X0191680Y0271849D01*
X0191621Y0271840D01*
X0191560Y0271835D01*
X0191500Y0271833D01*
X0181500Y0271833D01*
X0181440Y0271835D01*
X0181379Y0271840D01*
X0181320Y0271849D01*
X0181261Y0271862D01*
X0181202Y0271878D01*
X0181145Y0271898D01*
X0181090Y0271921D01*
X0181035Y0271948D01*
X0180983Y0271977D01*
X0180932Y0272010D01*
X0180883Y0272046D01*
X0180837Y0272084D01*
X0180793Y0272126D01*
X0180751Y0272170D01*
X0180713Y0272216D01*
X0180677Y0272265D01*
X0180644Y0272316D01*
X0180615Y0272368D01*
X0180588Y0272423D01*
X0180565Y0272478D01*
X0180545Y0272535D01*
X0180529Y0272594D01*
X0180516Y0272653D01*
X0180507Y0272712D01*
X0180502Y0272773D01*
X0180500Y0272833D01*
X0180500Y0278833D01*
X0180502Y0278893D01*
X0180507Y0278954D01*
X0180516Y0279013D01*
X0180529Y0279072D01*
X0180545Y0279131D01*
X0180565Y0279188D01*
X0180588Y0279243D01*
X0180615Y0279298D01*
X0180644Y0279350D01*
X0180677Y0279401D01*
X0180713Y0279450D01*
X0180751Y0279496D01*
X0180793Y0279540D01*
X0180837Y0279582D01*
X0180883Y0279620D01*
X0180932Y0279656D01*
X0180983Y0279689D01*
X0181035Y0279718D01*
X0181090Y0279745D01*
X0181145Y0279768D01*
X0181202Y0279788D01*
X0181261Y0279804D01*
X0181320Y0279817D01*
X0181379Y0279826D01*
X0181440Y0279831D01*
X0181500Y0279833D01*
X0204797Y0279816D02*
X0208200Y0282085D01*
X0204797Y0282085D01*
X0204797Y0283500D02*
X0204797Y0285201D01*
X0205364Y0285768D01*
X0207633Y0285768D01*
X0208200Y0285201D01*
X0208200Y0283500D01*
X0204797Y0283500D01*
X0204797Y0279816D02*
X0208200Y0279816D01*
X0207633Y0278402D02*
X0208200Y0277835D01*
X0208200Y0276700D01*
X0207633Y0276133D01*
X0205364Y0276133D01*
X0204797Y0276700D01*
X0204797Y0277835D01*
X0205364Y0278402D01*
X0206499Y0278402D02*
X0206499Y0277268D01*
X0206499Y0278402D02*
X0207633Y0278402D01*
X0224797Y0277835D02*
X0224797Y0276700D01*
X0225364Y0276133D01*
X0225931Y0276133D01*
X0226499Y0276700D01*
X0226499Y0277835D01*
X0227066Y0278402D01*
X0227633Y0278402D01*
X0228200Y0277835D01*
X0228200Y0276700D01*
X0227633Y0276133D01*
X0225364Y0278402D02*
X0224797Y0277835D01*
X0224797Y0279816D02*
X0224797Y0281518D01*
X0225364Y0282085D01*
X0227633Y0282085D01*
X0228200Y0281518D01*
X0228200Y0279816D01*
X0224797Y0279816D01*
X0225931Y0283500D02*
X0224797Y0284634D01*
X0225931Y0285768D01*
X0228200Y0285768D01*
X0226499Y0285768D02*
X0226499Y0283500D01*
X0225931Y0283500D02*
X0228200Y0283500D01*
X0234797Y0283500D02*
X0238200Y0283500D01*
X0238200Y0285768D01*
X0237633Y0282085D02*
X0238200Y0281518D01*
X0238200Y0280384D01*
X0237633Y0279816D01*
X0235364Y0279816D01*
X0234797Y0280384D01*
X0234797Y0281518D01*
X0235364Y0282085D01*
X0235364Y0278402D02*
X0234797Y0277835D01*
X0234797Y0276700D01*
X0235364Y0276133D01*
X0235931Y0276133D01*
X0236499Y0276700D01*
X0236499Y0277835D01*
X0237066Y0278402D01*
X0237633Y0278402D01*
X0238200Y0277835D01*
X0238200Y0276700D01*
X0237633Y0276133D01*
X0243600Y0275833D02*
X0243600Y0285655D01*
X0244797Y0284541D02*
X0244797Y0282272D01*
X0244797Y0283406D02*
X0248200Y0283406D01*
X0248200Y0280857D02*
X0244797Y0280857D01*
X0244797Y0278589D02*
X0248200Y0280857D01*
X0248200Y0278589D02*
X0244797Y0278589D01*
X0244797Y0277268D02*
X0244797Y0276133D01*
X0244797Y0276700D02*
X0248200Y0276700D01*
X0248200Y0276133D02*
X0248200Y0277268D01*
X0208200Y0341401D02*
X0204797Y0341401D01*
X0204797Y0343669D02*
X0208200Y0343669D01*
X0207066Y0342535D01*
X0208200Y0341401D01*
X0208200Y0345084D02*
X0205931Y0345084D01*
X0204797Y0346218D01*
X0205931Y0347352D01*
X0208200Y0347352D01*
X0208200Y0348767D02*
X0204797Y0348767D01*
X0206499Y0349334D02*
X0208200Y0351036D01*
X0208200Y0352450D02*
X0208200Y0354719D01*
X0206499Y0353584D02*
X0206499Y0352450D01*
X0208200Y0352450D02*
X0204797Y0352450D01*
X0204797Y0354719D01*
X0204797Y0351036D02*
X0207066Y0348767D01*
X0206499Y0347352D02*
X0206499Y0345084D01*
X0224797Y0345084D02*
X0224797Y0346785D01*
X0225364Y0347352D01*
X0226499Y0347352D01*
X0227066Y0346785D01*
X0227066Y0345084D01*
X0228200Y0345084D02*
X0224797Y0345084D01*
X0224797Y0348767D02*
X0224797Y0350468D01*
X0225364Y0351036D01*
X0226499Y0351036D01*
X0227066Y0350468D01*
X0227066Y0348767D01*
X0228200Y0348767D02*
X0224797Y0348767D01*
X0225364Y0352450D02*
X0225931Y0352450D01*
X0226499Y0353017D01*
X0226499Y0354152D01*
X0227066Y0354719D01*
X0227633Y0354719D01*
X0228200Y0354152D01*
X0228200Y0353017D01*
X0227633Y0352450D01*
X0225364Y0352450D02*
X0224797Y0353017D01*
X0224797Y0354152D01*
X0225364Y0354719D01*
X0234797Y0354719D02*
X0238200Y0352450D01*
X0238200Y0351036D02*
X0237066Y0349901D01*
X0237066Y0350468D02*
X0237066Y0348767D01*
X0238200Y0348767D02*
X0234797Y0348767D01*
X0234797Y0350468D01*
X0235364Y0351036D01*
X0236499Y0351036D01*
X0237066Y0350468D01*
X0234797Y0352450D02*
X0238200Y0354719D01*
X0244797Y0354719D02*
X0248200Y0352450D01*
X0248200Y0354719D02*
X0244797Y0352450D01*
X0244797Y0351036D02*
X0244797Y0348767D01*
X0244797Y0349901D02*
X0248200Y0349901D01*
X0273775Y0347536D02*
X0273775Y0344133D01*
X0273775Y0345268D02*
X0275477Y0345268D01*
X0276044Y0345835D01*
X0276044Y0346969D01*
X0275477Y0347536D01*
X0273775Y0347536D01*
X0277458Y0347536D02*
X0277458Y0344133D01*
X0277458Y0345268D02*
X0279160Y0345268D01*
X0279727Y0345835D01*
X0279727Y0346969D01*
X0279160Y0347536D01*
X0277458Y0347536D01*
X0281142Y0346969D02*
X0281142Y0346402D01*
X0281709Y0345835D01*
X0282843Y0345835D01*
X0283410Y0345268D01*
X0283410Y0344700D01*
X0282843Y0344133D01*
X0281709Y0344133D01*
X0281142Y0344700D01*
X0281142Y0346969D02*
X0281709Y0347536D01*
X0282843Y0347536D01*
X0283410Y0346969D01*
X0293275Y0347633D02*
X0293275Y0349902D01*
X0294410Y0351036D01*
X0295544Y0349902D01*
X0295544Y0347633D01*
X0296958Y0347633D02*
X0296958Y0351036D01*
X0299227Y0347633D01*
X0299227Y0351036D01*
X0300642Y0351036D02*
X0302910Y0351036D01*
X0301776Y0351036D02*
X0301776Y0347633D01*
X0295544Y0349335D02*
X0293275Y0349335D01*
X0326797Y0348767D02*
X0330200Y0348767D01*
X0329066Y0348767D02*
X0326797Y0351036D01*
X0326797Y0352450D02*
X0330200Y0352450D01*
X0330200Y0354719D01*
X0328499Y0353584D02*
X0328499Y0352450D01*
X0326797Y0352450D02*
X0326797Y0354719D01*
X0330200Y0351036D02*
X0328499Y0349334D01*
X0328499Y0347352D02*
X0328499Y0345084D01*
X0327931Y0345084D02*
X0326797Y0346218D01*
X0327931Y0347352D01*
X0330200Y0347352D01*
X0330200Y0345084D02*
X0327931Y0345084D01*
X0326797Y0343669D02*
X0330200Y0343669D01*
X0329066Y0342535D01*
X0330200Y0341401D01*
X0326797Y0341401D01*
X0346797Y0345084D02*
X0346797Y0346785D01*
X0347364Y0347352D01*
X0348499Y0347352D01*
X0349066Y0346785D01*
X0349066Y0345084D01*
X0350200Y0345084D02*
X0346797Y0345084D01*
X0346797Y0348767D02*
X0346797Y0350468D01*
X0347364Y0351036D01*
X0348499Y0351036D01*
X0349066Y0350468D01*
X0349066Y0348767D01*
X0350200Y0348767D02*
X0346797Y0348767D01*
X0347364Y0352450D02*
X0347931Y0352450D01*
X0348499Y0353017D01*
X0348499Y0354152D01*
X0349066Y0354719D01*
X0349633Y0354719D01*
X0350200Y0354152D01*
X0350200Y0353017D01*
X0349633Y0352450D01*
X0347364Y0352450D02*
X0346797Y0353017D01*
X0346797Y0354152D01*
X0347364Y0354719D01*
X0356797Y0354719D02*
X0360200Y0352450D01*
X0360200Y0351036D02*
X0359066Y0349901D01*
X0359066Y0350468D02*
X0359066Y0348767D01*
X0360200Y0348767D02*
X0356797Y0348767D01*
X0356797Y0350468D01*
X0357364Y0351036D01*
X0358499Y0351036D01*
X0359066Y0350468D01*
X0356797Y0352450D02*
X0360200Y0354719D01*
X0366797Y0354719D02*
X0370200Y0352450D01*
X0370200Y0354719D02*
X0366797Y0352450D01*
X0366797Y0351036D02*
X0366797Y0348767D01*
X0366797Y0349901D02*
X0370200Y0349901D01*
X0395775Y0347536D02*
X0395775Y0344133D01*
X0395775Y0345268D02*
X0397477Y0345268D01*
X0398044Y0345835D01*
X0398044Y0346969D01*
X0397477Y0347536D01*
X0395775Y0347536D01*
X0399458Y0347536D02*
X0401160Y0347536D01*
X0401727Y0346969D01*
X0401727Y0345835D01*
X0401160Y0345268D01*
X0399458Y0345268D01*
X0399458Y0344133D02*
X0399458Y0347536D01*
X0403142Y0346969D02*
X0403142Y0346402D01*
X0403709Y0345835D01*
X0404843Y0345835D01*
X0405410Y0345268D01*
X0405410Y0344700D01*
X0404843Y0344133D01*
X0403709Y0344133D01*
X0403142Y0344700D01*
X0403142Y0346969D02*
X0403709Y0347536D01*
X0404843Y0347536D01*
X0405410Y0346969D01*
X0180910Y0351036D02*
X0178642Y0351036D01*
X0179776Y0351036D02*
X0179776Y0347633D01*
X0177227Y0347633D02*
X0177227Y0351036D01*
X0174958Y0351036D02*
X0174958Y0347633D01*
X0173544Y0347633D02*
X0173544Y0349902D01*
X0172410Y0351036D01*
X0171275Y0349902D01*
X0171275Y0347633D01*
X0171275Y0349335D02*
X0173544Y0349335D01*
X0174958Y0351036D02*
X0177227Y0347633D01*
X0161410Y0346969D02*
X0160843Y0347536D01*
X0159709Y0347536D01*
X0159142Y0346969D01*
X0159142Y0346402D01*
X0159709Y0345835D01*
X0160843Y0345835D01*
X0161410Y0345268D01*
X0161410Y0344700D01*
X0160843Y0344133D01*
X0159709Y0344133D01*
X0159142Y0344700D01*
X0157727Y0345835D02*
X0157160Y0345268D01*
X0155458Y0345268D01*
X0155458Y0344133D02*
X0155458Y0347536D01*
X0157160Y0347536D01*
X0157727Y0346969D01*
X0157727Y0345835D01*
X0154044Y0345835D02*
X0154044Y0346969D01*
X0153477Y0347536D01*
X0151775Y0347536D01*
X0151775Y0344133D01*
X0151775Y0345268D02*
X0153477Y0345268D01*
X0154044Y0345835D01*
X0126200Y0349901D02*
X0122797Y0349901D01*
X0122797Y0348767D02*
X0122797Y0351036D01*
X0122797Y0352450D02*
X0126200Y0354719D01*
X0126200Y0352450D02*
X0122797Y0354719D01*
X0116200Y0354719D02*
X0112797Y0352450D01*
X0113364Y0351036D02*
X0114499Y0351036D01*
X0115066Y0350468D01*
X0115066Y0348767D01*
X0116200Y0348767D02*
X0112797Y0348767D01*
X0112797Y0350468D01*
X0113364Y0351036D01*
X0115066Y0349901D02*
X0116200Y0351036D01*
X0116200Y0352450D02*
X0112797Y0354719D01*
X0106200Y0354152D02*
X0106200Y0353017D01*
X0105633Y0352450D01*
X0104499Y0353017D02*
X0104499Y0354152D01*
X0105066Y0354719D01*
X0105633Y0354719D01*
X0106200Y0354152D01*
X0104499Y0353017D02*
X0103931Y0352450D01*
X0103364Y0352450D01*
X0102797Y0353017D01*
X0102797Y0354152D01*
X0103364Y0354719D01*
X0103364Y0351036D02*
X0104499Y0351036D01*
X0105066Y0350468D01*
X0105066Y0348767D01*
X0106200Y0348767D02*
X0102797Y0348767D01*
X0102797Y0350468D01*
X0103364Y0351036D01*
X0103364Y0347352D02*
X0104499Y0347352D01*
X0105066Y0346785D01*
X0105066Y0345084D01*
X0106200Y0345084D02*
X0102797Y0345084D01*
X0102797Y0346785D01*
X0103364Y0347352D01*
X0086200Y0347352D02*
X0083931Y0347352D01*
X0082797Y0346218D01*
X0083931Y0345084D01*
X0086200Y0345084D01*
X0086200Y0343669D02*
X0082797Y0343669D01*
X0084499Y0345084D02*
X0084499Y0347352D01*
X0085066Y0348767D02*
X0082797Y0351036D01*
X0082797Y0352450D02*
X0086200Y0352450D01*
X0086200Y0354719D01*
X0084499Y0353584D02*
X0084499Y0352450D01*
X0082797Y0352450D02*
X0082797Y0354719D01*
X0086200Y0351036D02*
X0084499Y0349334D01*
X0082797Y0348767D02*
X0086200Y0348767D01*
X0086200Y0343669D02*
X0085066Y0342535D01*
X0086200Y0341401D01*
X0082797Y0341401D01*
X0058910Y0351036D02*
X0056642Y0351036D01*
X0057776Y0351036D02*
X0057776Y0347633D01*
X0055227Y0347633D02*
X0055227Y0351036D01*
X0052958Y0351036D02*
X0055227Y0347633D01*
X0052958Y0347633D02*
X0052958Y0351036D01*
X0051544Y0349902D02*
X0051544Y0347633D01*
X0051544Y0349335D02*
X0049275Y0349335D01*
X0049275Y0349902D02*
X0050410Y0351036D01*
X0051544Y0349902D01*
X0049275Y0349902D02*
X0049275Y0347633D01*
X0054753Y0196603D02*
X0054753Y0196036D01*
X0054753Y0194902D02*
X0054753Y0192633D01*
X0054186Y0192633D02*
X0055320Y0192633D01*
X0056642Y0192633D02*
X0057776Y0192633D01*
X0057209Y0192633D02*
X0057209Y0194902D01*
X0056642Y0194902D01*
X0057209Y0196036D02*
X0057209Y0196603D01*
X0059097Y0194335D02*
X0059097Y0193200D01*
X0059664Y0192633D01*
X0061366Y0192633D01*
X0061366Y0194902D02*
X0059664Y0194902D01*
X0059097Y0194335D01*
X0058343Y0190036D02*
X0057209Y0190036D01*
X0056642Y0189469D01*
X0056642Y0188902D01*
X0057209Y0188335D01*
X0058343Y0188335D01*
X0058910Y0187768D01*
X0058910Y0187200D01*
X0058343Y0186633D01*
X0057209Y0186633D01*
X0056642Y0187200D01*
X0055227Y0188335D02*
X0054660Y0187768D01*
X0052958Y0187768D01*
X0052958Y0186633D02*
X0052958Y0190036D01*
X0054660Y0190036D01*
X0055227Y0189469D01*
X0055227Y0188335D01*
X0058343Y0190036D02*
X0058910Y0189469D01*
X0054753Y0194902D02*
X0054186Y0194902D01*
X0052772Y0194902D02*
X0052772Y0193200D01*
X0052204Y0192633D01*
X0051637Y0193200D01*
X0051070Y0192633D01*
X0050503Y0193200D01*
X0050503Y0194902D01*
X0049088Y0195469D02*
X0049088Y0193200D01*
X0048521Y0192633D01*
X0047387Y0192633D01*
X0046820Y0193200D01*
X0046820Y0195469D01*
X0047387Y0196036D01*
X0048521Y0196036D01*
X0049088Y0195469D01*
X0047954Y0193768D02*
X0049088Y0192633D01*
X0049842Y0190036D02*
X0049275Y0189469D01*
X0049275Y0187200D01*
X0049842Y0186633D01*
X0050977Y0186633D01*
X0051544Y0187200D01*
X0051544Y0188335D01*
X0050410Y0188335D01*
X0051544Y0189469D02*
X0050977Y0190036D01*
X0049842Y0190036D01*
X0059500Y0177833D02*
X0069500Y0177833D01*
X0069560Y0177831D01*
X0069621Y0177826D01*
X0069680Y0177817D01*
X0069739Y0177804D01*
X0069798Y0177788D01*
X0069855Y0177768D01*
X0069910Y0177745D01*
X0069965Y0177718D01*
X0070017Y0177689D01*
X0070068Y0177656D01*
X0070117Y0177620D01*
X0070163Y0177582D01*
X0070207Y0177540D01*
X0070249Y0177496D01*
X0070287Y0177450D01*
X0070323Y0177401D01*
X0070356Y0177350D01*
X0070385Y0177298D01*
X0070412Y0177243D01*
X0070435Y0177188D01*
X0070455Y0177131D01*
X0070471Y0177072D01*
X0070484Y0177013D01*
X0070493Y0176954D01*
X0070498Y0176893D01*
X0070500Y0176833D01*
X0070500Y0170833D01*
X0070498Y0170773D01*
X0070493Y0170712D01*
X0070484Y0170653D01*
X0070471Y0170594D01*
X0070455Y0170535D01*
X0070435Y0170478D01*
X0070412Y0170423D01*
X0070385Y0170368D01*
X0070356Y0170316D01*
X0070323Y0170265D01*
X0070287Y0170216D01*
X0070249Y0170170D01*
X0070207Y0170126D01*
X0070163Y0170084D01*
X0070117Y0170046D01*
X0070068Y0170010D01*
X0070017Y0169977D01*
X0069965Y0169948D01*
X0069910Y0169921D01*
X0069855Y0169898D01*
X0069798Y0169878D01*
X0069739Y0169862D01*
X0069680Y0169849D01*
X0069621Y0169840D01*
X0069560Y0169835D01*
X0069500Y0169833D01*
X0059500Y0169833D01*
X0059440Y0169835D01*
X0059379Y0169840D01*
X0059320Y0169849D01*
X0059261Y0169862D01*
X0059202Y0169878D01*
X0059145Y0169898D01*
X0059090Y0169921D01*
X0059035Y0169948D01*
X0058983Y0169977D01*
X0058932Y0170010D01*
X0058883Y0170046D01*
X0058837Y0170084D01*
X0058793Y0170126D01*
X0058751Y0170170D01*
X0058713Y0170216D01*
X0058677Y0170265D01*
X0058644Y0170316D01*
X0058615Y0170368D01*
X0058588Y0170423D01*
X0058565Y0170478D01*
X0058545Y0170535D01*
X0058529Y0170594D01*
X0058516Y0170653D01*
X0058507Y0170712D01*
X0058502Y0170773D01*
X0058500Y0170833D01*
X0058500Y0176833D01*
X0058502Y0176893D01*
X0058507Y0176954D01*
X0058516Y0177013D01*
X0058529Y0177072D01*
X0058545Y0177131D01*
X0058565Y0177188D01*
X0058588Y0177243D01*
X0058615Y0177298D01*
X0058644Y0177350D01*
X0058677Y0177401D01*
X0058713Y0177450D01*
X0058751Y0177496D01*
X0058793Y0177540D01*
X0058837Y0177582D01*
X0058883Y0177620D01*
X0058932Y0177656D01*
X0058983Y0177689D01*
X0059035Y0177718D01*
X0059090Y0177745D01*
X0059145Y0177768D01*
X0059202Y0177788D01*
X0059261Y0177804D01*
X0059320Y0177817D01*
X0059379Y0177826D01*
X0059440Y0177831D01*
X0059500Y0177833D01*
X0082797Y0177816D02*
X0086200Y0180085D01*
X0082797Y0180085D01*
X0082797Y0181500D02*
X0082797Y0183201D01*
X0083364Y0183768D01*
X0085633Y0183768D01*
X0086200Y0183201D01*
X0086200Y0181500D01*
X0082797Y0181500D01*
X0082797Y0177816D02*
X0086200Y0177816D01*
X0085633Y0176402D02*
X0084499Y0176402D01*
X0084499Y0175268D01*
X0085633Y0176402D02*
X0086200Y0175835D01*
X0086200Y0174700D01*
X0085633Y0174133D01*
X0083364Y0174133D01*
X0082797Y0174700D01*
X0082797Y0175835D01*
X0083364Y0176402D01*
X0102797Y0175835D02*
X0102797Y0174700D01*
X0103364Y0174133D01*
X0103931Y0174133D01*
X0104499Y0174700D01*
X0104499Y0175835D01*
X0105066Y0176402D01*
X0105633Y0176402D01*
X0106200Y0175835D01*
X0106200Y0174700D01*
X0105633Y0174133D01*
X0103364Y0176402D02*
X0102797Y0175835D01*
X0102797Y0177816D02*
X0102797Y0179518D01*
X0103364Y0180085D01*
X0105633Y0180085D01*
X0106200Y0179518D01*
X0106200Y0177816D01*
X0102797Y0177816D01*
X0103931Y0181500D02*
X0102797Y0182634D01*
X0103931Y0183768D01*
X0106200Y0183768D01*
X0104499Y0183768D02*
X0104499Y0181500D01*
X0103931Y0181500D02*
X0106200Y0181500D01*
X0112797Y0181500D02*
X0116200Y0181500D01*
X0116200Y0183768D01*
X0115633Y0180085D02*
X0116200Y0179518D01*
X0116200Y0178384D01*
X0115633Y0177816D01*
X0113364Y0177816D01*
X0112797Y0178384D01*
X0112797Y0179518D01*
X0113364Y0180085D01*
X0113364Y0176402D02*
X0112797Y0175835D01*
X0112797Y0174700D01*
X0113364Y0174133D01*
X0113931Y0174133D01*
X0114499Y0174700D01*
X0114499Y0175835D01*
X0115066Y0176402D01*
X0115633Y0176402D01*
X0116200Y0175835D01*
X0116200Y0174700D01*
X0115633Y0174133D01*
X0121600Y0173833D02*
X0121600Y0183655D01*
X0122797Y0182541D02*
X0122797Y0180272D01*
X0122797Y0181406D02*
X0126200Y0181406D01*
X0126200Y0178857D02*
X0122797Y0178857D01*
X0122797Y0176589D02*
X0126200Y0178857D01*
X0126200Y0176589D02*
X0122797Y0176589D01*
X0122797Y0175268D02*
X0122797Y0174133D01*
X0122797Y0174700D02*
X0126200Y0174700D01*
X0126200Y0174133D02*
X0126200Y0175268D01*
X0058910Y0147036D02*
X0056642Y0147036D01*
X0057776Y0147036D02*
X0057776Y0143633D01*
X0055227Y0143633D02*
X0055227Y0147036D01*
X0052958Y0147036D02*
X0055227Y0143633D01*
X0052958Y0143633D02*
X0052958Y0147036D01*
X0051544Y0145902D02*
X0051544Y0143633D01*
X0051544Y0145335D02*
X0049275Y0145335D01*
X0049275Y0145902D02*
X0050410Y0147036D01*
X0051544Y0145902D01*
X0049275Y0145902D02*
X0049275Y0143633D01*
D12*
X0056626Y0123644D02*
X0063122Y0123644D01*
X0063122Y0120692D01*
X0046390Y0117739D02*
X0046390Y0105928D01*
X0056626Y0100022D02*
X0063122Y0100022D01*
X0063122Y0102975D01*
X0145878Y0102975D02*
X0145878Y0100022D01*
X0152374Y0100022D01*
X0162610Y0105928D02*
X0162610Y0117739D01*
X0168390Y0117739D02*
X0168390Y0105928D01*
X0178626Y0100022D02*
X0185122Y0100022D01*
X0185122Y0102975D01*
X0185122Y0120692D02*
X0185122Y0123644D01*
X0178626Y0123644D01*
X0152374Y0123644D02*
X0145878Y0123644D01*
X0145878Y0120692D01*
X0145878Y0202022D02*
X0145878Y0204975D01*
X0145878Y0202022D02*
X0152374Y0202022D01*
X0162610Y0207928D02*
X0162610Y0219739D01*
X0168390Y0219739D02*
X0168390Y0207928D01*
X0178626Y0202022D02*
X0185122Y0202022D01*
X0185122Y0204975D01*
X0185122Y0222692D02*
X0185122Y0225644D01*
X0178626Y0225644D01*
X0152374Y0225644D02*
X0145878Y0225644D01*
X0145878Y0222692D01*
X0063122Y0222692D02*
X0063122Y0225644D01*
X0056626Y0225644D01*
X0046390Y0219739D02*
X0046390Y0207928D01*
X0056626Y0202022D02*
X0063122Y0202022D01*
X0063122Y0204975D01*
X0063122Y0304022D02*
X0056626Y0304022D01*
X0063122Y0304022D02*
X0063122Y0306975D01*
X0046390Y0309928D02*
X0046390Y0321739D01*
X0056626Y0327644D02*
X0063122Y0327644D01*
X0063122Y0324692D01*
X0145878Y0324692D02*
X0145878Y0327644D01*
X0152374Y0327644D01*
X0162610Y0321739D02*
X0162610Y0309928D01*
X0168390Y0309928D02*
X0168390Y0321739D01*
X0178626Y0327644D02*
X0185122Y0327644D01*
X0185122Y0324692D01*
X0185122Y0306975D02*
X0185122Y0304022D01*
X0178626Y0304022D01*
X0152374Y0304022D02*
X0145878Y0304022D01*
X0145878Y0306975D01*
X0267878Y0306975D02*
X0267878Y0304022D01*
X0274374Y0304022D01*
X0284610Y0309928D02*
X0284610Y0321739D01*
X0290390Y0321739D02*
X0290390Y0309928D01*
X0300626Y0304022D02*
X0307122Y0304022D01*
X0307122Y0306975D01*
X0307122Y0324692D02*
X0307122Y0327644D01*
X0300626Y0327644D01*
X0274374Y0327644D02*
X0267878Y0327644D01*
X0267878Y0324692D01*
X0389878Y0324692D02*
X0389878Y0327644D01*
X0396374Y0327644D01*
X0406610Y0321739D02*
X0406610Y0309928D01*
X0396374Y0304022D02*
X0389878Y0304022D01*
X0389878Y0306975D01*
X0389878Y0225644D02*
X0396374Y0225644D01*
X0389878Y0225644D02*
X0389878Y0222692D01*
X0406610Y0219739D02*
X0406610Y0207928D01*
X0396374Y0202022D02*
X0389878Y0202022D01*
X0389878Y0204975D01*
X0307122Y0204975D02*
X0307122Y0202022D01*
X0300626Y0202022D01*
X0290390Y0207928D02*
X0290390Y0219739D01*
X0284610Y0219739D02*
X0284610Y0207928D01*
X0274374Y0202022D02*
X0267878Y0202022D01*
X0267878Y0204975D01*
X0267878Y0222692D02*
X0267878Y0225644D01*
X0274374Y0225644D01*
X0300626Y0225644D02*
X0307122Y0225644D01*
X0307122Y0222692D01*
X0307122Y0123644D02*
X0300626Y0123644D01*
X0307122Y0123644D02*
X0307122Y0120692D01*
X0290390Y0117739D02*
X0290390Y0105928D01*
X0284610Y0105928D02*
X0284610Y0117739D01*
X0274374Y0123644D02*
X0267878Y0123644D01*
X0267878Y0120692D01*
X0267878Y0102975D02*
X0267878Y0100022D01*
X0274374Y0100022D01*
X0300626Y0100022D02*
X0307122Y0100022D01*
X0307122Y0102975D01*
X0389878Y0102975D02*
X0389878Y0100022D01*
X0396374Y0100022D01*
X0406610Y0105928D02*
X0406610Y0117739D01*
X0396374Y0123644D02*
X0389878Y0123644D01*
X0389878Y0120692D01*
D13*
X0386762Y0101991D02*
X0386764Y0102038D01*
X0386770Y0102084D01*
X0386779Y0102130D01*
X0386793Y0102174D01*
X0386810Y0102218D01*
X0386831Y0102259D01*
X0386855Y0102299D01*
X0386882Y0102337D01*
X0386913Y0102372D01*
X0386946Y0102405D01*
X0386982Y0102435D01*
X0387021Y0102461D01*
X0387061Y0102485D01*
X0387103Y0102504D01*
X0387147Y0102521D01*
X0387192Y0102533D01*
X0387238Y0102542D01*
X0387284Y0102547D01*
X0387331Y0102548D01*
X0387377Y0102545D01*
X0387423Y0102538D01*
X0387469Y0102527D01*
X0387513Y0102513D01*
X0387556Y0102495D01*
X0387597Y0102473D01*
X0387637Y0102448D01*
X0387674Y0102420D01*
X0387709Y0102389D01*
X0387741Y0102355D01*
X0387770Y0102318D01*
X0387795Y0102280D01*
X0387818Y0102239D01*
X0387837Y0102196D01*
X0387852Y0102152D01*
X0387864Y0102107D01*
X0387872Y0102061D01*
X0387876Y0102014D01*
X0387876Y0101968D01*
X0387872Y0101921D01*
X0387864Y0101875D01*
X0387852Y0101830D01*
X0387837Y0101786D01*
X0387818Y0101743D01*
X0387795Y0101702D01*
X0387770Y0101664D01*
X0387741Y0101627D01*
X0387709Y0101593D01*
X0387674Y0101562D01*
X0387637Y0101534D01*
X0387598Y0101509D01*
X0387556Y0101487D01*
X0387513Y0101469D01*
X0387469Y0101455D01*
X0387423Y0101444D01*
X0387377Y0101437D01*
X0387331Y0101434D01*
X0387284Y0101435D01*
X0387238Y0101440D01*
X0387192Y0101449D01*
X0387147Y0101461D01*
X0387103Y0101478D01*
X0387061Y0101497D01*
X0387021Y0101521D01*
X0386982Y0101547D01*
X0386946Y0101577D01*
X0386913Y0101610D01*
X0386882Y0101645D01*
X0386855Y0101683D01*
X0386831Y0101723D01*
X0386810Y0101764D01*
X0386793Y0101808D01*
X0386779Y0101852D01*
X0386770Y0101898D01*
X0386764Y0101944D01*
X0386762Y0101991D01*
X0309124Y0121676D02*
X0309126Y0121723D01*
X0309132Y0121769D01*
X0309141Y0121815D01*
X0309155Y0121859D01*
X0309172Y0121903D01*
X0309193Y0121944D01*
X0309217Y0121984D01*
X0309244Y0122022D01*
X0309275Y0122057D01*
X0309308Y0122090D01*
X0309344Y0122120D01*
X0309383Y0122146D01*
X0309423Y0122170D01*
X0309465Y0122189D01*
X0309509Y0122206D01*
X0309554Y0122218D01*
X0309600Y0122227D01*
X0309646Y0122232D01*
X0309693Y0122233D01*
X0309739Y0122230D01*
X0309785Y0122223D01*
X0309831Y0122212D01*
X0309875Y0122198D01*
X0309918Y0122180D01*
X0309959Y0122158D01*
X0309999Y0122133D01*
X0310036Y0122105D01*
X0310071Y0122074D01*
X0310103Y0122040D01*
X0310132Y0122003D01*
X0310157Y0121965D01*
X0310180Y0121924D01*
X0310199Y0121881D01*
X0310214Y0121837D01*
X0310226Y0121792D01*
X0310234Y0121746D01*
X0310238Y0121699D01*
X0310238Y0121653D01*
X0310234Y0121606D01*
X0310226Y0121560D01*
X0310214Y0121515D01*
X0310199Y0121471D01*
X0310180Y0121428D01*
X0310157Y0121387D01*
X0310132Y0121349D01*
X0310103Y0121312D01*
X0310071Y0121278D01*
X0310036Y0121247D01*
X0309999Y0121219D01*
X0309960Y0121194D01*
X0309918Y0121172D01*
X0309875Y0121154D01*
X0309831Y0121140D01*
X0309785Y0121129D01*
X0309739Y0121122D01*
X0309693Y0121119D01*
X0309646Y0121120D01*
X0309600Y0121125D01*
X0309554Y0121134D01*
X0309509Y0121146D01*
X0309465Y0121163D01*
X0309423Y0121182D01*
X0309383Y0121206D01*
X0309344Y0121232D01*
X0309308Y0121262D01*
X0309275Y0121295D01*
X0309244Y0121330D01*
X0309217Y0121368D01*
X0309193Y0121408D01*
X0309172Y0121449D01*
X0309155Y0121493D01*
X0309141Y0121537D01*
X0309132Y0121583D01*
X0309126Y0121629D01*
X0309124Y0121676D01*
X0264762Y0101991D02*
X0264764Y0102038D01*
X0264770Y0102084D01*
X0264779Y0102130D01*
X0264793Y0102174D01*
X0264810Y0102218D01*
X0264831Y0102259D01*
X0264855Y0102299D01*
X0264882Y0102337D01*
X0264913Y0102372D01*
X0264946Y0102405D01*
X0264982Y0102435D01*
X0265021Y0102461D01*
X0265061Y0102485D01*
X0265103Y0102504D01*
X0265147Y0102521D01*
X0265192Y0102533D01*
X0265238Y0102542D01*
X0265284Y0102547D01*
X0265331Y0102548D01*
X0265377Y0102545D01*
X0265423Y0102538D01*
X0265469Y0102527D01*
X0265513Y0102513D01*
X0265556Y0102495D01*
X0265597Y0102473D01*
X0265637Y0102448D01*
X0265674Y0102420D01*
X0265709Y0102389D01*
X0265741Y0102355D01*
X0265770Y0102318D01*
X0265795Y0102280D01*
X0265818Y0102239D01*
X0265837Y0102196D01*
X0265852Y0102152D01*
X0265864Y0102107D01*
X0265872Y0102061D01*
X0265876Y0102014D01*
X0265876Y0101968D01*
X0265872Y0101921D01*
X0265864Y0101875D01*
X0265852Y0101830D01*
X0265837Y0101786D01*
X0265818Y0101743D01*
X0265795Y0101702D01*
X0265770Y0101664D01*
X0265741Y0101627D01*
X0265709Y0101593D01*
X0265674Y0101562D01*
X0265637Y0101534D01*
X0265598Y0101509D01*
X0265556Y0101487D01*
X0265513Y0101469D01*
X0265469Y0101455D01*
X0265423Y0101444D01*
X0265377Y0101437D01*
X0265331Y0101434D01*
X0265284Y0101435D01*
X0265238Y0101440D01*
X0265192Y0101449D01*
X0265147Y0101461D01*
X0265103Y0101478D01*
X0265061Y0101497D01*
X0265021Y0101521D01*
X0264982Y0101547D01*
X0264946Y0101577D01*
X0264913Y0101610D01*
X0264882Y0101645D01*
X0264855Y0101683D01*
X0264831Y0101723D01*
X0264810Y0101764D01*
X0264793Y0101808D01*
X0264779Y0101852D01*
X0264770Y0101898D01*
X0264764Y0101944D01*
X0264762Y0101991D01*
X0187124Y0121676D02*
X0187126Y0121723D01*
X0187132Y0121769D01*
X0187141Y0121815D01*
X0187155Y0121859D01*
X0187172Y0121903D01*
X0187193Y0121944D01*
X0187217Y0121984D01*
X0187244Y0122022D01*
X0187275Y0122057D01*
X0187308Y0122090D01*
X0187344Y0122120D01*
X0187383Y0122146D01*
X0187423Y0122170D01*
X0187465Y0122189D01*
X0187509Y0122206D01*
X0187554Y0122218D01*
X0187600Y0122227D01*
X0187646Y0122232D01*
X0187693Y0122233D01*
X0187739Y0122230D01*
X0187785Y0122223D01*
X0187831Y0122212D01*
X0187875Y0122198D01*
X0187918Y0122180D01*
X0187959Y0122158D01*
X0187999Y0122133D01*
X0188036Y0122105D01*
X0188071Y0122074D01*
X0188103Y0122040D01*
X0188132Y0122003D01*
X0188157Y0121965D01*
X0188180Y0121924D01*
X0188199Y0121881D01*
X0188214Y0121837D01*
X0188226Y0121792D01*
X0188234Y0121746D01*
X0188238Y0121699D01*
X0188238Y0121653D01*
X0188234Y0121606D01*
X0188226Y0121560D01*
X0188214Y0121515D01*
X0188199Y0121471D01*
X0188180Y0121428D01*
X0188157Y0121387D01*
X0188132Y0121349D01*
X0188103Y0121312D01*
X0188071Y0121278D01*
X0188036Y0121247D01*
X0187999Y0121219D01*
X0187960Y0121194D01*
X0187918Y0121172D01*
X0187875Y0121154D01*
X0187831Y0121140D01*
X0187785Y0121129D01*
X0187739Y0121122D01*
X0187693Y0121119D01*
X0187646Y0121120D01*
X0187600Y0121125D01*
X0187554Y0121134D01*
X0187509Y0121146D01*
X0187465Y0121163D01*
X0187423Y0121182D01*
X0187383Y0121206D01*
X0187344Y0121232D01*
X0187308Y0121262D01*
X0187275Y0121295D01*
X0187244Y0121330D01*
X0187217Y0121368D01*
X0187193Y0121408D01*
X0187172Y0121449D01*
X0187155Y0121493D01*
X0187141Y0121537D01*
X0187132Y0121583D01*
X0187126Y0121629D01*
X0187124Y0121676D01*
X0142762Y0101991D02*
X0142764Y0102038D01*
X0142770Y0102084D01*
X0142779Y0102130D01*
X0142793Y0102174D01*
X0142810Y0102218D01*
X0142831Y0102259D01*
X0142855Y0102299D01*
X0142882Y0102337D01*
X0142913Y0102372D01*
X0142946Y0102405D01*
X0142982Y0102435D01*
X0143021Y0102461D01*
X0143061Y0102485D01*
X0143103Y0102504D01*
X0143147Y0102521D01*
X0143192Y0102533D01*
X0143238Y0102542D01*
X0143284Y0102547D01*
X0143331Y0102548D01*
X0143377Y0102545D01*
X0143423Y0102538D01*
X0143469Y0102527D01*
X0143513Y0102513D01*
X0143556Y0102495D01*
X0143597Y0102473D01*
X0143637Y0102448D01*
X0143674Y0102420D01*
X0143709Y0102389D01*
X0143741Y0102355D01*
X0143770Y0102318D01*
X0143795Y0102280D01*
X0143818Y0102239D01*
X0143837Y0102196D01*
X0143852Y0102152D01*
X0143864Y0102107D01*
X0143872Y0102061D01*
X0143876Y0102014D01*
X0143876Y0101968D01*
X0143872Y0101921D01*
X0143864Y0101875D01*
X0143852Y0101830D01*
X0143837Y0101786D01*
X0143818Y0101743D01*
X0143795Y0101702D01*
X0143770Y0101664D01*
X0143741Y0101627D01*
X0143709Y0101593D01*
X0143674Y0101562D01*
X0143637Y0101534D01*
X0143598Y0101509D01*
X0143556Y0101487D01*
X0143513Y0101469D01*
X0143469Y0101455D01*
X0143423Y0101444D01*
X0143377Y0101437D01*
X0143331Y0101434D01*
X0143284Y0101435D01*
X0143238Y0101440D01*
X0143192Y0101449D01*
X0143147Y0101461D01*
X0143103Y0101478D01*
X0143061Y0101497D01*
X0143021Y0101521D01*
X0142982Y0101547D01*
X0142946Y0101577D01*
X0142913Y0101610D01*
X0142882Y0101645D01*
X0142855Y0101683D01*
X0142831Y0101723D01*
X0142810Y0101764D01*
X0142793Y0101808D01*
X0142779Y0101852D01*
X0142770Y0101898D01*
X0142764Y0101944D01*
X0142762Y0101991D01*
X0065124Y0121676D02*
X0065126Y0121723D01*
X0065132Y0121769D01*
X0065141Y0121815D01*
X0065155Y0121859D01*
X0065172Y0121903D01*
X0065193Y0121944D01*
X0065217Y0121984D01*
X0065244Y0122022D01*
X0065275Y0122057D01*
X0065308Y0122090D01*
X0065344Y0122120D01*
X0065383Y0122146D01*
X0065423Y0122170D01*
X0065465Y0122189D01*
X0065509Y0122206D01*
X0065554Y0122218D01*
X0065600Y0122227D01*
X0065646Y0122232D01*
X0065693Y0122233D01*
X0065739Y0122230D01*
X0065785Y0122223D01*
X0065831Y0122212D01*
X0065875Y0122198D01*
X0065918Y0122180D01*
X0065959Y0122158D01*
X0065999Y0122133D01*
X0066036Y0122105D01*
X0066071Y0122074D01*
X0066103Y0122040D01*
X0066132Y0122003D01*
X0066157Y0121965D01*
X0066180Y0121924D01*
X0066199Y0121881D01*
X0066214Y0121837D01*
X0066226Y0121792D01*
X0066234Y0121746D01*
X0066238Y0121699D01*
X0066238Y0121653D01*
X0066234Y0121606D01*
X0066226Y0121560D01*
X0066214Y0121515D01*
X0066199Y0121471D01*
X0066180Y0121428D01*
X0066157Y0121387D01*
X0066132Y0121349D01*
X0066103Y0121312D01*
X0066071Y0121278D01*
X0066036Y0121247D01*
X0065999Y0121219D01*
X0065960Y0121194D01*
X0065918Y0121172D01*
X0065875Y0121154D01*
X0065831Y0121140D01*
X0065785Y0121129D01*
X0065739Y0121122D01*
X0065693Y0121119D01*
X0065646Y0121120D01*
X0065600Y0121125D01*
X0065554Y0121134D01*
X0065509Y0121146D01*
X0065465Y0121163D01*
X0065423Y0121182D01*
X0065383Y0121206D01*
X0065344Y0121232D01*
X0065308Y0121262D01*
X0065275Y0121295D01*
X0065244Y0121330D01*
X0065217Y0121368D01*
X0065193Y0121408D01*
X0065172Y0121449D01*
X0065155Y0121493D01*
X0065141Y0121537D01*
X0065132Y0121583D01*
X0065126Y0121629D01*
X0065124Y0121676D01*
X0142762Y0203991D02*
X0142764Y0204038D01*
X0142770Y0204084D01*
X0142779Y0204130D01*
X0142793Y0204174D01*
X0142810Y0204218D01*
X0142831Y0204259D01*
X0142855Y0204299D01*
X0142882Y0204337D01*
X0142913Y0204372D01*
X0142946Y0204405D01*
X0142982Y0204435D01*
X0143021Y0204461D01*
X0143061Y0204485D01*
X0143103Y0204504D01*
X0143147Y0204521D01*
X0143192Y0204533D01*
X0143238Y0204542D01*
X0143284Y0204547D01*
X0143331Y0204548D01*
X0143377Y0204545D01*
X0143423Y0204538D01*
X0143469Y0204527D01*
X0143513Y0204513D01*
X0143556Y0204495D01*
X0143597Y0204473D01*
X0143637Y0204448D01*
X0143674Y0204420D01*
X0143709Y0204389D01*
X0143741Y0204355D01*
X0143770Y0204318D01*
X0143795Y0204280D01*
X0143818Y0204239D01*
X0143837Y0204196D01*
X0143852Y0204152D01*
X0143864Y0204107D01*
X0143872Y0204061D01*
X0143876Y0204014D01*
X0143876Y0203968D01*
X0143872Y0203921D01*
X0143864Y0203875D01*
X0143852Y0203830D01*
X0143837Y0203786D01*
X0143818Y0203743D01*
X0143795Y0203702D01*
X0143770Y0203664D01*
X0143741Y0203627D01*
X0143709Y0203593D01*
X0143674Y0203562D01*
X0143637Y0203534D01*
X0143598Y0203509D01*
X0143556Y0203487D01*
X0143513Y0203469D01*
X0143469Y0203455D01*
X0143423Y0203444D01*
X0143377Y0203437D01*
X0143331Y0203434D01*
X0143284Y0203435D01*
X0143238Y0203440D01*
X0143192Y0203449D01*
X0143147Y0203461D01*
X0143103Y0203478D01*
X0143061Y0203497D01*
X0143021Y0203521D01*
X0142982Y0203547D01*
X0142946Y0203577D01*
X0142913Y0203610D01*
X0142882Y0203645D01*
X0142855Y0203683D01*
X0142831Y0203723D01*
X0142810Y0203764D01*
X0142793Y0203808D01*
X0142779Y0203852D01*
X0142770Y0203898D01*
X0142764Y0203944D01*
X0142762Y0203991D01*
X0187124Y0223676D02*
X0187126Y0223723D01*
X0187132Y0223769D01*
X0187141Y0223815D01*
X0187155Y0223859D01*
X0187172Y0223903D01*
X0187193Y0223944D01*
X0187217Y0223984D01*
X0187244Y0224022D01*
X0187275Y0224057D01*
X0187308Y0224090D01*
X0187344Y0224120D01*
X0187383Y0224146D01*
X0187423Y0224170D01*
X0187465Y0224189D01*
X0187509Y0224206D01*
X0187554Y0224218D01*
X0187600Y0224227D01*
X0187646Y0224232D01*
X0187693Y0224233D01*
X0187739Y0224230D01*
X0187785Y0224223D01*
X0187831Y0224212D01*
X0187875Y0224198D01*
X0187918Y0224180D01*
X0187959Y0224158D01*
X0187999Y0224133D01*
X0188036Y0224105D01*
X0188071Y0224074D01*
X0188103Y0224040D01*
X0188132Y0224003D01*
X0188157Y0223965D01*
X0188180Y0223924D01*
X0188199Y0223881D01*
X0188214Y0223837D01*
X0188226Y0223792D01*
X0188234Y0223746D01*
X0188238Y0223699D01*
X0188238Y0223653D01*
X0188234Y0223606D01*
X0188226Y0223560D01*
X0188214Y0223515D01*
X0188199Y0223471D01*
X0188180Y0223428D01*
X0188157Y0223387D01*
X0188132Y0223349D01*
X0188103Y0223312D01*
X0188071Y0223278D01*
X0188036Y0223247D01*
X0187999Y0223219D01*
X0187960Y0223194D01*
X0187918Y0223172D01*
X0187875Y0223154D01*
X0187831Y0223140D01*
X0187785Y0223129D01*
X0187739Y0223122D01*
X0187693Y0223119D01*
X0187646Y0223120D01*
X0187600Y0223125D01*
X0187554Y0223134D01*
X0187509Y0223146D01*
X0187465Y0223163D01*
X0187423Y0223182D01*
X0187383Y0223206D01*
X0187344Y0223232D01*
X0187308Y0223262D01*
X0187275Y0223295D01*
X0187244Y0223330D01*
X0187217Y0223368D01*
X0187193Y0223408D01*
X0187172Y0223449D01*
X0187155Y0223493D01*
X0187141Y0223537D01*
X0187132Y0223583D01*
X0187126Y0223629D01*
X0187124Y0223676D01*
X0264762Y0203991D02*
X0264764Y0204038D01*
X0264770Y0204084D01*
X0264779Y0204130D01*
X0264793Y0204174D01*
X0264810Y0204218D01*
X0264831Y0204259D01*
X0264855Y0204299D01*
X0264882Y0204337D01*
X0264913Y0204372D01*
X0264946Y0204405D01*
X0264982Y0204435D01*
X0265021Y0204461D01*
X0265061Y0204485D01*
X0265103Y0204504D01*
X0265147Y0204521D01*
X0265192Y0204533D01*
X0265238Y0204542D01*
X0265284Y0204547D01*
X0265331Y0204548D01*
X0265377Y0204545D01*
X0265423Y0204538D01*
X0265469Y0204527D01*
X0265513Y0204513D01*
X0265556Y0204495D01*
X0265597Y0204473D01*
X0265637Y0204448D01*
X0265674Y0204420D01*
X0265709Y0204389D01*
X0265741Y0204355D01*
X0265770Y0204318D01*
X0265795Y0204280D01*
X0265818Y0204239D01*
X0265837Y0204196D01*
X0265852Y0204152D01*
X0265864Y0204107D01*
X0265872Y0204061D01*
X0265876Y0204014D01*
X0265876Y0203968D01*
X0265872Y0203921D01*
X0265864Y0203875D01*
X0265852Y0203830D01*
X0265837Y0203786D01*
X0265818Y0203743D01*
X0265795Y0203702D01*
X0265770Y0203664D01*
X0265741Y0203627D01*
X0265709Y0203593D01*
X0265674Y0203562D01*
X0265637Y0203534D01*
X0265598Y0203509D01*
X0265556Y0203487D01*
X0265513Y0203469D01*
X0265469Y0203455D01*
X0265423Y0203444D01*
X0265377Y0203437D01*
X0265331Y0203434D01*
X0265284Y0203435D01*
X0265238Y0203440D01*
X0265192Y0203449D01*
X0265147Y0203461D01*
X0265103Y0203478D01*
X0265061Y0203497D01*
X0265021Y0203521D01*
X0264982Y0203547D01*
X0264946Y0203577D01*
X0264913Y0203610D01*
X0264882Y0203645D01*
X0264855Y0203683D01*
X0264831Y0203723D01*
X0264810Y0203764D01*
X0264793Y0203808D01*
X0264779Y0203852D01*
X0264770Y0203898D01*
X0264764Y0203944D01*
X0264762Y0203991D01*
X0309124Y0223676D02*
X0309126Y0223723D01*
X0309132Y0223769D01*
X0309141Y0223815D01*
X0309155Y0223859D01*
X0309172Y0223903D01*
X0309193Y0223944D01*
X0309217Y0223984D01*
X0309244Y0224022D01*
X0309275Y0224057D01*
X0309308Y0224090D01*
X0309344Y0224120D01*
X0309383Y0224146D01*
X0309423Y0224170D01*
X0309465Y0224189D01*
X0309509Y0224206D01*
X0309554Y0224218D01*
X0309600Y0224227D01*
X0309646Y0224232D01*
X0309693Y0224233D01*
X0309739Y0224230D01*
X0309785Y0224223D01*
X0309831Y0224212D01*
X0309875Y0224198D01*
X0309918Y0224180D01*
X0309959Y0224158D01*
X0309999Y0224133D01*
X0310036Y0224105D01*
X0310071Y0224074D01*
X0310103Y0224040D01*
X0310132Y0224003D01*
X0310157Y0223965D01*
X0310180Y0223924D01*
X0310199Y0223881D01*
X0310214Y0223837D01*
X0310226Y0223792D01*
X0310234Y0223746D01*
X0310238Y0223699D01*
X0310238Y0223653D01*
X0310234Y0223606D01*
X0310226Y0223560D01*
X0310214Y0223515D01*
X0310199Y0223471D01*
X0310180Y0223428D01*
X0310157Y0223387D01*
X0310132Y0223349D01*
X0310103Y0223312D01*
X0310071Y0223278D01*
X0310036Y0223247D01*
X0309999Y0223219D01*
X0309960Y0223194D01*
X0309918Y0223172D01*
X0309875Y0223154D01*
X0309831Y0223140D01*
X0309785Y0223129D01*
X0309739Y0223122D01*
X0309693Y0223119D01*
X0309646Y0223120D01*
X0309600Y0223125D01*
X0309554Y0223134D01*
X0309509Y0223146D01*
X0309465Y0223163D01*
X0309423Y0223182D01*
X0309383Y0223206D01*
X0309344Y0223232D01*
X0309308Y0223262D01*
X0309275Y0223295D01*
X0309244Y0223330D01*
X0309217Y0223368D01*
X0309193Y0223408D01*
X0309172Y0223449D01*
X0309155Y0223493D01*
X0309141Y0223537D01*
X0309132Y0223583D01*
X0309126Y0223629D01*
X0309124Y0223676D01*
X0386762Y0203991D02*
X0386764Y0204038D01*
X0386770Y0204084D01*
X0386779Y0204130D01*
X0386793Y0204174D01*
X0386810Y0204218D01*
X0386831Y0204259D01*
X0386855Y0204299D01*
X0386882Y0204337D01*
X0386913Y0204372D01*
X0386946Y0204405D01*
X0386982Y0204435D01*
X0387021Y0204461D01*
X0387061Y0204485D01*
X0387103Y0204504D01*
X0387147Y0204521D01*
X0387192Y0204533D01*
X0387238Y0204542D01*
X0387284Y0204547D01*
X0387331Y0204548D01*
X0387377Y0204545D01*
X0387423Y0204538D01*
X0387469Y0204527D01*
X0387513Y0204513D01*
X0387556Y0204495D01*
X0387597Y0204473D01*
X0387637Y0204448D01*
X0387674Y0204420D01*
X0387709Y0204389D01*
X0387741Y0204355D01*
X0387770Y0204318D01*
X0387795Y0204280D01*
X0387818Y0204239D01*
X0387837Y0204196D01*
X0387852Y0204152D01*
X0387864Y0204107D01*
X0387872Y0204061D01*
X0387876Y0204014D01*
X0387876Y0203968D01*
X0387872Y0203921D01*
X0387864Y0203875D01*
X0387852Y0203830D01*
X0387837Y0203786D01*
X0387818Y0203743D01*
X0387795Y0203702D01*
X0387770Y0203664D01*
X0387741Y0203627D01*
X0387709Y0203593D01*
X0387674Y0203562D01*
X0387637Y0203534D01*
X0387598Y0203509D01*
X0387556Y0203487D01*
X0387513Y0203469D01*
X0387469Y0203455D01*
X0387423Y0203444D01*
X0387377Y0203437D01*
X0387331Y0203434D01*
X0387284Y0203435D01*
X0387238Y0203440D01*
X0387192Y0203449D01*
X0387147Y0203461D01*
X0387103Y0203478D01*
X0387061Y0203497D01*
X0387021Y0203521D01*
X0386982Y0203547D01*
X0386946Y0203577D01*
X0386913Y0203610D01*
X0386882Y0203645D01*
X0386855Y0203683D01*
X0386831Y0203723D01*
X0386810Y0203764D01*
X0386793Y0203808D01*
X0386779Y0203852D01*
X0386770Y0203898D01*
X0386764Y0203944D01*
X0386762Y0203991D01*
X0386762Y0305991D02*
X0386764Y0306038D01*
X0386770Y0306084D01*
X0386779Y0306130D01*
X0386793Y0306174D01*
X0386810Y0306218D01*
X0386831Y0306259D01*
X0386855Y0306299D01*
X0386882Y0306337D01*
X0386913Y0306372D01*
X0386946Y0306405D01*
X0386982Y0306435D01*
X0387021Y0306461D01*
X0387061Y0306485D01*
X0387103Y0306504D01*
X0387147Y0306521D01*
X0387192Y0306533D01*
X0387238Y0306542D01*
X0387284Y0306547D01*
X0387331Y0306548D01*
X0387377Y0306545D01*
X0387423Y0306538D01*
X0387469Y0306527D01*
X0387513Y0306513D01*
X0387556Y0306495D01*
X0387597Y0306473D01*
X0387637Y0306448D01*
X0387674Y0306420D01*
X0387709Y0306389D01*
X0387741Y0306355D01*
X0387770Y0306318D01*
X0387795Y0306280D01*
X0387818Y0306239D01*
X0387837Y0306196D01*
X0387852Y0306152D01*
X0387864Y0306107D01*
X0387872Y0306061D01*
X0387876Y0306014D01*
X0387876Y0305968D01*
X0387872Y0305921D01*
X0387864Y0305875D01*
X0387852Y0305830D01*
X0387837Y0305786D01*
X0387818Y0305743D01*
X0387795Y0305702D01*
X0387770Y0305664D01*
X0387741Y0305627D01*
X0387709Y0305593D01*
X0387674Y0305562D01*
X0387637Y0305534D01*
X0387598Y0305509D01*
X0387556Y0305487D01*
X0387513Y0305469D01*
X0387469Y0305455D01*
X0387423Y0305444D01*
X0387377Y0305437D01*
X0387331Y0305434D01*
X0387284Y0305435D01*
X0387238Y0305440D01*
X0387192Y0305449D01*
X0387147Y0305461D01*
X0387103Y0305478D01*
X0387061Y0305497D01*
X0387021Y0305521D01*
X0386982Y0305547D01*
X0386946Y0305577D01*
X0386913Y0305610D01*
X0386882Y0305645D01*
X0386855Y0305683D01*
X0386831Y0305723D01*
X0386810Y0305764D01*
X0386793Y0305808D01*
X0386779Y0305852D01*
X0386770Y0305898D01*
X0386764Y0305944D01*
X0386762Y0305991D01*
X0309124Y0325676D02*
X0309126Y0325723D01*
X0309132Y0325769D01*
X0309141Y0325815D01*
X0309155Y0325859D01*
X0309172Y0325903D01*
X0309193Y0325944D01*
X0309217Y0325984D01*
X0309244Y0326022D01*
X0309275Y0326057D01*
X0309308Y0326090D01*
X0309344Y0326120D01*
X0309383Y0326146D01*
X0309423Y0326170D01*
X0309465Y0326189D01*
X0309509Y0326206D01*
X0309554Y0326218D01*
X0309600Y0326227D01*
X0309646Y0326232D01*
X0309693Y0326233D01*
X0309739Y0326230D01*
X0309785Y0326223D01*
X0309831Y0326212D01*
X0309875Y0326198D01*
X0309918Y0326180D01*
X0309959Y0326158D01*
X0309999Y0326133D01*
X0310036Y0326105D01*
X0310071Y0326074D01*
X0310103Y0326040D01*
X0310132Y0326003D01*
X0310157Y0325965D01*
X0310180Y0325924D01*
X0310199Y0325881D01*
X0310214Y0325837D01*
X0310226Y0325792D01*
X0310234Y0325746D01*
X0310238Y0325699D01*
X0310238Y0325653D01*
X0310234Y0325606D01*
X0310226Y0325560D01*
X0310214Y0325515D01*
X0310199Y0325471D01*
X0310180Y0325428D01*
X0310157Y0325387D01*
X0310132Y0325349D01*
X0310103Y0325312D01*
X0310071Y0325278D01*
X0310036Y0325247D01*
X0309999Y0325219D01*
X0309960Y0325194D01*
X0309918Y0325172D01*
X0309875Y0325154D01*
X0309831Y0325140D01*
X0309785Y0325129D01*
X0309739Y0325122D01*
X0309693Y0325119D01*
X0309646Y0325120D01*
X0309600Y0325125D01*
X0309554Y0325134D01*
X0309509Y0325146D01*
X0309465Y0325163D01*
X0309423Y0325182D01*
X0309383Y0325206D01*
X0309344Y0325232D01*
X0309308Y0325262D01*
X0309275Y0325295D01*
X0309244Y0325330D01*
X0309217Y0325368D01*
X0309193Y0325408D01*
X0309172Y0325449D01*
X0309155Y0325493D01*
X0309141Y0325537D01*
X0309132Y0325583D01*
X0309126Y0325629D01*
X0309124Y0325676D01*
X0264762Y0305991D02*
X0264764Y0306038D01*
X0264770Y0306084D01*
X0264779Y0306130D01*
X0264793Y0306174D01*
X0264810Y0306218D01*
X0264831Y0306259D01*
X0264855Y0306299D01*
X0264882Y0306337D01*
X0264913Y0306372D01*
X0264946Y0306405D01*
X0264982Y0306435D01*
X0265021Y0306461D01*
X0265061Y0306485D01*
X0265103Y0306504D01*
X0265147Y0306521D01*
X0265192Y0306533D01*
X0265238Y0306542D01*
X0265284Y0306547D01*
X0265331Y0306548D01*
X0265377Y0306545D01*
X0265423Y0306538D01*
X0265469Y0306527D01*
X0265513Y0306513D01*
X0265556Y0306495D01*
X0265597Y0306473D01*
X0265637Y0306448D01*
X0265674Y0306420D01*
X0265709Y0306389D01*
X0265741Y0306355D01*
X0265770Y0306318D01*
X0265795Y0306280D01*
X0265818Y0306239D01*
X0265837Y0306196D01*
X0265852Y0306152D01*
X0265864Y0306107D01*
X0265872Y0306061D01*
X0265876Y0306014D01*
X0265876Y0305968D01*
X0265872Y0305921D01*
X0265864Y0305875D01*
X0265852Y0305830D01*
X0265837Y0305786D01*
X0265818Y0305743D01*
X0265795Y0305702D01*
X0265770Y0305664D01*
X0265741Y0305627D01*
X0265709Y0305593D01*
X0265674Y0305562D01*
X0265637Y0305534D01*
X0265598Y0305509D01*
X0265556Y0305487D01*
X0265513Y0305469D01*
X0265469Y0305455D01*
X0265423Y0305444D01*
X0265377Y0305437D01*
X0265331Y0305434D01*
X0265284Y0305435D01*
X0265238Y0305440D01*
X0265192Y0305449D01*
X0265147Y0305461D01*
X0265103Y0305478D01*
X0265061Y0305497D01*
X0265021Y0305521D01*
X0264982Y0305547D01*
X0264946Y0305577D01*
X0264913Y0305610D01*
X0264882Y0305645D01*
X0264855Y0305683D01*
X0264831Y0305723D01*
X0264810Y0305764D01*
X0264793Y0305808D01*
X0264779Y0305852D01*
X0264770Y0305898D01*
X0264764Y0305944D01*
X0264762Y0305991D01*
X0187124Y0325676D02*
X0187126Y0325723D01*
X0187132Y0325769D01*
X0187141Y0325815D01*
X0187155Y0325859D01*
X0187172Y0325903D01*
X0187193Y0325944D01*
X0187217Y0325984D01*
X0187244Y0326022D01*
X0187275Y0326057D01*
X0187308Y0326090D01*
X0187344Y0326120D01*
X0187383Y0326146D01*
X0187423Y0326170D01*
X0187465Y0326189D01*
X0187509Y0326206D01*
X0187554Y0326218D01*
X0187600Y0326227D01*
X0187646Y0326232D01*
X0187693Y0326233D01*
X0187739Y0326230D01*
X0187785Y0326223D01*
X0187831Y0326212D01*
X0187875Y0326198D01*
X0187918Y0326180D01*
X0187959Y0326158D01*
X0187999Y0326133D01*
X0188036Y0326105D01*
X0188071Y0326074D01*
X0188103Y0326040D01*
X0188132Y0326003D01*
X0188157Y0325965D01*
X0188180Y0325924D01*
X0188199Y0325881D01*
X0188214Y0325837D01*
X0188226Y0325792D01*
X0188234Y0325746D01*
X0188238Y0325699D01*
X0188238Y0325653D01*
X0188234Y0325606D01*
X0188226Y0325560D01*
X0188214Y0325515D01*
X0188199Y0325471D01*
X0188180Y0325428D01*
X0188157Y0325387D01*
X0188132Y0325349D01*
X0188103Y0325312D01*
X0188071Y0325278D01*
X0188036Y0325247D01*
X0187999Y0325219D01*
X0187960Y0325194D01*
X0187918Y0325172D01*
X0187875Y0325154D01*
X0187831Y0325140D01*
X0187785Y0325129D01*
X0187739Y0325122D01*
X0187693Y0325119D01*
X0187646Y0325120D01*
X0187600Y0325125D01*
X0187554Y0325134D01*
X0187509Y0325146D01*
X0187465Y0325163D01*
X0187423Y0325182D01*
X0187383Y0325206D01*
X0187344Y0325232D01*
X0187308Y0325262D01*
X0187275Y0325295D01*
X0187244Y0325330D01*
X0187217Y0325368D01*
X0187193Y0325408D01*
X0187172Y0325449D01*
X0187155Y0325493D01*
X0187141Y0325537D01*
X0187132Y0325583D01*
X0187126Y0325629D01*
X0187124Y0325676D01*
X0142762Y0305991D02*
X0142764Y0306038D01*
X0142770Y0306084D01*
X0142779Y0306130D01*
X0142793Y0306174D01*
X0142810Y0306218D01*
X0142831Y0306259D01*
X0142855Y0306299D01*
X0142882Y0306337D01*
X0142913Y0306372D01*
X0142946Y0306405D01*
X0142982Y0306435D01*
X0143021Y0306461D01*
X0143061Y0306485D01*
X0143103Y0306504D01*
X0143147Y0306521D01*
X0143192Y0306533D01*
X0143238Y0306542D01*
X0143284Y0306547D01*
X0143331Y0306548D01*
X0143377Y0306545D01*
X0143423Y0306538D01*
X0143469Y0306527D01*
X0143513Y0306513D01*
X0143556Y0306495D01*
X0143597Y0306473D01*
X0143637Y0306448D01*
X0143674Y0306420D01*
X0143709Y0306389D01*
X0143741Y0306355D01*
X0143770Y0306318D01*
X0143795Y0306280D01*
X0143818Y0306239D01*
X0143837Y0306196D01*
X0143852Y0306152D01*
X0143864Y0306107D01*
X0143872Y0306061D01*
X0143876Y0306014D01*
X0143876Y0305968D01*
X0143872Y0305921D01*
X0143864Y0305875D01*
X0143852Y0305830D01*
X0143837Y0305786D01*
X0143818Y0305743D01*
X0143795Y0305702D01*
X0143770Y0305664D01*
X0143741Y0305627D01*
X0143709Y0305593D01*
X0143674Y0305562D01*
X0143637Y0305534D01*
X0143598Y0305509D01*
X0143556Y0305487D01*
X0143513Y0305469D01*
X0143469Y0305455D01*
X0143423Y0305444D01*
X0143377Y0305437D01*
X0143331Y0305434D01*
X0143284Y0305435D01*
X0143238Y0305440D01*
X0143192Y0305449D01*
X0143147Y0305461D01*
X0143103Y0305478D01*
X0143061Y0305497D01*
X0143021Y0305521D01*
X0142982Y0305547D01*
X0142946Y0305577D01*
X0142913Y0305610D01*
X0142882Y0305645D01*
X0142855Y0305683D01*
X0142831Y0305723D01*
X0142810Y0305764D01*
X0142793Y0305808D01*
X0142779Y0305852D01*
X0142770Y0305898D01*
X0142764Y0305944D01*
X0142762Y0305991D01*
X0065124Y0325676D02*
X0065126Y0325723D01*
X0065132Y0325769D01*
X0065141Y0325815D01*
X0065155Y0325859D01*
X0065172Y0325903D01*
X0065193Y0325944D01*
X0065217Y0325984D01*
X0065244Y0326022D01*
X0065275Y0326057D01*
X0065308Y0326090D01*
X0065344Y0326120D01*
X0065383Y0326146D01*
X0065423Y0326170D01*
X0065465Y0326189D01*
X0065509Y0326206D01*
X0065554Y0326218D01*
X0065600Y0326227D01*
X0065646Y0326232D01*
X0065693Y0326233D01*
X0065739Y0326230D01*
X0065785Y0326223D01*
X0065831Y0326212D01*
X0065875Y0326198D01*
X0065918Y0326180D01*
X0065959Y0326158D01*
X0065999Y0326133D01*
X0066036Y0326105D01*
X0066071Y0326074D01*
X0066103Y0326040D01*
X0066132Y0326003D01*
X0066157Y0325965D01*
X0066180Y0325924D01*
X0066199Y0325881D01*
X0066214Y0325837D01*
X0066226Y0325792D01*
X0066234Y0325746D01*
X0066238Y0325699D01*
X0066238Y0325653D01*
X0066234Y0325606D01*
X0066226Y0325560D01*
X0066214Y0325515D01*
X0066199Y0325471D01*
X0066180Y0325428D01*
X0066157Y0325387D01*
X0066132Y0325349D01*
X0066103Y0325312D01*
X0066071Y0325278D01*
X0066036Y0325247D01*
X0065999Y0325219D01*
X0065960Y0325194D01*
X0065918Y0325172D01*
X0065875Y0325154D01*
X0065831Y0325140D01*
X0065785Y0325129D01*
X0065739Y0325122D01*
X0065693Y0325119D01*
X0065646Y0325120D01*
X0065600Y0325125D01*
X0065554Y0325134D01*
X0065509Y0325146D01*
X0065465Y0325163D01*
X0065423Y0325182D01*
X0065383Y0325206D01*
X0065344Y0325232D01*
X0065308Y0325262D01*
X0065275Y0325295D01*
X0065244Y0325330D01*
X0065217Y0325368D01*
X0065193Y0325408D01*
X0065172Y0325449D01*
X0065155Y0325493D01*
X0065141Y0325537D01*
X0065132Y0325583D01*
X0065126Y0325629D01*
X0065124Y0325676D01*
X0065124Y0223676D02*
X0065126Y0223723D01*
X0065132Y0223769D01*
X0065141Y0223815D01*
X0065155Y0223859D01*
X0065172Y0223903D01*
X0065193Y0223944D01*
X0065217Y0223984D01*
X0065244Y0224022D01*
X0065275Y0224057D01*
X0065308Y0224090D01*
X0065344Y0224120D01*
X0065383Y0224146D01*
X0065423Y0224170D01*
X0065465Y0224189D01*
X0065509Y0224206D01*
X0065554Y0224218D01*
X0065600Y0224227D01*
X0065646Y0224232D01*
X0065693Y0224233D01*
X0065739Y0224230D01*
X0065785Y0224223D01*
X0065831Y0224212D01*
X0065875Y0224198D01*
X0065918Y0224180D01*
X0065959Y0224158D01*
X0065999Y0224133D01*
X0066036Y0224105D01*
X0066071Y0224074D01*
X0066103Y0224040D01*
X0066132Y0224003D01*
X0066157Y0223965D01*
X0066180Y0223924D01*
X0066199Y0223881D01*
X0066214Y0223837D01*
X0066226Y0223792D01*
X0066234Y0223746D01*
X0066238Y0223699D01*
X0066238Y0223653D01*
X0066234Y0223606D01*
X0066226Y0223560D01*
X0066214Y0223515D01*
X0066199Y0223471D01*
X0066180Y0223428D01*
X0066157Y0223387D01*
X0066132Y0223349D01*
X0066103Y0223312D01*
X0066071Y0223278D01*
X0066036Y0223247D01*
X0065999Y0223219D01*
X0065960Y0223194D01*
X0065918Y0223172D01*
X0065875Y0223154D01*
X0065831Y0223140D01*
X0065785Y0223129D01*
X0065739Y0223122D01*
X0065693Y0223119D01*
X0065646Y0223120D01*
X0065600Y0223125D01*
X0065554Y0223134D01*
X0065509Y0223146D01*
X0065465Y0223163D01*
X0065423Y0223182D01*
X0065383Y0223206D01*
X0065344Y0223232D01*
X0065308Y0223262D01*
X0065275Y0223295D01*
X0065244Y0223330D01*
X0065217Y0223368D01*
X0065193Y0223408D01*
X0065172Y0223449D01*
X0065155Y0223493D01*
X0065141Y0223537D01*
X0065132Y0223583D01*
X0065126Y0223629D01*
X0065124Y0223676D01*
D14*
X0079697Y0228007D02*
X0079697Y0238243D01*
X0087965Y0238243D01*
X0102138Y0238243D02*
X0106862Y0238243D01*
X0121035Y0238243D02*
X0129303Y0238243D01*
X0129303Y0228007D01*
X0135039Y0210877D02*
X0135039Y0203790D01*
X0135039Y0200365D02*
X0139961Y0200365D01*
X0139961Y0203790D02*
X0139961Y0210877D01*
X0129303Y0199660D02*
X0129303Y0189424D01*
X0121035Y0189424D01*
X0106862Y0189424D02*
X0102138Y0189424D01*
X0087965Y0189424D02*
X0079697Y0189424D01*
X0079697Y0199660D01*
X0136114Y0178833D02*
X0136118Y0179162D01*
X0136130Y0179490D01*
X0136150Y0179818D01*
X0136178Y0180145D01*
X0136215Y0180472D01*
X0136259Y0180797D01*
X0136311Y0181121D01*
X0136371Y0181444D01*
X0136439Y0181766D01*
X0136515Y0182086D01*
X0136599Y0182403D01*
X0136690Y0182719D01*
X0136790Y0183032D01*
X0136896Y0183343D01*
X0137011Y0183651D01*
X0137133Y0183956D01*
X0137262Y0184258D01*
X0137399Y0184556D01*
X0137543Y0184851D01*
X0137695Y0185143D01*
X0137853Y0185431D01*
X0138018Y0185715D01*
X0138191Y0185994D01*
X0138370Y0186270D01*
X0138556Y0186541D01*
X0138748Y0186807D01*
X0138947Y0187068D01*
X0139152Y0187325D01*
X0139364Y0187576D01*
X0139582Y0187822D01*
X0139805Y0188063D01*
X0140035Y0188298D01*
X0140270Y0188528D01*
X0140511Y0188751D01*
X0140757Y0188969D01*
X0141008Y0189181D01*
X0141265Y0189386D01*
X0141526Y0189585D01*
X0141792Y0189777D01*
X0142063Y0189963D01*
X0142339Y0190142D01*
X0142618Y0190315D01*
X0142902Y0190480D01*
X0143190Y0190638D01*
X0143482Y0190790D01*
X0143777Y0190934D01*
X0144075Y0191071D01*
X0144377Y0191200D01*
X0144682Y0191322D01*
X0144990Y0191437D01*
X0145301Y0191543D01*
X0145614Y0191643D01*
X0145930Y0191734D01*
X0146247Y0191818D01*
X0146567Y0191894D01*
X0146889Y0191962D01*
X0147212Y0192022D01*
X0147536Y0192074D01*
X0147861Y0192118D01*
X0148188Y0192155D01*
X0148515Y0192183D01*
X0148843Y0192203D01*
X0149171Y0192215D01*
X0149500Y0192219D01*
X0149829Y0192215D01*
X0150157Y0192203D01*
X0150485Y0192183D01*
X0150812Y0192155D01*
X0151139Y0192118D01*
X0151464Y0192074D01*
X0151788Y0192022D01*
X0152111Y0191962D01*
X0152433Y0191894D01*
X0152753Y0191818D01*
X0153070Y0191734D01*
X0153386Y0191643D01*
X0153699Y0191543D01*
X0154010Y0191437D01*
X0154318Y0191322D01*
X0154623Y0191200D01*
X0154925Y0191071D01*
X0155223Y0190934D01*
X0155518Y0190790D01*
X0155810Y0190638D01*
X0156098Y0190480D01*
X0156382Y0190315D01*
X0156661Y0190142D01*
X0156937Y0189963D01*
X0157208Y0189777D01*
X0157474Y0189585D01*
X0157735Y0189386D01*
X0157992Y0189181D01*
X0158243Y0188969D01*
X0158489Y0188751D01*
X0158730Y0188528D01*
X0158965Y0188298D01*
X0159195Y0188063D01*
X0159418Y0187822D01*
X0159636Y0187576D01*
X0159848Y0187325D01*
X0160053Y0187068D01*
X0160252Y0186807D01*
X0160444Y0186541D01*
X0160630Y0186270D01*
X0160809Y0185994D01*
X0160982Y0185715D01*
X0161147Y0185431D01*
X0161305Y0185143D01*
X0161457Y0184851D01*
X0161601Y0184556D01*
X0161738Y0184258D01*
X0161867Y0183956D01*
X0161989Y0183651D01*
X0162104Y0183343D01*
X0162210Y0183032D01*
X0162310Y0182719D01*
X0162401Y0182403D01*
X0162485Y0182086D01*
X0162561Y0181766D01*
X0162629Y0181444D01*
X0162689Y0181121D01*
X0162741Y0180797D01*
X0162785Y0180472D01*
X0162822Y0180145D01*
X0162850Y0179818D01*
X0162870Y0179490D01*
X0162882Y0179162D01*
X0162886Y0178833D01*
X0162882Y0178504D01*
X0162870Y0178176D01*
X0162850Y0177848D01*
X0162822Y0177521D01*
X0162785Y0177194D01*
X0162741Y0176869D01*
X0162689Y0176545D01*
X0162629Y0176222D01*
X0162561Y0175900D01*
X0162485Y0175580D01*
X0162401Y0175263D01*
X0162310Y0174947D01*
X0162210Y0174634D01*
X0162104Y0174323D01*
X0161989Y0174015D01*
X0161867Y0173710D01*
X0161738Y0173408D01*
X0161601Y0173110D01*
X0161457Y0172815D01*
X0161305Y0172523D01*
X0161147Y0172235D01*
X0160982Y0171951D01*
X0160809Y0171672D01*
X0160630Y0171396D01*
X0160444Y0171125D01*
X0160252Y0170859D01*
X0160053Y0170598D01*
X0159848Y0170341D01*
X0159636Y0170090D01*
X0159418Y0169844D01*
X0159195Y0169603D01*
X0158965Y0169368D01*
X0158730Y0169138D01*
X0158489Y0168915D01*
X0158243Y0168697D01*
X0157992Y0168485D01*
X0157735Y0168280D01*
X0157474Y0168081D01*
X0157208Y0167889D01*
X0156937Y0167703D01*
X0156661Y0167524D01*
X0156382Y0167351D01*
X0156098Y0167186D01*
X0155810Y0167028D01*
X0155518Y0166876D01*
X0155223Y0166732D01*
X0154925Y0166595D01*
X0154623Y0166466D01*
X0154318Y0166344D01*
X0154010Y0166229D01*
X0153699Y0166123D01*
X0153386Y0166023D01*
X0153070Y0165932D01*
X0152753Y0165848D01*
X0152433Y0165772D01*
X0152111Y0165704D01*
X0151788Y0165644D01*
X0151464Y0165592D01*
X0151139Y0165548D01*
X0150812Y0165511D01*
X0150485Y0165483D01*
X0150157Y0165463D01*
X0149829Y0165451D01*
X0149500Y0165447D01*
X0149171Y0165451D01*
X0148843Y0165463D01*
X0148515Y0165483D01*
X0148188Y0165511D01*
X0147861Y0165548D01*
X0147536Y0165592D01*
X0147212Y0165644D01*
X0146889Y0165704D01*
X0146567Y0165772D01*
X0146247Y0165848D01*
X0145930Y0165932D01*
X0145614Y0166023D01*
X0145301Y0166123D01*
X0144990Y0166229D01*
X0144682Y0166344D01*
X0144377Y0166466D01*
X0144075Y0166595D01*
X0143777Y0166732D01*
X0143482Y0166876D01*
X0143190Y0167028D01*
X0142902Y0167186D01*
X0142618Y0167351D01*
X0142339Y0167524D01*
X0142063Y0167703D01*
X0141792Y0167889D01*
X0141526Y0168081D01*
X0141265Y0168280D01*
X0141008Y0168485D01*
X0140757Y0168697D01*
X0140511Y0168915D01*
X0140270Y0169138D01*
X0140035Y0169368D01*
X0139805Y0169603D01*
X0139582Y0169844D01*
X0139364Y0170090D01*
X0139152Y0170341D01*
X0138947Y0170598D01*
X0138748Y0170859D01*
X0138556Y0171125D01*
X0138370Y0171396D01*
X0138191Y0171672D01*
X0138018Y0171951D01*
X0137853Y0172235D01*
X0137695Y0172523D01*
X0137543Y0172815D01*
X0137399Y0173110D01*
X0137262Y0173408D01*
X0137133Y0173710D01*
X0137011Y0174015D01*
X0136896Y0174323D01*
X0136790Y0174634D01*
X0136690Y0174947D01*
X0136599Y0175263D01*
X0136515Y0175580D01*
X0136439Y0175900D01*
X0136371Y0176222D01*
X0136311Y0176545D01*
X0136259Y0176869D01*
X0136215Y0177194D01*
X0136178Y0177521D01*
X0136150Y0177848D01*
X0136130Y0178176D01*
X0136118Y0178504D01*
X0136114Y0178833D01*
X0129303Y0136243D02*
X0121035Y0136243D01*
X0129303Y0136243D02*
X0129303Y0126007D01*
X0135039Y0108877D02*
X0135039Y0101790D01*
X0135039Y0098365D02*
X0139961Y0098365D01*
X0139961Y0101790D02*
X0139961Y0108877D01*
X0129303Y0097660D02*
X0129303Y0087424D01*
X0121035Y0087424D01*
X0106862Y0087424D02*
X0102138Y0087424D01*
X0087965Y0087424D02*
X0079697Y0087424D01*
X0079697Y0097660D01*
X0079697Y0126007D02*
X0079697Y0136243D01*
X0087965Y0136243D01*
X0102138Y0136243D02*
X0106862Y0136243D01*
X0136114Y0076833D02*
X0136118Y0077162D01*
X0136130Y0077490D01*
X0136150Y0077818D01*
X0136178Y0078145D01*
X0136215Y0078472D01*
X0136259Y0078797D01*
X0136311Y0079121D01*
X0136371Y0079444D01*
X0136439Y0079766D01*
X0136515Y0080086D01*
X0136599Y0080403D01*
X0136690Y0080719D01*
X0136790Y0081032D01*
X0136896Y0081343D01*
X0137011Y0081651D01*
X0137133Y0081956D01*
X0137262Y0082258D01*
X0137399Y0082556D01*
X0137543Y0082851D01*
X0137695Y0083143D01*
X0137853Y0083431D01*
X0138018Y0083715D01*
X0138191Y0083994D01*
X0138370Y0084270D01*
X0138556Y0084541D01*
X0138748Y0084807D01*
X0138947Y0085068D01*
X0139152Y0085325D01*
X0139364Y0085576D01*
X0139582Y0085822D01*
X0139805Y0086063D01*
X0140035Y0086298D01*
X0140270Y0086528D01*
X0140511Y0086751D01*
X0140757Y0086969D01*
X0141008Y0087181D01*
X0141265Y0087386D01*
X0141526Y0087585D01*
X0141792Y0087777D01*
X0142063Y0087963D01*
X0142339Y0088142D01*
X0142618Y0088315D01*
X0142902Y0088480D01*
X0143190Y0088638D01*
X0143482Y0088790D01*
X0143777Y0088934D01*
X0144075Y0089071D01*
X0144377Y0089200D01*
X0144682Y0089322D01*
X0144990Y0089437D01*
X0145301Y0089543D01*
X0145614Y0089643D01*
X0145930Y0089734D01*
X0146247Y0089818D01*
X0146567Y0089894D01*
X0146889Y0089962D01*
X0147212Y0090022D01*
X0147536Y0090074D01*
X0147861Y0090118D01*
X0148188Y0090155D01*
X0148515Y0090183D01*
X0148843Y0090203D01*
X0149171Y0090215D01*
X0149500Y0090219D01*
X0149829Y0090215D01*
X0150157Y0090203D01*
X0150485Y0090183D01*
X0150812Y0090155D01*
X0151139Y0090118D01*
X0151464Y0090074D01*
X0151788Y0090022D01*
X0152111Y0089962D01*
X0152433Y0089894D01*
X0152753Y0089818D01*
X0153070Y0089734D01*
X0153386Y0089643D01*
X0153699Y0089543D01*
X0154010Y0089437D01*
X0154318Y0089322D01*
X0154623Y0089200D01*
X0154925Y0089071D01*
X0155223Y0088934D01*
X0155518Y0088790D01*
X0155810Y0088638D01*
X0156098Y0088480D01*
X0156382Y0088315D01*
X0156661Y0088142D01*
X0156937Y0087963D01*
X0157208Y0087777D01*
X0157474Y0087585D01*
X0157735Y0087386D01*
X0157992Y0087181D01*
X0158243Y0086969D01*
X0158489Y0086751D01*
X0158730Y0086528D01*
X0158965Y0086298D01*
X0159195Y0086063D01*
X0159418Y0085822D01*
X0159636Y0085576D01*
X0159848Y0085325D01*
X0160053Y0085068D01*
X0160252Y0084807D01*
X0160444Y0084541D01*
X0160630Y0084270D01*
X0160809Y0083994D01*
X0160982Y0083715D01*
X0161147Y0083431D01*
X0161305Y0083143D01*
X0161457Y0082851D01*
X0161601Y0082556D01*
X0161738Y0082258D01*
X0161867Y0081956D01*
X0161989Y0081651D01*
X0162104Y0081343D01*
X0162210Y0081032D01*
X0162310Y0080719D01*
X0162401Y0080403D01*
X0162485Y0080086D01*
X0162561Y0079766D01*
X0162629Y0079444D01*
X0162689Y0079121D01*
X0162741Y0078797D01*
X0162785Y0078472D01*
X0162822Y0078145D01*
X0162850Y0077818D01*
X0162870Y0077490D01*
X0162882Y0077162D01*
X0162886Y0076833D01*
X0162882Y0076504D01*
X0162870Y0076176D01*
X0162850Y0075848D01*
X0162822Y0075521D01*
X0162785Y0075194D01*
X0162741Y0074869D01*
X0162689Y0074545D01*
X0162629Y0074222D01*
X0162561Y0073900D01*
X0162485Y0073580D01*
X0162401Y0073263D01*
X0162310Y0072947D01*
X0162210Y0072634D01*
X0162104Y0072323D01*
X0161989Y0072015D01*
X0161867Y0071710D01*
X0161738Y0071408D01*
X0161601Y0071110D01*
X0161457Y0070815D01*
X0161305Y0070523D01*
X0161147Y0070235D01*
X0160982Y0069951D01*
X0160809Y0069672D01*
X0160630Y0069396D01*
X0160444Y0069125D01*
X0160252Y0068859D01*
X0160053Y0068598D01*
X0159848Y0068341D01*
X0159636Y0068090D01*
X0159418Y0067844D01*
X0159195Y0067603D01*
X0158965Y0067368D01*
X0158730Y0067138D01*
X0158489Y0066915D01*
X0158243Y0066697D01*
X0157992Y0066485D01*
X0157735Y0066280D01*
X0157474Y0066081D01*
X0157208Y0065889D01*
X0156937Y0065703D01*
X0156661Y0065524D01*
X0156382Y0065351D01*
X0156098Y0065186D01*
X0155810Y0065028D01*
X0155518Y0064876D01*
X0155223Y0064732D01*
X0154925Y0064595D01*
X0154623Y0064466D01*
X0154318Y0064344D01*
X0154010Y0064229D01*
X0153699Y0064123D01*
X0153386Y0064023D01*
X0153070Y0063932D01*
X0152753Y0063848D01*
X0152433Y0063772D01*
X0152111Y0063704D01*
X0151788Y0063644D01*
X0151464Y0063592D01*
X0151139Y0063548D01*
X0150812Y0063511D01*
X0150485Y0063483D01*
X0150157Y0063463D01*
X0149829Y0063451D01*
X0149500Y0063447D01*
X0149171Y0063451D01*
X0148843Y0063463D01*
X0148515Y0063483D01*
X0148188Y0063511D01*
X0147861Y0063548D01*
X0147536Y0063592D01*
X0147212Y0063644D01*
X0146889Y0063704D01*
X0146567Y0063772D01*
X0146247Y0063848D01*
X0145930Y0063932D01*
X0145614Y0064023D01*
X0145301Y0064123D01*
X0144990Y0064229D01*
X0144682Y0064344D01*
X0144377Y0064466D01*
X0144075Y0064595D01*
X0143777Y0064732D01*
X0143482Y0064876D01*
X0143190Y0065028D01*
X0142902Y0065186D01*
X0142618Y0065351D01*
X0142339Y0065524D01*
X0142063Y0065703D01*
X0141792Y0065889D01*
X0141526Y0066081D01*
X0141265Y0066280D01*
X0141008Y0066485D01*
X0140757Y0066697D01*
X0140511Y0066915D01*
X0140270Y0067138D01*
X0140035Y0067368D01*
X0139805Y0067603D01*
X0139582Y0067844D01*
X0139364Y0068090D01*
X0139152Y0068341D01*
X0138947Y0068598D01*
X0138748Y0068859D01*
X0138556Y0069125D01*
X0138370Y0069396D01*
X0138191Y0069672D01*
X0138018Y0069951D01*
X0137853Y0070235D01*
X0137695Y0070523D01*
X0137543Y0070815D01*
X0137399Y0071110D01*
X0137262Y0071408D01*
X0137133Y0071710D01*
X0137011Y0072015D01*
X0136896Y0072323D01*
X0136790Y0072634D01*
X0136690Y0072947D01*
X0136599Y0073263D01*
X0136515Y0073580D01*
X0136439Y0073900D01*
X0136371Y0074222D01*
X0136311Y0074545D01*
X0136259Y0074869D01*
X0136215Y0075194D01*
X0136178Y0075521D01*
X0136150Y0075848D01*
X0136130Y0076176D01*
X0136118Y0076504D01*
X0136114Y0076833D01*
X0201697Y0087424D02*
X0209965Y0087424D01*
X0201697Y0087424D02*
X0201697Y0097660D01*
X0224138Y0087424D02*
X0228862Y0087424D01*
X0243035Y0087424D02*
X0251303Y0087424D01*
X0251303Y0097660D01*
X0257039Y0098365D02*
X0261961Y0098365D01*
X0261961Y0101790D02*
X0261961Y0108877D01*
X0257039Y0108877D02*
X0257039Y0101790D01*
X0251303Y0126007D02*
X0251303Y0136243D01*
X0243035Y0136243D01*
X0228862Y0136243D02*
X0224138Y0136243D01*
X0209965Y0136243D02*
X0201697Y0136243D01*
X0201697Y0126007D01*
X0258114Y0076833D02*
X0258118Y0077162D01*
X0258130Y0077490D01*
X0258150Y0077818D01*
X0258178Y0078145D01*
X0258215Y0078472D01*
X0258259Y0078797D01*
X0258311Y0079121D01*
X0258371Y0079444D01*
X0258439Y0079766D01*
X0258515Y0080086D01*
X0258599Y0080403D01*
X0258690Y0080719D01*
X0258790Y0081032D01*
X0258896Y0081343D01*
X0259011Y0081651D01*
X0259133Y0081956D01*
X0259262Y0082258D01*
X0259399Y0082556D01*
X0259543Y0082851D01*
X0259695Y0083143D01*
X0259853Y0083431D01*
X0260018Y0083715D01*
X0260191Y0083994D01*
X0260370Y0084270D01*
X0260556Y0084541D01*
X0260748Y0084807D01*
X0260947Y0085068D01*
X0261152Y0085325D01*
X0261364Y0085576D01*
X0261582Y0085822D01*
X0261805Y0086063D01*
X0262035Y0086298D01*
X0262270Y0086528D01*
X0262511Y0086751D01*
X0262757Y0086969D01*
X0263008Y0087181D01*
X0263265Y0087386D01*
X0263526Y0087585D01*
X0263792Y0087777D01*
X0264063Y0087963D01*
X0264339Y0088142D01*
X0264618Y0088315D01*
X0264902Y0088480D01*
X0265190Y0088638D01*
X0265482Y0088790D01*
X0265777Y0088934D01*
X0266075Y0089071D01*
X0266377Y0089200D01*
X0266682Y0089322D01*
X0266990Y0089437D01*
X0267301Y0089543D01*
X0267614Y0089643D01*
X0267930Y0089734D01*
X0268247Y0089818D01*
X0268567Y0089894D01*
X0268889Y0089962D01*
X0269212Y0090022D01*
X0269536Y0090074D01*
X0269861Y0090118D01*
X0270188Y0090155D01*
X0270515Y0090183D01*
X0270843Y0090203D01*
X0271171Y0090215D01*
X0271500Y0090219D01*
X0271829Y0090215D01*
X0272157Y0090203D01*
X0272485Y0090183D01*
X0272812Y0090155D01*
X0273139Y0090118D01*
X0273464Y0090074D01*
X0273788Y0090022D01*
X0274111Y0089962D01*
X0274433Y0089894D01*
X0274753Y0089818D01*
X0275070Y0089734D01*
X0275386Y0089643D01*
X0275699Y0089543D01*
X0276010Y0089437D01*
X0276318Y0089322D01*
X0276623Y0089200D01*
X0276925Y0089071D01*
X0277223Y0088934D01*
X0277518Y0088790D01*
X0277810Y0088638D01*
X0278098Y0088480D01*
X0278382Y0088315D01*
X0278661Y0088142D01*
X0278937Y0087963D01*
X0279208Y0087777D01*
X0279474Y0087585D01*
X0279735Y0087386D01*
X0279992Y0087181D01*
X0280243Y0086969D01*
X0280489Y0086751D01*
X0280730Y0086528D01*
X0280965Y0086298D01*
X0281195Y0086063D01*
X0281418Y0085822D01*
X0281636Y0085576D01*
X0281848Y0085325D01*
X0282053Y0085068D01*
X0282252Y0084807D01*
X0282444Y0084541D01*
X0282630Y0084270D01*
X0282809Y0083994D01*
X0282982Y0083715D01*
X0283147Y0083431D01*
X0283305Y0083143D01*
X0283457Y0082851D01*
X0283601Y0082556D01*
X0283738Y0082258D01*
X0283867Y0081956D01*
X0283989Y0081651D01*
X0284104Y0081343D01*
X0284210Y0081032D01*
X0284310Y0080719D01*
X0284401Y0080403D01*
X0284485Y0080086D01*
X0284561Y0079766D01*
X0284629Y0079444D01*
X0284689Y0079121D01*
X0284741Y0078797D01*
X0284785Y0078472D01*
X0284822Y0078145D01*
X0284850Y0077818D01*
X0284870Y0077490D01*
X0284882Y0077162D01*
X0284886Y0076833D01*
X0284882Y0076504D01*
X0284870Y0076176D01*
X0284850Y0075848D01*
X0284822Y0075521D01*
X0284785Y0075194D01*
X0284741Y0074869D01*
X0284689Y0074545D01*
X0284629Y0074222D01*
X0284561Y0073900D01*
X0284485Y0073580D01*
X0284401Y0073263D01*
X0284310Y0072947D01*
X0284210Y0072634D01*
X0284104Y0072323D01*
X0283989Y0072015D01*
X0283867Y0071710D01*
X0283738Y0071408D01*
X0283601Y0071110D01*
X0283457Y0070815D01*
X0283305Y0070523D01*
X0283147Y0070235D01*
X0282982Y0069951D01*
X0282809Y0069672D01*
X0282630Y0069396D01*
X0282444Y0069125D01*
X0282252Y0068859D01*
X0282053Y0068598D01*
X0281848Y0068341D01*
X0281636Y0068090D01*
X0281418Y0067844D01*
X0281195Y0067603D01*
X0280965Y0067368D01*
X0280730Y0067138D01*
X0280489Y0066915D01*
X0280243Y0066697D01*
X0279992Y0066485D01*
X0279735Y0066280D01*
X0279474Y0066081D01*
X0279208Y0065889D01*
X0278937Y0065703D01*
X0278661Y0065524D01*
X0278382Y0065351D01*
X0278098Y0065186D01*
X0277810Y0065028D01*
X0277518Y0064876D01*
X0277223Y0064732D01*
X0276925Y0064595D01*
X0276623Y0064466D01*
X0276318Y0064344D01*
X0276010Y0064229D01*
X0275699Y0064123D01*
X0275386Y0064023D01*
X0275070Y0063932D01*
X0274753Y0063848D01*
X0274433Y0063772D01*
X0274111Y0063704D01*
X0273788Y0063644D01*
X0273464Y0063592D01*
X0273139Y0063548D01*
X0272812Y0063511D01*
X0272485Y0063483D01*
X0272157Y0063463D01*
X0271829Y0063451D01*
X0271500Y0063447D01*
X0271171Y0063451D01*
X0270843Y0063463D01*
X0270515Y0063483D01*
X0270188Y0063511D01*
X0269861Y0063548D01*
X0269536Y0063592D01*
X0269212Y0063644D01*
X0268889Y0063704D01*
X0268567Y0063772D01*
X0268247Y0063848D01*
X0267930Y0063932D01*
X0267614Y0064023D01*
X0267301Y0064123D01*
X0266990Y0064229D01*
X0266682Y0064344D01*
X0266377Y0064466D01*
X0266075Y0064595D01*
X0265777Y0064732D01*
X0265482Y0064876D01*
X0265190Y0065028D01*
X0264902Y0065186D01*
X0264618Y0065351D01*
X0264339Y0065524D01*
X0264063Y0065703D01*
X0263792Y0065889D01*
X0263526Y0066081D01*
X0263265Y0066280D01*
X0263008Y0066485D01*
X0262757Y0066697D01*
X0262511Y0066915D01*
X0262270Y0067138D01*
X0262035Y0067368D01*
X0261805Y0067603D01*
X0261582Y0067844D01*
X0261364Y0068090D01*
X0261152Y0068341D01*
X0260947Y0068598D01*
X0260748Y0068859D01*
X0260556Y0069125D01*
X0260370Y0069396D01*
X0260191Y0069672D01*
X0260018Y0069951D01*
X0259853Y0070235D01*
X0259695Y0070523D01*
X0259543Y0070815D01*
X0259399Y0071110D01*
X0259262Y0071408D01*
X0259133Y0071710D01*
X0259011Y0072015D01*
X0258896Y0072323D01*
X0258790Y0072634D01*
X0258690Y0072947D01*
X0258599Y0073263D01*
X0258515Y0073580D01*
X0258439Y0073900D01*
X0258371Y0074222D01*
X0258311Y0074545D01*
X0258259Y0074869D01*
X0258215Y0075194D01*
X0258178Y0075521D01*
X0258150Y0075848D01*
X0258130Y0076176D01*
X0258118Y0076504D01*
X0258114Y0076833D01*
X0323697Y0087424D02*
X0331965Y0087424D01*
X0323697Y0087424D02*
X0323697Y0097660D01*
X0346138Y0087424D02*
X0350862Y0087424D01*
X0365035Y0087424D02*
X0373303Y0087424D01*
X0373303Y0097660D01*
X0379039Y0098365D02*
X0383961Y0098365D01*
X0383961Y0101790D02*
X0383961Y0108877D01*
X0379039Y0108877D02*
X0379039Y0101790D01*
X0373303Y0126007D02*
X0373303Y0136243D01*
X0365035Y0136243D01*
X0350862Y0136243D02*
X0346138Y0136243D01*
X0331965Y0136243D02*
X0323697Y0136243D01*
X0323697Y0126007D01*
X0258114Y0178833D02*
X0258118Y0179162D01*
X0258130Y0179490D01*
X0258150Y0179818D01*
X0258178Y0180145D01*
X0258215Y0180472D01*
X0258259Y0180797D01*
X0258311Y0181121D01*
X0258371Y0181444D01*
X0258439Y0181766D01*
X0258515Y0182086D01*
X0258599Y0182403D01*
X0258690Y0182719D01*
X0258790Y0183032D01*
X0258896Y0183343D01*
X0259011Y0183651D01*
X0259133Y0183956D01*
X0259262Y0184258D01*
X0259399Y0184556D01*
X0259543Y0184851D01*
X0259695Y0185143D01*
X0259853Y0185431D01*
X0260018Y0185715D01*
X0260191Y0185994D01*
X0260370Y0186270D01*
X0260556Y0186541D01*
X0260748Y0186807D01*
X0260947Y0187068D01*
X0261152Y0187325D01*
X0261364Y0187576D01*
X0261582Y0187822D01*
X0261805Y0188063D01*
X0262035Y0188298D01*
X0262270Y0188528D01*
X0262511Y0188751D01*
X0262757Y0188969D01*
X0263008Y0189181D01*
X0263265Y0189386D01*
X0263526Y0189585D01*
X0263792Y0189777D01*
X0264063Y0189963D01*
X0264339Y0190142D01*
X0264618Y0190315D01*
X0264902Y0190480D01*
X0265190Y0190638D01*
X0265482Y0190790D01*
X0265777Y0190934D01*
X0266075Y0191071D01*
X0266377Y0191200D01*
X0266682Y0191322D01*
X0266990Y0191437D01*
X0267301Y0191543D01*
X0267614Y0191643D01*
X0267930Y0191734D01*
X0268247Y0191818D01*
X0268567Y0191894D01*
X0268889Y0191962D01*
X0269212Y0192022D01*
X0269536Y0192074D01*
X0269861Y0192118D01*
X0270188Y0192155D01*
X0270515Y0192183D01*
X0270843Y0192203D01*
X0271171Y0192215D01*
X0271500Y0192219D01*
X0271829Y0192215D01*
X0272157Y0192203D01*
X0272485Y0192183D01*
X0272812Y0192155D01*
X0273139Y0192118D01*
X0273464Y0192074D01*
X0273788Y0192022D01*
X0274111Y0191962D01*
X0274433Y0191894D01*
X0274753Y0191818D01*
X0275070Y0191734D01*
X0275386Y0191643D01*
X0275699Y0191543D01*
X0276010Y0191437D01*
X0276318Y0191322D01*
X0276623Y0191200D01*
X0276925Y0191071D01*
X0277223Y0190934D01*
X0277518Y0190790D01*
X0277810Y0190638D01*
X0278098Y0190480D01*
X0278382Y0190315D01*
X0278661Y0190142D01*
X0278937Y0189963D01*
X0279208Y0189777D01*
X0279474Y0189585D01*
X0279735Y0189386D01*
X0279992Y0189181D01*
X0280243Y0188969D01*
X0280489Y0188751D01*
X0280730Y0188528D01*
X0280965Y0188298D01*
X0281195Y0188063D01*
X0281418Y0187822D01*
X0281636Y0187576D01*
X0281848Y0187325D01*
X0282053Y0187068D01*
X0282252Y0186807D01*
X0282444Y0186541D01*
X0282630Y0186270D01*
X0282809Y0185994D01*
X0282982Y0185715D01*
X0283147Y0185431D01*
X0283305Y0185143D01*
X0283457Y0184851D01*
X0283601Y0184556D01*
X0283738Y0184258D01*
X0283867Y0183956D01*
X0283989Y0183651D01*
X0284104Y0183343D01*
X0284210Y0183032D01*
X0284310Y0182719D01*
X0284401Y0182403D01*
X0284485Y0182086D01*
X0284561Y0181766D01*
X0284629Y0181444D01*
X0284689Y0181121D01*
X0284741Y0180797D01*
X0284785Y0180472D01*
X0284822Y0180145D01*
X0284850Y0179818D01*
X0284870Y0179490D01*
X0284882Y0179162D01*
X0284886Y0178833D01*
X0284882Y0178504D01*
X0284870Y0178176D01*
X0284850Y0177848D01*
X0284822Y0177521D01*
X0284785Y0177194D01*
X0284741Y0176869D01*
X0284689Y0176545D01*
X0284629Y0176222D01*
X0284561Y0175900D01*
X0284485Y0175580D01*
X0284401Y0175263D01*
X0284310Y0174947D01*
X0284210Y0174634D01*
X0284104Y0174323D01*
X0283989Y0174015D01*
X0283867Y0173710D01*
X0283738Y0173408D01*
X0283601Y0173110D01*
X0283457Y0172815D01*
X0283305Y0172523D01*
X0283147Y0172235D01*
X0282982Y0171951D01*
X0282809Y0171672D01*
X0282630Y0171396D01*
X0282444Y0171125D01*
X0282252Y0170859D01*
X0282053Y0170598D01*
X0281848Y0170341D01*
X0281636Y0170090D01*
X0281418Y0169844D01*
X0281195Y0169603D01*
X0280965Y0169368D01*
X0280730Y0169138D01*
X0280489Y0168915D01*
X0280243Y0168697D01*
X0279992Y0168485D01*
X0279735Y0168280D01*
X0279474Y0168081D01*
X0279208Y0167889D01*
X0278937Y0167703D01*
X0278661Y0167524D01*
X0278382Y0167351D01*
X0278098Y0167186D01*
X0277810Y0167028D01*
X0277518Y0166876D01*
X0277223Y0166732D01*
X0276925Y0166595D01*
X0276623Y0166466D01*
X0276318Y0166344D01*
X0276010Y0166229D01*
X0275699Y0166123D01*
X0275386Y0166023D01*
X0275070Y0165932D01*
X0274753Y0165848D01*
X0274433Y0165772D01*
X0274111Y0165704D01*
X0273788Y0165644D01*
X0273464Y0165592D01*
X0273139Y0165548D01*
X0272812Y0165511D01*
X0272485Y0165483D01*
X0272157Y0165463D01*
X0271829Y0165451D01*
X0271500Y0165447D01*
X0271171Y0165451D01*
X0270843Y0165463D01*
X0270515Y0165483D01*
X0270188Y0165511D01*
X0269861Y0165548D01*
X0269536Y0165592D01*
X0269212Y0165644D01*
X0268889Y0165704D01*
X0268567Y0165772D01*
X0268247Y0165848D01*
X0267930Y0165932D01*
X0267614Y0166023D01*
X0267301Y0166123D01*
X0266990Y0166229D01*
X0266682Y0166344D01*
X0266377Y0166466D01*
X0266075Y0166595D01*
X0265777Y0166732D01*
X0265482Y0166876D01*
X0265190Y0167028D01*
X0264902Y0167186D01*
X0264618Y0167351D01*
X0264339Y0167524D01*
X0264063Y0167703D01*
X0263792Y0167889D01*
X0263526Y0168081D01*
X0263265Y0168280D01*
X0263008Y0168485D01*
X0262757Y0168697D01*
X0262511Y0168915D01*
X0262270Y0169138D01*
X0262035Y0169368D01*
X0261805Y0169603D01*
X0261582Y0169844D01*
X0261364Y0170090D01*
X0261152Y0170341D01*
X0260947Y0170598D01*
X0260748Y0170859D01*
X0260556Y0171125D01*
X0260370Y0171396D01*
X0260191Y0171672D01*
X0260018Y0171951D01*
X0259853Y0172235D01*
X0259695Y0172523D01*
X0259543Y0172815D01*
X0259399Y0173110D01*
X0259262Y0173408D01*
X0259133Y0173710D01*
X0259011Y0174015D01*
X0258896Y0174323D01*
X0258790Y0174634D01*
X0258690Y0174947D01*
X0258599Y0175263D01*
X0258515Y0175580D01*
X0258439Y0175900D01*
X0258371Y0176222D01*
X0258311Y0176545D01*
X0258259Y0176869D01*
X0258215Y0177194D01*
X0258178Y0177521D01*
X0258150Y0177848D01*
X0258130Y0178176D01*
X0258118Y0178504D01*
X0258114Y0178833D01*
X0251303Y0189424D02*
X0243035Y0189424D01*
X0251303Y0189424D02*
X0251303Y0199660D01*
X0257039Y0200365D02*
X0261961Y0200365D01*
X0261961Y0203790D02*
X0261961Y0210877D01*
X0257039Y0210877D02*
X0257039Y0203790D01*
X0251303Y0228007D02*
X0251303Y0238243D01*
X0243035Y0238243D01*
X0228862Y0238243D02*
X0224138Y0238243D01*
X0209965Y0238243D02*
X0201697Y0238243D01*
X0201697Y0228007D01*
X0201697Y0199660D02*
X0201697Y0189424D01*
X0209965Y0189424D01*
X0224138Y0189424D02*
X0228862Y0189424D01*
X0323697Y0189424D02*
X0331965Y0189424D01*
X0323697Y0189424D02*
X0323697Y0199660D01*
X0346138Y0189424D02*
X0350862Y0189424D01*
X0365035Y0189424D02*
X0373303Y0189424D01*
X0373303Y0199660D01*
X0379039Y0200365D02*
X0383961Y0200365D01*
X0383961Y0203790D02*
X0383961Y0210877D01*
X0379039Y0210877D02*
X0379039Y0203790D01*
X0373303Y0228007D02*
X0373303Y0238243D01*
X0365035Y0238243D01*
X0350862Y0238243D02*
X0346138Y0238243D01*
X0331965Y0238243D02*
X0323697Y0238243D01*
X0323697Y0228007D01*
X0258114Y0280833D02*
X0258118Y0281162D01*
X0258130Y0281490D01*
X0258150Y0281818D01*
X0258178Y0282145D01*
X0258215Y0282472D01*
X0258259Y0282797D01*
X0258311Y0283121D01*
X0258371Y0283444D01*
X0258439Y0283766D01*
X0258515Y0284086D01*
X0258599Y0284403D01*
X0258690Y0284719D01*
X0258790Y0285032D01*
X0258896Y0285343D01*
X0259011Y0285651D01*
X0259133Y0285956D01*
X0259262Y0286258D01*
X0259399Y0286556D01*
X0259543Y0286851D01*
X0259695Y0287143D01*
X0259853Y0287431D01*
X0260018Y0287715D01*
X0260191Y0287994D01*
X0260370Y0288270D01*
X0260556Y0288541D01*
X0260748Y0288807D01*
X0260947Y0289068D01*
X0261152Y0289325D01*
X0261364Y0289576D01*
X0261582Y0289822D01*
X0261805Y0290063D01*
X0262035Y0290298D01*
X0262270Y0290528D01*
X0262511Y0290751D01*
X0262757Y0290969D01*
X0263008Y0291181D01*
X0263265Y0291386D01*
X0263526Y0291585D01*
X0263792Y0291777D01*
X0264063Y0291963D01*
X0264339Y0292142D01*
X0264618Y0292315D01*
X0264902Y0292480D01*
X0265190Y0292638D01*
X0265482Y0292790D01*
X0265777Y0292934D01*
X0266075Y0293071D01*
X0266377Y0293200D01*
X0266682Y0293322D01*
X0266990Y0293437D01*
X0267301Y0293543D01*
X0267614Y0293643D01*
X0267930Y0293734D01*
X0268247Y0293818D01*
X0268567Y0293894D01*
X0268889Y0293962D01*
X0269212Y0294022D01*
X0269536Y0294074D01*
X0269861Y0294118D01*
X0270188Y0294155D01*
X0270515Y0294183D01*
X0270843Y0294203D01*
X0271171Y0294215D01*
X0271500Y0294219D01*
X0271829Y0294215D01*
X0272157Y0294203D01*
X0272485Y0294183D01*
X0272812Y0294155D01*
X0273139Y0294118D01*
X0273464Y0294074D01*
X0273788Y0294022D01*
X0274111Y0293962D01*
X0274433Y0293894D01*
X0274753Y0293818D01*
X0275070Y0293734D01*
X0275386Y0293643D01*
X0275699Y0293543D01*
X0276010Y0293437D01*
X0276318Y0293322D01*
X0276623Y0293200D01*
X0276925Y0293071D01*
X0277223Y0292934D01*
X0277518Y0292790D01*
X0277810Y0292638D01*
X0278098Y0292480D01*
X0278382Y0292315D01*
X0278661Y0292142D01*
X0278937Y0291963D01*
X0279208Y0291777D01*
X0279474Y0291585D01*
X0279735Y0291386D01*
X0279992Y0291181D01*
X0280243Y0290969D01*
X0280489Y0290751D01*
X0280730Y0290528D01*
X0280965Y0290298D01*
X0281195Y0290063D01*
X0281418Y0289822D01*
X0281636Y0289576D01*
X0281848Y0289325D01*
X0282053Y0289068D01*
X0282252Y0288807D01*
X0282444Y0288541D01*
X0282630Y0288270D01*
X0282809Y0287994D01*
X0282982Y0287715D01*
X0283147Y0287431D01*
X0283305Y0287143D01*
X0283457Y0286851D01*
X0283601Y0286556D01*
X0283738Y0286258D01*
X0283867Y0285956D01*
X0283989Y0285651D01*
X0284104Y0285343D01*
X0284210Y0285032D01*
X0284310Y0284719D01*
X0284401Y0284403D01*
X0284485Y0284086D01*
X0284561Y0283766D01*
X0284629Y0283444D01*
X0284689Y0283121D01*
X0284741Y0282797D01*
X0284785Y0282472D01*
X0284822Y0282145D01*
X0284850Y0281818D01*
X0284870Y0281490D01*
X0284882Y0281162D01*
X0284886Y0280833D01*
X0284882Y0280504D01*
X0284870Y0280176D01*
X0284850Y0279848D01*
X0284822Y0279521D01*
X0284785Y0279194D01*
X0284741Y0278869D01*
X0284689Y0278545D01*
X0284629Y0278222D01*
X0284561Y0277900D01*
X0284485Y0277580D01*
X0284401Y0277263D01*
X0284310Y0276947D01*
X0284210Y0276634D01*
X0284104Y0276323D01*
X0283989Y0276015D01*
X0283867Y0275710D01*
X0283738Y0275408D01*
X0283601Y0275110D01*
X0283457Y0274815D01*
X0283305Y0274523D01*
X0283147Y0274235D01*
X0282982Y0273951D01*
X0282809Y0273672D01*
X0282630Y0273396D01*
X0282444Y0273125D01*
X0282252Y0272859D01*
X0282053Y0272598D01*
X0281848Y0272341D01*
X0281636Y0272090D01*
X0281418Y0271844D01*
X0281195Y0271603D01*
X0280965Y0271368D01*
X0280730Y0271138D01*
X0280489Y0270915D01*
X0280243Y0270697D01*
X0279992Y0270485D01*
X0279735Y0270280D01*
X0279474Y0270081D01*
X0279208Y0269889D01*
X0278937Y0269703D01*
X0278661Y0269524D01*
X0278382Y0269351D01*
X0278098Y0269186D01*
X0277810Y0269028D01*
X0277518Y0268876D01*
X0277223Y0268732D01*
X0276925Y0268595D01*
X0276623Y0268466D01*
X0276318Y0268344D01*
X0276010Y0268229D01*
X0275699Y0268123D01*
X0275386Y0268023D01*
X0275070Y0267932D01*
X0274753Y0267848D01*
X0274433Y0267772D01*
X0274111Y0267704D01*
X0273788Y0267644D01*
X0273464Y0267592D01*
X0273139Y0267548D01*
X0272812Y0267511D01*
X0272485Y0267483D01*
X0272157Y0267463D01*
X0271829Y0267451D01*
X0271500Y0267447D01*
X0271171Y0267451D01*
X0270843Y0267463D01*
X0270515Y0267483D01*
X0270188Y0267511D01*
X0269861Y0267548D01*
X0269536Y0267592D01*
X0269212Y0267644D01*
X0268889Y0267704D01*
X0268567Y0267772D01*
X0268247Y0267848D01*
X0267930Y0267932D01*
X0267614Y0268023D01*
X0267301Y0268123D01*
X0266990Y0268229D01*
X0266682Y0268344D01*
X0266377Y0268466D01*
X0266075Y0268595D01*
X0265777Y0268732D01*
X0265482Y0268876D01*
X0265190Y0269028D01*
X0264902Y0269186D01*
X0264618Y0269351D01*
X0264339Y0269524D01*
X0264063Y0269703D01*
X0263792Y0269889D01*
X0263526Y0270081D01*
X0263265Y0270280D01*
X0263008Y0270485D01*
X0262757Y0270697D01*
X0262511Y0270915D01*
X0262270Y0271138D01*
X0262035Y0271368D01*
X0261805Y0271603D01*
X0261582Y0271844D01*
X0261364Y0272090D01*
X0261152Y0272341D01*
X0260947Y0272598D01*
X0260748Y0272859D01*
X0260556Y0273125D01*
X0260370Y0273396D01*
X0260191Y0273672D01*
X0260018Y0273951D01*
X0259853Y0274235D01*
X0259695Y0274523D01*
X0259543Y0274815D01*
X0259399Y0275110D01*
X0259262Y0275408D01*
X0259133Y0275710D01*
X0259011Y0276015D01*
X0258896Y0276323D01*
X0258790Y0276634D01*
X0258690Y0276947D01*
X0258599Y0277263D01*
X0258515Y0277580D01*
X0258439Y0277900D01*
X0258371Y0278222D01*
X0258311Y0278545D01*
X0258259Y0278869D01*
X0258215Y0279194D01*
X0258178Y0279521D01*
X0258150Y0279848D01*
X0258130Y0280176D01*
X0258118Y0280504D01*
X0258114Y0280833D01*
X0251303Y0291424D02*
X0243035Y0291424D01*
X0251303Y0291424D02*
X0251303Y0301660D01*
X0257039Y0302365D02*
X0261961Y0302365D01*
X0261961Y0305790D02*
X0261961Y0312877D01*
X0257039Y0312877D02*
X0257039Y0305790D01*
X0228862Y0291424D02*
X0224138Y0291424D01*
X0209965Y0291424D02*
X0201697Y0291424D01*
X0201697Y0301660D01*
X0201697Y0330007D02*
X0201697Y0340243D01*
X0209965Y0340243D01*
X0224138Y0340243D02*
X0228862Y0340243D01*
X0243035Y0340243D02*
X0251303Y0340243D01*
X0251303Y0330007D01*
X0323697Y0330007D02*
X0323697Y0340243D01*
X0331965Y0340243D01*
X0346138Y0340243D02*
X0350862Y0340243D01*
X0365035Y0340243D02*
X0373303Y0340243D01*
X0373303Y0330007D01*
X0379039Y0312877D02*
X0379039Y0305790D01*
X0379039Y0302365D02*
X0383961Y0302365D01*
X0383961Y0305790D02*
X0383961Y0312877D01*
X0373303Y0301660D02*
X0373303Y0291424D01*
X0365035Y0291424D01*
X0350862Y0291424D02*
X0346138Y0291424D01*
X0331965Y0291424D02*
X0323697Y0291424D01*
X0323697Y0301660D01*
X0380114Y0280833D02*
X0380118Y0281162D01*
X0380130Y0281490D01*
X0380150Y0281818D01*
X0380178Y0282145D01*
X0380215Y0282472D01*
X0380259Y0282797D01*
X0380311Y0283121D01*
X0380371Y0283444D01*
X0380439Y0283766D01*
X0380515Y0284086D01*
X0380599Y0284403D01*
X0380690Y0284719D01*
X0380790Y0285032D01*
X0380896Y0285343D01*
X0381011Y0285651D01*
X0381133Y0285956D01*
X0381262Y0286258D01*
X0381399Y0286556D01*
X0381543Y0286851D01*
X0381695Y0287143D01*
X0381853Y0287431D01*
X0382018Y0287715D01*
X0382191Y0287994D01*
X0382370Y0288270D01*
X0382556Y0288541D01*
X0382748Y0288807D01*
X0382947Y0289068D01*
X0383152Y0289325D01*
X0383364Y0289576D01*
X0383582Y0289822D01*
X0383805Y0290063D01*
X0384035Y0290298D01*
X0384270Y0290528D01*
X0384511Y0290751D01*
X0384757Y0290969D01*
X0385008Y0291181D01*
X0385265Y0291386D01*
X0385526Y0291585D01*
X0385792Y0291777D01*
X0386063Y0291963D01*
X0386339Y0292142D01*
X0386618Y0292315D01*
X0386902Y0292480D01*
X0387190Y0292638D01*
X0387482Y0292790D01*
X0387777Y0292934D01*
X0388075Y0293071D01*
X0388377Y0293200D01*
X0388682Y0293322D01*
X0388990Y0293437D01*
X0389301Y0293543D01*
X0389614Y0293643D01*
X0389930Y0293734D01*
X0390247Y0293818D01*
X0390567Y0293894D01*
X0390889Y0293962D01*
X0391212Y0294022D01*
X0391536Y0294074D01*
X0391861Y0294118D01*
X0392188Y0294155D01*
X0392515Y0294183D01*
X0392843Y0294203D01*
X0393171Y0294215D01*
X0393500Y0294219D01*
X0393829Y0294215D01*
X0394157Y0294203D01*
X0394485Y0294183D01*
X0394812Y0294155D01*
X0395139Y0294118D01*
X0395464Y0294074D01*
X0395788Y0294022D01*
X0396111Y0293962D01*
X0396433Y0293894D01*
X0396753Y0293818D01*
X0397070Y0293734D01*
X0397386Y0293643D01*
X0397699Y0293543D01*
X0398010Y0293437D01*
X0398318Y0293322D01*
X0398623Y0293200D01*
X0398925Y0293071D01*
X0399223Y0292934D01*
X0399518Y0292790D01*
X0399810Y0292638D01*
X0400098Y0292480D01*
X0400382Y0292315D01*
X0400661Y0292142D01*
X0400937Y0291963D01*
X0401208Y0291777D01*
X0401474Y0291585D01*
X0401735Y0291386D01*
X0401992Y0291181D01*
X0402243Y0290969D01*
X0402489Y0290751D01*
X0402730Y0290528D01*
X0402965Y0290298D01*
X0403195Y0290063D01*
X0403418Y0289822D01*
X0403636Y0289576D01*
X0403848Y0289325D01*
X0404053Y0289068D01*
X0404252Y0288807D01*
X0404444Y0288541D01*
X0404630Y0288270D01*
X0404809Y0287994D01*
X0404982Y0287715D01*
X0405147Y0287431D01*
X0405305Y0287143D01*
X0405457Y0286851D01*
X0405601Y0286556D01*
X0405738Y0286258D01*
X0405867Y0285956D01*
X0405989Y0285651D01*
X0406104Y0285343D01*
X0406210Y0285032D01*
X0406310Y0284719D01*
X0406401Y0284403D01*
X0406485Y0284086D01*
X0406561Y0283766D01*
X0406629Y0283444D01*
X0406689Y0283121D01*
X0406741Y0282797D01*
X0406785Y0282472D01*
X0406822Y0282145D01*
X0406850Y0281818D01*
X0406870Y0281490D01*
X0406882Y0281162D01*
X0406886Y0280833D01*
X0406882Y0280504D01*
X0406870Y0280176D01*
X0406850Y0279848D01*
X0406822Y0279521D01*
X0406785Y0279194D01*
X0406741Y0278869D01*
X0406689Y0278545D01*
X0406629Y0278222D01*
X0406561Y0277900D01*
X0406485Y0277580D01*
X0406401Y0277263D01*
X0406310Y0276947D01*
X0406210Y0276634D01*
X0406104Y0276323D01*
X0405989Y0276015D01*
X0405867Y0275710D01*
X0405738Y0275408D01*
X0405601Y0275110D01*
X0405457Y0274815D01*
X0405305Y0274523D01*
X0405147Y0274235D01*
X0404982Y0273951D01*
X0404809Y0273672D01*
X0404630Y0273396D01*
X0404444Y0273125D01*
X0404252Y0272859D01*
X0404053Y0272598D01*
X0403848Y0272341D01*
X0403636Y0272090D01*
X0403418Y0271844D01*
X0403195Y0271603D01*
X0402965Y0271368D01*
X0402730Y0271138D01*
X0402489Y0270915D01*
X0402243Y0270697D01*
X0401992Y0270485D01*
X0401735Y0270280D01*
X0401474Y0270081D01*
X0401208Y0269889D01*
X0400937Y0269703D01*
X0400661Y0269524D01*
X0400382Y0269351D01*
X0400098Y0269186D01*
X0399810Y0269028D01*
X0399518Y0268876D01*
X0399223Y0268732D01*
X0398925Y0268595D01*
X0398623Y0268466D01*
X0398318Y0268344D01*
X0398010Y0268229D01*
X0397699Y0268123D01*
X0397386Y0268023D01*
X0397070Y0267932D01*
X0396753Y0267848D01*
X0396433Y0267772D01*
X0396111Y0267704D01*
X0395788Y0267644D01*
X0395464Y0267592D01*
X0395139Y0267548D01*
X0394812Y0267511D01*
X0394485Y0267483D01*
X0394157Y0267463D01*
X0393829Y0267451D01*
X0393500Y0267447D01*
X0393171Y0267451D01*
X0392843Y0267463D01*
X0392515Y0267483D01*
X0392188Y0267511D01*
X0391861Y0267548D01*
X0391536Y0267592D01*
X0391212Y0267644D01*
X0390889Y0267704D01*
X0390567Y0267772D01*
X0390247Y0267848D01*
X0389930Y0267932D01*
X0389614Y0268023D01*
X0389301Y0268123D01*
X0388990Y0268229D01*
X0388682Y0268344D01*
X0388377Y0268466D01*
X0388075Y0268595D01*
X0387777Y0268732D01*
X0387482Y0268876D01*
X0387190Y0269028D01*
X0386902Y0269186D01*
X0386618Y0269351D01*
X0386339Y0269524D01*
X0386063Y0269703D01*
X0385792Y0269889D01*
X0385526Y0270081D01*
X0385265Y0270280D01*
X0385008Y0270485D01*
X0384757Y0270697D01*
X0384511Y0270915D01*
X0384270Y0271138D01*
X0384035Y0271368D01*
X0383805Y0271603D01*
X0383582Y0271844D01*
X0383364Y0272090D01*
X0383152Y0272341D01*
X0382947Y0272598D01*
X0382748Y0272859D01*
X0382556Y0273125D01*
X0382370Y0273396D01*
X0382191Y0273672D01*
X0382018Y0273951D01*
X0381853Y0274235D01*
X0381695Y0274523D01*
X0381543Y0274815D01*
X0381399Y0275110D01*
X0381262Y0275408D01*
X0381133Y0275710D01*
X0381011Y0276015D01*
X0380896Y0276323D01*
X0380790Y0276634D01*
X0380690Y0276947D01*
X0380599Y0277263D01*
X0380515Y0277580D01*
X0380439Y0277900D01*
X0380371Y0278222D01*
X0380311Y0278545D01*
X0380259Y0278869D01*
X0380215Y0279194D01*
X0380178Y0279521D01*
X0380150Y0279848D01*
X0380130Y0280176D01*
X0380118Y0280504D01*
X0380114Y0280833D01*
X0380114Y0178833D02*
X0380118Y0179162D01*
X0380130Y0179490D01*
X0380150Y0179818D01*
X0380178Y0180145D01*
X0380215Y0180472D01*
X0380259Y0180797D01*
X0380311Y0181121D01*
X0380371Y0181444D01*
X0380439Y0181766D01*
X0380515Y0182086D01*
X0380599Y0182403D01*
X0380690Y0182719D01*
X0380790Y0183032D01*
X0380896Y0183343D01*
X0381011Y0183651D01*
X0381133Y0183956D01*
X0381262Y0184258D01*
X0381399Y0184556D01*
X0381543Y0184851D01*
X0381695Y0185143D01*
X0381853Y0185431D01*
X0382018Y0185715D01*
X0382191Y0185994D01*
X0382370Y0186270D01*
X0382556Y0186541D01*
X0382748Y0186807D01*
X0382947Y0187068D01*
X0383152Y0187325D01*
X0383364Y0187576D01*
X0383582Y0187822D01*
X0383805Y0188063D01*
X0384035Y0188298D01*
X0384270Y0188528D01*
X0384511Y0188751D01*
X0384757Y0188969D01*
X0385008Y0189181D01*
X0385265Y0189386D01*
X0385526Y0189585D01*
X0385792Y0189777D01*
X0386063Y0189963D01*
X0386339Y0190142D01*
X0386618Y0190315D01*
X0386902Y0190480D01*
X0387190Y0190638D01*
X0387482Y0190790D01*
X0387777Y0190934D01*
X0388075Y0191071D01*
X0388377Y0191200D01*
X0388682Y0191322D01*
X0388990Y0191437D01*
X0389301Y0191543D01*
X0389614Y0191643D01*
X0389930Y0191734D01*
X0390247Y0191818D01*
X0390567Y0191894D01*
X0390889Y0191962D01*
X0391212Y0192022D01*
X0391536Y0192074D01*
X0391861Y0192118D01*
X0392188Y0192155D01*
X0392515Y0192183D01*
X0392843Y0192203D01*
X0393171Y0192215D01*
X0393500Y0192219D01*
X0393829Y0192215D01*
X0394157Y0192203D01*
X0394485Y0192183D01*
X0394812Y0192155D01*
X0395139Y0192118D01*
X0395464Y0192074D01*
X0395788Y0192022D01*
X0396111Y0191962D01*
X0396433Y0191894D01*
X0396753Y0191818D01*
X0397070Y0191734D01*
X0397386Y0191643D01*
X0397699Y0191543D01*
X0398010Y0191437D01*
X0398318Y0191322D01*
X0398623Y0191200D01*
X0398925Y0191071D01*
X0399223Y0190934D01*
X0399518Y0190790D01*
X0399810Y0190638D01*
X0400098Y0190480D01*
X0400382Y0190315D01*
X0400661Y0190142D01*
X0400937Y0189963D01*
X0401208Y0189777D01*
X0401474Y0189585D01*
X0401735Y0189386D01*
X0401992Y0189181D01*
X0402243Y0188969D01*
X0402489Y0188751D01*
X0402730Y0188528D01*
X0402965Y0188298D01*
X0403195Y0188063D01*
X0403418Y0187822D01*
X0403636Y0187576D01*
X0403848Y0187325D01*
X0404053Y0187068D01*
X0404252Y0186807D01*
X0404444Y0186541D01*
X0404630Y0186270D01*
X0404809Y0185994D01*
X0404982Y0185715D01*
X0405147Y0185431D01*
X0405305Y0185143D01*
X0405457Y0184851D01*
X0405601Y0184556D01*
X0405738Y0184258D01*
X0405867Y0183956D01*
X0405989Y0183651D01*
X0406104Y0183343D01*
X0406210Y0183032D01*
X0406310Y0182719D01*
X0406401Y0182403D01*
X0406485Y0182086D01*
X0406561Y0181766D01*
X0406629Y0181444D01*
X0406689Y0181121D01*
X0406741Y0180797D01*
X0406785Y0180472D01*
X0406822Y0180145D01*
X0406850Y0179818D01*
X0406870Y0179490D01*
X0406882Y0179162D01*
X0406886Y0178833D01*
X0406882Y0178504D01*
X0406870Y0178176D01*
X0406850Y0177848D01*
X0406822Y0177521D01*
X0406785Y0177194D01*
X0406741Y0176869D01*
X0406689Y0176545D01*
X0406629Y0176222D01*
X0406561Y0175900D01*
X0406485Y0175580D01*
X0406401Y0175263D01*
X0406310Y0174947D01*
X0406210Y0174634D01*
X0406104Y0174323D01*
X0405989Y0174015D01*
X0405867Y0173710D01*
X0405738Y0173408D01*
X0405601Y0173110D01*
X0405457Y0172815D01*
X0405305Y0172523D01*
X0405147Y0172235D01*
X0404982Y0171951D01*
X0404809Y0171672D01*
X0404630Y0171396D01*
X0404444Y0171125D01*
X0404252Y0170859D01*
X0404053Y0170598D01*
X0403848Y0170341D01*
X0403636Y0170090D01*
X0403418Y0169844D01*
X0403195Y0169603D01*
X0402965Y0169368D01*
X0402730Y0169138D01*
X0402489Y0168915D01*
X0402243Y0168697D01*
X0401992Y0168485D01*
X0401735Y0168280D01*
X0401474Y0168081D01*
X0401208Y0167889D01*
X0400937Y0167703D01*
X0400661Y0167524D01*
X0400382Y0167351D01*
X0400098Y0167186D01*
X0399810Y0167028D01*
X0399518Y0166876D01*
X0399223Y0166732D01*
X0398925Y0166595D01*
X0398623Y0166466D01*
X0398318Y0166344D01*
X0398010Y0166229D01*
X0397699Y0166123D01*
X0397386Y0166023D01*
X0397070Y0165932D01*
X0396753Y0165848D01*
X0396433Y0165772D01*
X0396111Y0165704D01*
X0395788Y0165644D01*
X0395464Y0165592D01*
X0395139Y0165548D01*
X0394812Y0165511D01*
X0394485Y0165483D01*
X0394157Y0165463D01*
X0393829Y0165451D01*
X0393500Y0165447D01*
X0393171Y0165451D01*
X0392843Y0165463D01*
X0392515Y0165483D01*
X0392188Y0165511D01*
X0391861Y0165548D01*
X0391536Y0165592D01*
X0391212Y0165644D01*
X0390889Y0165704D01*
X0390567Y0165772D01*
X0390247Y0165848D01*
X0389930Y0165932D01*
X0389614Y0166023D01*
X0389301Y0166123D01*
X0388990Y0166229D01*
X0388682Y0166344D01*
X0388377Y0166466D01*
X0388075Y0166595D01*
X0387777Y0166732D01*
X0387482Y0166876D01*
X0387190Y0167028D01*
X0386902Y0167186D01*
X0386618Y0167351D01*
X0386339Y0167524D01*
X0386063Y0167703D01*
X0385792Y0167889D01*
X0385526Y0168081D01*
X0385265Y0168280D01*
X0385008Y0168485D01*
X0384757Y0168697D01*
X0384511Y0168915D01*
X0384270Y0169138D01*
X0384035Y0169368D01*
X0383805Y0169603D01*
X0383582Y0169844D01*
X0383364Y0170090D01*
X0383152Y0170341D01*
X0382947Y0170598D01*
X0382748Y0170859D01*
X0382556Y0171125D01*
X0382370Y0171396D01*
X0382191Y0171672D01*
X0382018Y0171951D01*
X0381853Y0172235D01*
X0381695Y0172523D01*
X0381543Y0172815D01*
X0381399Y0173110D01*
X0381262Y0173408D01*
X0381133Y0173710D01*
X0381011Y0174015D01*
X0380896Y0174323D01*
X0380790Y0174634D01*
X0380690Y0174947D01*
X0380599Y0175263D01*
X0380515Y0175580D01*
X0380439Y0175900D01*
X0380371Y0176222D01*
X0380311Y0176545D01*
X0380259Y0176869D01*
X0380215Y0177194D01*
X0380178Y0177521D01*
X0380150Y0177848D01*
X0380130Y0178176D01*
X0380118Y0178504D01*
X0380114Y0178833D01*
X0380114Y0076833D02*
X0380118Y0077162D01*
X0380130Y0077490D01*
X0380150Y0077818D01*
X0380178Y0078145D01*
X0380215Y0078472D01*
X0380259Y0078797D01*
X0380311Y0079121D01*
X0380371Y0079444D01*
X0380439Y0079766D01*
X0380515Y0080086D01*
X0380599Y0080403D01*
X0380690Y0080719D01*
X0380790Y0081032D01*
X0380896Y0081343D01*
X0381011Y0081651D01*
X0381133Y0081956D01*
X0381262Y0082258D01*
X0381399Y0082556D01*
X0381543Y0082851D01*
X0381695Y0083143D01*
X0381853Y0083431D01*
X0382018Y0083715D01*
X0382191Y0083994D01*
X0382370Y0084270D01*
X0382556Y0084541D01*
X0382748Y0084807D01*
X0382947Y0085068D01*
X0383152Y0085325D01*
X0383364Y0085576D01*
X0383582Y0085822D01*
X0383805Y0086063D01*
X0384035Y0086298D01*
X0384270Y0086528D01*
X0384511Y0086751D01*
X0384757Y0086969D01*
X0385008Y0087181D01*
X0385265Y0087386D01*
X0385526Y0087585D01*
X0385792Y0087777D01*
X0386063Y0087963D01*
X0386339Y0088142D01*
X0386618Y0088315D01*
X0386902Y0088480D01*
X0387190Y0088638D01*
X0387482Y0088790D01*
X0387777Y0088934D01*
X0388075Y0089071D01*
X0388377Y0089200D01*
X0388682Y0089322D01*
X0388990Y0089437D01*
X0389301Y0089543D01*
X0389614Y0089643D01*
X0389930Y0089734D01*
X0390247Y0089818D01*
X0390567Y0089894D01*
X0390889Y0089962D01*
X0391212Y0090022D01*
X0391536Y0090074D01*
X0391861Y0090118D01*
X0392188Y0090155D01*
X0392515Y0090183D01*
X0392843Y0090203D01*
X0393171Y0090215D01*
X0393500Y0090219D01*
X0393829Y0090215D01*
X0394157Y0090203D01*
X0394485Y0090183D01*
X0394812Y0090155D01*
X0395139Y0090118D01*
X0395464Y0090074D01*
X0395788Y0090022D01*
X0396111Y0089962D01*
X0396433Y0089894D01*
X0396753Y0089818D01*
X0397070Y0089734D01*
X0397386Y0089643D01*
X0397699Y0089543D01*
X0398010Y0089437D01*
X0398318Y0089322D01*
X0398623Y0089200D01*
X0398925Y0089071D01*
X0399223Y0088934D01*
X0399518Y0088790D01*
X0399810Y0088638D01*
X0400098Y0088480D01*
X0400382Y0088315D01*
X0400661Y0088142D01*
X0400937Y0087963D01*
X0401208Y0087777D01*
X0401474Y0087585D01*
X0401735Y0087386D01*
X0401992Y0087181D01*
X0402243Y0086969D01*
X0402489Y0086751D01*
X0402730Y0086528D01*
X0402965Y0086298D01*
X0403195Y0086063D01*
X0403418Y0085822D01*
X0403636Y0085576D01*
X0403848Y0085325D01*
X0404053Y0085068D01*
X0404252Y0084807D01*
X0404444Y0084541D01*
X0404630Y0084270D01*
X0404809Y0083994D01*
X0404982Y0083715D01*
X0405147Y0083431D01*
X0405305Y0083143D01*
X0405457Y0082851D01*
X0405601Y0082556D01*
X0405738Y0082258D01*
X0405867Y0081956D01*
X0405989Y0081651D01*
X0406104Y0081343D01*
X0406210Y0081032D01*
X0406310Y0080719D01*
X0406401Y0080403D01*
X0406485Y0080086D01*
X0406561Y0079766D01*
X0406629Y0079444D01*
X0406689Y0079121D01*
X0406741Y0078797D01*
X0406785Y0078472D01*
X0406822Y0078145D01*
X0406850Y0077818D01*
X0406870Y0077490D01*
X0406882Y0077162D01*
X0406886Y0076833D01*
X0406882Y0076504D01*
X0406870Y0076176D01*
X0406850Y0075848D01*
X0406822Y0075521D01*
X0406785Y0075194D01*
X0406741Y0074869D01*
X0406689Y0074545D01*
X0406629Y0074222D01*
X0406561Y0073900D01*
X0406485Y0073580D01*
X0406401Y0073263D01*
X0406310Y0072947D01*
X0406210Y0072634D01*
X0406104Y0072323D01*
X0405989Y0072015D01*
X0405867Y0071710D01*
X0405738Y0071408D01*
X0405601Y0071110D01*
X0405457Y0070815D01*
X0405305Y0070523D01*
X0405147Y0070235D01*
X0404982Y0069951D01*
X0404809Y0069672D01*
X0404630Y0069396D01*
X0404444Y0069125D01*
X0404252Y0068859D01*
X0404053Y0068598D01*
X0403848Y0068341D01*
X0403636Y0068090D01*
X0403418Y0067844D01*
X0403195Y0067603D01*
X0402965Y0067368D01*
X0402730Y0067138D01*
X0402489Y0066915D01*
X0402243Y0066697D01*
X0401992Y0066485D01*
X0401735Y0066280D01*
X0401474Y0066081D01*
X0401208Y0065889D01*
X0400937Y0065703D01*
X0400661Y0065524D01*
X0400382Y0065351D01*
X0400098Y0065186D01*
X0399810Y0065028D01*
X0399518Y0064876D01*
X0399223Y0064732D01*
X0398925Y0064595D01*
X0398623Y0064466D01*
X0398318Y0064344D01*
X0398010Y0064229D01*
X0397699Y0064123D01*
X0397386Y0064023D01*
X0397070Y0063932D01*
X0396753Y0063848D01*
X0396433Y0063772D01*
X0396111Y0063704D01*
X0395788Y0063644D01*
X0395464Y0063592D01*
X0395139Y0063548D01*
X0394812Y0063511D01*
X0394485Y0063483D01*
X0394157Y0063463D01*
X0393829Y0063451D01*
X0393500Y0063447D01*
X0393171Y0063451D01*
X0392843Y0063463D01*
X0392515Y0063483D01*
X0392188Y0063511D01*
X0391861Y0063548D01*
X0391536Y0063592D01*
X0391212Y0063644D01*
X0390889Y0063704D01*
X0390567Y0063772D01*
X0390247Y0063848D01*
X0389930Y0063932D01*
X0389614Y0064023D01*
X0389301Y0064123D01*
X0388990Y0064229D01*
X0388682Y0064344D01*
X0388377Y0064466D01*
X0388075Y0064595D01*
X0387777Y0064732D01*
X0387482Y0064876D01*
X0387190Y0065028D01*
X0386902Y0065186D01*
X0386618Y0065351D01*
X0386339Y0065524D01*
X0386063Y0065703D01*
X0385792Y0065889D01*
X0385526Y0066081D01*
X0385265Y0066280D01*
X0385008Y0066485D01*
X0384757Y0066697D01*
X0384511Y0066915D01*
X0384270Y0067138D01*
X0384035Y0067368D01*
X0383805Y0067603D01*
X0383582Y0067844D01*
X0383364Y0068090D01*
X0383152Y0068341D01*
X0382947Y0068598D01*
X0382748Y0068859D01*
X0382556Y0069125D01*
X0382370Y0069396D01*
X0382191Y0069672D01*
X0382018Y0069951D01*
X0381853Y0070235D01*
X0381695Y0070523D01*
X0381543Y0070815D01*
X0381399Y0071110D01*
X0381262Y0071408D01*
X0381133Y0071710D01*
X0381011Y0072015D01*
X0380896Y0072323D01*
X0380790Y0072634D01*
X0380690Y0072947D01*
X0380599Y0073263D01*
X0380515Y0073580D01*
X0380439Y0073900D01*
X0380371Y0074222D01*
X0380311Y0074545D01*
X0380259Y0074869D01*
X0380215Y0075194D01*
X0380178Y0075521D01*
X0380150Y0075848D01*
X0380130Y0076176D01*
X0380118Y0076504D01*
X0380114Y0076833D01*
X0136114Y0280833D02*
X0136118Y0281162D01*
X0136130Y0281490D01*
X0136150Y0281818D01*
X0136178Y0282145D01*
X0136215Y0282472D01*
X0136259Y0282797D01*
X0136311Y0283121D01*
X0136371Y0283444D01*
X0136439Y0283766D01*
X0136515Y0284086D01*
X0136599Y0284403D01*
X0136690Y0284719D01*
X0136790Y0285032D01*
X0136896Y0285343D01*
X0137011Y0285651D01*
X0137133Y0285956D01*
X0137262Y0286258D01*
X0137399Y0286556D01*
X0137543Y0286851D01*
X0137695Y0287143D01*
X0137853Y0287431D01*
X0138018Y0287715D01*
X0138191Y0287994D01*
X0138370Y0288270D01*
X0138556Y0288541D01*
X0138748Y0288807D01*
X0138947Y0289068D01*
X0139152Y0289325D01*
X0139364Y0289576D01*
X0139582Y0289822D01*
X0139805Y0290063D01*
X0140035Y0290298D01*
X0140270Y0290528D01*
X0140511Y0290751D01*
X0140757Y0290969D01*
X0141008Y0291181D01*
X0141265Y0291386D01*
X0141526Y0291585D01*
X0141792Y0291777D01*
X0142063Y0291963D01*
X0142339Y0292142D01*
X0142618Y0292315D01*
X0142902Y0292480D01*
X0143190Y0292638D01*
X0143482Y0292790D01*
X0143777Y0292934D01*
X0144075Y0293071D01*
X0144377Y0293200D01*
X0144682Y0293322D01*
X0144990Y0293437D01*
X0145301Y0293543D01*
X0145614Y0293643D01*
X0145930Y0293734D01*
X0146247Y0293818D01*
X0146567Y0293894D01*
X0146889Y0293962D01*
X0147212Y0294022D01*
X0147536Y0294074D01*
X0147861Y0294118D01*
X0148188Y0294155D01*
X0148515Y0294183D01*
X0148843Y0294203D01*
X0149171Y0294215D01*
X0149500Y0294219D01*
X0149829Y0294215D01*
X0150157Y0294203D01*
X0150485Y0294183D01*
X0150812Y0294155D01*
X0151139Y0294118D01*
X0151464Y0294074D01*
X0151788Y0294022D01*
X0152111Y0293962D01*
X0152433Y0293894D01*
X0152753Y0293818D01*
X0153070Y0293734D01*
X0153386Y0293643D01*
X0153699Y0293543D01*
X0154010Y0293437D01*
X0154318Y0293322D01*
X0154623Y0293200D01*
X0154925Y0293071D01*
X0155223Y0292934D01*
X0155518Y0292790D01*
X0155810Y0292638D01*
X0156098Y0292480D01*
X0156382Y0292315D01*
X0156661Y0292142D01*
X0156937Y0291963D01*
X0157208Y0291777D01*
X0157474Y0291585D01*
X0157735Y0291386D01*
X0157992Y0291181D01*
X0158243Y0290969D01*
X0158489Y0290751D01*
X0158730Y0290528D01*
X0158965Y0290298D01*
X0159195Y0290063D01*
X0159418Y0289822D01*
X0159636Y0289576D01*
X0159848Y0289325D01*
X0160053Y0289068D01*
X0160252Y0288807D01*
X0160444Y0288541D01*
X0160630Y0288270D01*
X0160809Y0287994D01*
X0160982Y0287715D01*
X0161147Y0287431D01*
X0161305Y0287143D01*
X0161457Y0286851D01*
X0161601Y0286556D01*
X0161738Y0286258D01*
X0161867Y0285956D01*
X0161989Y0285651D01*
X0162104Y0285343D01*
X0162210Y0285032D01*
X0162310Y0284719D01*
X0162401Y0284403D01*
X0162485Y0284086D01*
X0162561Y0283766D01*
X0162629Y0283444D01*
X0162689Y0283121D01*
X0162741Y0282797D01*
X0162785Y0282472D01*
X0162822Y0282145D01*
X0162850Y0281818D01*
X0162870Y0281490D01*
X0162882Y0281162D01*
X0162886Y0280833D01*
X0162882Y0280504D01*
X0162870Y0280176D01*
X0162850Y0279848D01*
X0162822Y0279521D01*
X0162785Y0279194D01*
X0162741Y0278869D01*
X0162689Y0278545D01*
X0162629Y0278222D01*
X0162561Y0277900D01*
X0162485Y0277580D01*
X0162401Y0277263D01*
X0162310Y0276947D01*
X0162210Y0276634D01*
X0162104Y0276323D01*
X0161989Y0276015D01*
X0161867Y0275710D01*
X0161738Y0275408D01*
X0161601Y0275110D01*
X0161457Y0274815D01*
X0161305Y0274523D01*
X0161147Y0274235D01*
X0160982Y0273951D01*
X0160809Y0273672D01*
X0160630Y0273396D01*
X0160444Y0273125D01*
X0160252Y0272859D01*
X0160053Y0272598D01*
X0159848Y0272341D01*
X0159636Y0272090D01*
X0159418Y0271844D01*
X0159195Y0271603D01*
X0158965Y0271368D01*
X0158730Y0271138D01*
X0158489Y0270915D01*
X0158243Y0270697D01*
X0157992Y0270485D01*
X0157735Y0270280D01*
X0157474Y0270081D01*
X0157208Y0269889D01*
X0156937Y0269703D01*
X0156661Y0269524D01*
X0156382Y0269351D01*
X0156098Y0269186D01*
X0155810Y0269028D01*
X0155518Y0268876D01*
X0155223Y0268732D01*
X0154925Y0268595D01*
X0154623Y0268466D01*
X0154318Y0268344D01*
X0154010Y0268229D01*
X0153699Y0268123D01*
X0153386Y0268023D01*
X0153070Y0267932D01*
X0152753Y0267848D01*
X0152433Y0267772D01*
X0152111Y0267704D01*
X0151788Y0267644D01*
X0151464Y0267592D01*
X0151139Y0267548D01*
X0150812Y0267511D01*
X0150485Y0267483D01*
X0150157Y0267463D01*
X0149829Y0267451D01*
X0149500Y0267447D01*
X0149171Y0267451D01*
X0148843Y0267463D01*
X0148515Y0267483D01*
X0148188Y0267511D01*
X0147861Y0267548D01*
X0147536Y0267592D01*
X0147212Y0267644D01*
X0146889Y0267704D01*
X0146567Y0267772D01*
X0146247Y0267848D01*
X0145930Y0267932D01*
X0145614Y0268023D01*
X0145301Y0268123D01*
X0144990Y0268229D01*
X0144682Y0268344D01*
X0144377Y0268466D01*
X0144075Y0268595D01*
X0143777Y0268732D01*
X0143482Y0268876D01*
X0143190Y0269028D01*
X0142902Y0269186D01*
X0142618Y0269351D01*
X0142339Y0269524D01*
X0142063Y0269703D01*
X0141792Y0269889D01*
X0141526Y0270081D01*
X0141265Y0270280D01*
X0141008Y0270485D01*
X0140757Y0270697D01*
X0140511Y0270915D01*
X0140270Y0271138D01*
X0140035Y0271368D01*
X0139805Y0271603D01*
X0139582Y0271844D01*
X0139364Y0272090D01*
X0139152Y0272341D01*
X0138947Y0272598D01*
X0138748Y0272859D01*
X0138556Y0273125D01*
X0138370Y0273396D01*
X0138191Y0273672D01*
X0138018Y0273951D01*
X0137853Y0274235D01*
X0137695Y0274523D01*
X0137543Y0274815D01*
X0137399Y0275110D01*
X0137262Y0275408D01*
X0137133Y0275710D01*
X0137011Y0276015D01*
X0136896Y0276323D01*
X0136790Y0276634D01*
X0136690Y0276947D01*
X0136599Y0277263D01*
X0136515Y0277580D01*
X0136439Y0277900D01*
X0136371Y0278222D01*
X0136311Y0278545D01*
X0136259Y0278869D01*
X0136215Y0279194D01*
X0136178Y0279521D01*
X0136150Y0279848D01*
X0136130Y0280176D01*
X0136118Y0280504D01*
X0136114Y0280833D01*
X0129303Y0291424D02*
X0121035Y0291424D01*
X0129303Y0291424D02*
X0129303Y0301660D01*
X0135039Y0302365D02*
X0139961Y0302365D01*
X0139961Y0305790D02*
X0139961Y0312877D01*
X0135039Y0312877D02*
X0135039Y0305790D01*
X0106862Y0291424D02*
X0102138Y0291424D01*
X0087965Y0291424D02*
X0079697Y0291424D01*
X0079697Y0301660D01*
X0079697Y0330007D02*
X0079697Y0340243D01*
X0087965Y0340243D01*
X0102138Y0340243D02*
X0106862Y0340243D01*
X0121035Y0340243D02*
X0129303Y0340243D01*
X0129303Y0330007D01*
D15*
X0075919Y0337440D02*
X0075921Y0337499D01*
X0075927Y0337559D01*
X0075937Y0337617D01*
X0075950Y0337675D01*
X0075968Y0337732D01*
X0075989Y0337788D01*
X0076014Y0337842D01*
X0076042Y0337894D01*
X0076074Y0337945D01*
X0076109Y0337993D01*
X0076147Y0338039D01*
X0076188Y0338082D01*
X0076232Y0338122D01*
X0076278Y0338159D01*
X0076327Y0338193D01*
X0076378Y0338224D01*
X0076430Y0338252D01*
X0076485Y0338276D01*
X0076541Y0338296D01*
X0076598Y0338312D01*
X0076656Y0338325D01*
X0076715Y0338334D01*
X0076774Y0338339D01*
X0076834Y0338340D01*
X0076893Y0338337D01*
X0076952Y0338330D01*
X0077011Y0338319D01*
X0077069Y0338305D01*
X0077125Y0338286D01*
X0077181Y0338264D01*
X0077234Y0338239D01*
X0077286Y0338209D01*
X0077336Y0338177D01*
X0077383Y0338141D01*
X0077429Y0338102D01*
X0077471Y0338060D01*
X0077511Y0338016D01*
X0077547Y0337969D01*
X0077580Y0337920D01*
X0077611Y0337868D01*
X0077637Y0337815D01*
X0077660Y0337760D01*
X0077679Y0337704D01*
X0077695Y0337646D01*
X0077707Y0337588D01*
X0077715Y0337529D01*
X0077719Y0337470D01*
X0077719Y0337410D01*
X0077715Y0337351D01*
X0077707Y0337292D01*
X0077695Y0337234D01*
X0077679Y0337176D01*
X0077660Y0337120D01*
X0077637Y0337065D01*
X0077611Y0337012D01*
X0077580Y0336960D01*
X0077547Y0336911D01*
X0077511Y0336864D01*
X0077471Y0336820D01*
X0077429Y0336778D01*
X0077383Y0336739D01*
X0077336Y0336703D01*
X0077286Y0336671D01*
X0077234Y0336641D01*
X0077181Y0336616D01*
X0077125Y0336594D01*
X0077069Y0336575D01*
X0077011Y0336561D01*
X0076952Y0336550D01*
X0076893Y0336543D01*
X0076834Y0336540D01*
X0076774Y0336541D01*
X0076715Y0336546D01*
X0076656Y0336555D01*
X0076598Y0336568D01*
X0076541Y0336584D01*
X0076485Y0336604D01*
X0076430Y0336628D01*
X0076378Y0336656D01*
X0076327Y0336687D01*
X0076278Y0336721D01*
X0076232Y0336758D01*
X0076188Y0336798D01*
X0076147Y0336841D01*
X0076109Y0336887D01*
X0076074Y0336935D01*
X0076042Y0336986D01*
X0076014Y0337038D01*
X0075989Y0337092D01*
X0075968Y0337148D01*
X0075950Y0337205D01*
X0075937Y0337263D01*
X0075927Y0337321D01*
X0075921Y0337381D01*
X0075919Y0337440D01*
X0197919Y0337440D02*
X0197921Y0337499D01*
X0197927Y0337559D01*
X0197937Y0337617D01*
X0197950Y0337675D01*
X0197968Y0337732D01*
X0197989Y0337788D01*
X0198014Y0337842D01*
X0198042Y0337894D01*
X0198074Y0337945D01*
X0198109Y0337993D01*
X0198147Y0338039D01*
X0198188Y0338082D01*
X0198232Y0338122D01*
X0198278Y0338159D01*
X0198327Y0338193D01*
X0198378Y0338224D01*
X0198430Y0338252D01*
X0198485Y0338276D01*
X0198541Y0338296D01*
X0198598Y0338312D01*
X0198656Y0338325D01*
X0198715Y0338334D01*
X0198774Y0338339D01*
X0198834Y0338340D01*
X0198893Y0338337D01*
X0198952Y0338330D01*
X0199011Y0338319D01*
X0199069Y0338305D01*
X0199125Y0338286D01*
X0199181Y0338264D01*
X0199234Y0338239D01*
X0199286Y0338209D01*
X0199336Y0338177D01*
X0199383Y0338141D01*
X0199429Y0338102D01*
X0199471Y0338060D01*
X0199511Y0338016D01*
X0199547Y0337969D01*
X0199580Y0337920D01*
X0199611Y0337868D01*
X0199637Y0337815D01*
X0199660Y0337760D01*
X0199679Y0337704D01*
X0199695Y0337646D01*
X0199707Y0337588D01*
X0199715Y0337529D01*
X0199719Y0337470D01*
X0199719Y0337410D01*
X0199715Y0337351D01*
X0199707Y0337292D01*
X0199695Y0337234D01*
X0199679Y0337176D01*
X0199660Y0337120D01*
X0199637Y0337065D01*
X0199611Y0337012D01*
X0199580Y0336960D01*
X0199547Y0336911D01*
X0199511Y0336864D01*
X0199471Y0336820D01*
X0199429Y0336778D01*
X0199383Y0336739D01*
X0199336Y0336703D01*
X0199286Y0336671D01*
X0199234Y0336641D01*
X0199181Y0336616D01*
X0199125Y0336594D01*
X0199069Y0336575D01*
X0199011Y0336561D01*
X0198952Y0336550D01*
X0198893Y0336543D01*
X0198834Y0336540D01*
X0198774Y0336541D01*
X0198715Y0336546D01*
X0198656Y0336555D01*
X0198598Y0336568D01*
X0198541Y0336584D01*
X0198485Y0336604D01*
X0198430Y0336628D01*
X0198378Y0336656D01*
X0198327Y0336687D01*
X0198278Y0336721D01*
X0198232Y0336758D01*
X0198188Y0336798D01*
X0198147Y0336841D01*
X0198109Y0336887D01*
X0198074Y0336935D01*
X0198042Y0336986D01*
X0198014Y0337038D01*
X0197989Y0337092D01*
X0197968Y0337148D01*
X0197950Y0337205D01*
X0197937Y0337263D01*
X0197927Y0337321D01*
X0197921Y0337381D01*
X0197919Y0337440D01*
X0319919Y0337440D02*
X0319921Y0337499D01*
X0319927Y0337559D01*
X0319937Y0337617D01*
X0319950Y0337675D01*
X0319968Y0337732D01*
X0319989Y0337788D01*
X0320014Y0337842D01*
X0320042Y0337894D01*
X0320074Y0337945D01*
X0320109Y0337993D01*
X0320147Y0338039D01*
X0320188Y0338082D01*
X0320232Y0338122D01*
X0320278Y0338159D01*
X0320327Y0338193D01*
X0320378Y0338224D01*
X0320430Y0338252D01*
X0320485Y0338276D01*
X0320541Y0338296D01*
X0320598Y0338312D01*
X0320656Y0338325D01*
X0320715Y0338334D01*
X0320774Y0338339D01*
X0320834Y0338340D01*
X0320893Y0338337D01*
X0320952Y0338330D01*
X0321011Y0338319D01*
X0321069Y0338305D01*
X0321125Y0338286D01*
X0321181Y0338264D01*
X0321234Y0338239D01*
X0321286Y0338209D01*
X0321336Y0338177D01*
X0321383Y0338141D01*
X0321429Y0338102D01*
X0321471Y0338060D01*
X0321511Y0338016D01*
X0321547Y0337969D01*
X0321580Y0337920D01*
X0321611Y0337868D01*
X0321637Y0337815D01*
X0321660Y0337760D01*
X0321679Y0337704D01*
X0321695Y0337646D01*
X0321707Y0337588D01*
X0321715Y0337529D01*
X0321719Y0337470D01*
X0321719Y0337410D01*
X0321715Y0337351D01*
X0321707Y0337292D01*
X0321695Y0337234D01*
X0321679Y0337176D01*
X0321660Y0337120D01*
X0321637Y0337065D01*
X0321611Y0337012D01*
X0321580Y0336960D01*
X0321547Y0336911D01*
X0321511Y0336864D01*
X0321471Y0336820D01*
X0321429Y0336778D01*
X0321383Y0336739D01*
X0321336Y0336703D01*
X0321286Y0336671D01*
X0321234Y0336641D01*
X0321181Y0336616D01*
X0321125Y0336594D01*
X0321069Y0336575D01*
X0321011Y0336561D01*
X0320952Y0336550D01*
X0320893Y0336543D01*
X0320834Y0336540D01*
X0320774Y0336541D01*
X0320715Y0336546D01*
X0320656Y0336555D01*
X0320598Y0336568D01*
X0320541Y0336584D01*
X0320485Y0336604D01*
X0320430Y0336628D01*
X0320378Y0336656D01*
X0320327Y0336687D01*
X0320278Y0336721D01*
X0320232Y0336758D01*
X0320188Y0336798D01*
X0320147Y0336841D01*
X0320109Y0336887D01*
X0320074Y0336935D01*
X0320042Y0336986D01*
X0320014Y0337038D01*
X0319989Y0337092D01*
X0319968Y0337148D01*
X0319950Y0337205D01*
X0319937Y0337263D01*
X0319927Y0337321D01*
X0319921Y0337381D01*
X0319919Y0337440D01*
X0319919Y0235440D02*
X0319921Y0235499D01*
X0319927Y0235559D01*
X0319937Y0235617D01*
X0319950Y0235675D01*
X0319968Y0235732D01*
X0319989Y0235788D01*
X0320014Y0235842D01*
X0320042Y0235894D01*
X0320074Y0235945D01*
X0320109Y0235993D01*
X0320147Y0236039D01*
X0320188Y0236082D01*
X0320232Y0236122D01*
X0320278Y0236159D01*
X0320327Y0236193D01*
X0320378Y0236224D01*
X0320430Y0236252D01*
X0320485Y0236276D01*
X0320541Y0236296D01*
X0320598Y0236312D01*
X0320656Y0236325D01*
X0320715Y0236334D01*
X0320774Y0236339D01*
X0320834Y0236340D01*
X0320893Y0236337D01*
X0320952Y0236330D01*
X0321011Y0236319D01*
X0321069Y0236305D01*
X0321125Y0236286D01*
X0321181Y0236264D01*
X0321234Y0236239D01*
X0321286Y0236209D01*
X0321336Y0236177D01*
X0321383Y0236141D01*
X0321429Y0236102D01*
X0321471Y0236060D01*
X0321511Y0236016D01*
X0321547Y0235969D01*
X0321580Y0235920D01*
X0321611Y0235868D01*
X0321637Y0235815D01*
X0321660Y0235760D01*
X0321679Y0235704D01*
X0321695Y0235646D01*
X0321707Y0235588D01*
X0321715Y0235529D01*
X0321719Y0235470D01*
X0321719Y0235410D01*
X0321715Y0235351D01*
X0321707Y0235292D01*
X0321695Y0235234D01*
X0321679Y0235176D01*
X0321660Y0235120D01*
X0321637Y0235065D01*
X0321611Y0235012D01*
X0321580Y0234960D01*
X0321547Y0234911D01*
X0321511Y0234864D01*
X0321471Y0234820D01*
X0321429Y0234778D01*
X0321383Y0234739D01*
X0321336Y0234703D01*
X0321286Y0234671D01*
X0321234Y0234641D01*
X0321181Y0234616D01*
X0321125Y0234594D01*
X0321069Y0234575D01*
X0321011Y0234561D01*
X0320952Y0234550D01*
X0320893Y0234543D01*
X0320834Y0234540D01*
X0320774Y0234541D01*
X0320715Y0234546D01*
X0320656Y0234555D01*
X0320598Y0234568D01*
X0320541Y0234584D01*
X0320485Y0234604D01*
X0320430Y0234628D01*
X0320378Y0234656D01*
X0320327Y0234687D01*
X0320278Y0234721D01*
X0320232Y0234758D01*
X0320188Y0234798D01*
X0320147Y0234841D01*
X0320109Y0234887D01*
X0320074Y0234935D01*
X0320042Y0234986D01*
X0320014Y0235038D01*
X0319989Y0235092D01*
X0319968Y0235148D01*
X0319950Y0235205D01*
X0319937Y0235263D01*
X0319927Y0235321D01*
X0319921Y0235381D01*
X0319919Y0235440D01*
X0197919Y0235440D02*
X0197921Y0235499D01*
X0197927Y0235559D01*
X0197937Y0235617D01*
X0197950Y0235675D01*
X0197968Y0235732D01*
X0197989Y0235788D01*
X0198014Y0235842D01*
X0198042Y0235894D01*
X0198074Y0235945D01*
X0198109Y0235993D01*
X0198147Y0236039D01*
X0198188Y0236082D01*
X0198232Y0236122D01*
X0198278Y0236159D01*
X0198327Y0236193D01*
X0198378Y0236224D01*
X0198430Y0236252D01*
X0198485Y0236276D01*
X0198541Y0236296D01*
X0198598Y0236312D01*
X0198656Y0236325D01*
X0198715Y0236334D01*
X0198774Y0236339D01*
X0198834Y0236340D01*
X0198893Y0236337D01*
X0198952Y0236330D01*
X0199011Y0236319D01*
X0199069Y0236305D01*
X0199125Y0236286D01*
X0199181Y0236264D01*
X0199234Y0236239D01*
X0199286Y0236209D01*
X0199336Y0236177D01*
X0199383Y0236141D01*
X0199429Y0236102D01*
X0199471Y0236060D01*
X0199511Y0236016D01*
X0199547Y0235969D01*
X0199580Y0235920D01*
X0199611Y0235868D01*
X0199637Y0235815D01*
X0199660Y0235760D01*
X0199679Y0235704D01*
X0199695Y0235646D01*
X0199707Y0235588D01*
X0199715Y0235529D01*
X0199719Y0235470D01*
X0199719Y0235410D01*
X0199715Y0235351D01*
X0199707Y0235292D01*
X0199695Y0235234D01*
X0199679Y0235176D01*
X0199660Y0235120D01*
X0199637Y0235065D01*
X0199611Y0235012D01*
X0199580Y0234960D01*
X0199547Y0234911D01*
X0199511Y0234864D01*
X0199471Y0234820D01*
X0199429Y0234778D01*
X0199383Y0234739D01*
X0199336Y0234703D01*
X0199286Y0234671D01*
X0199234Y0234641D01*
X0199181Y0234616D01*
X0199125Y0234594D01*
X0199069Y0234575D01*
X0199011Y0234561D01*
X0198952Y0234550D01*
X0198893Y0234543D01*
X0198834Y0234540D01*
X0198774Y0234541D01*
X0198715Y0234546D01*
X0198656Y0234555D01*
X0198598Y0234568D01*
X0198541Y0234584D01*
X0198485Y0234604D01*
X0198430Y0234628D01*
X0198378Y0234656D01*
X0198327Y0234687D01*
X0198278Y0234721D01*
X0198232Y0234758D01*
X0198188Y0234798D01*
X0198147Y0234841D01*
X0198109Y0234887D01*
X0198074Y0234935D01*
X0198042Y0234986D01*
X0198014Y0235038D01*
X0197989Y0235092D01*
X0197968Y0235148D01*
X0197950Y0235205D01*
X0197937Y0235263D01*
X0197927Y0235321D01*
X0197921Y0235381D01*
X0197919Y0235440D01*
X0075919Y0235440D02*
X0075921Y0235499D01*
X0075927Y0235559D01*
X0075937Y0235617D01*
X0075950Y0235675D01*
X0075968Y0235732D01*
X0075989Y0235788D01*
X0076014Y0235842D01*
X0076042Y0235894D01*
X0076074Y0235945D01*
X0076109Y0235993D01*
X0076147Y0236039D01*
X0076188Y0236082D01*
X0076232Y0236122D01*
X0076278Y0236159D01*
X0076327Y0236193D01*
X0076378Y0236224D01*
X0076430Y0236252D01*
X0076485Y0236276D01*
X0076541Y0236296D01*
X0076598Y0236312D01*
X0076656Y0236325D01*
X0076715Y0236334D01*
X0076774Y0236339D01*
X0076834Y0236340D01*
X0076893Y0236337D01*
X0076952Y0236330D01*
X0077011Y0236319D01*
X0077069Y0236305D01*
X0077125Y0236286D01*
X0077181Y0236264D01*
X0077234Y0236239D01*
X0077286Y0236209D01*
X0077336Y0236177D01*
X0077383Y0236141D01*
X0077429Y0236102D01*
X0077471Y0236060D01*
X0077511Y0236016D01*
X0077547Y0235969D01*
X0077580Y0235920D01*
X0077611Y0235868D01*
X0077637Y0235815D01*
X0077660Y0235760D01*
X0077679Y0235704D01*
X0077695Y0235646D01*
X0077707Y0235588D01*
X0077715Y0235529D01*
X0077719Y0235470D01*
X0077719Y0235410D01*
X0077715Y0235351D01*
X0077707Y0235292D01*
X0077695Y0235234D01*
X0077679Y0235176D01*
X0077660Y0235120D01*
X0077637Y0235065D01*
X0077611Y0235012D01*
X0077580Y0234960D01*
X0077547Y0234911D01*
X0077511Y0234864D01*
X0077471Y0234820D01*
X0077429Y0234778D01*
X0077383Y0234739D01*
X0077336Y0234703D01*
X0077286Y0234671D01*
X0077234Y0234641D01*
X0077181Y0234616D01*
X0077125Y0234594D01*
X0077069Y0234575D01*
X0077011Y0234561D01*
X0076952Y0234550D01*
X0076893Y0234543D01*
X0076834Y0234540D01*
X0076774Y0234541D01*
X0076715Y0234546D01*
X0076656Y0234555D01*
X0076598Y0234568D01*
X0076541Y0234584D01*
X0076485Y0234604D01*
X0076430Y0234628D01*
X0076378Y0234656D01*
X0076327Y0234687D01*
X0076278Y0234721D01*
X0076232Y0234758D01*
X0076188Y0234798D01*
X0076147Y0234841D01*
X0076109Y0234887D01*
X0076074Y0234935D01*
X0076042Y0234986D01*
X0076014Y0235038D01*
X0075989Y0235092D01*
X0075968Y0235148D01*
X0075950Y0235205D01*
X0075937Y0235263D01*
X0075927Y0235321D01*
X0075921Y0235381D01*
X0075919Y0235440D01*
X0075919Y0133440D02*
X0075921Y0133499D01*
X0075927Y0133559D01*
X0075937Y0133617D01*
X0075950Y0133675D01*
X0075968Y0133732D01*
X0075989Y0133788D01*
X0076014Y0133842D01*
X0076042Y0133894D01*
X0076074Y0133945D01*
X0076109Y0133993D01*
X0076147Y0134039D01*
X0076188Y0134082D01*
X0076232Y0134122D01*
X0076278Y0134159D01*
X0076327Y0134193D01*
X0076378Y0134224D01*
X0076430Y0134252D01*
X0076485Y0134276D01*
X0076541Y0134296D01*
X0076598Y0134312D01*
X0076656Y0134325D01*
X0076715Y0134334D01*
X0076774Y0134339D01*
X0076834Y0134340D01*
X0076893Y0134337D01*
X0076952Y0134330D01*
X0077011Y0134319D01*
X0077069Y0134305D01*
X0077125Y0134286D01*
X0077181Y0134264D01*
X0077234Y0134239D01*
X0077286Y0134209D01*
X0077336Y0134177D01*
X0077383Y0134141D01*
X0077429Y0134102D01*
X0077471Y0134060D01*
X0077511Y0134016D01*
X0077547Y0133969D01*
X0077580Y0133920D01*
X0077611Y0133868D01*
X0077637Y0133815D01*
X0077660Y0133760D01*
X0077679Y0133704D01*
X0077695Y0133646D01*
X0077707Y0133588D01*
X0077715Y0133529D01*
X0077719Y0133470D01*
X0077719Y0133410D01*
X0077715Y0133351D01*
X0077707Y0133292D01*
X0077695Y0133234D01*
X0077679Y0133176D01*
X0077660Y0133120D01*
X0077637Y0133065D01*
X0077611Y0133012D01*
X0077580Y0132960D01*
X0077547Y0132911D01*
X0077511Y0132864D01*
X0077471Y0132820D01*
X0077429Y0132778D01*
X0077383Y0132739D01*
X0077336Y0132703D01*
X0077286Y0132671D01*
X0077234Y0132641D01*
X0077181Y0132616D01*
X0077125Y0132594D01*
X0077069Y0132575D01*
X0077011Y0132561D01*
X0076952Y0132550D01*
X0076893Y0132543D01*
X0076834Y0132540D01*
X0076774Y0132541D01*
X0076715Y0132546D01*
X0076656Y0132555D01*
X0076598Y0132568D01*
X0076541Y0132584D01*
X0076485Y0132604D01*
X0076430Y0132628D01*
X0076378Y0132656D01*
X0076327Y0132687D01*
X0076278Y0132721D01*
X0076232Y0132758D01*
X0076188Y0132798D01*
X0076147Y0132841D01*
X0076109Y0132887D01*
X0076074Y0132935D01*
X0076042Y0132986D01*
X0076014Y0133038D01*
X0075989Y0133092D01*
X0075968Y0133148D01*
X0075950Y0133205D01*
X0075937Y0133263D01*
X0075927Y0133321D01*
X0075921Y0133381D01*
X0075919Y0133440D01*
X0197919Y0133440D02*
X0197921Y0133499D01*
X0197927Y0133559D01*
X0197937Y0133617D01*
X0197950Y0133675D01*
X0197968Y0133732D01*
X0197989Y0133788D01*
X0198014Y0133842D01*
X0198042Y0133894D01*
X0198074Y0133945D01*
X0198109Y0133993D01*
X0198147Y0134039D01*
X0198188Y0134082D01*
X0198232Y0134122D01*
X0198278Y0134159D01*
X0198327Y0134193D01*
X0198378Y0134224D01*
X0198430Y0134252D01*
X0198485Y0134276D01*
X0198541Y0134296D01*
X0198598Y0134312D01*
X0198656Y0134325D01*
X0198715Y0134334D01*
X0198774Y0134339D01*
X0198834Y0134340D01*
X0198893Y0134337D01*
X0198952Y0134330D01*
X0199011Y0134319D01*
X0199069Y0134305D01*
X0199125Y0134286D01*
X0199181Y0134264D01*
X0199234Y0134239D01*
X0199286Y0134209D01*
X0199336Y0134177D01*
X0199383Y0134141D01*
X0199429Y0134102D01*
X0199471Y0134060D01*
X0199511Y0134016D01*
X0199547Y0133969D01*
X0199580Y0133920D01*
X0199611Y0133868D01*
X0199637Y0133815D01*
X0199660Y0133760D01*
X0199679Y0133704D01*
X0199695Y0133646D01*
X0199707Y0133588D01*
X0199715Y0133529D01*
X0199719Y0133470D01*
X0199719Y0133410D01*
X0199715Y0133351D01*
X0199707Y0133292D01*
X0199695Y0133234D01*
X0199679Y0133176D01*
X0199660Y0133120D01*
X0199637Y0133065D01*
X0199611Y0133012D01*
X0199580Y0132960D01*
X0199547Y0132911D01*
X0199511Y0132864D01*
X0199471Y0132820D01*
X0199429Y0132778D01*
X0199383Y0132739D01*
X0199336Y0132703D01*
X0199286Y0132671D01*
X0199234Y0132641D01*
X0199181Y0132616D01*
X0199125Y0132594D01*
X0199069Y0132575D01*
X0199011Y0132561D01*
X0198952Y0132550D01*
X0198893Y0132543D01*
X0198834Y0132540D01*
X0198774Y0132541D01*
X0198715Y0132546D01*
X0198656Y0132555D01*
X0198598Y0132568D01*
X0198541Y0132584D01*
X0198485Y0132604D01*
X0198430Y0132628D01*
X0198378Y0132656D01*
X0198327Y0132687D01*
X0198278Y0132721D01*
X0198232Y0132758D01*
X0198188Y0132798D01*
X0198147Y0132841D01*
X0198109Y0132887D01*
X0198074Y0132935D01*
X0198042Y0132986D01*
X0198014Y0133038D01*
X0197989Y0133092D01*
X0197968Y0133148D01*
X0197950Y0133205D01*
X0197937Y0133263D01*
X0197927Y0133321D01*
X0197921Y0133381D01*
X0197919Y0133440D01*
X0319919Y0133440D02*
X0319921Y0133499D01*
X0319927Y0133559D01*
X0319937Y0133617D01*
X0319950Y0133675D01*
X0319968Y0133732D01*
X0319989Y0133788D01*
X0320014Y0133842D01*
X0320042Y0133894D01*
X0320074Y0133945D01*
X0320109Y0133993D01*
X0320147Y0134039D01*
X0320188Y0134082D01*
X0320232Y0134122D01*
X0320278Y0134159D01*
X0320327Y0134193D01*
X0320378Y0134224D01*
X0320430Y0134252D01*
X0320485Y0134276D01*
X0320541Y0134296D01*
X0320598Y0134312D01*
X0320656Y0134325D01*
X0320715Y0134334D01*
X0320774Y0134339D01*
X0320834Y0134340D01*
X0320893Y0134337D01*
X0320952Y0134330D01*
X0321011Y0134319D01*
X0321069Y0134305D01*
X0321125Y0134286D01*
X0321181Y0134264D01*
X0321234Y0134239D01*
X0321286Y0134209D01*
X0321336Y0134177D01*
X0321383Y0134141D01*
X0321429Y0134102D01*
X0321471Y0134060D01*
X0321511Y0134016D01*
X0321547Y0133969D01*
X0321580Y0133920D01*
X0321611Y0133868D01*
X0321637Y0133815D01*
X0321660Y0133760D01*
X0321679Y0133704D01*
X0321695Y0133646D01*
X0321707Y0133588D01*
X0321715Y0133529D01*
X0321719Y0133470D01*
X0321719Y0133410D01*
X0321715Y0133351D01*
X0321707Y0133292D01*
X0321695Y0133234D01*
X0321679Y0133176D01*
X0321660Y0133120D01*
X0321637Y0133065D01*
X0321611Y0133012D01*
X0321580Y0132960D01*
X0321547Y0132911D01*
X0321511Y0132864D01*
X0321471Y0132820D01*
X0321429Y0132778D01*
X0321383Y0132739D01*
X0321336Y0132703D01*
X0321286Y0132671D01*
X0321234Y0132641D01*
X0321181Y0132616D01*
X0321125Y0132594D01*
X0321069Y0132575D01*
X0321011Y0132561D01*
X0320952Y0132550D01*
X0320893Y0132543D01*
X0320834Y0132540D01*
X0320774Y0132541D01*
X0320715Y0132546D01*
X0320656Y0132555D01*
X0320598Y0132568D01*
X0320541Y0132584D01*
X0320485Y0132604D01*
X0320430Y0132628D01*
X0320378Y0132656D01*
X0320327Y0132687D01*
X0320278Y0132721D01*
X0320232Y0132758D01*
X0320188Y0132798D01*
X0320147Y0132841D01*
X0320109Y0132887D01*
X0320074Y0132935D01*
X0320042Y0132986D01*
X0320014Y0133038D01*
X0319989Y0133092D01*
X0319968Y0133148D01*
X0319950Y0133205D01*
X0319937Y0133263D01*
X0319927Y0133321D01*
X0319921Y0133381D01*
X0319919Y0133440D01*
M02*
