%
M48
M72
T01C0.0150
T02C0.0400
T03C0.1300
%
T01
X7950Y7533
X9950Y7533
X11950Y7183
X12750Y7433
X12450Y8183
X13950Y7833
X14450Y8683
X14450Y10183
X13750Y10583
X13600Y11683
X13450Y12683
X14200Y13933
X11950Y12683
X10950Y12683
X9950Y12683
X8950Y12683
X8950Y11683
X8950Y10683
X9950Y10683
X10950Y10683
X11950Y10683
X11950Y11683
X10950Y11683
X9950Y11683
X9950Y9683
X8950Y9683
X10950Y9683
X11950Y9683
X13950Y6683
X17650Y8183
X18650Y9683
X19150Y10183
X19400Y10683
X19300Y11333
X21150Y11683
X21150Y10683
X22150Y10683
X23150Y10683
X24150Y10683
X24150Y11683
X23150Y11683
X22150Y11683
X22150Y12683
X21150Y12683
X19650Y14183
X18650Y12683
X17650Y11683
X15450Y10683
X15200Y11383
X20150Y7533
X22150Y7533
X24150Y7183
X24950Y7433
X24650Y8183
X26150Y7833
X26650Y8683
X26650Y10183
X25950Y10583
X25800Y11683
X25650Y12683
X26400Y13933
X24150Y12683
X23150Y12683
X19900Y15683
X20150Y17733
X22150Y17733
X24150Y17383
X24950Y17633
X24650Y18383
X26150Y18033
X26650Y18883
X26650Y20383
X25950Y20783
X25800Y21883
X25650Y22883
X26400Y24133
X24150Y22883
X23150Y22883
X22150Y22883
X21150Y22883
X21150Y21883
X21150Y20883
X22150Y20883
X23150Y20883
X24150Y20883
X24150Y21883
X23150Y21883
X22150Y21883
X22150Y19883
X21150Y19883
X19400Y20883
X19150Y20383
X18650Y19883
X17650Y18383
X14450Y18883
X13950Y18033
X12750Y17633
X12450Y18383
X11950Y17383
X9950Y17733
X7950Y17733
X7700Y15683
X7450Y14183
X6450Y12683
X5450Y11683
X7100Y11333
X7200Y10683
X6950Y10183
X6450Y9683
X5450Y8183
X5200Y15183
X5450Y18383
X6450Y19883
X6950Y20383
X7200Y20883
X7100Y21533
X5450Y21883
X6450Y22883
X7450Y24383
X8950Y22883
X9950Y22883
X10950Y22883
X11950Y22883
X11950Y21883
X10950Y21883
X10950Y20883
X11950Y20883
X11950Y19883
X10950Y19883
X9950Y19883
X8950Y19883
X8950Y20883
X9950Y20883
X9950Y21883
X8950Y21883
X13450Y22883
X13600Y21883
X13750Y20783
X14450Y20383
X15450Y20883
X15200Y21583
X17650Y21883
X18650Y22883
X19650Y24383
X19900Y25883
X20150Y27933
X22150Y27933
X24150Y27583
X24950Y27833
X24650Y28583
X26150Y28233
X26650Y29083
X26650Y30583
X25950Y30983
X25800Y32083
X25650Y33083
X26400Y34333
X24150Y33083
X23150Y33083
X22150Y33083
X21150Y33083
X21150Y32083
X21150Y31083
X22150Y31083
X23150Y31083
X24150Y31083
X24150Y32083
X23150Y32083
X22150Y32083
X22150Y30083
X21150Y30083
X19400Y31083
X19150Y30583
X18650Y30083
X17650Y28583
X14450Y29083
X13950Y28233
X12750Y27833
X12450Y28583
X11950Y27583
X9950Y27933
X7950Y27933
X7700Y25883
X5200Y25383
X5450Y28583
X6450Y30083
X6950Y30583
X7200Y31083
X7100Y31733
X5450Y32083
X6450Y33083
X7450Y34583
X8950Y33083
X9950Y33083
X10950Y33083
X11950Y33083
X11950Y32083
X10950Y32083
X10950Y31083
X11950Y31083
X11950Y30083
X10950Y30083
X9950Y30083
X8950Y30083
X8950Y31083
X9950Y31083
X9950Y32083
X8950Y32083
X13450Y33083
X13600Y32083
X13750Y30983
X14450Y30583
X15450Y31083
X15200Y31783
X17650Y32083
X18650Y33083
X19650Y34583
X19900Y36083
X17400Y35583
X14200Y34333
X19300Y31733
X23150Y30083
X24150Y30083
X27400Y31783
X27650Y31083
X29850Y32083
X30850Y33083
X31850Y34583
X33350Y33083
X34350Y33083
X35350Y33083
X36350Y33083
X36350Y32083
X36350Y31083
X35350Y31083
X34350Y31083
X33350Y31083
X33350Y32083
X34350Y32083
X35350Y32083
X35350Y30083
X34350Y30083
X33350Y30083
X31600Y31083
X31350Y30583
X30850Y30083
X29850Y28583
X32350Y27933
X34350Y27933
X36350Y27583
X37150Y27833
X36850Y28583
X38350Y28233
X38850Y29083
X38850Y30583
X38150Y30983
X38000Y32083
X37850Y33083
X38600Y34333
X39600Y31783
X39850Y31083
X36350Y30083
X38350Y27083
X38600Y24133
X37850Y22883
X38000Y21883
X38150Y20783
X38850Y20383
X39850Y20883
X39600Y21583
X38850Y18883
X38350Y18033
X37150Y17633
X36850Y18383
X36350Y17383
X34350Y17733
X32350Y17733
X32100Y15683
X31850Y14183
X30850Y12683
X29850Y11683
X31500Y11333
X31600Y10683
X31350Y10183
X30850Y9683
X29850Y8183
X32350Y7533
X34350Y7533
X36350Y7183
X37150Y7433
X36850Y8183
X38350Y7833
X38850Y8683
X38850Y10183
X38150Y10583
X38000Y11683
X37850Y12683
X38600Y13933
X36350Y12683
X35350Y12683
X34350Y12683
X33350Y12683
X33350Y11683
X33350Y10683
X34350Y10683
X35350Y10683
X36350Y10683
X36350Y11683
X35350Y11683
X34350Y11683
X34350Y9683
X35350Y9683
X36350Y9683
X33350Y9683
X38350Y6683
X39850Y10683
X39600Y11383
X38350Y16883
X36350Y19883
X35350Y19883
X34350Y19883
X33350Y19883
X33350Y20883
X34350Y20883
X35350Y20883
X36350Y20883
X36350Y21883
X35350Y21883
X34350Y21883
X33350Y21883
X33350Y22883
X34350Y22883
X35350Y22883
X36350Y22883
X31850Y24383
X30850Y22883
X29850Y21883
X31500Y21533
X31600Y20883
X31350Y20383
X30850Y19883
X29850Y18383
X27650Y20883
X27400Y21583
X24150Y19883
X23150Y19883
X19300Y21533
X17400Y25383
X14200Y24133
X13950Y27083
X5200Y35583
X7700Y36083
X26150Y27083
X29600Y25383
X32100Y25883
X31500Y31733
X29600Y35583
X32100Y36083
X26150Y16883
X29600Y15183
X27400Y11383
X27650Y10683
X24150Y9683
X23150Y9683
X22150Y9683
X21150Y9683
X26150Y6683
X17400Y15183
X13950Y16883
T02
X8450Y6683
X9450Y6683
X10450Y6683
X11450Y6683
X12450Y6683
X20650Y6683
X21650Y6683
X22650Y6683
X23650Y6683
X24650Y6683
X32850Y6683
X33850Y6683
X34850Y6683
X35850Y6683
X36850Y6683
X36850Y15683
X35850Y15683
X34850Y15683
X33850Y15683
X32850Y15683
X32850Y16883
X33850Y16883
X34850Y16883
X35850Y16883
X36850Y16883
X36850Y25883
X35850Y25883
X34850Y25883
X33850Y25883
X32850Y25883
X32850Y27083
X33850Y27083
X34850Y27083
X35850Y27083
X36850Y27083
X36850Y36083
X35850Y36083
X34850Y36083
X33850Y36083
X32850Y36083
X24650Y36083
X23650Y36083
X22650Y36083
X21650Y36083
X20650Y36083
X12450Y36083
X11450Y36083
X10450Y36083
X9450Y36083
X8450Y36083
X8450Y27083
X9450Y27083
X10450Y27083
X11450Y27083
X12450Y27083
X12450Y25883
X11450Y25883
X10450Y25883
X9450Y25883
X8450Y25883
X8450Y16883
X9450Y16883
X10450Y16883
X11450Y16883
X12450Y16883
X12450Y15683
X11450Y15683
X10450Y15683
X9450Y15683
X8450Y15683
X20650Y15683
X21650Y15683
X22650Y15683
X23650Y15683
X24650Y15683
X24650Y16883
X23650Y16883
X22650Y16883
X21650Y16883
X20650Y16883
X20650Y25883
X21650Y25883
X22650Y25883
X23650Y25883
X24650Y25883
X24650Y27083
X23650Y27083
X22650Y27083
X21650Y27083
X20650Y27083
T03
X18650Y25383
X14450Y25383
X6450Y25383
X6450Y15183
X14450Y15183
X18650Y15183
X26650Y15183
X30850Y15183
X38850Y15183
X38850Y25383
X30850Y25383
X26650Y25383
X26650Y35583
X30850Y35583
X38850Y35583
X18650Y35583
X14450Y35583
X6450Y35583
M30
