G75*
%MOIN*%
%OFA0B0*%
%FSLAX25Y25*%
%IPPOS*%
%LPD*%
%AMOC8*
5,1,8,0,0,1.08239X$1,22.5*
%
%ADD10C,0.13800*%
%ADD11C,0.03300*%
%ADD12R,0.08674X0.05524*%
%ADD13R,0.06115X0.03162*%
%ADD14C,0.08200*%
%ADD15R,0.04737X0.05131*%
%ADD16R,0.09658X0.04146*%
%ADD17R,0.08674X0.03162*%
%ADD18R,0.03162X0.08674*%
%ADD19R,0.03300X0.05800*%
%ADD20C,0.01421*%
%ADD21C,0.00500*%
%ADD22R,0.04068X0.03280*%
%ADD23R,0.05131X0.04737*%
%ADD24R,0.09461X0.04146*%
%ADD25R,0.04934X0.04737*%
%ADD26C,0.03900*%
D10*
X0064500Y0151833D03*
X0144500Y0151833D03*
X0186500Y0151833D03*
X0266500Y0151833D03*
X0308500Y0151833D03*
X0388500Y0151833D03*
X0388500Y0253833D03*
X0308500Y0253833D03*
X0266500Y0253833D03*
X0186500Y0253833D03*
X0144500Y0253833D03*
X0064500Y0253833D03*
X0064500Y0355833D03*
X0144500Y0355833D03*
X0186500Y0355833D03*
X0266500Y0355833D03*
X0308500Y0355833D03*
X0388500Y0355833D03*
D11*
X0403500Y0295833D03*
X0293500Y0258833D03*
X0281500Y0295833D03*
X0293500Y0360833D03*
X0171500Y0360833D03*
X0159500Y0295833D03*
X0171500Y0258833D03*
X0159500Y0193833D03*
X0171500Y0156833D03*
X0159500Y0091833D03*
X0049500Y0156833D03*
X0049500Y0258833D03*
X0049500Y0360833D03*
X0281500Y0193833D03*
X0293500Y0156833D03*
X0281500Y0091833D03*
X0403500Y0091833D03*
X0403500Y0193833D03*
D12*
X0402969Y0202810D03*
X0402969Y0224857D03*
X0402969Y0304810D03*
X0402969Y0326857D03*
X0294031Y0326857D03*
X0280969Y0326857D03*
X0280969Y0304810D03*
X0294031Y0304810D03*
X0294031Y0224857D03*
X0280969Y0224857D03*
X0280969Y0202810D03*
X0294031Y0202810D03*
X0294031Y0122857D03*
X0280969Y0122857D03*
X0280969Y0100810D03*
X0294031Y0100810D03*
X0402969Y0100810D03*
X0402969Y0122857D03*
X0172031Y0122857D03*
X0158969Y0122857D03*
X0158969Y0100810D03*
X0172031Y0100810D03*
X0050031Y0100810D03*
X0050031Y0122857D03*
X0050031Y0202810D03*
X0050031Y0224857D03*
X0050031Y0304810D03*
X0050031Y0326857D03*
X0158969Y0326857D03*
X0172031Y0326857D03*
X0172031Y0304810D03*
X0158969Y0304810D03*
X0158969Y0224857D03*
X0172031Y0224857D03*
X0172031Y0202810D03*
X0158969Y0202810D03*
D13*
X0144500Y0207928D03*
X0144500Y0211865D03*
X0144500Y0215802D03*
X0144500Y0219739D03*
X0186500Y0219739D03*
X0186500Y0215802D03*
X0186500Y0211865D03*
X0186500Y0207928D03*
X0266500Y0207928D03*
X0266500Y0211865D03*
X0266500Y0215802D03*
X0266500Y0219739D03*
X0308500Y0219739D03*
X0308500Y0215802D03*
X0308500Y0211865D03*
X0308500Y0207928D03*
X0388500Y0207928D03*
X0388500Y0211865D03*
X0388500Y0215802D03*
X0388500Y0219739D03*
X0388500Y0309928D03*
X0388500Y0313865D03*
X0388500Y0317802D03*
X0388500Y0321739D03*
X0308500Y0321739D03*
X0308500Y0317802D03*
X0308500Y0313865D03*
X0308500Y0309928D03*
X0266500Y0309928D03*
X0266500Y0313865D03*
X0266500Y0317802D03*
X0266500Y0321739D03*
X0186500Y0321739D03*
X0186500Y0317802D03*
X0186500Y0313865D03*
X0186500Y0309928D03*
X0144500Y0309928D03*
X0144500Y0313865D03*
X0144500Y0317802D03*
X0144500Y0321739D03*
X0064500Y0321739D03*
X0064500Y0317802D03*
X0064500Y0313865D03*
X0064500Y0309928D03*
X0064500Y0219739D03*
X0064500Y0215802D03*
X0064500Y0211865D03*
X0064500Y0207928D03*
X0064500Y0117739D03*
X0064500Y0113802D03*
X0064500Y0109865D03*
X0064500Y0105928D03*
X0144500Y0105928D03*
X0144500Y0109865D03*
X0144500Y0113802D03*
X0144500Y0117739D03*
X0186500Y0117739D03*
X0186500Y0113802D03*
X0186500Y0109865D03*
X0186500Y0105928D03*
X0266500Y0105928D03*
X0266500Y0109865D03*
X0266500Y0113802D03*
X0266500Y0117739D03*
X0308500Y0117739D03*
X0308500Y0113802D03*
X0308500Y0109865D03*
X0308500Y0105928D03*
X0388500Y0105928D03*
X0388500Y0109865D03*
X0388500Y0113802D03*
X0388500Y0117739D03*
D14*
X0368500Y0156833D03*
X0358500Y0156833D03*
X0348500Y0156833D03*
X0338500Y0156833D03*
X0328500Y0156833D03*
X0328500Y0168833D03*
X0338500Y0168833D03*
X0348500Y0168833D03*
X0358500Y0168833D03*
X0368500Y0168833D03*
X0368500Y0258833D03*
X0358500Y0258833D03*
X0348500Y0258833D03*
X0338500Y0258833D03*
X0328500Y0258833D03*
X0328500Y0270833D03*
X0338500Y0270833D03*
X0348500Y0270833D03*
X0358500Y0270833D03*
X0368500Y0270833D03*
X0368500Y0360833D03*
X0358500Y0360833D03*
X0348500Y0360833D03*
X0338500Y0360833D03*
X0328500Y0360833D03*
X0246500Y0360833D03*
X0236500Y0360833D03*
X0226500Y0360833D03*
X0216500Y0360833D03*
X0206500Y0360833D03*
X0124500Y0360833D03*
X0114500Y0360833D03*
X0104500Y0360833D03*
X0094500Y0360833D03*
X0084500Y0360833D03*
X0084500Y0270833D03*
X0094500Y0270833D03*
X0104500Y0270833D03*
X0114500Y0270833D03*
X0124500Y0270833D03*
X0124500Y0258833D03*
X0114500Y0258833D03*
X0104500Y0258833D03*
X0094500Y0258833D03*
X0084500Y0258833D03*
X0084500Y0168833D03*
X0094500Y0168833D03*
X0104500Y0168833D03*
X0114500Y0168833D03*
X0124500Y0168833D03*
X0124500Y0156833D03*
X0114500Y0156833D03*
X0104500Y0156833D03*
X0094500Y0156833D03*
X0084500Y0156833D03*
X0084500Y0066833D03*
X0094500Y0066833D03*
X0104500Y0066833D03*
X0114500Y0066833D03*
X0124500Y0066833D03*
X0206500Y0066833D03*
X0216500Y0066833D03*
X0226500Y0066833D03*
X0236500Y0066833D03*
X0246500Y0066833D03*
X0328500Y0066833D03*
X0338500Y0066833D03*
X0348500Y0066833D03*
X0358500Y0066833D03*
X0368500Y0066833D03*
X0246500Y0156833D03*
X0236500Y0156833D03*
X0226500Y0156833D03*
X0216500Y0156833D03*
X0206500Y0156833D03*
X0206500Y0168833D03*
X0216500Y0168833D03*
X0226500Y0168833D03*
X0236500Y0168833D03*
X0246500Y0168833D03*
X0246500Y0258833D03*
X0236500Y0258833D03*
X0226500Y0258833D03*
X0216500Y0258833D03*
X0206500Y0258833D03*
X0206500Y0270833D03*
X0216500Y0270833D03*
X0226500Y0270833D03*
X0236500Y0270833D03*
X0246500Y0270833D03*
D15*
X0054500Y0068487D03*
X0054500Y0075180D03*
X0064500Y0083487D03*
X0069500Y0083487D03*
X0074500Y0083487D03*
X0074500Y0090180D03*
X0069500Y0090180D03*
X0064500Y0090180D03*
X0074500Y0075180D03*
X0074500Y0068487D03*
X0132000Y0068487D03*
X0132000Y0075180D03*
X0176500Y0075180D03*
X0176500Y0068487D03*
X0186500Y0083487D03*
X0191500Y0083487D03*
X0196500Y0083487D03*
X0196500Y0090180D03*
X0191500Y0090180D03*
X0186500Y0090180D03*
X0196500Y0075180D03*
X0196500Y0068487D03*
X0254000Y0068487D03*
X0254000Y0075180D03*
X0298500Y0075180D03*
X0298500Y0068487D03*
X0308500Y0083487D03*
X0313500Y0083487D03*
X0318500Y0083487D03*
X0318500Y0090180D03*
X0313500Y0090180D03*
X0308500Y0090180D03*
X0318500Y0075180D03*
X0318500Y0068487D03*
X0376000Y0068487D03*
X0376000Y0075180D03*
X0393500Y0128487D03*
X0393500Y0135180D03*
X0363500Y0143487D03*
X0363500Y0150180D03*
X0353500Y0150180D03*
X0353500Y0143487D03*
X0343500Y0143487D03*
X0343500Y0150180D03*
X0333500Y0150180D03*
X0333500Y0143487D03*
X0323500Y0143487D03*
X0323500Y0150180D03*
X0313500Y0140680D03*
X0313500Y0133987D03*
X0271500Y0135180D03*
X0271500Y0128487D03*
X0241500Y0143487D03*
X0241500Y0150180D03*
X0231500Y0150180D03*
X0231500Y0143487D03*
X0221500Y0143487D03*
X0221500Y0150180D03*
X0211500Y0150180D03*
X0211500Y0143487D03*
X0201500Y0143487D03*
X0201500Y0150180D03*
X0191500Y0140680D03*
X0191500Y0133987D03*
X0149500Y0135180D03*
X0149500Y0128487D03*
X0119500Y0143487D03*
X0119500Y0150180D03*
X0109500Y0150180D03*
X0109500Y0143487D03*
X0099500Y0143487D03*
X0099500Y0150180D03*
X0089500Y0150180D03*
X0089500Y0143487D03*
X0079500Y0143487D03*
X0079500Y0150180D03*
X0069500Y0140680D03*
X0069500Y0133987D03*
X0074500Y0170487D03*
X0074500Y0177180D03*
X0074500Y0185487D03*
X0069500Y0185487D03*
X0064500Y0185487D03*
X0064500Y0192180D03*
X0069500Y0192180D03*
X0074500Y0192180D03*
X0054500Y0177180D03*
X0054500Y0170487D03*
X0132000Y0170487D03*
X0132000Y0177180D03*
X0176500Y0177180D03*
X0176500Y0170487D03*
X0186500Y0185487D03*
X0191500Y0185487D03*
X0196500Y0185487D03*
X0196500Y0192180D03*
X0191500Y0192180D03*
X0186500Y0192180D03*
X0196500Y0177180D03*
X0196500Y0170487D03*
X0254000Y0170487D03*
X0254000Y0177180D03*
X0298500Y0177180D03*
X0298500Y0170487D03*
X0308500Y0185487D03*
X0313500Y0185487D03*
X0318500Y0185487D03*
X0318500Y0192180D03*
X0313500Y0192180D03*
X0308500Y0192180D03*
X0318500Y0177180D03*
X0318500Y0170487D03*
X0376000Y0170487D03*
X0376000Y0177180D03*
X0393500Y0230487D03*
X0393500Y0237180D03*
X0363500Y0245487D03*
X0363500Y0252180D03*
X0353500Y0252180D03*
X0353500Y0245487D03*
X0343500Y0245487D03*
X0343500Y0252180D03*
X0333500Y0252180D03*
X0333500Y0245487D03*
X0323500Y0245487D03*
X0323500Y0252180D03*
X0313500Y0242680D03*
X0313500Y0235987D03*
X0271500Y0237180D03*
X0271500Y0230487D03*
X0241500Y0245487D03*
X0241500Y0252180D03*
X0231500Y0252180D03*
X0231500Y0245487D03*
X0221500Y0245487D03*
X0221500Y0252180D03*
X0211500Y0252180D03*
X0211500Y0245487D03*
X0201500Y0245487D03*
X0201500Y0252180D03*
X0191500Y0242680D03*
X0191500Y0235987D03*
X0149500Y0237180D03*
X0149500Y0230487D03*
X0119500Y0245487D03*
X0119500Y0252180D03*
X0109500Y0252180D03*
X0109500Y0245487D03*
X0099500Y0245487D03*
X0099500Y0252180D03*
X0089500Y0252180D03*
X0089500Y0245487D03*
X0079500Y0245487D03*
X0079500Y0252180D03*
X0069500Y0242680D03*
X0069500Y0235987D03*
X0074500Y0272487D03*
X0074500Y0279180D03*
X0074500Y0287487D03*
X0069500Y0287487D03*
X0064500Y0287487D03*
X0064500Y0294180D03*
X0069500Y0294180D03*
X0074500Y0294180D03*
X0054500Y0279180D03*
X0054500Y0272487D03*
X0132000Y0272487D03*
X0132000Y0279180D03*
X0176500Y0279180D03*
X0176500Y0272487D03*
X0186500Y0287487D03*
X0191500Y0287487D03*
X0196500Y0287487D03*
X0196500Y0294180D03*
X0191500Y0294180D03*
X0186500Y0294180D03*
X0196500Y0279180D03*
X0196500Y0272487D03*
X0254000Y0272487D03*
X0254000Y0279180D03*
X0298500Y0279180D03*
X0298500Y0272487D03*
X0308500Y0287487D03*
X0313500Y0287487D03*
X0318500Y0287487D03*
X0318500Y0294180D03*
X0313500Y0294180D03*
X0308500Y0294180D03*
X0318500Y0279180D03*
X0318500Y0272487D03*
X0376000Y0272487D03*
X0376000Y0279180D03*
X0393500Y0332487D03*
X0393500Y0339180D03*
X0363500Y0347487D03*
X0363500Y0354180D03*
X0353500Y0354180D03*
X0353500Y0347487D03*
X0343500Y0347487D03*
X0343500Y0354180D03*
X0333500Y0354180D03*
X0333500Y0347487D03*
X0323500Y0347487D03*
X0323500Y0354180D03*
X0313500Y0344680D03*
X0313500Y0337987D03*
X0271500Y0339180D03*
X0271500Y0332487D03*
X0241500Y0347487D03*
X0241500Y0354180D03*
X0231500Y0354180D03*
X0231500Y0347487D03*
X0221500Y0347487D03*
X0221500Y0354180D03*
X0211500Y0354180D03*
X0211500Y0347487D03*
X0201500Y0347487D03*
X0201500Y0354180D03*
X0191500Y0344680D03*
X0191500Y0337987D03*
X0149500Y0339180D03*
X0149500Y0332487D03*
X0119500Y0347487D03*
X0119500Y0354180D03*
X0109500Y0354180D03*
X0109500Y0347487D03*
X0099500Y0347487D03*
X0099500Y0354180D03*
X0089500Y0354180D03*
X0089500Y0347487D03*
X0079500Y0347487D03*
X0079500Y0354180D03*
X0069500Y0344680D03*
X0069500Y0337987D03*
D16*
G36*
X0135803Y0287423D02*
X0128975Y0294251D01*
X0131907Y0297183D01*
X0138735Y0290355D01*
X0135803Y0287423D01*
G37*
G36*
X0139978Y0291599D02*
X0133150Y0298427D01*
X0136082Y0301359D01*
X0142910Y0294531D01*
X0139978Y0291599D01*
G37*
G36*
X0257803Y0287423D02*
X0250975Y0294251D01*
X0253907Y0297183D01*
X0260735Y0290355D01*
X0257803Y0287423D01*
G37*
G36*
X0261978Y0291599D02*
X0255150Y0298427D01*
X0258082Y0301359D01*
X0264910Y0294531D01*
X0261978Y0291599D01*
G37*
G36*
X0379803Y0287423D02*
X0372975Y0294251D01*
X0375907Y0297183D01*
X0382735Y0290355D01*
X0379803Y0287423D01*
G37*
G36*
X0383978Y0291599D02*
X0377150Y0298427D01*
X0380082Y0301359D01*
X0386910Y0294531D01*
X0383978Y0291599D01*
G37*
G36*
X0383978Y0189599D02*
X0377150Y0196427D01*
X0380082Y0199359D01*
X0386910Y0192531D01*
X0383978Y0189599D01*
G37*
G36*
X0379803Y0185423D02*
X0372975Y0192251D01*
X0375907Y0195183D01*
X0382735Y0188355D01*
X0379803Y0185423D01*
G37*
G36*
X0383978Y0087599D02*
X0377150Y0094427D01*
X0380082Y0097359D01*
X0386910Y0090531D01*
X0383978Y0087599D01*
G37*
G36*
X0379803Y0083423D02*
X0372975Y0090251D01*
X0375907Y0093183D01*
X0382735Y0086355D01*
X0379803Y0083423D01*
G37*
G36*
X0261978Y0087599D02*
X0255150Y0094427D01*
X0258082Y0097359D01*
X0264910Y0090531D01*
X0261978Y0087599D01*
G37*
G36*
X0257803Y0083423D02*
X0250975Y0090251D01*
X0253907Y0093183D01*
X0260735Y0086355D01*
X0257803Y0083423D01*
G37*
G36*
X0139978Y0087599D02*
X0133150Y0094427D01*
X0136082Y0097359D01*
X0142910Y0090531D01*
X0139978Y0087599D01*
G37*
G36*
X0135803Y0083423D02*
X0128975Y0090251D01*
X0131907Y0093183D01*
X0138735Y0086355D01*
X0135803Y0083423D01*
G37*
G36*
X0135803Y0185423D02*
X0128975Y0192251D01*
X0131907Y0195183D01*
X0138735Y0188355D01*
X0135803Y0185423D01*
G37*
G36*
X0139978Y0189599D02*
X0133150Y0196427D01*
X0136082Y0199359D01*
X0142910Y0192531D01*
X0139978Y0189599D01*
G37*
G36*
X0257803Y0185423D02*
X0250975Y0192251D01*
X0253907Y0195183D01*
X0260735Y0188355D01*
X0257803Y0185423D01*
G37*
G36*
X0261978Y0189599D02*
X0255150Y0196427D01*
X0258082Y0199359D01*
X0264910Y0192531D01*
X0261978Y0189599D01*
G37*
D17*
X0251106Y0202022D03*
X0251106Y0206747D03*
X0251106Y0211471D03*
X0251106Y0216196D03*
X0251106Y0220920D03*
X0251106Y0225644D03*
X0201894Y0225644D03*
X0201894Y0220920D03*
X0201894Y0216196D03*
X0201894Y0211471D03*
X0201894Y0206747D03*
X0201894Y0202022D03*
X0129106Y0202022D03*
X0129106Y0206747D03*
X0129106Y0211471D03*
X0129106Y0216196D03*
X0129106Y0220920D03*
X0129106Y0225644D03*
X0079894Y0225644D03*
X0079894Y0220920D03*
X0079894Y0216196D03*
X0079894Y0211471D03*
X0079894Y0206747D03*
X0079894Y0202022D03*
X0079894Y0123644D03*
X0079894Y0118920D03*
X0079894Y0114196D03*
X0079894Y0109471D03*
X0079894Y0104747D03*
X0079894Y0100022D03*
X0129106Y0100022D03*
X0129106Y0104747D03*
X0129106Y0109471D03*
X0129106Y0114196D03*
X0129106Y0118920D03*
X0129106Y0123644D03*
X0201894Y0123644D03*
X0201894Y0118920D03*
X0201894Y0114196D03*
X0201894Y0109471D03*
X0201894Y0104747D03*
X0201894Y0100022D03*
X0251106Y0100022D03*
X0251106Y0104747D03*
X0251106Y0109471D03*
X0251106Y0114196D03*
X0251106Y0118920D03*
X0251106Y0123644D03*
X0323894Y0123644D03*
X0323894Y0118920D03*
X0323894Y0114196D03*
X0323894Y0109471D03*
X0323894Y0104747D03*
X0323894Y0100022D03*
X0373106Y0100022D03*
X0373106Y0104747D03*
X0373106Y0109471D03*
X0373106Y0114196D03*
X0373106Y0118920D03*
X0373106Y0123644D03*
X0373106Y0202022D03*
X0373106Y0206747D03*
X0373106Y0211471D03*
X0373106Y0216196D03*
X0373106Y0220920D03*
X0373106Y0225644D03*
X0323894Y0225644D03*
X0323894Y0220920D03*
X0323894Y0216196D03*
X0323894Y0211471D03*
X0323894Y0206747D03*
X0323894Y0202022D03*
X0323894Y0304022D03*
X0323894Y0308747D03*
X0323894Y0313471D03*
X0323894Y0318196D03*
X0323894Y0322920D03*
X0323894Y0327644D03*
X0373106Y0327644D03*
X0373106Y0322920D03*
X0373106Y0318196D03*
X0373106Y0313471D03*
X0373106Y0308747D03*
X0373106Y0304022D03*
X0251106Y0304022D03*
X0251106Y0308747D03*
X0251106Y0313471D03*
X0251106Y0318196D03*
X0251106Y0322920D03*
X0251106Y0327644D03*
X0201894Y0327644D03*
X0201894Y0322920D03*
X0201894Y0318196D03*
X0201894Y0313471D03*
X0201894Y0308747D03*
X0201894Y0304022D03*
X0129106Y0304022D03*
X0129106Y0308747D03*
X0129106Y0313471D03*
X0129106Y0318196D03*
X0129106Y0322920D03*
X0129106Y0327644D03*
X0079894Y0327644D03*
X0079894Y0322920D03*
X0079894Y0318196D03*
X0079894Y0313471D03*
X0079894Y0308747D03*
X0079894Y0304022D03*
D18*
X0090327Y0291227D03*
X0095051Y0291227D03*
X0099776Y0291227D03*
X0109224Y0291227D03*
X0113949Y0291227D03*
X0118673Y0291227D03*
X0118673Y0340440D03*
X0113949Y0340440D03*
X0109224Y0340440D03*
X0099776Y0340440D03*
X0095051Y0340440D03*
X0090327Y0340440D03*
X0212327Y0340440D03*
X0217051Y0340440D03*
X0221776Y0340440D03*
X0231224Y0340440D03*
X0235949Y0340440D03*
X0240673Y0340440D03*
X0240673Y0291227D03*
X0235949Y0291227D03*
X0231224Y0291227D03*
X0221776Y0291227D03*
X0217051Y0291227D03*
X0212327Y0291227D03*
X0212327Y0238440D03*
X0217051Y0238440D03*
X0221776Y0238440D03*
X0231224Y0238440D03*
X0235949Y0238440D03*
X0240673Y0238440D03*
X0240673Y0189227D03*
X0235949Y0189227D03*
X0231224Y0189227D03*
X0221776Y0189227D03*
X0217051Y0189227D03*
X0212327Y0189227D03*
X0212327Y0136440D03*
X0217051Y0136440D03*
X0221776Y0136440D03*
X0231224Y0136440D03*
X0235949Y0136440D03*
X0240673Y0136440D03*
X0240673Y0087227D03*
X0235949Y0087227D03*
X0231224Y0087227D03*
X0221776Y0087227D03*
X0217051Y0087227D03*
X0212327Y0087227D03*
X0118673Y0087227D03*
X0113949Y0087227D03*
X0109224Y0087227D03*
X0099776Y0087227D03*
X0095051Y0087227D03*
X0090327Y0087227D03*
X0090327Y0136440D03*
X0095051Y0136440D03*
X0099776Y0136440D03*
X0109224Y0136440D03*
X0113949Y0136440D03*
X0118673Y0136440D03*
X0118673Y0189227D03*
X0113949Y0189227D03*
X0109224Y0189227D03*
X0099776Y0189227D03*
X0095051Y0189227D03*
X0090327Y0189227D03*
X0090327Y0238440D03*
X0095051Y0238440D03*
X0099776Y0238440D03*
X0109224Y0238440D03*
X0113949Y0238440D03*
X0118673Y0238440D03*
X0334327Y0238440D03*
X0339051Y0238440D03*
X0343776Y0238440D03*
X0353224Y0238440D03*
X0357949Y0238440D03*
X0362673Y0238440D03*
X0362673Y0189227D03*
X0357949Y0189227D03*
X0353224Y0189227D03*
X0343776Y0189227D03*
X0339051Y0189227D03*
X0334327Y0189227D03*
X0334327Y0136440D03*
X0339051Y0136440D03*
X0343776Y0136440D03*
X0353224Y0136440D03*
X0357949Y0136440D03*
X0362673Y0136440D03*
X0362673Y0087227D03*
X0357949Y0087227D03*
X0353224Y0087227D03*
X0343776Y0087227D03*
X0339051Y0087227D03*
X0334327Y0087227D03*
X0334327Y0291227D03*
X0339051Y0291227D03*
X0343776Y0291227D03*
X0353224Y0291227D03*
X0357949Y0291227D03*
X0362673Y0291227D03*
X0362673Y0340440D03*
X0357949Y0340440D03*
X0353224Y0340440D03*
X0343776Y0340440D03*
X0339051Y0340440D03*
X0334327Y0340440D03*
D19*
X0384000Y0335833D03*
X0388000Y0335833D03*
X0311700Y0275833D03*
X0308500Y0275833D03*
X0305300Y0275833D03*
X0266000Y0233833D03*
X0262000Y0233833D03*
X0189700Y0275833D03*
X0186500Y0275833D03*
X0183300Y0275833D03*
X0144000Y0233833D03*
X0140000Y0233833D03*
X0067700Y0275833D03*
X0064500Y0275833D03*
X0061300Y0275833D03*
X0140000Y0335833D03*
X0144000Y0335833D03*
X0262000Y0335833D03*
X0266000Y0335833D03*
X0384000Y0233833D03*
X0388000Y0233833D03*
X0311700Y0173833D03*
X0308500Y0173833D03*
X0305300Y0173833D03*
X0266000Y0131833D03*
X0262000Y0131833D03*
X0189700Y0173833D03*
X0186500Y0173833D03*
X0183300Y0173833D03*
X0144000Y0131833D03*
X0140000Y0131833D03*
X0067700Y0173833D03*
X0064500Y0173833D03*
X0061300Y0173833D03*
X0061300Y0071833D03*
X0064500Y0071833D03*
X0067700Y0071833D03*
X0183300Y0071833D03*
X0186500Y0071833D03*
X0189700Y0071833D03*
X0305300Y0071833D03*
X0308500Y0071833D03*
X0311700Y0071833D03*
X0384000Y0131833D03*
X0388000Y0131833D03*
D20*
X0399342Y0126723D02*
X0402658Y0126723D01*
X0399342Y0126723D02*
X0399342Y0130039D01*
X0402658Y0130039D01*
X0402658Y0126723D01*
X0402658Y0128143D02*
X0399342Y0128143D01*
X0399342Y0129563D02*
X0402658Y0129563D01*
X0402658Y0133628D02*
X0399342Y0133628D01*
X0399342Y0136944D01*
X0402658Y0136944D01*
X0402658Y0133628D01*
X0402658Y0135048D02*
X0399342Y0135048D01*
X0399342Y0136468D02*
X0402658Y0136468D01*
X0402658Y0228723D02*
X0399342Y0228723D01*
X0399342Y0232039D01*
X0402658Y0232039D01*
X0402658Y0228723D01*
X0402658Y0230143D02*
X0399342Y0230143D01*
X0399342Y0231563D02*
X0402658Y0231563D01*
X0402658Y0235628D02*
X0399342Y0235628D01*
X0399342Y0238944D01*
X0402658Y0238944D01*
X0402658Y0235628D01*
X0402658Y0237048D02*
X0399342Y0237048D01*
X0399342Y0238468D02*
X0402658Y0238468D01*
X0402658Y0330723D02*
X0399342Y0330723D01*
X0399342Y0334039D01*
X0402658Y0334039D01*
X0402658Y0330723D01*
X0402658Y0332143D02*
X0399342Y0332143D01*
X0399342Y0333563D02*
X0402658Y0333563D01*
X0402658Y0337628D02*
X0399342Y0337628D01*
X0399342Y0340944D01*
X0402658Y0340944D01*
X0402658Y0337628D01*
X0402658Y0339048D02*
X0399342Y0339048D01*
X0399342Y0340468D02*
X0402658Y0340468D01*
X0280658Y0337628D02*
X0277342Y0337628D01*
X0277342Y0340944D01*
X0280658Y0340944D01*
X0280658Y0337628D01*
X0280658Y0339048D02*
X0277342Y0339048D01*
X0277342Y0340468D02*
X0280658Y0340468D01*
X0280658Y0330723D02*
X0277342Y0330723D01*
X0277342Y0334039D01*
X0280658Y0334039D01*
X0280658Y0330723D01*
X0280658Y0332143D02*
X0277342Y0332143D01*
X0277342Y0333563D02*
X0280658Y0333563D01*
X0280658Y0235628D02*
X0277342Y0235628D01*
X0277342Y0238944D01*
X0280658Y0238944D01*
X0280658Y0235628D01*
X0280658Y0237048D02*
X0277342Y0237048D01*
X0277342Y0238468D02*
X0280658Y0238468D01*
X0280658Y0228723D02*
X0277342Y0228723D01*
X0277342Y0232039D01*
X0280658Y0232039D01*
X0280658Y0228723D01*
X0280658Y0230143D02*
X0277342Y0230143D01*
X0277342Y0231563D02*
X0280658Y0231563D01*
X0280658Y0133628D02*
X0277342Y0133628D01*
X0277342Y0136944D01*
X0280658Y0136944D01*
X0280658Y0133628D01*
X0280658Y0135048D02*
X0277342Y0135048D01*
X0277342Y0136468D02*
X0280658Y0136468D01*
X0280658Y0126723D02*
X0277342Y0126723D01*
X0277342Y0130039D01*
X0280658Y0130039D01*
X0280658Y0126723D01*
X0280658Y0128143D02*
X0277342Y0128143D01*
X0277342Y0129563D02*
X0280658Y0129563D01*
X0158658Y0126723D02*
X0155342Y0126723D01*
X0155342Y0130039D01*
X0158658Y0130039D01*
X0158658Y0126723D01*
X0158658Y0128143D02*
X0155342Y0128143D01*
X0155342Y0129563D02*
X0158658Y0129563D01*
X0158658Y0133628D02*
X0155342Y0133628D01*
X0155342Y0136944D01*
X0158658Y0136944D01*
X0158658Y0133628D01*
X0158658Y0135048D02*
X0155342Y0135048D01*
X0155342Y0136468D02*
X0158658Y0136468D01*
X0158658Y0228723D02*
X0155342Y0228723D01*
X0155342Y0232039D01*
X0158658Y0232039D01*
X0158658Y0228723D01*
X0158658Y0230143D02*
X0155342Y0230143D01*
X0155342Y0231563D02*
X0158658Y0231563D01*
X0158658Y0235628D02*
X0155342Y0235628D01*
X0155342Y0238944D01*
X0158658Y0238944D01*
X0158658Y0235628D01*
X0158658Y0237048D02*
X0155342Y0237048D01*
X0155342Y0238468D02*
X0158658Y0238468D01*
X0158658Y0330723D02*
X0155342Y0330723D01*
X0155342Y0334039D01*
X0158658Y0334039D01*
X0158658Y0330723D01*
X0158658Y0332143D02*
X0155342Y0332143D01*
X0155342Y0333563D02*
X0158658Y0333563D01*
X0158658Y0337628D02*
X0155342Y0337628D01*
X0155342Y0340944D01*
X0158658Y0340944D01*
X0158658Y0337628D01*
X0158658Y0339048D02*
X0155342Y0339048D01*
X0155342Y0340468D02*
X0158658Y0340468D01*
D21*
X0142750Y0336333D02*
X0142750Y0335333D01*
X0141250Y0335333D01*
X0141250Y0336333D01*
X0142750Y0336333D01*
X0142750Y0336015D02*
X0141250Y0336015D01*
X0141250Y0335516D02*
X0142750Y0335516D01*
X0263250Y0335516D02*
X0264750Y0335516D01*
X0264750Y0335333D02*
X0264750Y0336333D01*
X0263250Y0336333D01*
X0263250Y0335333D01*
X0264750Y0335333D01*
X0264750Y0336015D02*
X0263250Y0336015D01*
X0385250Y0336015D02*
X0386750Y0336015D01*
X0386750Y0336333D02*
X0386750Y0335333D01*
X0385250Y0335333D01*
X0385250Y0336333D01*
X0386750Y0336333D01*
X0386750Y0335516D02*
X0385250Y0335516D01*
X0385250Y0234333D02*
X0386750Y0234333D01*
X0386750Y0233333D01*
X0385250Y0233333D01*
X0385250Y0234333D01*
X0385250Y0234318D02*
X0386750Y0234318D01*
X0386750Y0233820D02*
X0385250Y0233820D01*
X0264750Y0233820D02*
X0263250Y0233820D01*
X0263250Y0233333D02*
X0263250Y0234333D01*
X0264750Y0234333D01*
X0264750Y0233333D01*
X0263250Y0233333D01*
X0263250Y0234318D02*
X0264750Y0234318D01*
X0142750Y0234318D02*
X0141250Y0234318D01*
X0141250Y0234333D02*
X0142750Y0234333D01*
X0142750Y0233333D01*
X0141250Y0233333D01*
X0141250Y0234333D01*
X0141250Y0233820D02*
X0142750Y0233820D01*
X0142750Y0132333D02*
X0142750Y0131333D01*
X0141250Y0131333D01*
X0141250Y0132333D01*
X0142750Y0132333D01*
X0142750Y0132123D02*
X0141250Y0132123D01*
X0141250Y0131625D02*
X0142750Y0131625D01*
X0263250Y0131625D02*
X0264750Y0131625D01*
X0264750Y0131333D02*
X0264750Y0132333D01*
X0263250Y0132333D01*
X0263250Y0131333D01*
X0264750Y0131333D01*
X0264750Y0132123D02*
X0263250Y0132123D01*
X0385250Y0132123D02*
X0386750Y0132123D01*
X0386750Y0132333D02*
X0386750Y0131333D01*
X0385250Y0131333D01*
X0385250Y0132333D01*
X0386750Y0132333D01*
X0386750Y0131625D02*
X0385250Y0131625D01*
D22*
X0381500Y0109861D03*
X0381500Y0100806D03*
X0259500Y0100806D03*
X0259500Y0109861D03*
X0259500Y0202806D03*
X0259500Y0211861D03*
X0259500Y0304806D03*
X0259500Y0313861D03*
X0137500Y0313861D03*
X0137500Y0304806D03*
X0137500Y0211861D03*
X0137500Y0202806D03*
X0137500Y0109861D03*
X0137500Y0100806D03*
X0381500Y0202806D03*
X0381500Y0211861D03*
X0381500Y0304806D03*
X0381500Y0313861D03*
D23*
X0390154Y0298333D03*
X0396846Y0298333D03*
X0274846Y0298333D03*
X0268154Y0298333D03*
X0152846Y0298333D03*
X0146154Y0298333D03*
X0146154Y0196333D03*
X0152846Y0196333D03*
X0268154Y0196333D03*
X0274846Y0196333D03*
X0390154Y0196333D03*
X0396846Y0196333D03*
X0396846Y0094333D03*
X0390154Y0094333D03*
X0274846Y0094333D03*
X0268154Y0094333D03*
X0152846Y0094333D03*
X0146154Y0094333D03*
D24*
X0176000Y0128920D03*
X0176000Y0139747D03*
X0176000Y0230920D03*
X0176000Y0241747D03*
X0176000Y0332920D03*
X0176000Y0343747D03*
X0054000Y0343747D03*
X0054000Y0332920D03*
X0054000Y0241747D03*
X0054000Y0230920D03*
X0054000Y0139747D03*
X0054000Y0128920D03*
X0298000Y0128920D03*
X0298000Y0139747D03*
X0298000Y0230920D03*
X0298000Y0241747D03*
X0298000Y0332920D03*
X0298000Y0343747D03*
D25*
X0291996Y0338333D03*
X0304004Y0338333D03*
X0182004Y0338333D03*
X0169996Y0338333D03*
X0060004Y0338333D03*
X0047996Y0338333D03*
X0047996Y0236333D03*
X0060004Y0236333D03*
X0169996Y0236333D03*
X0182004Y0236333D03*
X0291996Y0236333D03*
X0304004Y0236333D03*
X0304004Y0134333D03*
X0291996Y0134333D03*
X0182004Y0134333D03*
X0169996Y0134333D03*
X0060004Y0134333D03*
X0047996Y0134333D03*
D26*
X0064500Y0126833D03*
X0054500Y0116833D03*
X0071000Y0113333D03*
X0072000Y0106833D03*
X0069500Y0101833D03*
X0064500Y0096833D03*
X0054500Y0081833D03*
X0079500Y0075333D03*
X0099500Y0075333D03*
X0119500Y0071833D03*
X0127500Y0074333D03*
X0124500Y0081833D03*
X0139500Y0078333D03*
X0144500Y0086833D03*
X0144500Y0101833D03*
X0137500Y0105833D03*
X0136000Y0116833D03*
X0134500Y0126833D03*
X0142000Y0139333D03*
X0119500Y0126833D03*
X0109500Y0126833D03*
X0099500Y0126833D03*
X0089500Y0126833D03*
X0089500Y0116833D03*
X0089500Y0106833D03*
X0099500Y0106833D03*
X0109500Y0106833D03*
X0119500Y0106833D03*
X0119500Y0116833D03*
X0109500Y0116833D03*
X0099500Y0116833D03*
X0099500Y0096833D03*
X0089500Y0096833D03*
X0109500Y0096833D03*
X0119500Y0096833D03*
X0139500Y0066833D03*
X0176500Y0081833D03*
X0186500Y0096833D03*
X0191500Y0101833D03*
X0194000Y0106833D03*
X0193000Y0113333D03*
X0211500Y0116833D03*
X0211500Y0106833D03*
X0221500Y0106833D03*
X0231500Y0106833D03*
X0241500Y0106833D03*
X0241500Y0116833D03*
X0231500Y0116833D03*
X0221500Y0116833D03*
X0221500Y0126833D03*
X0211500Y0126833D03*
X0196500Y0141833D03*
X0186500Y0126833D03*
X0176500Y0116833D03*
X0154500Y0106833D03*
X0152000Y0113833D03*
X0201500Y0075333D03*
X0221500Y0075333D03*
X0241500Y0071833D03*
X0249500Y0074333D03*
X0246500Y0081833D03*
X0261500Y0078333D03*
X0266500Y0086833D03*
X0266500Y0101833D03*
X0259500Y0105833D03*
X0258000Y0116833D03*
X0256500Y0126833D03*
X0264000Y0139333D03*
X0241500Y0126833D03*
X0231500Y0126833D03*
X0199000Y0156833D03*
X0201500Y0177333D03*
X0221500Y0177333D03*
X0241500Y0173833D03*
X0249500Y0176333D03*
X0246500Y0183833D03*
X0261500Y0180333D03*
X0266500Y0188833D03*
X0266500Y0203833D03*
X0259500Y0207833D03*
X0258000Y0218833D03*
X0256500Y0228833D03*
X0264000Y0241333D03*
X0241500Y0228833D03*
X0231500Y0228833D03*
X0221500Y0228833D03*
X0211500Y0228833D03*
X0211500Y0218833D03*
X0211500Y0208833D03*
X0221500Y0208833D03*
X0231500Y0208833D03*
X0241500Y0208833D03*
X0241500Y0218833D03*
X0231500Y0218833D03*
X0221500Y0218833D03*
X0221500Y0198833D03*
X0211500Y0198833D03*
X0194000Y0208833D03*
X0191500Y0203833D03*
X0186500Y0198833D03*
X0176500Y0183833D03*
X0144500Y0188833D03*
X0139500Y0180333D03*
X0127500Y0176333D03*
X0124500Y0183833D03*
X0119500Y0173833D03*
X0099500Y0177333D03*
X0079500Y0177333D03*
X0077000Y0156833D03*
X0074500Y0141833D03*
X0052000Y0151833D03*
X0054500Y0183833D03*
X0064500Y0198833D03*
X0069500Y0203833D03*
X0072000Y0208833D03*
X0071000Y0215333D03*
X0054500Y0218833D03*
X0064500Y0228833D03*
X0074500Y0243833D03*
X0089500Y0228833D03*
X0099500Y0228833D03*
X0109500Y0228833D03*
X0119500Y0228833D03*
X0119500Y0218833D03*
X0109500Y0218833D03*
X0109500Y0208833D03*
X0119500Y0208833D03*
X0119500Y0198833D03*
X0109500Y0198833D03*
X0099500Y0198833D03*
X0089500Y0198833D03*
X0089500Y0208833D03*
X0099500Y0208833D03*
X0099500Y0218833D03*
X0089500Y0218833D03*
X0134500Y0228833D03*
X0136000Y0218833D03*
X0137500Y0207833D03*
X0144500Y0203833D03*
X0154500Y0208833D03*
X0152000Y0215833D03*
X0176500Y0218833D03*
X0186500Y0228833D03*
X0196500Y0243833D03*
X0199000Y0258833D03*
X0201500Y0279333D03*
X0221500Y0279333D03*
X0241500Y0275833D03*
X0249500Y0278333D03*
X0246500Y0285833D03*
X0261500Y0282333D03*
X0266500Y0290833D03*
X0266500Y0305833D03*
X0259500Y0309833D03*
X0258000Y0320833D03*
X0256500Y0330833D03*
X0264000Y0343333D03*
X0241500Y0330833D03*
X0231500Y0330833D03*
X0221500Y0330833D03*
X0211500Y0330833D03*
X0211500Y0320833D03*
X0211500Y0310833D03*
X0221500Y0310833D03*
X0231500Y0310833D03*
X0241500Y0310833D03*
X0241500Y0320833D03*
X0231500Y0320833D03*
X0221500Y0320833D03*
X0221500Y0300833D03*
X0211500Y0300833D03*
X0194000Y0310833D03*
X0191500Y0305833D03*
X0186500Y0300833D03*
X0176500Y0285833D03*
X0144500Y0290833D03*
X0139500Y0282333D03*
X0127500Y0278333D03*
X0124500Y0285833D03*
X0119500Y0275833D03*
X0099500Y0279333D03*
X0079500Y0279333D03*
X0077000Y0258833D03*
X0052000Y0253833D03*
X0054500Y0285833D03*
X0064500Y0300833D03*
X0069500Y0305833D03*
X0072000Y0310833D03*
X0071000Y0317333D03*
X0054500Y0320833D03*
X0064500Y0330833D03*
X0074500Y0345833D03*
X0089500Y0330833D03*
X0099500Y0330833D03*
X0109500Y0330833D03*
X0119500Y0330833D03*
X0119500Y0320833D03*
X0109500Y0320833D03*
X0109500Y0310833D03*
X0119500Y0310833D03*
X0119500Y0300833D03*
X0109500Y0300833D03*
X0099500Y0300833D03*
X0089500Y0300833D03*
X0089500Y0310833D03*
X0099500Y0310833D03*
X0099500Y0320833D03*
X0089500Y0320833D03*
X0134500Y0330833D03*
X0136000Y0320833D03*
X0137500Y0309833D03*
X0144500Y0305833D03*
X0154500Y0310833D03*
X0152000Y0317833D03*
X0176500Y0320833D03*
X0186500Y0330833D03*
X0196500Y0345833D03*
X0199000Y0360833D03*
X0174000Y0355833D03*
X0142000Y0343333D03*
X0193000Y0317333D03*
X0231500Y0300833D03*
X0241500Y0300833D03*
X0274000Y0317833D03*
X0276500Y0310833D03*
X0298500Y0320833D03*
X0308500Y0330833D03*
X0318500Y0345833D03*
X0333500Y0330833D03*
X0343500Y0330833D03*
X0353500Y0330833D03*
X0363500Y0330833D03*
X0363500Y0320833D03*
X0363500Y0310833D03*
X0353500Y0310833D03*
X0343500Y0310833D03*
X0333500Y0310833D03*
X0333500Y0320833D03*
X0343500Y0320833D03*
X0353500Y0320833D03*
X0353500Y0300833D03*
X0343500Y0300833D03*
X0333500Y0300833D03*
X0316000Y0310833D03*
X0313500Y0305833D03*
X0308500Y0300833D03*
X0298500Y0285833D03*
X0323500Y0279333D03*
X0343500Y0279333D03*
X0363500Y0275833D03*
X0371500Y0278333D03*
X0368500Y0285833D03*
X0383500Y0282333D03*
X0388500Y0290833D03*
X0388500Y0305833D03*
X0381500Y0309833D03*
X0380000Y0320833D03*
X0378500Y0330833D03*
X0386000Y0343333D03*
X0396000Y0317833D03*
X0398500Y0310833D03*
X0363500Y0300833D03*
X0383500Y0270833D03*
X0386000Y0241333D03*
X0378500Y0228833D03*
X0380000Y0218833D03*
X0381500Y0207833D03*
X0388500Y0203833D03*
X0398500Y0208833D03*
X0396000Y0215833D03*
X0388500Y0188833D03*
X0383500Y0180333D03*
X0371500Y0176333D03*
X0368500Y0183833D03*
X0363500Y0173833D03*
X0343500Y0177333D03*
X0323500Y0177333D03*
X0321000Y0156833D03*
X0318500Y0141833D03*
X0308500Y0126833D03*
X0298500Y0116833D03*
X0315000Y0113333D03*
X0316000Y0106833D03*
X0313500Y0101833D03*
X0308500Y0096833D03*
X0298500Y0081833D03*
X0323500Y0075333D03*
X0343500Y0075333D03*
X0363500Y0071833D03*
X0371500Y0074333D03*
X0368500Y0081833D03*
X0383500Y0078333D03*
X0388500Y0086833D03*
X0388500Y0101833D03*
X0381500Y0105833D03*
X0380000Y0116833D03*
X0378500Y0126833D03*
X0386000Y0139333D03*
X0363500Y0126833D03*
X0353500Y0126833D03*
X0343500Y0126833D03*
X0333500Y0126833D03*
X0333500Y0116833D03*
X0333500Y0106833D03*
X0343500Y0106833D03*
X0353500Y0106833D03*
X0363500Y0106833D03*
X0363500Y0116833D03*
X0353500Y0116833D03*
X0343500Y0116833D03*
X0343500Y0096833D03*
X0353500Y0096833D03*
X0363500Y0096833D03*
X0333500Y0096833D03*
X0383500Y0066833D03*
X0398500Y0106833D03*
X0396000Y0113833D03*
X0383500Y0168833D03*
X0363500Y0198833D03*
X0353500Y0198833D03*
X0343500Y0198833D03*
X0333500Y0198833D03*
X0333500Y0208833D03*
X0343500Y0208833D03*
X0353500Y0208833D03*
X0363500Y0208833D03*
X0363500Y0218833D03*
X0353500Y0218833D03*
X0343500Y0218833D03*
X0333500Y0218833D03*
X0333500Y0228833D03*
X0343500Y0228833D03*
X0353500Y0228833D03*
X0363500Y0228833D03*
X0318500Y0243833D03*
X0308500Y0228833D03*
X0298500Y0218833D03*
X0315000Y0215333D03*
X0316000Y0208833D03*
X0313500Y0203833D03*
X0308500Y0198833D03*
X0298500Y0183833D03*
X0276500Y0208833D03*
X0274000Y0215833D03*
X0241500Y0198833D03*
X0231500Y0198833D03*
X0193000Y0215333D03*
X0174000Y0253833D03*
X0142000Y0241333D03*
X0139500Y0270833D03*
X0052000Y0355833D03*
X0077000Y0360833D03*
X0261500Y0270833D03*
X0296000Y0253833D03*
X0321000Y0258833D03*
X0315000Y0317333D03*
X0296000Y0355833D03*
X0321000Y0360833D03*
X0261500Y0168833D03*
X0296000Y0151833D03*
X0274000Y0113833D03*
X0276500Y0106833D03*
X0241500Y0096833D03*
X0231500Y0096833D03*
X0221500Y0096833D03*
X0211500Y0096833D03*
X0261500Y0066833D03*
X0174000Y0151833D03*
X0139500Y0168833D03*
M02*
