G75*
%MOIN*%
%OFA0B0*%
%FSLAX25Y25*%
%IPPOS*%
%LPD*%
%AMOC8*
5,1,8,0,0,1.08239X$1,22.5*
%
%ADD10C,0.13800*%
%ADD11C,0.08200*%
D10*
X0064500Y0151833D03*
X0144500Y0151833D03*
X0186500Y0151833D03*
X0266500Y0151833D03*
X0308500Y0151833D03*
X0388500Y0151833D03*
X0388500Y0253833D03*
X0308500Y0253833D03*
X0266500Y0253833D03*
X0186500Y0253833D03*
X0144500Y0253833D03*
X0064500Y0253833D03*
X0064500Y0355833D03*
X0144500Y0355833D03*
X0186500Y0355833D03*
X0266500Y0355833D03*
X0308500Y0355833D03*
X0388500Y0355833D03*
D11*
X0084500Y0066833D03*
X0094500Y0066833D03*
X0104500Y0066833D03*
X0114500Y0066833D03*
X0124500Y0066833D03*
X0206500Y0066833D03*
X0216500Y0066833D03*
X0226500Y0066833D03*
X0236500Y0066833D03*
X0246500Y0066833D03*
X0328500Y0066833D03*
X0338500Y0066833D03*
X0348500Y0066833D03*
X0358500Y0066833D03*
X0368500Y0066833D03*
X0368500Y0156833D03*
X0358500Y0156833D03*
X0348500Y0156833D03*
X0338500Y0156833D03*
X0328500Y0156833D03*
X0328500Y0168833D03*
X0338500Y0168833D03*
X0348500Y0168833D03*
X0358500Y0168833D03*
X0368500Y0168833D03*
X0368500Y0258833D03*
X0358500Y0258833D03*
X0348500Y0258833D03*
X0338500Y0258833D03*
X0328500Y0258833D03*
X0328500Y0270833D03*
X0338500Y0270833D03*
X0348500Y0270833D03*
X0358500Y0270833D03*
X0368500Y0270833D03*
X0368500Y0360833D03*
X0358500Y0360833D03*
X0348500Y0360833D03*
X0338500Y0360833D03*
X0328500Y0360833D03*
X0246500Y0360833D03*
X0236500Y0360833D03*
X0226500Y0360833D03*
X0216500Y0360833D03*
X0206500Y0360833D03*
X0124500Y0360833D03*
X0114500Y0360833D03*
X0104500Y0360833D03*
X0094500Y0360833D03*
X0084500Y0360833D03*
X0084500Y0270833D03*
X0094500Y0270833D03*
X0104500Y0270833D03*
X0114500Y0270833D03*
X0124500Y0270833D03*
X0124500Y0258833D03*
X0114500Y0258833D03*
X0104500Y0258833D03*
X0094500Y0258833D03*
X0084500Y0258833D03*
X0084500Y0168833D03*
X0094500Y0168833D03*
X0104500Y0168833D03*
X0114500Y0168833D03*
X0124500Y0168833D03*
X0124500Y0156833D03*
X0114500Y0156833D03*
X0104500Y0156833D03*
X0094500Y0156833D03*
X0084500Y0156833D03*
X0206500Y0156833D03*
X0216500Y0156833D03*
X0226500Y0156833D03*
X0236500Y0156833D03*
X0246500Y0156833D03*
X0246500Y0168833D03*
X0236500Y0168833D03*
X0226500Y0168833D03*
X0216500Y0168833D03*
X0206500Y0168833D03*
X0206500Y0258833D03*
X0216500Y0258833D03*
X0226500Y0258833D03*
X0236500Y0258833D03*
X0246500Y0258833D03*
X0246500Y0270833D03*
X0236500Y0270833D03*
X0226500Y0270833D03*
X0216500Y0270833D03*
X0206500Y0270833D03*
M02*
