G75*
%MOIN*%
%OFA0B0*%
%FSLAX25Y25*%
%IPPOS*%
%LPD*%
%AMOC8*
5,1,8,0,0,1.08239X$1,22.5*
%
%ADD10C,0.08200*%
%ADD11R,0.05131X0.04737*%
%ADD12R,0.05800X0.03300*%
%ADD13C,0.00500*%
%ADD14R,0.08674X0.05524*%
%ADD15R,0.06115X0.03162*%
%ADD16R,0.08674X0.03162*%
%ADD17R,0.03162X0.08674*%
%ADD18R,0.04737X0.05131*%
%ADD19R,0.09658X0.02769*%
D10*
X0203333Y0100000D03*
X0213333Y0100000D03*
X0223333Y0100000D03*
X0233333Y0100000D03*
X0253333Y0140000D03*
X0233333Y0230000D03*
X0223333Y0230000D03*
X0213333Y0230000D03*
X0203333Y0230000D03*
D11*
X0194987Y0115000D03*
X0201680Y0115000D03*
X0201680Y0125000D03*
X0194987Y0125000D03*
X0194987Y0135000D03*
X0201680Y0135000D03*
X0209987Y0135000D03*
X0216680Y0135000D03*
X0229987Y0135000D03*
X0236680Y0135000D03*
X0254987Y0155000D03*
X0261680Y0155000D03*
X0261680Y0180000D03*
X0254987Y0180000D03*
X0196680Y0210000D03*
X0189987Y0210000D03*
D12*
X0263333Y0171500D03*
X0263333Y0167500D03*
X0263333Y0163500D03*
D13*
X0262833Y0164750D02*
X0262833Y0166250D01*
X0263833Y0166250D01*
X0263833Y0164750D01*
X0262833Y0164750D01*
X0262833Y0164777D02*
X0263833Y0164777D01*
X0263833Y0165275D02*
X0262833Y0165275D01*
X0262833Y0165774D02*
X0263833Y0165774D01*
X0263833Y0168750D02*
X0262833Y0168750D01*
X0262833Y0170250D01*
X0263833Y0170250D01*
X0263833Y0168750D01*
X0263833Y0168765D02*
X0262833Y0168765D01*
X0262833Y0169263D02*
X0263833Y0169263D01*
X0263833Y0169762D02*
X0262833Y0169762D01*
D14*
X0292802Y0158976D03*
X0292802Y0181024D03*
X0143865Y0181024D03*
X0143865Y0158976D03*
D15*
X0158333Y0164094D03*
X0158333Y0168031D03*
X0158333Y0171969D03*
X0158333Y0175906D03*
X0278333Y0175906D03*
X0278333Y0171969D03*
X0278333Y0168031D03*
X0278333Y0164094D03*
D16*
X0242546Y0162795D03*
X0242546Y0167520D03*
X0242546Y0172244D03*
X0242546Y0176969D03*
X0242546Y0181693D03*
X0242546Y0186417D03*
X0193333Y0186417D03*
X0193333Y0181693D03*
X0193333Y0176969D03*
X0193333Y0172244D03*
X0193333Y0167520D03*
X0193333Y0162795D03*
D17*
X0203766Y0150000D03*
X0208491Y0150000D03*
X0213215Y0150000D03*
X0222664Y0150000D03*
X0227388Y0150000D03*
X0232113Y0150000D03*
X0232113Y0199213D03*
X0227388Y0199213D03*
X0222664Y0199213D03*
X0213215Y0199213D03*
X0208491Y0199213D03*
X0203766Y0199213D03*
D18*
X0223333Y0211654D03*
X0223333Y0218346D03*
X0233333Y0218346D03*
X0233333Y0211654D03*
D19*
X0232782Y0121417D03*
X0232782Y0116575D03*
M02*
