G75*
%MOIN*%
%OFA0B0*%
%FSLAX25Y25*%
%IPPOS*%
%LPD*%
%AMOC8*
5,1,8,0,0,1.08239X$1,22.5*
%
%ADD10C,0.00600*%
%ADD11C,0.00039*%
%ADD12C,0.01000*%
%ADD13C,0.01575*%
%ADD14C,0.00500*%
D10*
X0201630Y0076867D02*
X0202198Y0076300D01*
X0202765Y0076300D01*
X0203332Y0076867D01*
X0203332Y0078001D01*
X0203899Y0078569D01*
X0204466Y0078569D01*
X0205033Y0078001D01*
X0205033Y0076867D01*
X0204466Y0076300D01*
X0201630Y0076867D02*
X0201630Y0078001D01*
X0202198Y0078569D01*
X0202198Y0079983D02*
X0201630Y0080550D01*
X0201630Y0081685D01*
X0202198Y0082252D01*
X0201630Y0083666D02*
X0205033Y0083666D01*
X0205033Y0085935D01*
X0204466Y0082252D02*
X0205033Y0081685D01*
X0205033Y0080550D01*
X0204466Y0079983D01*
X0202198Y0079983D01*
X0211630Y0079983D02*
X0211630Y0081685D01*
X0212198Y0082252D01*
X0214466Y0082252D01*
X0215033Y0081685D01*
X0215033Y0079983D01*
X0211630Y0079983D01*
X0212198Y0078569D02*
X0211630Y0078001D01*
X0211630Y0076867D01*
X0212198Y0076300D01*
X0212765Y0076300D01*
X0213332Y0076867D01*
X0213332Y0078001D01*
X0213899Y0078569D01*
X0214466Y0078569D01*
X0215033Y0078001D01*
X0215033Y0076867D01*
X0214466Y0076300D01*
X0221630Y0076867D02*
X0221630Y0078001D01*
X0222198Y0078569D01*
X0222765Y0078569D01*
X0223332Y0078001D01*
X0223899Y0078569D01*
X0224466Y0078569D01*
X0225033Y0078001D01*
X0225033Y0076867D01*
X0224466Y0076300D01*
X0223332Y0077434D02*
X0223332Y0078001D01*
X0222198Y0076300D02*
X0221630Y0076867D01*
X0221630Y0079983D02*
X0223899Y0079983D01*
X0225033Y0081117D01*
X0223899Y0082252D01*
X0221630Y0082252D01*
X0222198Y0083666D02*
X0221630Y0084233D01*
X0221630Y0085368D01*
X0222198Y0085935D01*
X0222765Y0085935D01*
X0223332Y0085368D01*
X0223899Y0085935D01*
X0224466Y0085935D01*
X0225033Y0085368D01*
X0225033Y0084233D01*
X0224466Y0083666D01*
X0223332Y0084801D02*
X0223332Y0085368D01*
X0215033Y0085935D02*
X0212765Y0085935D01*
X0211630Y0084801D01*
X0212765Y0083666D01*
X0215033Y0083666D01*
X0213332Y0083666D02*
X0213332Y0085935D01*
X0231630Y0085368D02*
X0231630Y0083666D01*
X0235033Y0083666D01*
X0235033Y0085368D01*
X0234466Y0085935D01*
X0232198Y0085935D01*
X0231630Y0085368D01*
X0231630Y0082252D02*
X0235033Y0082252D01*
X0231630Y0079983D01*
X0235033Y0079983D01*
X0234466Y0078569D02*
X0233332Y0078569D01*
X0233332Y0077434D01*
X0234466Y0076300D02*
X0235033Y0076867D01*
X0235033Y0078001D01*
X0234466Y0078569D01*
X0232198Y0078569D02*
X0231630Y0078001D01*
X0231630Y0076867D01*
X0232198Y0076300D01*
X0234466Y0076300D01*
X0261133Y0160700D02*
X0265533Y0160700D01*
X0265616Y0160702D01*
X0265699Y0160708D01*
X0265782Y0160717D01*
X0265864Y0160731D01*
X0265945Y0160748D01*
X0266026Y0160769D01*
X0266105Y0160793D01*
X0266183Y0160822D01*
X0266260Y0160853D01*
X0266335Y0160889D01*
X0266409Y0160927D01*
X0266481Y0160970D01*
X0266550Y0161015D01*
X0266618Y0161064D01*
X0266683Y0161115D01*
X0266746Y0161170D01*
X0266806Y0161227D01*
X0266863Y0161287D01*
X0266918Y0161350D01*
X0266969Y0161415D01*
X0267018Y0161483D01*
X0267063Y0161552D01*
X0267106Y0161624D01*
X0267144Y0161698D01*
X0267180Y0161773D01*
X0267211Y0161850D01*
X0267240Y0161928D01*
X0267264Y0162007D01*
X0267285Y0162088D01*
X0267302Y0162169D01*
X0267316Y0162251D01*
X0267325Y0162334D01*
X0267331Y0162417D01*
X0267333Y0162500D01*
X0267333Y0172500D01*
X0267331Y0172583D01*
X0267325Y0172666D01*
X0267316Y0172749D01*
X0267302Y0172831D01*
X0267285Y0172912D01*
X0267264Y0172993D01*
X0267240Y0173072D01*
X0267211Y0173150D01*
X0267180Y0173227D01*
X0267144Y0173302D01*
X0267106Y0173376D01*
X0267063Y0173448D01*
X0267018Y0173517D01*
X0266969Y0173585D01*
X0266918Y0173650D01*
X0266863Y0173713D01*
X0266806Y0173773D01*
X0266746Y0173830D01*
X0266683Y0173885D01*
X0266618Y0173936D01*
X0266550Y0173985D01*
X0266481Y0174030D01*
X0266409Y0174073D01*
X0266335Y0174111D01*
X0266260Y0174147D01*
X0266183Y0174178D01*
X0266105Y0174207D01*
X0266026Y0174231D01*
X0265945Y0174252D01*
X0265864Y0174269D01*
X0265782Y0174283D01*
X0265699Y0174292D01*
X0265616Y0174298D01*
X0265533Y0174300D01*
X0261133Y0174300D01*
X0261050Y0174298D01*
X0260967Y0174292D01*
X0260884Y0174283D01*
X0260802Y0174269D01*
X0260721Y0174252D01*
X0260640Y0174231D01*
X0260561Y0174207D01*
X0260483Y0174178D01*
X0260406Y0174147D01*
X0260331Y0174111D01*
X0260257Y0174073D01*
X0260185Y0174030D01*
X0260116Y0173985D01*
X0260048Y0173936D01*
X0259983Y0173885D01*
X0259920Y0173830D01*
X0259860Y0173773D01*
X0259803Y0173713D01*
X0259748Y0173650D01*
X0259697Y0173585D01*
X0259648Y0173517D01*
X0259603Y0173448D01*
X0259560Y0173376D01*
X0259522Y0173302D01*
X0259486Y0173227D01*
X0259455Y0173150D01*
X0259426Y0173072D01*
X0259402Y0172993D01*
X0259381Y0172912D01*
X0259364Y0172831D01*
X0259350Y0172749D01*
X0259341Y0172666D01*
X0259335Y0172583D01*
X0259333Y0172500D01*
X0259333Y0162500D01*
X0259335Y0162417D01*
X0259341Y0162334D01*
X0259350Y0162251D01*
X0259364Y0162169D01*
X0259381Y0162088D01*
X0259402Y0162007D01*
X0259426Y0161928D01*
X0259455Y0161850D01*
X0259486Y0161773D01*
X0259522Y0161698D01*
X0259560Y0161624D01*
X0259603Y0161552D01*
X0259648Y0161483D01*
X0259697Y0161415D01*
X0259748Y0161350D01*
X0259803Y0161287D01*
X0259860Y0161227D01*
X0259920Y0161170D01*
X0259983Y0161115D01*
X0260048Y0161064D01*
X0260116Y0161015D01*
X0260185Y0160970D01*
X0260257Y0160927D01*
X0260331Y0160889D01*
X0260406Y0160853D01*
X0260483Y0160822D01*
X0260561Y0160793D01*
X0260640Y0160769D01*
X0260721Y0160748D01*
X0260802Y0160731D01*
X0260884Y0160717D01*
X0260967Y0160708D01*
X0261050Y0160702D01*
X0261133Y0160700D01*
D11*
X0200833Y0246263D02*
X0194559Y0246263D01*
X0194559Y0246957D01*
X0194802Y0246957D01*
X0194802Y0249636D01*
X0197078Y0249636D01*
X0196084Y0248188D01*
X0196989Y0248188D01*
X0197807Y0249430D01*
X0198619Y0248188D01*
X0199556Y0248188D01*
X0198569Y0249636D01*
X0200833Y0249636D01*
X0200833Y0246263D01*
X0200833Y0246299D02*
X0194559Y0246299D01*
X0173833Y0246299D01*
X0173833Y0246263D02*
X0194559Y0246263D01*
X0194559Y0246957D01*
X0174527Y0246957D01*
X0174527Y0253043D01*
X0194802Y0253043D01*
X0194802Y0249636D01*
X0197078Y0249636D01*
X0197348Y0250030D01*
X0196138Y0251809D01*
X0197070Y0251809D01*
X0197831Y0250634D01*
X0198598Y0251809D01*
X0199502Y0251809D01*
X0198293Y0250041D01*
X0198569Y0249636D01*
X0200833Y0249636D01*
X0200833Y0253737D01*
X0194802Y0253737D01*
X0173833Y0253737D01*
X0173833Y0246263D01*
X0173833Y0246337D02*
X0194559Y0246337D01*
X0200833Y0246337D01*
X0200833Y0246374D02*
X0194559Y0246374D01*
X0173833Y0246374D01*
X0173833Y0246412D02*
X0194559Y0246412D01*
X0200833Y0246412D01*
X0200833Y0246450D02*
X0194559Y0246450D01*
X0173833Y0246450D01*
X0173833Y0246488D02*
X0194559Y0246488D01*
X0200833Y0246488D01*
X0200833Y0246526D02*
X0194559Y0246526D01*
X0173833Y0246526D01*
X0173833Y0246564D02*
X0194559Y0246564D01*
X0200833Y0246564D01*
X0200833Y0246602D02*
X0194559Y0246602D01*
X0173833Y0246602D01*
X0173833Y0246640D02*
X0194559Y0246640D01*
X0200833Y0246640D01*
X0200833Y0246677D02*
X0194559Y0246677D01*
X0173833Y0246677D01*
X0173833Y0246715D02*
X0194559Y0246715D01*
X0200833Y0246715D01*
X0200833Y0246753D02*
X0194559Y0246753D01*
X0173833Y0246753D01*
X0173833Y0246791D02*
X0194559Y0246791D01*
X0200833Y0246791D01*
X0200833Y0246829D02*
X0194559Y0246829D01*
X0173833Y0246829D01*
X0173833Y0246867D02*
X0194559Y0246867D01*
X0200833Y0246867D01*
X0200833Y0246905D02*
X0194559Y0246905D01*
X0173833Y0246905D01*
X0173833Y0246943D02*
X0194559Y0246943D01*
X0200833Y0246943D01*
X0200833Y0246981D02*
X0194802Y0246981D01*
X0194802Y0247018D02*
X0200833Y0247018D01*
X0200833Y0247056D02*
X0194802Y0247056D01*
X0194802Y0247094D02*
X0200833Y0247094D01*
X0200833Y0247132D02*
X0194802Y0247132D01*
X0194802Y0247170D02*
X0200833Y0247170D01*
X0200833Y0247208D02*
X0194802Y0247208D01*
X0194802Y0247246D02*
X0200833Y0247246D01*
X0200833Y0247284D02*
X0194802Y0247284D01*
X0194802Y0247321D02*
X0200833Y0247321D01*
X0200833Y0247359D02*
X0194802Y0247359D01*
X0194802Y0247397D02*
X0200833Y0247397D01*
X0200833Y0247435D02*
X0194802Y0247435D01*
X0194802Y0247473D02*
X0200833Y0247473D01*
X0200833Y0247511D02*
X0194802Y0247511D01*
X0194802Y0247549D02*
X0200833Y0247549D01*
X0200833Y0247587D02*
X0194802Y0247587D01*
X0194802Y0247624D02*
X0200833Y0247624D01*
X0200833Y0247662D02*
X0194802Y0247662D01*
X0194802Y0247700D02*
X0200833Y0247700D01*
X0200833Y0247738D02*
X0194802Y0247738D01*
X0194802Y0247776D02*
X0200833Y0247776D01*
X0200833Y0247814D02*
X0194802Y0247814D01*
X0194802Y0247852D02*
X0200833Y0247852D01*
X0200833Y0247890D02*
X0194802Y0247890D01*
X0194802Y0247928D02*
X0200833Y0247928D01*
X0200833Y0247965D02*
X0194802Y0247965D01*
X0194802Y0248003D02*
X0200833Y0248003D01*
X0200833Y0248041D02*
X0194802Y0248041D01*
X0194802Y0248079D02*
X0200833Y0248079D01*
X0200833Y0248117D02*
X0194802Y0248117D01*
X0194802Y0248155D02*
X0200833Y0248155D01*
X0200833Y0248193D02*
X0199553Y0248193D01*
X0199527Y0248231D02*
X0200833Y0248231D01*
X0200833Y0248268D02*
X0199502Y0248268D01*
X0199476Y0248306D02*
X0200833Y0248306D01*
X0200833Y0248344D02*
X0199450Y0248344D01*
X0199424Y0248382D02*
X0200833Y0248382D01*
X0200833Y0248420D02*
X0199398Y0248420D01*
X0199372Y0248458D02*
X0200833Y0248458D01*
X0200833Y0248496D02*
X0199346Y0248496D01*
X0199321Y0248534D02*
X0200833Y0248534D01*
X0200833Y0248572D02*
X0199295Y0248572D01*
X0199269Y0248609D02*
X0200833Y0248609D01*
X0200833Y0248647D02*
X0199243Y0248647D01*
X0199217Y0248685D02*
X0200833Y0248685D01*
X0200833Y0248723D02*
X0199191Y0248723D01*
X0199166Y0248761D02*
X0200833Y0248761D01*
X0200833Y0248799D02*
X0199140Y0248799D01*
X0199114Y0248837D02*
X0200833Y0248837D01*
X0200833Y0248875D02*
X0199088Y0248875D01*
X0199062Y0248912D02*
X0200833Y0248912D01*
X0200833Y0248950D02*
X0199036Y0248950D01*
X0199011Y0248988D02*
X0200833Y0248988D01*
X0200833Y0249026D02*
X0198985Y0249026D01*
X0198959Y0249064D02*
X0200833Y0249064D01*
X0200833Y0249102D02*
X0198933Y0249102D01*
X0198907Y0249140D02*
X0200833Y0249140D01*
X0200833Y0249178D02*
X0198881Y0249178D01*
X0198856Y0249216D02*
X0200833Y0249216D01*
X0200833Y0249253D02*
X0198830Y0249253D01*
X0198804Y0249291D02*
X0200833Y0249291D01*
X0200833Y0249329D02*
X0198778Y0249329D01*
X0198752Y0249367D02*
X0200833Y0249367D01*
X0200833Y0249405D02*
X0198726Y0249405D01*
X0198700Y0249443D02*
X0200833Y0249443D01*
X0200833Y0249481D02*
X0198675Y0249481D01*
X0198649Y0249519D02*
X0200833Y0249519D01*
X0200833Y0249556D02*
X0198623Y0249556D01*
X0198597Y0249594D02*
X0200833Y0249594D01*
X0200833Y0249632D02*
X0198571Y0249632D01*
X0198545Y0249670D02*
X0200833Y0249670D01*
X0200833Y0249708D02*
X0198520Y0249708D01*
X0198494Y0249746D02*
X0200833Y0249746D01*
X0200833Y0249784D02*
X0198468Y0249784D01*
X0198442Y0249822D02*
X0200833Y0249822D01*
X0200833Y0249859D02*
X0198416Y0249859D01*
X0198390Y0249897D02*
X0200833Y0249897D01*
X0200833Y0249935D02*
X0198364Y0249935D01*
X0198339Y0249973D02*
X0200833Y0249973D01*
X0200833Y0250011D02*
X0198313Y0250011D01*
X0198298Y0250049D02*
X0200833Y0250049D01*
X0200833Y0250087D02*
X0198324Y0250087D01*
X0198350Y0250125D02*
X0200833Y0250125D01*
X0200833Y0250163D02*
X0198376Y0250163D01*
X0198402Y0250200D02*
X0200833Y0250200D01*
X0200833Y0250238D02*
X0198428Y0250238D01*
X0198454Y0250276D02*
X0200833Y0250276D01*
X0200833Y0250314D02*
X0198480Y0250314D01*
X0198506Y0250352D02*
X0200833Y0250352D01*
X0200833Y0250390D02*
X0198532Y0250390D01*
X0198557Y0250428D02*
X0200833Y0250428D01*
X0200833Y0250466D02*
X0198583Y0250466D01*
X0198609Y0250503D02*
X0200833Y0250503D01*
X0200833Y0250541D02*
X0198635Y0250541D01*
X0198661Y0250579D02*
X0200833Y0250579D01*
X0200833Y0250617D02*
X0198687Y0250617D01*
X0198713Y0250655D02*
X0200833Y0250655D01*
X0200833Y0250693D02*
X0198739Y0250693D01*
X0198765Y0250731D02*
X0200833Y0250731D01*
X0200833Y0250769D02*
X0198791Y0250769D01*
X0198817Y0250807D02*
X0200833Y0250807D01*
X0200833Y0250844D02*
X0198842Y0250844D01*
X0198868Y0250882D02*
X0200833Y0250882D01*
X0200833Y0250920D02*
X0198894Y0250920D01*
X0198920Y0250958D02*
X0200833Y0250958D01*
X0200833Y0250996D02*
X0198946Y0250996D01*
X0198972Y0251034D02*
X0200833Y0251034D01*
X0200833Y0251072D02*
X0198998Y0251072D01*
X0199024Y0251110D02*
X0200833Y0251110D01*
X0200833Y0251147D02*
X0199050Y0251147D01*
X0199076Y0251185D02*
X0200833Y0251185D01*
X0200833Y0251223D02*
X0199102Y0251223D01*
X0199127Y0251261D02*
X0200833Y0251261D01*
X0200833Y0251299D02*
X0199153Y0251299D01*
X0199179Y0251337D02*
X0200833Y0251337D01*
X0200833Y0251375D02*
X0199205Y0251375D01*
X0199231Y0251413D02*
X0200833Y0251413D01*
X0200833Y0251451D02*
X0199257Y0251451D01*
X0199283Y0251488D02*
X0200833Y0251488D01*
X0200833Y0251526D02*
X0199309Y0251526D01*
X0199335Y0251564D02*
X0200833Y0251564D01*
X0200833Y0251602D02*
X0199361Y0251602D01*
X0199387Y0251640D02*
X0200833Y0251640D01*
X0200833Y0251678D02*
X0199412Y0251678D01*
X0199438Y0251716D02*
X0200833Y0251716D01*
X0200833Y0251754D02*
X0199464Y0251754D01*
X0199490Y0251791D02*
X0200833Y0251791D01*
X0200833Y0251829D02*
X0194802Y0251829D01*
X0194802Y0251791D02*
X0196150Y0251791D01*
X0196176Y0251754D02*
X0194802Y0251754D01*
X0194802Y0251716D02*
X0196201Y0251716D01*
X0196227Y0251678D02*
X0194802Y0251678D01*
X0194802Y0251640D02*
X0196253Y0251640D01*
X0196279Y0251602D02*
X0194802Y0251602D01*
X0194802Y0251564D02*
X0196304Y0251564D01*
X0196330Y0251526D02*
X0194802Y0251526D01*
X0194802Y0251488D02*
X0196356Y0251488D01*
X0196382Y0251451D02*
X0194802Y0251451D01*
X0194802Y0251413D02*
X0196407Y0251413D01*
X0196433Y0251375D02*
X0194802Y0251375D01*
X0194802Y0251337D02*
X0196459Y0251337D01*
X0196485Y0251299D02*
X0194802Y0251299D01*
X0194802Y0251261D02*
X0196511Y0251261D01*
X0196536Y0251223D02*
X0194802Y0251223D01*
X0194802Y0251185D02*
X0196562Y0251185D01*
X0196588Y0251147D02*
X0194802Y0251147D01*
X0194802Y0251110D02*
X0196614Y0251110D01*
X0196639Y0251072D02*
X0194802Y0251072D01*
X0194802Y0251034D02*
X0196665Y0251034D01*
X0196691Y0250996D02*
X0194802Y0250996D01*
X0194802Y0250958D02*
X0196717Y0250958D01*
X0196742Y0250920D02*
X0194802Y0250920D01*
X0194802Y0250882D02*
X0196768Y0250882D01*
X0196794Y0250844D02*
X0194802Y0250844D01*
X0194802Y0250807D02*
X0196820Y0250807D01*
X0196845Y0250769D02*
X0194802Y0250769D01*
X0194802Y0250731D02*
X0196871Y0250731D01*
X0196897Y0250693D02*
X0194802Y0250693D01*
X0194802Y0250655D02*
X0196923Y0250655D01*
X0196948Y0250617D02*
X0194802Y0250617D01*
X0194802Y0250579D02*
X0196974Y0250579D01*
X0197000Y0250541D02*
X0194802Y0250541D01*
X0194802Y0250503D02*
X0197026Y0250503D01*
X0197051Y0250466D02*
X0194802Y0250466D01*
X0194802Y0250428D02*
X0197077Y0250428D01*
X0197103Y0250390D02*
X0194802Y0250390D01*
X0194802Y0250352D02*
X0197129Y0250352D01*
X0197154Y0250314D02*
X0194802Y0250314D01*
X0194802Y0250276D02*
X0197180Y0250276D01*
X0197206Y0250238D02*
X0194802Y0250238D01*
X0194802Y0250200D02*
X0197232Y0250200D01*
X0197257Y0250163D02*
X0194802Y0250163D01*
X0194802Y0250125D02*
X0197283Y0250125D01*
X0197309Y0250087D02*
X0194802Y0250087D01*
X0194802Y0250049D02*
X0197335Y0250049D01*
X0197335Y0250011D02*
X0194802Y0250011D01*
X0194802Y0249973D02*
X0197309Y0249973D01*
X0197283Y0249935D02*
X0194802Y0249935D01*
X0194802Y0249897D02*
X0197257Y0249897D01*
X0197231Y0249859D02*
X0194802Y0249859D01*
X0194802Y0249822D02*
X0197205Y0249822D01*
X0197179Y0249784D02*
X0194802Y0249784D01*
X0194802Y0249746D02*
X0197153Y0249746D01*
X0197127Y0249708D02*
X0194802Y0249708D01*
X0194802Y0249670D02*
X0197101Y0249670D01*
X0197075Y0249632D02*
X0194802Y0249632D01*
X0194802Y0249594D02*
X0197049Y0249594D01*
X0197023Y0249556D02*
X0194802Y0249556D01*
X0194802Y0249519D02*
X0196997Y0249519D01*
X0196971Y0249481D02*
X0194802Y0249481D01*
X0194802Y0249443D02*
X0196945Y0249443D01*
X0196919Y0249405D02*
X0194802Y0249405D01*
X0194802Y0249367D02*
X0196893Y0249367D01*
X0196867Y0249329D02*
X0194802Y0249329D01*
X0194802Y0249291D02*
X0196841Y0249291D01*
X0196815Y0249253D02*
X0194802Y0249253D01*
X0194802Y0249216D02*
X0196789Y0249216D01*
X0196763Y0249178D02*
X0194802Y0249178D01*
X0194802Y0249140D02*
X0196737Y0249140D01*
X0196711Y0249102D02*
X0194802Y0249102D01*
X0194802Y0249064D02*
X0196685Y0249064D01*
X0196659Y0249026D02*
X0194802Y0249026D01*
X0194802Y0248988D02*
X0196633Y0248988D01*
X0196607Y0248950D02*
X0194802Y0248950D01*
X0194802Y0248912D02*
X0196581Y0248912D01*
X0196555Y0248875D02*
X0194802Y0248875D01*
X0194802Y0248837D02*
X0196529Y0248837D01*
X0196503Y0248799D02*
X0194802Y0248799D01*
X0194802Y0248761D02*
X0196477Y0248761D01*
X0196451Y0248723D02*
X0194802Y0248723D01*
X0194802Y0248685D02*
X0196425Y0248685D01*
X0196399Y0248647D02*
X0194802Y0248647D01*
X0194802Y0248609D02*
X0196373Y0248609D01*
X0196347Y0248572D02*
X0194802Y0248572D01*
X0194802Y0248534D02*
X0196321Y0248534D01*
X0196295Y0248496D02*
X0194802Y0248496D01*
X0194802Y0248458D02*
X0196269Y0248458D01*
X0196243Y0248420D02*
X0194802Y0248420D01*
X0194802Y0248382D02*
X0196217Y0248382D01*
X0196191Y0248344D02*
X0194802Y0248344D01*
X0194802Y0248306D02*
X0196165Y0248306D01*
X0196139Y0248268D02*
X0194802Y0248268D01*
X0194802Y0248231D02*
X0196113Y0248231D01*
X0196087Y0248193D02*
X0194802Y0248193D01*
X0193786Y0248188D02*
X0192245Y0250273D01*
X0192835Y0250888D01*
X0191902Y0250888D01*
X0192758Y0251809D01*
X0193719Y0251809D01*
X0192835Y0250888D01*
X0191902Y0250888D01*
X0191289Y0250227D01*
X0191289Y0250888D01*
X0190492Y0250888D01*
X0190492Y0251809D01*
X0191289Y0251809D01*
X0191289Y0250888D01*
X0190492Y0250888D01*
X0190492Y0248188D01*
X0191289Y0248188D01*
X0191289Y0249295D01*
X0191707Y0249730D01*
X0192831Y0248188D01*
X0193786Y0248188D01*
X0193783Y0248193D02*
X0192827Y0248193D01*
X0192800Y0248231D02*
X0193755Y0248231D01*
X0193727Y0248268D02*
X0192772Y0248268D01*
X0192745Y0248306D02*
X0193699Y0248306D01*
X0193671Y0248344D02*
X0192717Y0248344D01*
X0192689Y0248382D02*
X0193643Y0248382D01*
X0193615Y0248420D02*
X0192662Y0248420D01*
X0192634Y0248458D02*
X0193587Y0248458D01*
X0193559Y0248496D02*
X0192607Y0248496D01*
X0192579Y0248534D02*
X0193531Y0248534D01*
X0193503Y0248572D02*
X0192551Y0248572D01*
X0192524Y0248609D02*
X0193475Y0248609D01*
X0193447Y0248647D02*
X0192496Y0248647D01*
X0192469Y0248685D02*
X0193419Y0248685D01*
X0193391Y0248723D02*
X0192441Y0248723D01*
X0192413Y0248761D02*
X0193363Y0248761D01*
X0193335Y0248799D02*
X0192386Y0248799D01*
X0192358Y0248837D02*
X0193307Y0248837D01*
X0193279Y0248875D02*
X0192331Y0248875D01*
X0192303Y0248912D02*
X0193251Y0248912D01*
X0193223Y0248950D02*
X0192275Y0248950D01*
X0192248Y0248988D02*
X0193195Y0248988D01*
X0193167Y0249026D02*
X0192220Y0249026D01*
X0192193Y0249064D02*
X0193139Y0249064D01*
X0193111Y0249102D02*
X0192165Y0249102D01*
X0192137Y0249140D02*
X0193083Y0249140D01*
X0193055Y0249178D02*
X0192110Y0249178D01*
X0192082Y0249216D02*
X0193027Y0249216D01*
X0192999Y0249253D02*
X0192055Y0249253D01*
X0192027Y0249291D02*
X0192971Y0249291D01*
X0192943Y0249329D02*
X0191999Y0249329D01*
X0191972Y0249367D02*
X0192914Y0249367D01*
X0192886Y0249405D02*
X0191944Y0249405D01*
X0191917Y0249443D02*
X0192858Y0249443D01*
X0192830Y0249481D02*
X0191889Y0249481D01*
X0191861Y0249519D02*
X0192802Y0249519D01*
X0192774Y0249556D02*
X0191834Y0249556D01*
X0191806Y0249594D02*
X0192746Y0249594D01*
X0192718Y0249632D02*
X0191779Y0249632D01*
X0191751Y0249670D02*
X0192690Y0249670D01*
X0192662Y0249708D02*
X0191723Y0249708D01*
X0191686Y0249708D02*
X0190492Y0249708D01*
X0190492Y0249746D02*
X0192634Y0249746D01*
X0192606Y0249784D02*
X0190492Y0249784D01*
X0190492Y0249822D02*
X0192578Y0249822D01*
X0192550Y0249859D02*
X0190492Y0249859D01*
X0190492Y0249897D02*
X0192522Y0249897D01*
X0192494Y0249935D02*
X0190492Y0249935D01*
X0190492Y0249973D02*
X0192466Y0249973D01*
X0192438Y0250011D02*
X0190492Y0250011D01*
X0190492Y0250049D02*
X0192410Y0250049D01*
X0192382Y0250087D02*
X0190492Y0250087D01*
X0190492Y0250125D02*
X0192354Y0250125D01*
X0192326Y0250163D02*
X0190492Y0250163D01*
X0190492Y0250200D02*
X0192298Y0250200D01*
X0192270Y0250238D02*
X0191300Y0250238D01*
X0191289Y0250238D02*
X0190492Y0250238D01*
X0190492Y0250276D02*
X0191289Y0250276D01*
X0191289Y0250314D02*
X0190492Y0250314D01*
X0190492Y0250352D02*
X0191289Y0250352D01*
X0191289Y0250390D02*
X0190492Y0250390D01*
X0190492Y0250428D02*
X0191289Y0250428D01*
X0191289Y0250466D02*
X0190492Y0250466D01*
X0190492Y0250503D02*
X0191289Y0250503D01*
X0191289Y0250541D02*
X0190492Y0250541D01*
X0190492Y0250579D02*
X0191289Y0250579D01*
X0191289Y0250617D02*
X0190492Y0250617D01*
X0190492Y0250655D02*
X0191289Y0250655D01*
X0191289Y0250693D02*
X0190492Y0250693D01*
X0190492Y0250731D02*
X0191289Y0250731D01*
X0191289Y0250769D02*
X0190492Y0250769D01*
X0190492Y0250807D02*
X0191289Y0250807D01*
X0191289Y0250844D02*
X0190492Y0250844D01*
X0190492Y0250882D02*
X0191289Y0250882D01*
X0191289Y0250920D02*
X0190492Y0250920D01*
X0190492Y0250958D02*
X0191289Y0250958D01*
X0191289Y0250996D02*
X0190492Y0250996D01*
X0190492Y0251034D02*
X0191289Y0251034D01*
X0191289Y0251072D02*
X0190492Y0251072D01*
X0190492Y0251110D02*
X0191289Y0251110D01*
X0191289Y0251147D02*
X0190492Y0251147D01*
X0190492Y0251185D02*
X0191289Y0251185D01*
X0191289Y0251223D02*
X0190492Y0251223D01*
X0190492Y0251261D02*
X0191289Y0251261D01*
X0191289Y0251299D02*
X0190492Y0251299D01*
X0190492Y0251337D02*
X0191289Y0251337D01*
X0191289Y0251375D02*
X0190492Y0251375D01*
X0190492Y0251413D02*
X0191289Y0251413D01*
X0191289Y0251451D02*
X0190492Y0251451D01*
X0190492Y0251488D02*
X0191289Y0251488D01*
X0191289Y0251526D02*
X0190492Y0251526D01*
X0190492Y0251564D02*
X0191289Y0251564D01*
X0191289Y0251602D02*
X0190492Y0251602D01*
X0190492Y0251640D02*
X0191289Y0251640D01*
X0191289Y0251678D02*
X0190492Y0251678D01*
X0190492Y0251716D02*
X0191289Y0251716D01*
X0191289Y0251754D02*
X0190492Y0251754D01*
X0190492Y0251791D02*
X0191289Y0251791D01*
X0192073Y0251072D02*
X0193011Y0251072D01*
X0193048Y0251110D02*
X0192108Y0251110D01*
X0192143Y0251147D02*
X0193084Y0251147D01*
X0193120Y0251185D02*
X0192179Y0251185D01*
X0192214Y0251223D02*
X0193157Y0251223D01*
X0193193Y0251261D02*
X0192249Y0251261D01*
X0192284Y0251299D02*
X0193229Y0251299D01*
X0193266Y0251337D02*
X0192319Y0251337D01*
X0192354Y0251375D02*
X0193302Y0251375D01*
X0193338Y0251413D02*
X0192390Y0251413D01*
X0192425Y0251451D02*
X0193375Y0251451D01*
X0193411Y0251488D02*
X0192460Y0251488D01*
X0192495Y0251526D02*
X0193448Y0251526D01*
X0193484Y0251564D02*
X0192530Y0251564D01*
X0192566Y0251602D02*
X0193520Y0251602D01*
X0193557Y0251640D02*
X0192601Y0251640D01*
X0192636Y0251678D02*
X0193593Y0251678D01*
X0193629Y0251716D02*
X0192671Y0251716D01*
X0192706Y0251754D02*
X0193666Y0251754D01*
X0193702Y0251791D02*
X0192741Y0251791D01*
X0192975Y0251034D02*
X0192038Y0251034D01*
X0192003Y0250996D02*
X0192939Y0250996D01*
X0192902Y0250958D02*
X0191968Y0250958D01*
X0191932Y0250920D02*
X0192866Y0250920D01*
X0192830Y0250882D02*
X0191897Y0250882D01*
X0191862Y0250844D02*
X0192793Y0250844D01*
X0192757Y0250807D02*
X0191827Y0250807D01*
X0191792Y0250769D02*
X0192720Y0250769D01*
X0192684Y0250731D02*
X0191757Y0250731D01*
X0191721Y0250693D02*
X0192648Y0250693D01*
X0192611Y0250655D02*
X0191686Y0250655D01*
X0191651Y0250617D02*
X0192575Y0250617D01*
X0192539Y0250579D02*
X0191616Y0250579D01*
X0191581Y0250541D02*
X0192502Y0250541D01*
X0192466Y0250503D02*
X0191546Y0250503D01*
X0191511Y0250466D02*
X0192430Y0250466D01*
X0192393Y0250428D02*
X0191475Y0250428D01*
X0191440Y0250390D02*
X0192357Y0250390D01*
X0192321Y0250352D02*
X0191405Y0250352D01*
X0191370Y0250314D02*
X0192284Y0250314D01*
X0192248Y0250276D02*
X0191335Y0250276D01*
X0191650Y0249670D02*
X0190492Y0249670D01*
X0190492Y0249632D02*
X0191613Y0249632D01*
X0191577Y0249594D02*
X0190492Y0249594D01*
X0190492Y0249556D02*
X0191540Y0249556D01*
X0191504Y0249519D02*
X0190492Y0249519D01*
X0190492Y0249481D02*
X0191467Y0249481D01*
X0191431Y0249443D02*
X0190492Y0249443D01*
X0190492Y0249405D02*
X0191394Y0249405D01*
X0191358Y0249367D02*
X0190492Y0249367D01*
X0190492Y0249329D02*
X0191321Y0249329D01*
X0191289Y0249291D02*
X0190492Y0249291D01*
X0190492Y0249253D02*
X0191289Y0249253D01*
X0191289Y0249216D02*
X0190492Y0249216D01*
X0190492Y0249178D02*
X0191289Y0249178D01*
X0191289Y0249140D02*
X0190492Y0249140D01*
X0190492Y0249102D02*
X0191289Y0249102D01*
X0191289Y0249064D02*
X0190492Y0249064D01*
X0190492Y0249026D02*
X0191289Y0249026D01*
X0191289Y0248988D02*
X0190492Y0248988D01*
X0190492Y0248950D02*
X0191289Y0248950D01*
X0191289Y0248912D02*
X0190492Y0248912D01*
X0190492Y0248875D02*
X0191289Y0248875D01*
X0191289Y0248837D02*
X0190492Y0248837D01*
X0190492Y0248799D02*
X0191289Y0248799D01*
X0191289Y0248761D02*
X0190492Y0248761D01*
X0190492Y0248723D02*
X0191289Y0248723D01*
X0191289Y0248685D02*
X0190492Y0248685D01*
X0190492Y0248647D02*
X0191289Y0248647D01*
X0191289Y0248609D02*
X0190492Y0248609D01*
X0190492Y0248572D02*
X0191289Y0248572D01*
X0191289Y0248534D02*
X0190492Y0248534D01*
X0190492Y0248496D02*
X0191289Y0248496D01*
X0191289Y0248458D02*
X0190492Y0248458D01*
X0190492Y0248420D02*
X0191289Y0248420D01*
X0191289Y0248382D02*
X0190492Y0248382D01*
X0190492Y0248344D02*
X0191289Y0248344D01*
X0191289Y0248306D02*
X0190492Y0248306D01*
X0190492Y0248268D02*
X0191289Y0248268D01*
X0191289Y0248231D02*
X0190492Y0248231D01*
X0190492Y0248193D02*
X0191289Y0248193D01*
X0189879Y0248188D02*
X0188994Y0249482D01*
X0189308Y0249648D01*
X0189555Y0249887D01*
X0189717Y0250204D01*
X0189771Y0250602D01*
X0189771Y0250613D01*
X0189749Y0250879D01*
X0189747Y0250888D01*
X0188856Y0250888D01*
X0188799Y0250961D01*
X0188601Y0251058D01*
X0188338Y0251091D01*
X0187547Y0251091D01*
X0187547Y0250888D01*
X0186750Y0250888D01*
X0186750Y0251809D01*
X0188405Y0251809D01*
X0188711Y0251789D01*
X0188981Y0251730D01*
X0189214Y0251631D01*
X0189412Y0251493D01*
X0189570Y0251319D01*
X0189682Y0251115D01*
X0189747Y0250888D01*
X0188856Y0250888D01*
X0188923Y0250799D01*
X0188964Y0250572D01*
X0188964Y0250564D01*
X0188925Y0250356D01*
X0188808Y0250192D01*
X0188615Y0250087D01*
X0188354Y0250051D01*
X0187547Y0250051D01*
X0187547Y0250888D01*
X0186750Y0250888D01*
X0186750Y0248188D01*
X0187547Y0248188D01*
X0187547Y0249347D01*
X0188173Y0249347D01*
X0188948Y0248188D01*
X0189879Y0248188D01*
X0189876Y0248193D02*
X0188945Y0248193D01*
X0188920Y0248231D02*
X0189850Y0248231D01*
X0189825Y0248268D02*
X0188894Y0248268D01*
X0188869Y0248306D02*
X0189799Y0248306D01*
X0189773Y0248344D02*
X0188844Y0248344D01*
X0188818Y0248382D02*
X0189747Y0248382D01*
X0189721Y0248420D02*
X0188793Y0248420D01*
X0188768Y0248458D02*
X0189695Y0248458D01*
X0189669Y0248496D02*
X0188742Y0248496D01*
X0188717Y0248534D02*
X0189643Y0248534D01*
X0189617Y0248572D02*
X0188692Y0248572D01*
X0188666Y0248609D02*
X0189591Y0248609D01*
X0189565Y0248647D02*
X0188641Y0248647D01*
X0188616Y0248685D02*
X0189539Y0248685D01*
X0189513Y0248723D02*
X0188590Y0248723D01*
X0188565Y0248761D02*
X0189487Y0248761D01*
X0189461Y0248799D02*
X0188539Y0248799D01*
X0188514Y0248837D02*
X0189435Y0248837D01*
X0189409Y0248875D02*
X0188489Y0248875D01*
X0188463Y0248912D02*
X0189384Y0248912D01*
X0189358Y0248950D02*
X0188438Y0248950D01*
X0188413Y0248988D02*
X0189332Y0248988D01*
X0189306Y0249026D02*
X0188387Y0249026D01*
X0188362Y0249064D02*
X0189280Y0249064D01*
X0189254Y0249102D02*
X0188337Y0249102D01*
X0188311Y0249140D02*
X0189228Y0249140D01*
X0189202Y0249178D02*
X0188286Y0249178D01*
X0188261Y0249216D02*
X0189176Y0249216D01*
X0189150Y0249253D02*
X0188235Y0249253D01*
X0188210Y0249291D02*
X0189124Y0249291D01*
X0189098Y0249329D02*
X0188185Y0249329D01*
X0187547Y0249329D02*
X0186750Y0249329D01*
X0186750Y0249291D02*
X0187547Y0249291D01*
X0187547Y0249253D02*
X0186750Y0249253D01*
X0186750Y0249216D02*
X0187547Y0249216D01*
X0187547Y0249178D02*
X0186750Y0249178D01*
X0186750Y0249140D02*
X0187547Y0249140D01*
X0187547Y0249102D02*
X0186750Y0249102D01*
X0186750Y0249064D02*
X0187547Y0249064D01*
X0187547Y0249026D02*
X0186750Y0249026D01*
X0186750Y0248988D02*
X0187547Y0248988D01*
X0187547Y0248950D02*
X0186750Y0248950D01*
X0186750Y0248912D02*
X0187547Y0248912D01*
X0187547Y0248875D02*
X0186750Y0248875D01*
X0186750Y0248837D02*
X0187547Y0248837D01*
X0187547Y0248799D02*
X0186750Y0248799D01*
X0186750Y0248761D02*
X0187547Y0248761D01*
X0187547Y0248723D02*
X0186750Y0248723D01*
X0186750Y0248685D02*
X0187547Y0248685D01*
X0187547Y0248647D02*
X0186750Y0248647D01*
X0186750Y0248609D02*
X0187547Y0248609D01*
X0187547Y0248572D02*
X0186750Y0248572D01*
X0186750Y0248534D02*
X0187547Y0248534D01*
X0187547Y0248496D02*
X0186750Y0248496D01*
X0186750Y0248458D02*
X0187547Y0248458D01*
X0187547Y0248420D02*
X0186750Y0248420D01*
X0186750Y0248382D02*
X0187547Y0248382D01*
X0187547Y0248344D02*
X0186750Y0248344D01*
X0186750Y0248306D02*
X0187547Y0248306D01*
X0187547Y0248268D02*
X0186750Y0248268D01*
X0186750Y0248231D02*
X0187547Y0248231D01*
X0187547Y0248193D02*
X0186750Y0248193D01*
X0186191Y0248188D02*
X0185042Y0250888D01*
X0183501Y0250888D01*
X0183904Y0251836D01*
X0184639Y0251836D01*
X0185042Y0250888D01*
X0183501Y0250888D01*
X0182352Y0248188D01*
X0183165Y0248188D01*
X0184261Y0250877D01*
X0185357Y0248188D01*
X0186191Y0248188D01*
X0186189Y0248193D02*
X0185355Y0248193D01*
X0185340Y0248231D02*
X0186173Y0248231D01*
X0186157Y0248268D02*
X0185324Y0248268D01*
X0185309Y0248306D02*
X0186141Y0248306D01*
X0186125Y0248344D02*
X0185293Y0248344D01*
X0185278Y0248382D02*
X0186109Y0248382D01*
X0186093Y0248420D02*
X0185262Y0248420D01*
X0185247Y0248458D02*
X0186076Y0248458D01*
X0186060Y0248496D02*
X0185232Y0248496D01*
X0185216Y0248534D02*
X0186044Y0248534D01*
X0186028Y0248572D02*
X0185201Y0248572D01*
X0185185Y0248609D02*
X0186012Y0248609D01*
X0185996Y0248647D02*
X0185170Y0248647D01*
X0185154Y0248685D02*
X0185980Y0248685D01*
X0185964Y0248723D02*
X0185139Y0248723D01*
X0185123Y0248761D02*
X0185947Y0248761D01*
X0185931Y0248799D02*
X0185108Y0248799D01*
X0185093Y0248837D02*
X0185915Y0248837D01*
X0185899Y0248875D02*
X0185077Y0248875D01*
X0185062Y0248912D02*
X0185883Y0248912D01*
X0185867Y0248950D02*
X0185046Y0248950D01*
X0185031Y0248988D02*
X0185851Y0248988D01*
X0185835Y0249026D02*
X0185015Y0249026D01*
X0185000Y0249064D02*
X0185818Y0249064D01*
X0185802Y0249102D02*
X0184985Y0249102D01*
X0184969Y0249140D02*
X0185786Y0249140D01*
X0185770Y0249178D02*
X0184954Y0249178D01*
X0184938Y0249216D02*
X0185754Y0249216D01*
X0185738Y0249253D02*
X0184923Y0249253D01*
X0184907Y0249291D02*
X0185722Y0249291D01*
X0185706Y0249329D02*
X0184892Y0249329D01*
X0184876Y0249367D02*
X0185690Y0249367D01*
X0185673Y0249405D02*
X0184861Y0249405D01*
X0184846Y0249443D02*
X0185657Y0249443D01*
X0185641Y0249481D02*
X0184830Y0249481D01*
X0184815Y0249519D02*
X0185625Y0249519D01*
X0185609Y0249556D02*
X0184799Y0249556D01*
X0184784Y0249594D02*
X0185593Y0249594D01*
X0185577Y0249632D02*
X0184768Y0249632D01*
X0184753Y0249670D02*
X0185561Y0249670D01*
X0185544Y0249708D02*
X0184737Y0249708D01*
X0184722Y0249746D02*
X0185528Y0249746D01*
X0185512Y0249784D02*
X0184707Y0249784D01*
X0184691Y0249822D02*
X0185496Y0249822D01*
X0185480Y0249859D02*
X0184676Y0249859D01*
X0184660Y0249897D02*
X0185464Y0249897D01*
X0185448Y0249935D02*
X0184645Y0249935D01*
X0184629Y0249973D02*
X0185432Y0249973D01*
X0185415Y0250011D02*
X0184614Y0250011D01*
X0184598Y0250049D02*
X0185399Y0250049D01*
X0185383Y0250087D02*
X0184583Y0250087D01*
X0184568Y0250125D02*
X0185367Y0250125D01*
X0185351Y0250163D02*
X0184552Y0250163D01*
X0184537Y0250200D02*
X0185335Y0250200D01*
X0185319Y0250238D02*
X0184521Y0250238D01*
X0184506Y0250276D02*
X0185303Y0250276D01*
X0185286Y0250314D02*
X0184490Y0250314D01*
X0184475Y0250352D02*
X0185270Y0250352D01*
X0185254Y0250390D02*
X0184460Y0250390D01*
X0184444Y0250428D02*
X0185238Y0250428D01*
X0185222Y0250466D02*
X0184429Y0250466D01*
X0184413Y0250503D02*
X0185206Y0250503D01*
X0185190Y0250541D02*
X0184398Y0250541D01*
X0184382Y0250579D02*
X0185174Y0250579D01*
X0185157Y0250617D02*
X0184367Y0250617D01*
X0184351Y0250655D02*
X0185141Y0250655D01*
X0185125Y0250693D02*
X0184336Y0250693D01*
X0184321Y0250731D02*
X0185109Y0250731D01*
X0185093Y0250769D02*
X0184305Y0250769D01*
X0184290Y0250807D02*
X0185077Y0250807D01*
X0185061Y0250844D02*
X0184274Y0250844D01*
X0184247Y0250844D02*
X0183482Y0250844D01*
X0183466Y0250807D02*
X0184232Y0250807D01*
X0184216Y0250769D02*
X0183450Y0250769D01*
X0183434Y0250731D02*
X0184201Y0250731D01*
X0184185Y0250693D02*
X0183418Y0250693D01*
X0183402Y0250655D02*
X0184170Y0250655D01*
X0184155Y0250617D02*
X0183385Y0250617D01*
X0183369Y0250579D02*
X0184139Y0250579D01*
X0184124Y0250541D02*
X0183353Y0250541D01*
X0183337Y0250503D02*
X0184108Y0250503D01*
X0184093Y0250466D02*
X0183321Y0250466D01*
X0183305Y0250428D02*
X0184077Y0250428D01*
X0184062Y0250390D02*
X0183289Y0250390D01*
X0183273Y0250352D02*
X0184046Y0250352D01*
X0184031Y0250314D02*
X0183256Y0250314D01*
X0183240Y0250276D02*
X0184016Y0250276D01*
X0184000Y0250238D02*
X0183224Y0250238D01*
X0183208Y0250200D02*
X0183985Y0250200D01*
X0183969Y0250163D02*
X0183192Y0250163D01*
X0183176Y0250125D02*
X0183954Y0250125D01*
X0183938Y0250087D02*
X0183160Y0250087D01*
X0183144Y0250049D02*
X0183923Y0250049D01*
X0183908Y0250011D02*
X0183127Y0250011D01*
X0183111Y0249973D02*
X0183892Y0249973D01*
X0183877Y0249935D02*
X0183095Y0249935D01*
X0183079Y0249897D02*
X0183861Y0249897D01*
X0183846Y0249859D02*
X0183063Y0249859D01*
X0183047Y0249822D02*
X0183830Y0249822D01*
X0183815Y0249784D02*
X0183031Y0249784D01*
X0183015Y0249746D02*
X0183799Y0249746D01*
X0183784Y0249708D02*
X0182999Y0249708D01*
X0182982Y0249670D02*
X0183769Y0249670D01*
X0183753Y0249632D02*
X0182966Y0249632D01*
X0182950Y0249594D02*
X0183738Y0249594D01*
X0183722Y0249556D02*
X0182934Y0249556D01*
X0182918Y0249519D02*
X0183707Y0249519D01*
X0183691Y0249481D02*
X0182902Y0249481D01*
X0182886Y0249443D02*
X0183676Y0249443D01*
X0183660Y0249405D02*
X0182870Y0249405D01*
X0182853Y0249367D02*
X0183645Y0249367D01*
X0183630Y0249329D02*
X0182837Y0249329D01*
X0182821Y0249291D02*
X0183614Y0249291D01*
X0183599Y0249253D02*
X0182805Y0249253D01*
X0182789Y0249216D02*
X0183583Y0249216D01*
X0183568Y0249178D02*
X0182773Y0249178D01*
X0182757Y0249140D02*
X0183552Y0249140D01*
X0183537Y0249102D02*
X0182741Y0249102D01*
X0182724Y0249064D02*
X0183521Y0249064D01*
X0183506Y0249026D02*
X0182708Y0249026D01*
X0182692Y0248988D02*
X0183491Y0248988D01*
X0183475Y0248950D02*
X0182676Y0248950D01*
X0182660Y0248912D02*
X0183460Y0248912D01*
X0183444Y0248875D02*
X0182644Y0248875D01*
X0182628Y0248837D02*
X0183429Y0248837D01*
X0183413Y0248799D02*
X0182612Y0248799D01*
X0182596Y0248761D02*
X0183398Y0248761D01*
X0183383Y0248723D02*
X0182579Y0248723D01*
X0182563Y0248685D02*
X0183367Y0248685D01*
X0183352Y0248647D02*
X0182547Y0248647D01*
X0182531Y0248609D02*
X0183336Y0248609D01*
X0183321Y0248572D02*
X0182515Y0248572D01*
X0182499Y0248534D02*
X0183305Y0248534D01*
X0183290Y0248496D02*
X0182483Y0248496D01*
X0182467Y0248458D02*
X0183274Y0248458D01*
X0183259Y0248420D02*
X0182450Y0248420D01*
X0182434Y0248382D02*
X0183244Y0248382D01*
X0183228Y0248344D02*
X0182418Y0248344D01*
X0182402Y0248306D02*
X0183213Y0248306D01*
X0183197Y0248268D02*
X0182386Y0248268D01*
X0182370Y0248231D02*
X0183182Y0248231D01*
X0183166Y0248193D02*
X0182354Y0248193D01*
X0181518Y0249519D02*
X0179206Y0249519D01*
X0179206Y0249556D02*
X0181577Y0249556D01*
X0181635Y0249594D02*
X0179206Y0249594D01*
X0179206Y0249632D02*
X0181676Y0249632D01*
X0181644Y0249600D02*
X0181822Y0249781D01*
X0181958Y0250000D01*
X0182043Y0250257D01*
X0182071Y0250553D01*
X0182074Y0250548D01*
X0182074Y0250559D01*
X0182050Y0250826D01*
X0182032Y0250888D01*
X0181141Y0250888D01*
X0181094Y0250950D01*
X0180890Y0251056D01*
X0180621Y0251091D01*
X0180006Y0251091D01*
X0180006Y0250888D01*
X0179206Y0250888D01*
X0179206Y0251814D01*
X0180686Y0251814D01*
X0180996Y0251791D01*
X0181269Y0251723D01*
X0181506Y0251612D01*
X0181704Y0251466D01*
X0181863Y0251284D01*
X0181979Y0251069D01*
X0182032Y0250888D01*
X0181141Y0250888D01*
X0181224Y0250779D01*
X0181266Y0250543D01*
X0181266Y0250532D01*
X0181226Y0250318D01*
X0181102Y0250140D01*
X0180903Y0250023D01*
X0180637Y0249984D01*
X0180006Y0249984D01*
X0180006Y0250888D01*
X0179206Y0250888D01*
X0179206Y0248194D01*
X0180003Y0248194D01*
X0180003Y0249279D01*
X0180608Y0249279D01*
X0180903Y0249299D01*
X0181180Y0249360D01*
X0181429Y0249461D01*
X0181644Y0249600D01*
X0181713Y0249670D02*
X0179206Y0249670D01*
X0179206Y0249708D02*
X0181750Y0249708D01*
X0181788Y0249746D02*
X0179206Y0249746D01*
X0179206Y0249784D02*
X0181824Y0249784D01*
X0181847Y0249822D02*
X0179206Y0249822D01*
X0179206Y0249859D02*
X0181871Y0249859D01*
X0181894Y0249897D02*
X0179206Y0249897D01*
X0179206Y0249935D02*
X0181918Y0249935D01*
X0181941Y0249973D02*
X0179206Y0249973D01*
X0179206Y0250011D02*
X0180006Y0250011D01*
X0180006Y0250049D02*
X0179206Y0250049D01*
X0179206Y0250087D02*
X0180006Y0250087D01*
X0180006Y0250125D02*
X0179206Y0250125D01*
X0179206Y0250163D02*
X0180006Y0250163D01*
X0180006Y0250200D02*
X0179206Y0250200D01*
X0179206Y0250238D02*
X0180006Y0250238D01*
X0180006Y0250276D02*
X0179206Y0250276D01*
X0179206Y0250314D02*
X0180006Y0250314D01*
X0180006Y0250352D02*
X0179206Y0250352D01*
X0179206Y0250390D02*
X0180006Y0250390D01*
X0180006Y0250428D02*
X0179206Y0250428D01*
X0179206Y0250466D02*
X0180006Y0250466D01*
X0180006Y0250503D02*
X0179206Y0250503D01*
X0179206Y0250541D02*
X0180006Y0250541D01*
X0180006Y0250579D02*
X0179206Y0250579D01*
X0179206Y0250617D02*
X0180006Y0250617D01*
X0180006Y0250655D02*
X0179206Y0250655D01*
X0179206Y0250693D02*
X0180006Y0250693D01*
X0180006Y0250731D02*
X0179206Y0250731D01*
X0179206Y0250769D02*
X0180006Y0250769D01*
X0180006Y0250807D02*
X0179206Y0250807D01*
X0179206Y0250844D02*
X0180006Y0250844D01*
X0180006Y0250882D02*
X0179206Y0250882D01*
X0179206Y0250920D02*
X0180006Y0250920D01*
X0180006Y0250958D02*
X0179206Y0250958D01*
X0179206Y0250996D02*
X0180006Y0250996D01*
X0180006Y0251034D02*
X0179206Y0251034D01*
X0179206Y0251072D02*
X0180006Y0251072D01*
X0180768Y0251072D02*
X0181978Y0251072D01*
X0181990Y0251034D02*
X0180932Y0251034D01*
X0181006Y0250996D02*
X0182001Y0250996D01*
X0182012Y0250958D02*
X0181079Y0250958D01*
X0181116Y0250920D02*
X0182023Y0250920D01*
X0182034Y0250882D02*
X0181145Y0250882D01*
X0181174Y0250844D02*
X0182044Y0250844D01*
X0182052Y0250807D02*
X0181203Y0250807D01*
X0181225Y0250769D02*
X0182055Y0250769D01*
X0182058Y0250731D02*
X0181232Y0250731D01*
X0181239Y0250693D02*
X0182062Y0250693D01*
X0182065Y0250655D02*
X0181246Y0250655D01*
X0181253Y0250617D02*
X0182069Y0250617D01*
X0182072Y0250579D02*
X0181260Y0250579D01*
X0181266Y0250541D02*
X0182070Y0250541D01*
X0182066Y0250503D02*
X0181261Y0250503D01*
X0181254Y0250466D02*
X0182063Y0250466D01*
X0182059Y0250428D02*
X0181247Y0250428D01*
X0181239Y0250390D02*
X0182055Y0250390D01*
X0182052Y0250352D02*
X0181232Y0250352D01*
X0181223Y0250314D02*
X0182048Y0250314D01*
X0182044Y0250276D02*
X0181196Y0250276D01*
X0181170Y0250238D02*
X0182036Y0250238D01*
X0182024Y0250200D02*
X0181144Y0250200D01*
X0181117Y0250163D02*
X0182011Y0250163D01*
X0181999Y0250125D02*
X0181075Y0250125D01*
X0181011Y0250087D02*
X0181986Y0250087D01*
X0181974Y0250049D02*
X0180947Y0250049D01*
X0180824Y0250011D02*
X0181961Y0250011D01*
X0181460Y0249481D02*
X0179206Y0249481D01*
X0179206Y0249443D02*
X0181385Y0249443D01*
X0181291Y0249405D02*
X0179206Y0249405D01*
X0179206Y0249367D02*
X0181197Y0249367D01*
X0181038Y0249329D02*
X0179206Y0249329D01*
X0179206Y0249291D02*
X0180784Y0249291D01*
X0180003Y0249253D02*
X0179206Y0249253D01*
X0179206Y0249216D02*
X0180003Y0249216D01*
X0180003Y0249178D02*
X0179206Y0249178D01*
X0179206Y0249140D02*
X0180003Y0249140D01*
X0180003Y0249102D02*
X0179206Y0249102D01*
X0179206Y0249064D02*
X0180003Y0249064D01*
X0180003Y0249026D02*
X0179206Y0249026D01*
X0179206Y0248988D02*
X0180003Y0248988D01*
X0180003Y0248950D02*
X0179206Y0248950D01*
X0179206Y0248912D02*
X0180003Y0248912D01*
X0180003Y0248875D02*
X0179206Y0248875D01*
X0179206Y0248837D02*
X0180003Y0248837D01*
X0180003Y0248799D02*
X0179206Y0248799D01*
X0179206Y0248761D02*
X0180003Y0248761D01*
X0180003Y0248723D02*
X0179206Y0248723D01*
X0179206Y0248685D02*
X0180003Y0248685D01*
X0180003Y0248647D02*
X0179206Y0248647D01*
X0179206Y0248609D02*
X0180003Y0248609D01*
X0180003Y0248572D02*
X0179206Y0248572D01*
X0179206Y0248534D02*
X0180003Y0248534D01*
X0180003Y0248496D02*
X0179206Y0248496D01*
X0179206Y0248458D02*
X0180003Y0248458D01*
X0180003Y0248420D02*
X0179206Y0248420D01*
X0179206Y0248382D02*
X0180003Y0248382D01*
X0180003Y0248344D02*
X0179206Y0248344D01*
X0179206Y0248306D02*
X0180003Y0248306D01*
X0180003Y0248268D02*
X0179206Y0248268D01*
X0179206Y0248231D02*
X0180003Y0248231D01*
X0178418Y0248772D02*
X0178491Y0248996D01*
X0178515Y0249249D01*
X0178515Y0249271D01*
X0178497Y0249492D01*
X0178440Y0249679D01*
X0178346Y0249838D01*
X0178215Y0249976D01*
X0177854Y0250192D01*
X0177362Y0250354D01*
X0176976Y0250462D01*
X0176736Y0250559D01*
X0176614Y0250675D01*
X0176582Y0250829D01*
X0176582Y0250840D01*
X0176593Y0250888D01*
X0175805Y0250888D01*
X0175794Y0250767D01*
X0175794Y0250756D01*
X0175815Y0250509D01*
X0175880Y0250305D01*
X0175983Y0250139D01*
X0176120Y0250003D01*
X0176498Y0249798D01*
X0176998Y0249646D01*
X0177368Y0249538D01*
X0177592Y0249436D01*
X0177700Y0249325D01*
X0177729Y0249187D01*
X0177729Y0249177D01*
X0177695Y0249033D01*
X0177592Y0248925D01*
X0177427Y0248857D01*
X0177206Y0248834D01*
X0176907Y0248864D01*
X0176633Y0248952D01*
X0176375Y0249092D01*
X0176123Y0249274D01*
X0175653Y0248709D01*
X0175997Y0248452D01*
X0176377Y0248272D01*
X0176779Y0248165D01*
X0177189Y0248129D01*
X0177471Y0248148D01*
X0177727Y0248205D01*
X0177952Y0248296D01*
X0178145Y0248420D01*
X0178301Y0248580D01*
X0178418Y0248772D01*
X0178411Y0248761D02*
X0175696Y0248761D01*
X0175728Y0248799D02*
X0178427Y0248799D01*
X0178439Y0248837D02*
X0177235Y0248837D01*
X0177175Y0248837D02*
X0175759Y0248837D01*
X0175791Y0248875D02*
X0176873Y0248875D01*
X0176756Y0248912D02*
X0175822Y0248912D01*
X0175854Y0248950D02*
X0176640Y0248950D01*
X0176567Y0248988D02*
X0175885Y0248988D01*
X0175917Y0249026D02*
X0176497Y0249026D01*
X0176427Y0249064D02*
X0175948Y0249064D01*
X0175980Y0249102D02*
X0176361Y0249102D01*
X0176309Y0249140D02*
X0176011Y0249140D01*
X0176043Y0249178D02*
X0176256Y0249178D01*
X0176204Y0249216D02*
X0176074Y0249216D01*
X0176106Y0249253D02*
X0176151Y0249253D01*
X0176454Y0249822D02*
X0178355Y0249822D01*
X0178378Y0249784D02*
X0176544Y0249784D01*
X0176669Y0249746D02*
X0178400Y0249746D01*
X0178422Y0249708D02*
X0176794Y0249708D01*
X0176919Y0249670D02*
X0178442Y0249670D01*
X0178454Y0249632D02*
X0177046Y0249632D01*
X0177176Y0249594D02*
X0178465Y0249594D01*
X0178477Y0249556D02*
X0177305Y0249556D01*
X0177411Y0249519D02*
X0178488Y0249519D01*
X0178498Y0249481D02*
X0177493Y0249481D01*
X0177576Y0249443D02*
X0178501Y0249443D01*
X0178504Y0249405D02*
X0177622Y0249405D01*
X0177659Y0249367D02*
X0178507Y0249367D01*
X0178510Y0249329D02*
X0177696Y0249329D01*
X0177707Y0249291D02*
X0178513Y0249291D01*
X0178515Y0249253D02*
X0177715Y0249253D01*
X0177723Y0249216D02*
X0178512Y0249216D01*
X0178508Y0249178D02*
X0177729Y0249178D01*
X0177721Y0249140D02*
X0178505Y0249140D01*
X0178501Y0249102D02*
X0177712Y0249102D01*
X0177702Y0249064D02*
X0178497Y0249064D01*
X0178494Y0249026D02*
X0177689Y0249026D01*
X0177652Y0248988D02*
X0178488Y0248988D01*
X0178476Y0248950D02*
X0177616Y0248950D01*
X0177560Y0248912D02*
X0178464Y0248912D01*
X0178451Y0248875D02*
X0177469Y0248875D01*
X0177674Y0248193D02*
X0176675Y0248193D01*
X0176532Y0248231D02*
X0177791Y0248231D01*
X0177884Y0248268D02*
X0176390Y0248268D01*
X0176304Y0248306D02*
X0177968Y0248306D01*
X0178027Y0248344D02*
X0176224Y0248344D01*
X0176145Y0248382D02*
X0178086Y0248382D01*
X0178144Y0248420D02*
X0176065Y0248420D01*
X0175989Y0248458D02*
X0178182Y0248458D01*
X0178219Y0248496D02*
X0175939Y0248496D01*
X0175888Y0248534D02*
X0178256Y0248534D01*
X0178293Y0248572D02*
X0175837Y0248572D01*
X0175787Y0248609D02*
X0178319Y0248609D01*
X0178342Y0248647D02*
X0175736Y0248647D01*
X0175685Y0248685D02*
X0178365Y0248685D01*
X0178388Y0248723D02*
X0175665Y0248723D01*
X0174527Y0248723D02*
X0173833Y0248723D01*
X0173833Y0248685D02*
X0174527Y0248685D01*
X0174527Y0248647D02*
X0173833Y0248647D01*
X0173833Y0248609D02*
X0174527Y0248609D01*
X0174527Y0248572D02*
X0173833Y0248572D01*
X0173833Y0248534D02*
X0174527Y0248534D01*
X0174527Y0248496D02*
X0173833Y0248496D01*
X0173833Y0248458D02*
X0174527Y0248458D01*
X0174527Y0248420D02*
X0173833Y0248420D01*
X0173833Y0248382D02*
X0174527Y0248382D01*
X0174527Y0248344D02*
X0173833Y0248344D01*
X0173833Y0248306D02*
X0174527Y0248306D01*
X0174527Y0248268D02*
X0173833Y0248268D01*
X0173833Y0248231D02*
X0174527Y0248231D01*
X0174527Y0248193D02*
X0173833Y0248193D01*
X0173833Y0248155D02*
X0174527Y0248155D01*
X0174527Y0248117D02*
X0173833Y0248117D01*
X0173833Y0248079D02*
X0174527Y0248079D01*
X0174527Y0248041D02*
X0173833Y0248041D01*
X0173833Y0248003D02*
X0174527Y0248003D01*
X0174527Y0247965D02*
X0173833Y0247965D01*
X0173833Y0247928D02*
X0174527Y0247928D01*
X0174527Y0247890D02*
X0173833Y0247890D01*
X0173833Y0247852D02*
X0174527Y0247852D01*
X0174527Y0247814D02*
X0173833Y0247814D01*
X0173833Y0247776D02*
X0174527Y0247776D01*
X0174527Y0247738D02*
X0173833Y0247738D01*
X0173833Y0247700D02*
X0174527Y0247700D01*
X0174527Y0247662D02*
X0173833Y0247662D01*
X0173833Y0247624D02*
X0174527Y0247624D01*
X0174527Y0247587D02*
X0173833Y0247587D01*
X0173833Y0247549D02*
X0174527Y0247549D01*
X0174527Y0247511D02*
X0173833Y0247511D01*
X0173833Y0247473D02*
X0174527Y0247473D01*
X0174527Y0247435D02*
X0173833Y0247435D01*
X0173833Y0247397D02*
X0174527Y0247397D01*
X0174527Y0247359D02*
X0173833Y0247359D01*
X0173833Y0247321D02*
X0174527Y0247321D01*
X0174527Y0247284D02*
X0173833Y0247284D01*
X0173833Y0247246D02*
X0174527Y0247246D01*
X0174527Y0247208D02*
X0173833Y0247208D01*
X0173833Y0247170D02*
X0174527Y0247170D01*
X0174527Y0247132D02*
X0173833Y0247132D01*
X0173833Y0247094D02*
X0174527Y0247094D01*
X0174527Y0247056D02*
X0173833Y0247056D01*
X0173833Y0247018D02*
X0174527Y0247018D01*
X0174527Y0246981D02*
X0173833Y0246981D01*
X0173833Y0248761D02*
X0174527Y0248761D01*
X0174527Y0248799D02*
X0173833Y0248799D01*
X0173833Y0248837D02*
X0174527Y0248837D01*
X0174527Y0248875D02*
X0173833Y0248875D01*
X0173833Y0248912D02*
X0174527Y0248912D01*
X0174527Y0248950D02*
X0173833Y0248950D01*
X0173833Y0248988D02*
X0174527Y0248988D01*
X0174527Y0249026D02*
X0173833Y0249026D01*
X0173833Y0249064D02*
X0174527Y0249064D01*
X0174527Y0249102D02*
X0173833Y0249102D01*
X0173833Y0249140D02*
X0174527Y0249140D01*
X0174527Y0249178D02*
X0173833Y0249178D01*
X0173833Y0249216D02*
X0174527Y0249216D01*
X0174527Y0249253D02*
X0173833Y0249253D01*
X0173833Y0249291D02*
X0174527Y0249291D01*
X0174527Y0249329D02*
X0173833Y0249329D01*
X0173833Y0249367D02*
X0174527Y0249367D01*
X0174527Y0249405D02*
X0173833Y0249405D01*
X0173833Y0249443D02*
X0174527Y0249443D01*
X0174527Y0249481D02*
X0173833Y0249481D01*
X0173833Y0249519D02*
X0174527Y0249519D01*
X0174527Y0249556D02*
X0173833Y0249556D01*
X0173833Y0249594D02*
X0174527Y0249594D01*
X0174527Y0249632D02*
X0173833Y0249632D01*
X0173833Y0249670D02*
X0174527Y0249670D01*
X0174527Y0249708D02*
X0173833Y0249708D01*
X0173833Y0249746D02*
X0174527Y0249746D01*
X0174527Y0249784D02*
X0173833Y0249784D01*
X0173833Y0249822D02*
X0174527Y0249822D01*
X0174527Y0249859D02*
X0173833Y0249859D01*
X0173833Y0249897D02*
X0174527Y0249897D01*
X0174527Y0249935D02*
X0173833Y0249935D01*
X0173833Y0249973D02*
X0174527Y0249973D01*
X0174527Y0250011D02*
X0173833Y0250011D01*
X0173833Y0250049D02*
X0174527Y0250049D01*
X0174527Y0250087D02*
X0173833Y0250087D01*
X0173833Y0250125D02*
X0174527Y0250125D01*
X0174527Y0250163D02*
X0173833Y0250163D01*
X0173833Y0250200D02*
X0174527Y0250200D01*
X0174527Y0250238D02*
X0173833Y0250238D01*
X0173833Y0250276D02*
X0174527Y0250276D01*
X0174527Y0250314D02*
X0173833Y0250314D01*
X0173833Y0250352D02*
X0174527Y0250352D01*
X0174527Y0250390D02*
X0173833Y0250390D01*
X0173833Y0250428D02*
X0174527Y0250428D01*
X0174527Y0250466D02*
X0173833Y0250466D01*
X0173833Y0250503D02*
X0174527Y0250503D01*
X0174527Y0250541D02*
X0173833Y0250541D01*
X0173833Y0250579D02*
X0174527Y0250579D01*
X0174527Y0250617D02*
X0173833Y0250617D01*
X0173833Y0250655D02*
X0174527Y0250655D01*
X0174527Y0250693D02*
X0173833Y0250693D01*
X0173833Y0250731D02*
X0174527Y0250731D01*
X0174527Y0250769D02*
X0173833Y0250769D01*
X0173833Y0250807D02*
X0174527Y0250807D01*
X0174527Y0250844D02*
X0173833Y0250844D01*
X0173833Y0250882D02*
X0174527Y0250882D01*
X0174527Y0250920D02*
X0173833Y0250920D01*
X0173833Y0250958D02*
X0174527Y0250958D01*
X0174527Y0250996D02*
X0173833Y0250996D01*
X0173833Y0251034D02*
X0174527Y0251034D01*
X0174527Y0251072D02*
X0173833Y0251072D01*
X0173833Y0251110D02*
X0174527Y0251110D01*
X0174527Y0251147D02*
X0173833Y0251147D01*
X0173833Y0251185D02*
X0174527Y0251185D01*
X0174527Y0251223D02*
X0173833Y0251223D01*
X0173833Y0251261D02*
X0174527Y0251261D01*
X0174527Y0251299D02*
X0173833Y0251299D01*
X0173833Y0251337D02*
X0174527Y0251337D01*
X0174527Y0251375D02*
X0173833Y0251375D01*
X0173833Y0251413D02*
X0174527Y0251413D01*
X0174527Y0251451D02*
X0173833Y0251451D01*
X0173833Y0251488D02*
X0174527Y0251488D01*
X0174527Y0251526D02*
X0173833Y0251526D01*
X0173833Y0251564D02*
X0174527Y0251564D01*
X0174527Y0251602D02*
X0173833Y0251602D01*
X0173833Y0251640D02*
X0174527Y0251640D01*
X0174527Y0251678D02*
X0173833Y0251678D01*
X0173833Y0251716D02*
X0174527Y0251716D01*
X0174527Y0251754D02*
X0173833Y0251754D01*
X0173833Y0251791D02*
X0174527Y0251791D01*
X0174527Y0251829D02*
X0173833Y0251829D01*
X0173833Y0251867D02*
X0174527Y0251867D01*
X0174527Y0251905D02*
X0173833Y0251905D01*
X0173833Y0251943D02*
X0174527Y0251943D01*
X0174527Y0251981D02*
X0173833Y0251981D01*
X0173833Y0252019D02*
X0174527Y0252019D01*
X0174527Y0252057D02*
X0173833Y0252057D01*
X0173833Y0252095D02*
X0174527Y0252095D01*
X0174527Y0252132D02*
X0173833Y0252132D01*
X0173833Y0252170D02*
X0174527Y0252170D01*
X0174527Y0252208D02*
X0173833Y0252208D01*
X0173833Y0252246D02*
X0174527Y0252246D01*
X0174527Y0252284D02*
X0173833Y0252284D01*
X0173833Y0252322D02*
X0174527Y0252322D01*
X0174527Y0252360D02*
X0173833Y0252360D01*
X0173833Y0252398D02*
X0174527Y0252398D01*
X0174527Y0252435D02*
X0173833Y0252435D01*
X0173833Y0252473D02*
X0174527Y0252473D01*
X0174527Y0252511D02*
X0173833Y0252511D01*
X0173833Y0252549D02*
X0174527Y0252549D01*
X0174527Y0252587D02*
X0173833Y0252587D01*
X0173833Y0252625D02*
X0174527Y0252625D01*
X0174527Y0252663D02*
X0173833Y0252663D01*
X0173833Y0252701D02*
X0174527Y0252701D01*
X0174527Y0252738D02*
X0173833Y0252738D01*
X0173833Y0252776D02*
X0174527Y0252776D01*
X0174527Y0252814D02*
X0173833Y0252814D01*
X0173833Y0252852D02*
X0174527Y0252852D01*
X0174527Y0252890D02*
X0173833Y0252890D01*
X0173833Y0252928D02*
X0174527Y0252928D01*
X0174527Y0252966D02*
X0173833Y0252966D01*
X0173833Y0253004D02*
X0174527Y0253004D01*
X0174527Y0253042D02*
X0173833Y0253042D01*
X0173833Y0253079D02*
X0200833Y0253079D01*
X0200833Y0253042D02*
X0194802Y0253042D01*
X0194802Y0253004D02*
X0200833Y0253004D01*
X0200833Y0252966D02*
X0194802Y0252966D01*
X0194802Y0252928D02*
X0200833Y0252928D01*
X0200833Y0252890D02*
X0194802Y0252890D01*
X0194802Y0252852D02*
X0200833Y0252852D01*
X0200833Y0252814D02*
X0194802Y0252814D01*
X0194802Y0252776D02*
X0200833Y0252776D01*
X0200833Y0252738D02*
X0194802Y0252738D01*
X0194802Y0252701D02*
X0200833Y0252701D01*
X0200833Y0252663D02*
X0194802Y0252663D01*
X0194802Y0252625D02*
X0200833Y0252625D01*
X0200833Y0252587D02*
X0194802Y0252587D01*
X0194802Y0252549D02*
X0200833Y0252549D01*
X0200833Y0252511D02*
X0194802Y0252511D01*
X0194802Y0252473D02*
X0200833Y0252473D01*
X0200833Y0252435D02*
X0194802Y0252435D01*
X0194802Y0252398D02*
X0200833Y0252398D01*
X0200833Y0252360D02*
X0194802Y0252360D01*
X0194802Y0252322D02*
X0200833Y0252322D01*
X0200833Y0252284D02*
X0194802Y0252284D01*
X0194802Y0252246D02*
X0200833Y0252246D01*
X0200833Y0252208D02*
X0194802Y0252208D01*
X0194802Y0252170D02*
X0200833Y0252170D01*
X0200833Y0252132D02*
X0194802Y0252132D01*
X0194802Y0252095D02*
X0200833Y0252095D01*
X0200833Y0252057D02*
X0194802Y0252057D01*
X0194802Y0252019D02*
X0200833Y0252019D01*
X0200833Y0251981D02*
X0194802Y0251981D01*
X0194802Y0251943D02*
X0200833Y0251943D01*
X0200833Y0251905D02*
X0194802Y0251905D01*
X0194802Y0251867D02*
X0200833Y0251867D01*
X0200833Y0253117D02*
X0173833Y0253117D01*
X0173833Y0253155D02*
X0200833Y0253155D01*
X0200833Y0253193D02*
X0173833Y0253193D01*
X0173833Y0253231D02*
X0200833Y0253231D01*
X0200833Y0253269D02*
X0173833Y0253269D01*
X0173833Y0253307D02*
X0200833Y0253307D01*
X0200833Y0253345D02*
X0173833Y0253345D01*
X0173833Y0253382D02*
X0200833Y0253382D01*
X0200833Y0253420D02*
X0173833Y0253420D01*
X0173833Y0253458D02*
X0200833Y0253458D01*
X0200833Y0253496D02*
X0173833Y0253496D01*
X0173833Y0253534D02*
X0200833Y0253534D01*
X0200833Y0253572D02*
X0173833Y0253572D01*
X0173833Y0253610D02*
X0200833Y0253610D01*
X0200833Y0253648D02*
X0173833Y0253648D01*
X0173833Y0253686D02*
X0200833Y0253686D01*
X0200833Y0253723D02*
X0173833Y0253723D01*
X0176145Y0251558D02*
X0175997Y0251399D01*
X0175885Y0251215D01*
X0175816Y0251004D01*
X0175805Y0250888D01*
X0176593Y0250888D01*
X0176611Y0250963D01*
X0176698Y0251064D01*
X0176844Y0251132D01*
X0177046Y0251156D01*
X0177279Y0251132D01*
X0177511Y0251061D01*
X0177825Y0250888D01*
X0177986Y0250799D01*
X0178047Y0250888D01*
X0177825Y0250888D01*
X0178047Y0250888D01*
X0178399Y0251399D01*
X0178106Y0251595D01*
X0177786Y0251739D01*
X0177437Y0251828D01*
X0177054Y0251858D01*
X0176787Y0251838D01*
X0176544Y0251779D01*
X0176328Y0251685D01*
X0176145Y0251558D01*
X0176154Y0251564D02*
X0178152Y0251564D01*
X0178208Y0251526D02*
X0176115Y0251526D01*
X0176080Y0251488D02*
X0178265Y0251488D01*
X0178322Y0251451D02*
X0176044Y0251451D01*
X0176009Y0251413D02*
X0178378Y0251413D01*
X0178383Y0251375D02*
X0175982Y0251375D01*
X0175959Y0251337D02*
X0178356Y0251337D01*
X0178330Y0251299D02*
X0175936Y0251299D01*
X0175913Y0251261D02*
X0178304Y0251261D01*
X0178278Y0251223D02*
X0175890Y0251223D01*
X0175876Y0251185D02*
X0178252Y0251185D01*
X0178226Y0251147D02*
X0177125Y0251147D01*
X0176977Y0251147D02*
X0175863Y0251147D01*
X0175851Y0251110D02*
X0176796Y0251110D01*
X0176715Y0251072D02*
X0175838Y0251072D01*
X0175826Y0251034D02*
X0176672Y0251034D01*
X0176639Y0250996D02*
X0175815Y0250996D01*
X0175812Y0250958D02*
X0176610Y0250958D01*
X0176601Y0250920D02*
X0175808Y0250920D01*
X0175804Y0250882D02*
X0176592Y0250882D01*
X0176583Y0250844D02*
X0175801Y0250844D01*
X0175797Y0250807D02*
X0176587Y0250807D01*
X0176595Y0250769D02*
X0175794Y0250769D01*
X0175796Y0250731D02*
X0176603Y0250731D01*
X0176611Y0250693D02*
X0175799Y0250693D01*
X0175802Y0250655D02*
X0176635Y0250655D01*
X0176675Y0250617D02*
X0175806Y0250617D01*
X0175809Y0250579D02*
X0176715Y0250579D01*
X0176779Y0250541D02*
X0175813Y0250541D01*
X0175817Y0250503D02*
X0176873Y0250503D01*
X0176966Y0250466D02*
X0175829Y0250466D01*
X0175841Y0250428D02*
X0177098Y0250428D01*
X0177233Y0250390D02*
X0175853Y0250390D01*
X0175865Y0250352D02*
X0177368Y0250352D01*
X0177482Y0250314D02*
X0175877Y0250314D01*
X0175898Y0250276D02*
X0177597Y0250276D01*
X0177712Y0250238D02*
X0175921Y0250238D01*
X0175945Y0250200D02*
X0177827Y0250200D01*
X0177902Y0250163D02*
X0175968Y0250163D01*
X0175997Y0250125D02*
X0177966Y0250125D01*
X0178029Y0250087D02*
X0176035Y0250087D01*
X0176073Y0250049D02*
X0178093Y0250049D01*
X0178156Y0250011D02*
X0176112Y0250011D01*
X0176175Y0249973D02*
X0178218Y0249973D01*
X0178254Y0249935D02*
X0176244Y0249935D01*
X0176314Y0249897D02*
X0178290Y0249897D01*
X0178326Y0249859D02*
X0176384Y0249859D01*
X0177351Y0251110D02*
X0178200Y0251110D01*
X0178174Y0251072D02*
X0177476Y0251072D01*
X0177560Y0251034D02*
X0178148Y0251034D01*
X0178121Y0250996D02*
X0177629Y0250996D01*
X0177698Y0250958D02*
X0178095Y0250958D01*
X0178069Y0250920D02*
X0177766Y0250920D01*
X0177835Y0250882D02*
X0178043Y0250882D01*
X0178017Y0250844D02*
X0177904Y0250844D01*
X0177973Y0250807D02*
X0177991Y0250807D01*
X0178090Y0251602D02*
X0176208Y0251602D01*
X0176263Y0251640D02*
X0178006Y0251640D01*
X0177922Y0251678D02*
X0176318Y0251678D01*
X0176399Y0251716D02*
X0177838Y0251716D01*
X0177728Y0251754D02*
X0176485Y0251754D01*
X0176595Y0251791D02*
X0177579Y0251791D01*
X0177415Y0251829D02*
X0176752Y0251829D01*
X0179206Y0251791D02*
X0180986Y0251791D01*
X0181145Y0251754D02*
X0179206Y0251754D01*
X0179206Y0251716D02*
X0181284Y0251716D01*
X0181365Y0251678D02*
X0179206Y0251678D01*
X0179206Y0251640D02*
X0181447Y0251640D01*
X0181520Y0251602D02*
X0179206Y0251602D01*
X0179206Y0251564D02*
X0181571Y0251564D01*
X0181622Y0251526D02*
X0179206Y0251526D01*
X0179206Y0251488D02*
X0181674Y0251488D01*
X0181717Y0251451D02*
X0179206Y0251451D01*
X0179206Y0251413D02*
X0181750Y0251413D01*
X0181783Y0251375D02*
X0179206Y0251375D01*
X0179206Y0251337D02*
X0181816Y0251337D01*
X0181850Y0251299D02*
X0179206Y0251299D01*
X0179206Y0251261D02*
X0181875Y0251261D01*
X0181896Y0251223D02*
X0179206Y0251223D01*
X0179206Y0251185D02*
X0181916Y0251185D01*
X0181937Y0251147D02*
X0179206Y0251147D01*
X0179206Y0251110D02*
X0181957Y0251110D01*
X0183498Y0250882D02*
X0185045Y0250882D01*
X0185028Y0250920D02*
X0183514Y0250920D01*
X0183530Y0250958D02*
X0185012Y0250958D01*
X0184996Y0250996D02*
X0183547Y0250996D01*
X0183563Y0251034D02*
X0184980Y0251034D01*
X0184964Y0251072D02*
X0183579Y0251072D01*
X0183595Y0251110D02*
X0184948Y0251110D01*
X0184932Y0251147D02*
X0183611Y0251147D01*
X0183627Y0251185D02*
X0184916Y0251185D01*
X0184899Y0251223D02*
X0183643Y0251223D01*
X0183660Y0251261D02*
X0184883Y0251261D01*
X0184867Y0251299D02*
X0183676Y0251299D01*
X0183692Y0251337D02*
X0184851Y0251337D01*
X0184835Y0251375D02*
X0183708Y0251375D01*
X0183724Y0251413D02*
X0184819Y0251413D01*
X0184803Y0251451D02*
X0183740Y0251451D01*
X0183756Y0251488D02*
X0184787Y0251488D01*
X0184771Y0251526D02*
X0183772Y0251526D01*
X0183789Y0251564D02*
X0184754Y0251564D01*
X0184738Y0251602D02*
X0183805Y0251602D01*
X0183821Y0251640D02*
X0184722Y0251640D01*
X0184706Y0251678D02*
X0183837Y0251678D01*
X0183853Y0251716D02*
X0184690Y0251716D01*
X0184674Y0251754D02*
X0183869Y0251754D01*
X0183885Y0251791D02*
X0184658Y0251791D01*
X0184642Y0251829D02*
X0183902Y0251829D01*
X0186750Y0251791D02*
X0188676Y0251791D01*
X0188874Y0251754D02*
X0186750Y0251754D01*
X0186750Y0251716D02*
X0189015Y0251716D01*
X0189104Y0251678D02*
X0186750Y0251678D01*
X0186750Y0251640D02*
X0189194Y0251640D01*
X0189256Y0251602D02*
X0186750Y0251602D01*
X0186750Y0251564D02*
X0189311Y0251564D01*
X0189365Y0251526D02*
X0186750Y0251526D01*
X0186750Y0251488D02*
X0189417Y0251488D01*
X0189451Y0251451D02*
X0186750Y0251451D01*
X0186750Y0251413D02*
X0189485Y0251413D01*
X0189520Y0251375D02*
X0186750Y0251375D01*
X0186750Y0251337D02*
X0189554Y0251337D01*
X0189581Y0251299D02*
X0186750Y0251299D01*
X0186750Y0251261D02*
X0189602Y0251261D01*
X0189623Y0251223D02*
X0186750Y0251223D01*
X0186750Y0251185D02*
X0189643Y0251185D01*
X0189664Y0251147D02*
X0186750Y0251147D01*
X0186750Y0251110D02*
X0189684Y0251110D01*
X0189694Y0251072D02*
X0188493Y0251072D01*
X0188651Y0251034D02*
X0189705Y0251034D01*
X0189716Y0250996D02*
X0188729Y0250996D01*
X0188802Y0250958D02*
X0189727Y0250958D01*
X0189737Y0250920D02*
X0188831Y0250920D01*
X0188860Y0250882D02*
X0189748Y0250882D01*
X0189752Y0250844D02*
X0188889Y0250844D01*
X0188918Y0250807D02*
X0189755Y0250807D01*
X0189758Y0250769D02*
X0188929Y0250769D01*
X0188936Y0250731D02*
X0189762Y0250731D01*
X0189765Y0250693D02*
X0188942Y0250693D01*
X0188949Y0250655D02*
X0189768Y0250655D01*
X0189771Y0250617D02*
X0188956Y0250617D01*
X0188963Y0250579D02*
X0189768Y0250579D01*
X0189763Y0250541D02*
X0188960Y0250541D01*
X0188953Y0250503D02*
X0189758Y0250503D01*
X0189753Y0250466D02*
X0188946Y0250466D01*
X0188939Y0250428D02*
X0189748Y0250428D01*
X0189742Y0250390D02*
X0188932Y0250390D01*
X0188923Y0250352D02*
X0189737Y0250352D01*
X0189732Y0250314D02*
X0188895Y0250314D01*
X0188868Y0250276D02*
X0189727Y0250276D01*
X0189722Y0250238D02*
X0188841Y0250238D01*
X0188814Y0250200D02*
X0189715Y0250200D01*
X0189696Y0250163D02*
X0188754Y0250163D01*
X0188684Y0250125D02*
X0189677Y0250125D01*
X0189658Y0250087D02*
X0188614Y0250087D01*
X0188994Y0249481D02*
X0186750Y0249481D01*
X0186750Y0249519D02*
X0189064Y0249519D01*
X0189135Y0249556D02*
X0186750Y0249556D01*
X0186750Y0249594D02*
X0189207Y0249594D01*
X0189278Y0249632D02*
X0186750Y0249632D01*
X0186750Y0249670D02*
X0189331Y0249670D01*
X0189370Y0249708D02*
X0186750Y0249708D01*
X0186750Y0249746D02*
X0189410Y0249746D01*
X0189449Y0249784D02*
X0186750Y0249784D01*
X0186750Y0249822D02*
X0189488Y0249822D01*
X0189527Y0249859D02*
X0186750Y0249859D01*
X0186750Y0249897D02*
X0189561Y0249897D01*
X0189580Y0249935D02*
X0186750Y0249935D01*
X0186750Y0249973D02*
X0189600Y0249973D01*
X0189619Y0250011D02*
X0186750Y0250011D01*
X0186750Y0250049D02*
X0189638Y0250049D01*
X0189020Y0249443D02*
X0186750Y0249443D01*
X0186750Y0249405D02*
X0189046Y0249405D01*
X0189072Y0249367D02*
X0186750Y0249367D01*
X0186750Y0250087D02*
X0187547Y0250087D01*
X0187547Y0250125D02*
X0186750Y0250125D01*
X0186750Y0250163D02*
X0187547Y0250163D01*
X0187547Y0250200D02*
X0186750Y0250200D01*
X0186750Y0250238D02*
X0187547Y0250238D01*
X0187547Y0250276D02*
X0186750Y0250276D01*
X0186750Y0250314D02*
X0187547Y0250314D01*
X0187547Y0250352D02*
X0186750Y0250352D01*
X0186750Y0250390D02*
X0187547Y0250390D01*
X0187547Y0250428D02*
X0186750Y0250428D01*
X0186750Y0250466D02*
X0187547Y0250466D01*
X0187547Y0250503D02*
X0186750Y0250503D01*
X0186750Y0250541D02*
X0187547Y0250541D01*
X0187547Y0250579D02*
X0186750Y0250579D01*
X0186750Y0250617D02*
X0187547Y0250617D01*
X0187547Y0250655D02*
X0186750Y0250655D01*
X0186750Y0250693D02*
X0187547Y0250693D01*
X0187547Y0250731D02*
X0186750Y0250731D01*
X0186750Y0250769D02*
X0187547Y0250769D01*
X0187547Y0250807D02*
X0186750Y0250807D01*
X0186750Y0250844D02*
X0187547Y0250844D01*
X0187547Y0250882D02*
X0186750Y0250882D01*
X0186750Y0250920D02*
X0187547Y0250920D01*
X0187547Y0250958D02*
X0186750Y0250958D01*
X0186750Y0250996D02*
X0187547Y0250996D01*
X0187547Y0251034D02*
X0186750Y0251034D01*
X0186750Y0251072D02*
X0187547Y0251072D01*
X0197081Y0251791D02*
X0198586Y0251791D01*
X0198562Y0251754D02*
X0197105Y0251754D01*
X0197130Y0251716D02*
X0198537Y0251716D01*
X0198512Y0251678D02*
X0197155Y0251678D01*
X0197179Y0251640D02*
X0198487Y0251640D01*
X0198463Y0251602D02*
X0197204Y0251602D01*
X0197228Y0251564D02*
X0198438Y0251564D01*
X0198413Y0251526D02*
X0197253Y0251526D01*
X0197277Y0251488D02*
X0198388Y0251488D01*
X0198364Y0251451D02*
X0197302Y0251451D01*
X0197326Y0251413D02*
X0198339Y0251413D01*
X0198314Y0251375D02*
X0197351Y0251375D01*
X0197376Y0251337D02*
X0198289Y0251337D01*
X0198265Y0251299D02*
X0197400Y0251299D01*
X0197425Y0251261D02*
X0198240Y0251261D01*
X0198215Y0251223D02*
X0197449Y0251223D01*
X0197474Y0251185D02*
X0198191Y0251185D01*
X0198166Y0251147D02*
X0197498Y0251147D01*
X0197523Y0251110D02*
X0198141Y0251110D01*
X0198116Y0251072D02*
X0197547Y0251072D01*
X0197572Y0251034D02*
X0198092Y0251034D01*
X0198067Y0250996D02*
X0197597Y0250996D01*
X0197621Y0250958D02*
X0198042Y0250958D01*
X0198017Y0250920D02*
X0197646Y0250920D01*
X0197670Y0250882D02*
X0197993Y0250882D01*
X0197968Y0250844D02*
X0197695Y0250844D01*
X0197719Y0250807D02*
X0197943Y0250807D01*
X0197919Y0250769D02*
X0197744Y0250769D01*
X0197769Y0250731D02*
X0197894Y0250731D01*
X0197869Y0250693D02*
X0197793Y0250693D01*
X0197818Y0250655D02*
X0197844Y0250655D01*
X0197823Y0249405D02*
X0197790Y0249405D01*
X0197765Y0249367D02*
X0197848Y0249367D01*
X0197873Y0249329D02*
X0197740Y0249329D01*
X0197715Y0249291D02*
X0197898Y0249291D01*
X0197922Y0249253D02*
X0197690Y0249253D01*
X0197665Y0249216D02*
X0197947Y0249216D01*
X0197972Y0249178D02*
X0197640Y0249178D01*
X0197615Y0249140D02*
X0197997Y0249140D01*
X0198022Y0249102D02*
X0197590Y0249102D01*
X0197565Y0249064D02*
X0198046Y0249064D01*
X0198071Y0249026D02*
X0197540Y0249026D01*
X0197515Y0248988D02*
X0198096Y0248988D01*
X0198121Y0248950D02*
X0197490Y0248950D01*
X0197466Y0248912D02*
X0198145Y0248912D01*
X0198170Y0248875D02*
X0197441Y0248875D01*
X0197416Y0248837D02*
X0198195Y0248837D01*
X0198220Y0248799D02*
X0197391Y0248799D01*
X0197366Y0248761D02*
X0198245Y0248761D01*
X0198269Y0248723D02*
X0197341Y0248723D01*
X0197316Y0248685D02*
X0198294Y0248685D01*
X0198319Y0248647D02*
X0197291Y0248647D01*
X0197266Y0248609D02*
X0198344Y0248609D01*
X0198369Y0248572D02*
X0197241Y0248572D01*
X0197216Y0248534D02*
X0198393Y0248534D01*
X0198418Y0248496D02*
X0197191Y0248496D01*
X0197166Y0248458D02*
X0198443Y0248458D01*
X0198468Y0248420D02*
X0197141Y0248420D01*
X0197116Y0248382D02*
X0198493Y0248382D01*
X0198517Y0248344D02*
X0197091Y0248344D01*
X0197066Y0248306D02*
X0198542Y0248306D01*
X0198567Y0248268D02*
X0197041Y0248268D01*
X0197016Y0248231D02*
X0198592Y0248231D01*
X0198616Y0248193D02*
X0196991Y0248193D01*
X0177504Y0248155D02*
X0176894Y0248155D01*
D12*
X0156955Y0181811D02*
X0150459Y0181811D01*
X0156955Y0181811D02*
X0156955Y0178858D01*
X0140223Y0175906D02*
X0140223Y0164094D01*
X0150459Y0158189D02*
X0156955Y0158189D01*
X0156955Y0161142D01*
X0279711Y0161142D02*
X0279711Y0158189D01*
X0286207Y0158189D01*
X0296444Y0164094D02*
X0296444Y0175906D01*
X0286207Y0181811D02*
X0279711Y0181811D01*
X0279711Y0178858D01*
D13*
X0276595Y0160157D02*
X0276597Y0160204D01*
X0276603Y0160250D01*
X0276612Y0160296D01*
X0276626Y0160340D01*
X0276643Y0160384D01*
X0276664Y0160425D01*
X0276688Y0160465D01*
X0276715Y0160503D01*
X0276746Y0160538D01*
X0276779Y0160571D01*
X0276815Y0160601D01*
X0276854Y0160627D01*
X0276894Y0160651D01*
X0276936Y0160670D01*
X0276980Y0160687D01*
X0277025Y0160699D01*
X0277071Y0160708D01*
X0277117Y0160713D01*
X0277164Y0160714D01*
X0277210Y0160711D01*
X0277256Y0160704D01*
X0277302Y0160693D01*
X0277346Y0160679D01*
X0277389Y0160661D01*
X0277430Y0160639D01*
X0277470Y0160614D01*
X0277507Y0160586D01*
X0277542Y0160555D01*
X0277574Y0160521D01*
X0277603Y0160484D01*
X0277628Y0160446D01*
X0277651Y0160405D01*
X0277670Y0160362D01*
X0277685Y0160318D01*
X0277697Y0160273D01*
X0277705Y0160227D01*
X0277709Y0160180D01*
X0277709Y0160134D01*
X0277705Y0160087D01*
X0277697Y0160041D01*
X0277685Y0159996D01*
X0277670Y0159952D01*
X0277651Y0159909D01*
X0277628Y0159868D01*
X0277603Y0159830D01*
X0277574Y0159793D01*
X0277542Y0159759D01*
X0277507Y0159728D01*
X0277470Y0159700D01*
X0277431Y0159675D01*
X0277389Y0159653D01*
X0277346Y0159635D01*
X0277302Y0159621D01*
X0277256Y0159610D01*
X0277210Y0159603D01*
X0277164Y0159600D01*
X0277117Y0159601D01*
X0277071Y0159606D01*
X0277025Y0159615D01*
X0276980Y0159627D01*
X0276936Y0159644D01*
X0276894Y0159663D01*
X0276854Y0159687D01*
X0276815Y0159713D01*
X0276779Y0159743D01*
X0276746Y0159776D01*
X0276715Y0159811D01*
X0276688Y0159849D01*
X0276664Y0159889D01*
X0276643Y0159930D01*
X0276626Y0159974D01*
X0276612Y0160018D01*
X0276603Y0160064D01*
X0276597Y0160110D01*
X0276595Y0160157D01*
X0158957Y0179843D02*
X0158959Y0179890D01*
X0158965Y0179936D01*
X0158974Y0179982D01*
X0158988Y0180026D01*
X0159005Y0180070D01*
X0159026Y0180111D01*
X0159050Y0180151D01*
X0159077Y0180189D01*
X0159108Y0180224D01*
X0159141Y0180257D01*
X0159177Y0180287D01*
X0159216Y0180313D01*
X0159256Y0180337D01*
X0159298Y0180356D01*
X0159342Y0180373D01*
X0159387Y0180385D01*
X0159433Y0180394D01*
X0159479Y0180399D01*
X0159526Y0180400D01*
X0159572Y0180397D01*
X0159618Y0180390D01*
X0159664Y0180379D01*
X0159708Y0180365D01*
X0159751Y0180347D01*
X0159792Y0180325D01*
X0159832Y0180300D01*
X0159869Y0180272D01*
X0159904Y0180241D01*
X0159936Y0180207D01*
X0159965Y0180170D01*
X0159990Y0180132D01*
X0160013Y0180091D01*
X0160032Y0180048D01*
X0160047Y0180004D01*
X0160059Y0179959D01*
X0160067Y0179913D01*
X0160071Y0179866D01*
X0160071Y0179820D01*
X0160067Y0179773D01*
X0160059Y0179727D01*
X0160047Y0179682D01*
X0160032Y0179638D01*
X0160013Y0179595D01*
X0159990Y0179554D01*
X0159965Y0179516D01*
X0159936Y0179479D01*
X0159904Y0179445D01*
X0159869Y0179414D01*
X0159832Y0179386D01*
X0159793Y0179361D01*
X0159751Y0179339D01*
X0159708Y0179321D01*
X0159664Y0179307D01*
X0159618Y0179296D01*
X0159572Y0179289D01*
X0159526Y0179286D01*
X0159479Y0179287D01*
X0159433Y0179292D01*
X0159387Y0179301D01*
X0159342Y0179313D01*
X0159298Y0179330D01*
X0159256Y0179349D01*
X0159216Y0179373D01*
X0159177Y0179399D01*
X0159141Y0179429D01*
X0159108Y0179462D01*
X0159077Y0179497D01*
X0159050Y0179535D01*
X0159026Y0179575D01*
X0159005Y0179616D01*
X0158988Y0179660D01*
X0158974Y0179704D01*
X0158965Y0179750D01*
X0158959Y0179796D01*
X0158957Y0179843D01*
D14*
X0186280Y0189370D02*
X0186282Y0189437D01*
X0186288Y0189505D01*
X0186298Y0189571D01*
X0186312Y0189637D01*
X0186329Y0189702D01*
X0186351Y0189766D01*
X0186376Y0189829D01*
X0186404Y0189890D01*
X0186437Y0189949D01*
X0186472Y0190006D01*
X0186511Y0190061D01*
X0186553Y0190114D01*
X0186599Y0190164D01*
X0186647Y0190211D01*
X0186697Y0190255D01*
X0186750Y0190297D01*
X0186806Y0190335D01*
X0186864Y0190370D01*
X0186923Y0190401D01*
X0186985Y0190429D01*
X0187048Y0190453D01*
X0187112Y0190474D01*
X0187177Y0190490D01*
X0187243Y0190503D01*
X0187310Y0190512D01*
X0187377Y0190517D01*
X0187445Y0190518D01*
X0187512Y0190515D01*
X0187579Y0190508D01*
X0187646Y0190497D01*
X0187712Y0190482D01*
X0187776Y0190464D01*
X0187840Y0190442D01*
X0187902Y0190416D01*
X0187963Y0190386D01*
X0188021Y0190353D01*
X0188078Y0190316D01*
X0188132Y0190276D01*
X0188184Y0190234D01*
X0188234Y0190188D01*
X0188280Y0190139D01*
X0188324Y0190088D01*
X0188365Y0190034D01*
X0188402Y0189978D01*
X0188436Y0189920D01*
X0188466Y0189859D01*
X0188493Y0189798D01*
X0188517Y0189734D01*
X0188536Y0189670D01*
X0188552Y0189604D01*
X0188564Y0189538D01*
X0188572Y0189471D01*
X0188576Y0189404D01*
X0188576Y0189336D01*
X0188572Y0189269D01*
X0188564Y0189202D01*
X0188552Y0189136D01*
X0188536Y0189070D01*
X0188517Y0189006D01*
X0188493Y0188942D01*
X0188466Y0188881D01*
X0188436Y0188820D01*
X0188402Y0188762D01*
X0188365Y0188706D01*
X0188324Y0188652D01*
X0188280Y0188601D01*
X0188234Y0188552D01*
X0188184Y0188506D01*
X0188132Y0188464D01*
X0188078Y0188424D01*
X0188021Y0188387D01*
X0187963Y0188354D01*
X0187902Y0188324D01*
X0187840Y0188298D01*
X0187776Y0188276D01*
X0187712Y0188258D01*
X0187646Y0188243D01*
X0187579Y0188232D01*
X0187512Y0188225D01*
X0187445Y0188222D01*
X0187377Y0188223D01*
X0187310Y0188228D01*
X0187243Y0188237D01*
X0187177Y0188250D01*
X0187112Y0188266D01*
X0187048Y0188287D01*
X0186985Y0188311D01*
X0186923Y0188339D01*
X0186864Y0188370D01*
X0186806Y0188405D01*
X0186750Y0188443D01*
X0186697Y0188485D01*
X0186647Y0188529D01*
X0186599Y0188576D01*
X0186553Y0188626D01*
X0186511Y0188679D01*
X0186472Y0188734D01*
X0186437Y0188791D01*
X0186404Y0188850D01*
X0186376Y0188911D01*
X0186351Y0188974D01*
X0186329Y0189038D01*
X0186312Y0189103D01*
X0186298Y0189169D01*
X0186288Y0189235D01*
X0186282Y0189303D01*
X0186280Y0189370D01*
X0192546Y0200000D02*
X0192546Y0149213D01*
X0243333Y0149213D01*
X0243333Y0200000D01*
X0192546Y0200000D01*
X0239357Y0118937D02*
X0239361Y0119246D01*
X0239372Y0119555D01*
X0239391Y0119864D01*
X0239418Y0120172D01*
X0239452Y0120479D01*
X0239493Y0120786D01*
X0239542Y0121091D01*
X0239599Y0121395D01*
X0239663Y0121697D01*
X0239735Y0121998D01*
X0239813Y0122297D01*
X0239899Y0122594D01*
X0239993Y0122889D01*
X0240093Y0123181D01*
X0240201Y0123471D01*
X0240316Y0123758D01*
X0240438Y0124042D01*
X0240567Y0124323D01*
X0240702Y0124601D01*
X0240845Y0124876D01*
X0240994Y0125147D01*
X0241149Y0125414D01*
X0241312Y0125677D01*
X0241480Y0125936D01*
X0241655Y0126191D01*
X0241836Y0126442D01*
X0242023Y0126688D01*
X0242217Y0126929D01*
X0242416Y0127166D01*
X0242620Y0127397D01*
X0242831Y0127624D01*
X0243047Y0127845D01*
X0243268Y0128061D01*
X0243495Y0128272D01*
X0243726Y0128476D01*
X0243963Y0128675D01*
X0244204Y0128869D01*
X0244450Y0129056D01*
X0244701Y0129237D01*
X0244956Y0129412D01*
X0245215Y0129580D01*
X0245478Y0129743D01*
X0245745Y0129898D01*
X0246016Y0130047D01*
X0246291Y0130190D01*
X0246569Y0130325D01*
X0246850Y0130454D01*
X0247134Y0130576D01*
X0247421Y0130691D01*
X0247711Y0130799D01*
X0248003Y0130899D01*
X0248298Y0130993D01*
X0248595Y0131079D01*
X0248894Y0131157D01*
X0249195Y0131229D01*
X0249497Y0131293D01*
X0249801Y0131350D01*
X0250106Y0131399D01*
X0250413Y0131440D01*
X0250720Y0131474D01*
X0251028Y0131501D01*
X0251337Y0131520D01*
X0251646Y0131531D01*
X0251955Y0131535D01*
X0252264Y0131531D01*
X0252573Y0131520D01*
X0252882Y0131501D01*
X0253190Y0131474D01*
X0253497Y0131440D01*
X0253804Y0131399D01*
X0254109Y0131350D01*
X0254413Y0131293D01*
X0254715Y0131229D01*
X0255016Y0131157D01*
X0255315Y0131079D01*
X0255612Y0130993D01*
X0255907Y0130899D01*
X0256199Y0130799D01*
X0256489Y0130691D01*
X0256776Y0130576D01*
X0257060Y0130454D01*
X0257341Y0130325D01*
X0257619Y0130190D01*
X0257894Y0130047D01*
X0258165Y0129898D01*
X0258432Y0129743D01*
X0258695Y0129580D01*
X0258954Y0129412D01*
X0259209Y0129237D01*
X0259460Y0129056D01*
X0259706Y0128869D01*
X0259947Y0128675D01*
X0260184Y0128476D01*
X0260415Y0128272D01*
X0260642Y0128061D01*
X0260863Y0127845D01*
X0261079Y0127624D01*
X0261290Y0127397D01*
X0261494Y0127166D01*
X0261693Y0126929D01*
X0261887Y0126688D01*
X0262074Y0126442D01*
X0262255Y0126191D01*
X0262430Y0125936D01*
X0262598Y0125677D01*
X0262761Y0125414D01*
X0262916Y0125147D01*
X0263065Y0124876D01*
X0263208Y0124601D01*
X0263343Y0124323D01*
X0263472Y0124042D01*
X0263594Y0123758D01*
X0263709Y0123471D01*
X0263817Y0123181D01*
X0263917Y0122889D01*
X0264011Y0122594D01*
X0264097Y0122297D01*
X0264175Y0121998D01*
X0264247Y0121697D01*
X0264311Y0121395D01*
X0264368Y0121091D01*
X0264417Y0120786D01*
X0264458Y0120479D01*
X0264492Y0120172D01*
X0264519Y0119864D01*
X0264538Y0119555D01*
X0264549Y0119246D01*
X0264553Y0118937D01*
X0264549Y0118628D01*
X0264538Y0118319D01*
X0264519Y0118010D01*
X0264492Y0117702D01*
X0264458Y0117395D01*
X0264417Y0117088D01*
X0264368Y0116783D01*
X0264311Y0116479D01*
X0264247Y0116177D01*
X0264175Y0115876D01*
X0264097Y0115577D01*
X0264011Y0115280D01*
X0263917Y0114985D01*
X0263817Y0114693D01*
X0263709Y0114403D01*
X0263594Y0114116D01*
X0263472Y0113832D01*
X0263343Y0113551D01*
X0263208Y0113273D01*
X0263065Y0112998D01*
X0262916Y0112727D01*
X0262761Y0112460D01*
X0262598Y0112197D01*
X0262430Y0111938D01*
X0262255Y0111683D01*
X0262074Y0111432D01*
X0261887Y0111186D01*
X0261693Y0110945D01*
X0261494Y0110708D01*
X0261290Y0110477D01*
X0261079Y0110250D01*
X0260863Y0110029D01*
X0260642Y0109813D01*
X0260415Y0109602D01*
X0260184Y0109398D01*
X0259947Y0109199D01*
X0259706Y0109005D01*
X0259460Y0108818D01*
X0259209Y0108637D01*
X0258954Y0108462D01*
X0258695Y0108294D01*
X0258432Y0108131D01*
X0258165Y0107976D01*
X0257894Y0107827D01*
X0257619Y0107684D01*
X0257341Y0107549D01*
X0257060Y0107420D01*
X0256776Y0107298D01*
X0256489Y0107183D01*
X0256199Y0107075D01*
X0255907Y0106975D01*
X0255612Y0106881D01*
X0255315Y0106795D01*
X0255016Y0106717D01*
X0254715Y0106645D01*
X0254413Y0106581D01*
X0254109Y0106524D01*
X0253804Y0106475D01*
X0253497Y0106434D01*
X0253190Y0106400D01*
X0252882Y0106373D01*
X0252573Y0106354D01*
X0252264Y0106343D01*
X0251955Y0106339D01*
X0251646Y0106343D01*
X0251337Y0106354D01*
X0251028Y0106373D01*
X0250720Y0106400D01*
X0250413Y0106434D01*
X0250106Y0106475D01*
X0249801Y0106524D01*
X0249497Y0106581D01*
X0249195Y0106645D01*
X0248894Y0106717D01*
X0248595Y0106795D01*
X0248298Y0106881D01*
X0248003Y0106975D01*
X0247711Y0107075D01*
X0247421Y0107183D01*
X0247134Y0107298D01*
X0246850Y0107420D01*
X0246569Y0107549D01*
X0246291Y0107684D01*
X0246016Y0107827D01*
X0245745Y0107976D01*
X0245478Y0108131D01*
X0245215Y0108294D01*
X0244956Y0108462D01*
X0244701Y0108637D01*
X0244450Y0108818D01*
X0244204Y0109005D01*
X0243963Y0109199D01*
X0243726Y0109398D01*
X0243495Y0109602D01*
X0243268Y0109813D01*
X0243047Y0110029D01*
X0242831Y0110250D01*
X0242620Y0110477D01*
X0242416Y0110708D01*
X0242217Y0110945D01*
X0242023Y0111186D01*
X0241836Y0111432D01*
X0241655Y0111683D01*
X0241480Y0111938D01*
X0241312Y0112197D01*
X0241149Y0112460D01*
X0240994Y0112727D01*
X0240845Y0112998D01*
X0240702Y0113273D01*
X0240567Y0113551D01*
X0240438Y0113832D01*
X0240316Y0114116D01*
X0240201Y0114403D01*
X0240093Y0114693D01*
X0239993Y0114985D01*
X0239899Y0115280D01*
X0239813Y0115577D01*
X0239735Y0115876D01*
X0239663Y0116177D01*
X0239599Y0116479D01*
X0239542Y0116783D01*
X0239493Y0117088D01*
X0239452Y0117395D01*
X0239418Y0117702D01*
X0239391Y0118010D01*
X0239372Y0118319D01*
X0239361Y0118628D01*
X0239357Y0118937D01*
M02*
