G75*
%MOIN*%
%OFA0B0*%
%FSLAX25Y25*%
%IPPOS*%
%LPD*%
%AMOC8*
5,1,8,0,0,1.08239X$1,22.5*
%
%ADD10C,0.00591*%
D10*
X0209698Y0245346D02*
X0208680Y0246364D01*
X0209890Y0247848D01*
X0209582Y0248446D01*
X0209377Y0249087D01*
X0207472Y0249280D01*
X0207472Y0250720D01*
X0209377Y0250913D01*
X0209582Y0251554D01*
X0209890Y0252152D01*
X0208680Y0253636D01*
X0209698Y0254654D01*
X0211182Y0253443D01*
X0211780Y0253751D01*
X0212420Y0253956D01*
X0212614Y0255861D01*
X0214053Y0255861D01*
X0214247Y0253956D01*
X0214887Y0253751D01*
X0215485Y0253443D01*
X0216969Y0254654D01*
X0217987Y0253636D01*
X0216777Y0252152D01*
X0217085Y0251554D01*
X0217290Y0250913D01*
X0219195Y0250720D01*
X0219195Y0249280D01*
X0217290Y0249087D01*
X0217085Y0248446D01*
X0216777Y0247848D01*
X0217987Y0246364D01*
X0216969Y0245346D01*
X0215485Y0246557D01*
X0214887Y0246249D01*
X0214040Y0248295D01*
X0214418Y0248507D01*
X0214737Y0248801D01*
X0214978Y0249162D01*
X0215128Y0249569D01*
X0215179Y0250000D01*
X0215126Y0250439D01*
X0214970Y0250852D01*
X0214721Y0251217D01*
X0214392Y0251511D01*
X0214002Y0251720D01*
X0213574Y0251829D01*
X0213133Y0251834D01*
X0212702Y0251734D01*
X0212308Y0251534D01*
X0211973Y0251246D01*
X0211716Y0250887D01*
X0211551Y0250477D01*
X0211489Y0250040D01*
X0211532Y0249600D01*
X0211678Y0249184D01*
X0211920Y0248814D01*
X0212242Y0248512D01*
X0212627Y0248295D01*
X0211779Y0246249D01*
X0211182Y0246557D01*
X0209698Y0245346D01*
X0209531Y0245512D02*
X0209901Y0245512D01*
X0210624Y0246102D02*
X0208942Y0246102D01*
X0208946Y0246691D02*
X0211962Y0246691D01*
X0212206Y0247280D02*
X0209426Y0247280D01*
X0209880Y0247869D02*
X0212451Y0247869D01*
X0212338Y0248458D02*
X0209578Y0248458D01*
X0209390Y0249047D02*
X0211768Y0249047D01*
X0211528Y0249636D02*
X0207472Y0249636D01*
X0207472Y0250225D02*
X0211515Y0250225D01*
X0211686Y0250814D02*
X0208400Y0250814D01*
X0209534Y0251403D02*
X0212156Y0251403D01*
X0214513Y0251403D02*
X0217133Y0251403D01*
X0216859Y0251992D02*
X0209808Y0251992D01*
X0209540Y0252581D02*
X0217127Y0252581D01*
X0217607Y0253170D02*
X0209059Y0253170D01*
X0208803Y0253759D02*
X0210794Y0253759D01*
X0210072Y0254348D02*
X0209392Y0254348D01*
X0211805Y0253759D02*
X0214862Y0253759D01*
X0214207Y0254348D02*
X0212460Y0254348D01*
X0212520Y0254937D02*
X0214147Y0254937D01*
X0214087Y0255527D02*
X0212580Y0255527D01*
X0215873Y0253759D02*
X0217863Y0253759D01*
X0217274Y0254348D02*
X0216595Y0254348D01*
X0214985Y0250814D02*
X0218266Y0250814D01*
X0219195Y0250225D02*
X0215152Y0250225D01*
X0215136Y0249636D02*
X0219195Y0249636D01*
X0217277Y0249047D02*
X0214901Y0249047D01*
X0214331Y0248458D02*
X0217088Y0248458D01*
X0216787Y0247869D02*
X0214216Y0247869D01*
X0214460Y0247280D02*
X0217240Y0247280D01*
X0217721Y0246691D02*
X0214704Y0246691D01*
X0216043Y0246102D02*
X0217724Y0246102D01*
X0217135Y0245512D02*
X0216766Y0245512D01*
M02*
